<svg width="763" height="190" viewBox="0 0 763 190" fill="none" xmlns="http://www.w3.org/2000/svg">
<g opacity="0.1">
<path d="M83.7533 97.9198C83.7533 94.1921 83.7533 91.3343 83.8776 86.4883H56.9142C56.9142 89.9674 57.1627 93.3223 57.1627 96.9257L57.0384 106.866C47.595 107.115 34.5482 102.269 34.5482 89.9674C34.5482 72.9445 58.281 62.3828 75.0554 60.1462L69.3397 35.7921C18.395 46.9751 5.22394 76.1751 5.22394 91.3343C5.22394 110.842 20.3831 127.741 56.5414 128.238C69.2154 128.362 80.8954 126.25 84.0018 125.38C84.0018 122.771 83.7533 111.712 83.7533 106.99V97.9198ZM116.462 130.226C119.195 124.386 123.668 114.694 124.662 112.955L162.063 110.842C163.306 112.955 169.643 124.013 173.246 130.102L197.849 115.564C192.63 108.481 159.205 55.9215 144.295 33.4313H143.052C130.999 52.4423 96.5807 110.718 92.8531 117.055L116.462 130.226ZM132.615 94.5649C135.845 87.6066 140.194 78.4117 143.176 72.4474C145.413 77.5419 150.135 86.364 153.614 93.4466L132.615 94.5649ZM223.536 130.102C225.772 124.262 234.719 92.204 236.831 85.7428C238.819 89.4704 251.866 110.594 261.434 125.007H262.676C271.995 111.961 287.9 87.4823 289.391 85.2457C290.758 88.6006 302.562 120.161 306.538 130.102L331.638 118.919C328.283 112.085 303.308 55.673 294.734 37.2832H293.491C286.906 47.9691 269.386 77.0449 264.54 84.376C260.688 78.0389 242.298 47.5964 234.719 35.2951H233.476C226.269 51.0755 201.17 116.061 199.057 121.031L223.536 130.102ZM401.331 106.121C395.491 106.618 376.729 106.369 373.498 106.369V91.5828C376.232 91.5828 392.758 92.0798 396.113 92.0798L395.74 72.1989C390.273 72.696 375.983 73.3172 373.498 73.3172V56.9155C375.735 56.9155 395.243 56.2942 399.84 56.2942L399.343 35.7921C394.746 36.1649 352.996 38.0287 346.038 38.0287C346.162 41.6321 346.411 71.5777 346.411 73.5657V90.216C346.411 93.0738 346.411 119.664 346.038 126.25C352.499 126.25 397.355 127.493 401.829 127.493L401.331 106.121ZM451.042 126.25C450.794 123.641 450.794 110.097 450.794 107.612V104.257C480.864 99.2866 495.899 81.7666 495.899 65.6134C495.899 51.5725 484.964 44.2415 472.539 41.1351C462.225 38.65 447.066 38.0287 423.333 38.0287C423.333 39.8925 423.706 65.6134 423.706 68.4713V82.1394C423.706 90.9615 423.458 120.907 423.333 126.25H451.042ZM450.794 55.4245C464.089 56.4185 467.693 62.1342 467.693 69.0925C467.693 79.4057 458.001 85.6185 450.794 86.7368V55.4245ZM512.032 38.0287C512.281 40.3896 512.529 71.5777 512.529 73.5657V90.0917C512.529 93.0738 512.529 119.664 512.157 126.25C522.097 126.25 565.214 127.493 568.196 127.493L568.071 104.381C558.131 104.878 543.469 104.878 540.487 104.878V82.1394C540.487 66.4832 540.984 40.8866 541.108 38.0287H512.032ZM595.403 130.226C598.136 124.386 602.61 114.694 603.604 112.955L641.004 110.842C642.247 112.955 648.584 124.013 652.187 130.102L676.79 115.564C671.571 108.481 638.147 55.9215 623.236 33.4313H621.993C609.941 52.4423 575.522 110.718 571.794 117.055L595.403 130.226ZM611.556 94.5649C614.787 87.6066 619.136 78.4117 622.118 72.4474C624.354 77.5419 629.076 86.364 632.555 93.4466L611.556 94.5649ZM726.382 126.25C726.134 123.765 725.761 112.706 725.761 110.967V102.89C725.761 88.7249 732.222 77.0449 739.678 70.9564C745.394 66.1104 752.973 62.7555 758.44 61.6372L750.612 36.0406C741.045 38.7742 733.216 43.496 727.252 49.2117C721.288 54.9274 716.318 61.513 713.584 69.8381H712.59C709.608 60.1462 705.135 53.6849 700.537 49.0874C694.2 42.7504 685.502 38.7742 677.177 36.0406L667.61 61.6372C671.586 62.7555 676.68 64.7436 681.651 68.0985C690.845 74.187 697.804 87.1096 697.804 103.139V108.606C697.804 110.221 697.307 123.392 697.182 126.25H726.382Z" fill="url(#paint0_linear_26_2)"/>
<g filter="url(#filter0_i_26_2)">
<path d="M83.7533 91.6698C83.7533 87.9421 83.7533 85.0843 83.8776 80.2383H56.9142C56.9142 83.7174 57.1627 87.0723 57.1627 90.6757L57.0384 100.616C47.595 100.865 34.5482 96.0187 34.5482 83.7174C34.5482 66.6945 58.281 56.1328 75.0554 53.8962L69.3397 29.5421C18.395 40.7251 5.22394 69.9251 5.22394 85.0843C5.22394 104.592 20.3831 121.491 56.5414 121.988C69.2154 122.112 80.8954 120 84.0018 119.13C84.0018 116.521 83.7533 105.462 83.7533 100.74V91.6698ZM116.462 123.976C119.195 118.136 123.668 108.444 124.662 106.705L162.063 104.592C163.306 106.705 169.643 117.763 173.246 123.852L197.849 109.314C192.63 102.231 159.205 49.6715 144.295 27.1813H143.052C130.999 46.1923 96.5807 104.468 92.8531 110.805L116.462 123.976ZM132.615 88.3149C135.845 81.3566 140.194 72.1617 143.176 66.1974C145.413 71.2919 150.135 80.114 153.614 87.1966L132.615 88.3149ZM223.536 123.852C225.772 118.012 234.719 85.954 236.831 79.4928C238.819 83.2204 251.866 104.344 261.434 118.757H262.676C271.995 105.711 287.9 81.2323 289.391 78.9957C290.758 82.3506 302.562 113.911 306.538 123.852L331.638 112.669C328.283 105.835 303.308 49.423 294.734 31.0332H293.491C286.906 41.7191 269.386 70.7949 264.54 78.126C260.688 71.7889 242.298 41.3464 234.719 29.0451H233.476C226.269 44.8255 201.17 109.811 199.057 114.781L223.536 123.852ZM401.331 99.8706C395.491 100.368 376.729 100.119 373.498 100.119V85.3328C376.232 85.3328 392.758 85.8298 396.113 85.8298L395.74 65.9489C390.273 66.446 375.983 67.0672 373.498 67.0672V50.6655C375.735 50.6655 395.243 50.0442 399.84 50.0442L399.343 29.5421C394.746 29.9149 352.996 31.7787 346.038 31.7787C346.162 35.3821 346.411 65.3277 346.411 67.3157V83.966C346.411 86.8238 346.411 113.414 346.038 120C352.499 120 397.355 121.243 401.829 121.243L401.331 99.8706ZM451.042 120C450.794 117.391 450.794 103.847 450.794 101.362V98.0068C480.864 93.0366 495.899 75.5166 495.899 59.3634C495.899 45.3225 484.964 37.9915 472.539 34.8851C462.225 32.4 447.066 31.7787 423.333 31.7787C423.333 33.6425 423.706 59.3634 423.706 62.2213V75.8894C423.706 84.7115 423.458 114.657 423.333 120H451.042ZM450.794 49.1745C464.089 50.1685 467.693 55.8842 467.693 62.8425C467.693 73.1557 458.001 79.3685 450.794 80.4868V49.1745ZM512.032 31.7787C512.281 34.1396 512.529 65.3277 512.529 67.3157V83.8417C512.529 86.8238 512.529 113.414 512.157 120C522.097 120 565.214 121.243 568.196 121.243L568.071 98.1311C558.131 98.6281 543.469 98.6281 540.487 98.6281V75.8894C540.487 60.2332 540.984 34.6366 541.108 31.7787H512.032ZM595.403 123.976C598.136 118.136 602.61 108.444 603.604 106.705L641.004 104.592C642.247 106.705 648.584 117.763 652.187 123.852L676.79 109.314C671.571 102.231 638.147 49.6715 623.236 27.1813H621.993C609.941 46.1923 575.522 104.468 571.794 110.805L595.403 123.976ZM611.556 88.3149C614.787 81.3566 619.136 72.1617 622.118 66.1974C624.354 71.2919 629.076 80.114 632.555 87.1966L611.556 88.3149ZM726.382 120C726.134 117.515 725.761 106.456 725.761 104.717V96.64C725.761 82.4749 732.222 70.7949 739.678 64.7064C745.394 59.8604 752.973 56.5055 758.44 55.3872L750.612 29.7906C741.045 32.5242 733.216 37.246 727.252 42.9617C721.288 48.6774 716.318 55.263 713.584 63.5881H712.59C709.608 53.8962 705.135 47.4349 700.537 42.8374C694.2 36.5004 685.502 32.5242 677.177 29.7906L667.61 55.3872C671.586 56.5055 676.68 58.4936 681.651 61.8485C690.845 67.937 697.804 80.8596 697.804 96.8885V102.356C697.804 103.971 697.307 117.142 697.182 120H726.382Z" fill="url(#paint1_linear_26_2)"/>
</g>
</g>
<path d="M143.303 97.3358C143.303 94.3537 143.303 92.0674 143.402 88.1906H121.831C121.831 90.974 122.03 93.6579 122.03 96.5406L121.931 104.493C114.376 104.692 103.939 100.815 103.939 90.974C103.939 77.3556 122.925 68.9062 136.344 67.1169L131.772 47.6337C91.016 56.5801 80.4791 79.9401 80.4791 92.0674C80.4791 107.674 92.6065 121.193 121.533 121.59C131.672 121.69 141.016 120 143.501 119.304C143.501 117.217 143.303 108.37 143.303 104.592V97.3358ZM169.469 123.181C171.656 118.509 175.235 110.755 176.03 109.364L205.951 107.674C206.945 109.364 212.014 118.211 214.897 123.082L234.579 111.451C230.404 105.785 203.664 63.7372 191.736 45.745H190.742C181.1 60.9539 153.565 107.574 150.582 112.644L169.469 123.181ZM182.392 94.6519C184.976 89.0853 188.455 81.7294 190.841 76.958C192.63 81.0335 196.408 88.0912 199.191 93.7573L182.392 94.6519ZM255.129 123.082C256.918 118.41 264.075 92.7632 265.765 87.5942C267.355 90.5763 277.793 107.475 285.447 119.006H286.441C293.896 108.569 306.62 88.9859 307.813 87.1966C308.906 89.8805 318.35 115.129 321.531 123.082L341.61 114.135C338.926 108.668 318.946 63.5384 312.087 48.8265H311.093C305.825 57.3753 291.809 80.6359 287.932 86.5008C284.85 81.4311 270.139 57.0771 264.075 47.2361H263.081C257.315 59.8604 237.236 111.849 235.546 115.825L255.129 123.082ZM397.365 103.897C392.693 104.294 377.683 104.095 375.099 104.095V92.2662C377.286 92.2662 390.506 92.6638 393.19 92.6638L392.892 76.7591C388.518 77.1568 377.087 77.6538 375.099 77.6538V64.5324C376.888 64.5324 392.494 64.0354 396.172 64.0354L395.775 47.6337C392.097 47.9319 358.697 49.423 353.13 49.423C353.23 52.3057 353.429 76.2621 353.429 77.8526V91.1728C353.429 93.4591 353.429 114.732 353.13 120C358.299 120 394.184 120.994 397.763 120.994L397.365 103.897ZM437.134 120C436.935 117.913 436.935 107.077 436.935 105.089V102.405C460.991 98.4293 473.019 84.4133 473.019 71.4907C473.019 60.258 464.271 54.3932 454.331 51.9081C446.08 49.92 433.953 49.423 414.967 49.423C414.967 50.914 415.265 71.4907 415.265 73.777V84.7115C415.265 91.7692 415.066 115.726 414.967 120H437.134ZM436.935 63.3396C447.571 64.1348 450.454 68.7074 450.454 74.274C450.454 82.5246 442.701 87.4948 436.935 88.3894V63.3396ZM485.926 49.423C486.125 51.3117 486.323 76.2621 486.323 77.8526V91.0734C486.323 93.4591 486.323 114.732 486.025 120C493.978 120 528.471 120.994 530.857 120.994L530.757 102.505C522.805 102.902 511.075 102.902 508.689 102.902V84.7115C508.689 72.1865 509.087 51.7093 509.186 49.423H485.926ZM552.622 123.181C554.809 118.509 558.388 110.755 559.183 109.364L589.104 107.674C590.098 109.364 595.167 118.211 598.05 123.082L617.732 111.451C613.557 105.785 586.817 63.7372 574.889 45.745H573.895C564.252 60.9539 536.718 107.574 533.735 112.644L552.622 123.181ZM565.545 94.6519C568.129 89.0853 571.608 81.7294 573.994 76.958C575.783 81.0335 579.561 88.0912 582.344 93.7573L565.545 94.6519ZM657.406 120C657.207 118.012 656.909 109.165 656.909 107.773V101.312C656.909 89.9799 662.078 80.6359 668.042 75.7651C672.615 71.8883 678.678 69.2044 683.052 68.3098L676.79 47.8325C669.136 50.0194 662.873 53.7968 658.102 58.3694C653.33 62.942 649.354 68.2104 647.167 74.8705H646.372C643.986 67.1169 640.408 61.9479 636.73 58.27C631.66 53.2003 624.702 50.0194 618.042 47.8325L610.388 68.3098C613.569 69.2044 617.644 70.7949 621.62 73.4788C628.976 78.3496 634.543 88.6877 634.543 101.511V105.885C634.543 107.177 634.145 117.714 634.046 120H657.406Z" fill="url(#paint2_linear_26_2)"/>
<g filter="url(#filter1_i_26_2)">
<path d="M143.303 92.3358C143.303 89.3537 143.303 87.0674 143.402 83.1906H121.831C121.831 85.974 122.03 88.6579 122.03 91.5406L121.931 99.4929C114.376 99.6917 103.939 95.815 103.939 85.974C103.939 72.3556 122.925 63.9062 136.344 62.1169L131.772 42.6337C91.016 51.5801 80.4791 74.9401 80.4791 87.0674C80.4791 102.674 92.6065 116.193 121.533 116.59C131.672 116.69 141.016 115 143.501 114.304C143.501 112.217 143.303 103.37 143.303 99.5923V92.3358ZM169.469 118.181C171.656 113.509 175.235 105.755 176.03 104.364L205.951 102.674C206.945 104.364 212.014 113.211 214.897 118.082L234.579 106.451C230.404 100.785 203.664 58.7372 191.736 40.745H190.742C181.1 55.9539 153.565 102.574 150.582 107.644L169.469 118.181ZM182.392 89.6519C184.976 84.0853 188.455 76.7294 190.841 71.958C192.63 76.0335 196.408 83.0912 199.191 88.7573L182.392 89.6519ZM255.129 118.082C256.918 113.41 264.075 87.7632 265.765 82.5942C267.355 85.5763 277.793 102.475 285.447 114.006H286.441C293.896 103.569 306.62 83.9859 307.813 82.1966C308.906 84.8805 318.35 110.129 321.531 118.082L341.61 109.135C338.926 103.668 318.946 58.5384 312.087 43.8265H311.093C305.825 52.3753 291.809 75.6359 287.932 81.5008C284.85 76.4311 270.139 52.0771 264.075 42.2361H263.081C257.315 54.8604 237.236 106.849 235.546 110.825L255.129 118.082ZM397.365 98.8965C392.693 99.2941 377.683 99.0953 375.099 99.0953V87.2662C377.286 87.2662 390.506 87.6638 393.19 87.6638L392.892 71.7591C388.518 72.1568 377.087 72.6538 375.099 72.6538V59.5324C376.888 59.5324 392.494 59.0354 396.172 59.0354L395.775 42.6337C392.097 42.9319 358.697 44.423 353.13 44.423C353.23 47.3057 353.429 71.2621 353.429 72.8526V86.1728C353.429 88.4591 353.429 109.732 353.13 115C358.299 115 394.184 115.994 397.763 115.994L397.365 98.8965ZM437.134 115C436.935 112.913 436.935 102.077 436.935 100.089V97.4054C460.991 93.4293 473.019 79.4133 473.019 66.4907C473.019 55.258 464.271 49.3932 454.331 46.9081C446.08 44.92 433.953 44.423 414.967 44.423C414.967 45.914 415.265 66.4907 415.265 68.777V79.7115C415.265 86.7692 415.066 110.726 414.967 115H437.134ZM436.935 58.3396C447.571 59.1348 450.454 63.7074 450.454 69.274C450.454 77.5246 442.701 82.4948 436.935 83.3894V58.3396ZM485.926 44.423C486.125 46.3117 486.323 71.2621 486.323 72.8526V86.0734C486.323 88.4591 486.323 109.732 486.025 115C493.978 115 528.471 115.994 530.857 115.994L530.757 97.5048C522.805 97.9025 511.075 97.9025 508.689 97.9025V79.7115C508.689 67.1865 509.087 46.7093 509.186 44.423H485.926ZM552.622 118.181C554.809 113.509 558.388 105.755 559.183 104.364L589.104 102.674C590.098 104.364 595.167 113.211 598.05 118.082L617.732 106.451C613.557 100.785 586.817 58.7372 574.889 40.745H573.895C564.252 55.9539 536.718 102.574 533.735 107.644L552.622 118.181ZM565.545 89.6519C568.129 84.0853 571.608 76.7294 573.994 71.958C575.783 76.0335 579.561 83.0912 582.344 88.7573L565.545 89.6519ZM657.406 115C657.207 113.012 656.909 104.165 656.909 102.773V96.312C656.909 84.9799 662.078 75.6359 668.042 70.7651C672.615 66.8883 678.678 64.2044 683.052 63.3098L676.79 42.8325C669.136 45.0194 662.873 48.7968 658.102 53.3694C653.33 57.942 649.354 63.2104 647.167 69.8705H646.372C643.986 62.1169 640.408 56.9479 636.73 53.27C631.66 48.2003 624.702 45.0194 618.042 42.8325L610.388 63.3098C613.569 64.2044 617.644 65.7949 621.62 68.4788C628.976 73.3496 634.543 83.6877 634.543 96.5108V100.885C634.543 102.177 634.145 112.714 634.046 115H657.406Z" fill="url(#paint3_linear_26_2)"/>
</g>
<defs>
<filter id="filter0_i_26_2" x="5.22394" y="27.1813" width="753.216" height="96.7949" filterUnits="userSpaceOnUse" color-interpolation-filters="sRGB">
<feFlood flood-opacity="0" result="BackgroundImageFix"/>
<feBlend mode="normal" in="SourceGraphic" in2="BackgroundImageFix" result="shape"/>
<feColorMatrix in="SourceAlpha" type="matrix" values="0 0 0 0 0 0 0 0 0 0 0 0 0 0 0 0 0 0 127 0" result="hardAlpha"/>
<feOffset dy="-2.5"/>
<feComposite in2="hardAlpha" operator="arithmetic" k2="-1" k3="1"/>
<feColorMatrix type="matrix" values="0 0 0 0 1 0 0 0 0 1 0 0 0 0 1 0 0 0 1 0"/>
<feBlend mode="normal" in2="shape" result="effect1_innerShadow_26_2"/>
</filter>
<filter id="filter1_i_26_2" x="80.4792" y="40.745" width="602.573" height="77.436" filterUnits="userSpaceOnUse" color-interpolation-filters="sRGB">
<feFlood flood-opacity="0" result="BackgroundImageFix"/>
<feBlend mode="normal" in="SourceGraphic" in2="BackgroundImageFix" result="shape"/>
<feColorMatrix in="SourceAlpha" type="matrix" values="0 0 0 0 0 0 0 0 0 0 0 0 0 0 0 0 0 0 127 0" result="hardAlpha"/>
<feOffset dy="-2"/>
<feComposite in2="hardAlpha" operator="arithmetic" k2="-1" k3="1"/>
<feColorMatrix type="matrix" values="0 0 0 0 1 0 0 0 0 1 0 0 0 0 1 0 0 0 1 0"/>
<feBlend mode="normal" in2="shape" result="effect1_innerShadow_26_2"/>
</filter>
<linearGradient id="paint0_linear_26_2" x1="14.7742" y1="6.24988" x2="794.924" y2="119.849" gradientUnits="userSpaceOnUse">
<stop stop-color="#0076CB"/>
<stop offset="1" stop-color="#005EA2"/>
</linearGradient>
<linearGradient id="paint1_linear_26_2" x1="14.7742" y1="-0.0001151" x2="794.924" y2="113.599" gradientUnits="userSpaceOnUse">
<stop stop-color="#0094FF"/>
<stop offset="1" stop-color="#0079D1"/>
</linearGradient>
<linearGradient id="paint2_linear_26_2" x1="88.1084" y1="23.9999" x2="711.745" y2="114.349" gradientUnits="userSpaceOnUse">
<stop stop-color="#0076CB"/>
<stop offset="1" stop-color="#005EA2"/>
</linearGradient>
<linearGradient id="paint3_linear_26_2" x1="88.1084" y1="18.9999" x2="711.745" y2="109.349" gradientUnits="userSpaceOnUse">
<stop stop-color="#0094FF"/>
<stop offset="1" stop-color="#0079D1"/>
</linearGradient>
</defs>
</svg>
