<svg width="35" height="35" viewBox="0 0 35 35" fill="none" xmlns="http://www.w3.org/2000/svg">
<path d="M7.19045 16.4156C7.19048 16.2225 7.22867 16.0313 7.3028 15.853C7.37694 15.6746 7.48558 15.5127 7.62247 15.3765C7.75937 15.2402 7.92182 15.1324 8.10051 15.0591C8.2792 14.9858 8.4706 14.9486 8.66373 14.9495L11.1063 14.9575C11.4957 14.9575 11.8692 15.1122 12.1446 15.3876C12.42 15.6629 12.5747 16.0364 12.5747 16.4259V25.6624C12.8498 25.5809 13.2019 25.4939 13.5893 25.4027C13.8577 25.3395 14.0969 25.1876 14.2681 24.9714C14.4394 24.7553 14.5326 24.4877 14.5326 24.2119V12.7555C14.5326 12.366 14.6873 11.9925 14.9627 11.7171C15.2381 11.4416 15.6116 11.2869 16.0011 11.2868H18.451C18.8405 11.2869 19.214 11.4416 19.4894 11.7171C19.7647 11.9925 19.9194 12.366 19.9194 12.7555V23.3889C19.9194 23.3889 20.5324 23.1409 21.129 22.8889C21.3507 22.7951 21.5399 22.6381 21.673 22.4375C21.8061 22.2369 21.8772 22.0016 21.8773 21.7608V9.08429C21.8773 8.69489 22.032 8.32143 22.3074 8.04605C22.5827 7.77068 22.9561 7.61593 23.3455 7.61586H25.7929C26.1821 7.61624 26.5552 7.77111 26.8303 8.04646C27.1054 8.3218 27.2599 8.69509 27.2599 9.08429V19.523C29.3817 17.9853 31.5321 16.1357 33.2385 13.9118C33.4861 13.589 33.65 13.2099 33.7154 12.8084C33.7809 12.4069 33.7459 11.9954 33.6137 11.6106C32.8238 9.33805 31.5681 7.25537 29.9271 5.49589C28.2861 3.73641 26.2959 2.33888 24.0837 1.39273C21.8716 0.44657 19.4863 -0.0273752 17.0805 0.00122112C14.6747 0.0298175 12.3014 0.560324 10.1124 1.55879C7.92334 2.55727 5.96688 4.00171 4.36814 5.7997C2.76941 7.59769 1.56362 9.70962 0.827931 12.0004C0.0922449 14.2911 -0.157134 16.7102 0.0957491 19.1028C0.348633 21.4955 1.09821 23.809 2.29652 25.8953C2.50529 26.2552 2.81244 26.5481 3.18189 26.7395C3.55133 26.9309 3.96772 27.0128 4.38214 26.9758C4.84511 26.935 5.42154 26.8774 6.10686 26.797C6.40513 26.7631 6.6805 26.6206 6.88053 26.3968C7.08056 26.1729 7.19127 25.8833 7.19159 25.5832V16.4156" fill="white"/>
<path d="M7.13828 31.2286C9.718 33.1053 12.7666 34.2318 15.9468 34.4834C19.127 34.735 22.3149 34.1019 25.1576 32.6543C28.0004 31.2066 30.3872 29.0007 32.0541 26.2807C33.721 23.5606 34.603 20.4325 34.6024 17.2424C34.6024 16.8433 34.5838 16.4504 34.5573 16.0587C28.2391 25.482 16.5732 29.8873 7.13828 31.2286Z" fill="#0060A5"/>
</svg>
