<svg width="35" height="35" viewBox="0 0 35 35" fill="none" xmlns="http://www.w3.org/2000/svg">
<path d="M7.19985 16.4156C7.19988 16.2225 7.23806 16.0313 7.3122 15.853C7.38634 15.6746 7.49498 15.5127 7.63187 15.3765C7.76877 15.2402 7.93122 15.1324 8.10991 15.0591C8.2886 14.9858 8.48 14.9486 8.67313 14.9495L11.1157 14.9575C11.5051 14.9575 11.8786 15.1122 12.154 15.3876C12.4294 15.6629 12.5841 16.0364 12.5841 16.4259V25.6624C12.8592 25.5809 13.2113 25.4939 13.5987 25.4027C13.8671 25.3395 14.1063 25.1876 14.2775 24.9714C14.4488 24.7553 14.542 24.4877 14.542 24.2119V12.7555C14.542 12.366 14.6967 11.9925 14.9721 11.7171C15.2475 11.4416 15.621 11.2869 16.0105 11.2868H18.4604C18.8499 11.2869 19.2234 11.4416 19.4988 11.7171C19.7741 11.9925 19.9288 12.366 19.9288 12.7555V23.3889C19.9288 23.3889 20.5418 23.1409 21.1384 22.8889C21.3601 22.7951 21.5493 22.6381 21.6824 22.4375C21.8155 22.2369 21.8866 22.0016 21.8867 21.7608V9.08429C21.8867 8.69489 22.0414 8.32143 22.3167 8.04605C22.5921 7.77068 22.9655 7.61593 23.3549 7.61586H25.8023C26.1915 7.61624 26.5646 7.77111 26.8397 8.04646C27.1148 8.3218 27.2693 8.69509 27.2693 9.08429V19.523C29.3911 17.9853 31.5415 16.1357 33.2479 13.9118C33.4955 13.589 33.6594 13.2099 33.7248 12.8084C33.7903 12.4069 33.7553 11.9954 33.6231 11.6106C32.8332 9.33805 31.5775 7.25537 29.9365 5.49589C28.2955 3.73641 26.3053 2.33888 24.0931 1.39273C21.881 0.44657 19.4957 -0.0273752 17.0899 0.00122112C14.6841 0.0298175 12.3108 0.560324 10.1218 1.55879C7.93274 2.55727 5.97627 4.00171 4.37754 5.7997C2.77881 7.59769 1.57302 9.70962 0.83733 12.0004C0.101644 14.2911 -0.147735 16.7102 0.105148 19.1028C0.358032 21.4955 1.10761 23.809 2.30592 25.8953C2.51469 26.2552 2.82184 26.5481 3.19129 26.7395C3.56073 26.9309 3.97712 27.0128 4.39154 26.9758C4.85451 26.935 5.43094 26.8774 6.11626 26.797C6.41453 26.7631 6.6899 26.6206 6.88993 26.3968C7.08996 26.1729 7.20067 25.8833 7.20098 25.5832V16.4156" fill="white"/>
<path d="M7.14767 31.2286C9.7274 33.1053 12.776 34.2318 15.9562 34.4834C19.1364 34.735 22.3243 34.1019 25.167 32.6543C28.0098 31.2066 30.3966 29.0007 32.0635 26.2807C33.7304 23.5606 34.6124 20.4325 34.6118 17.2424C34.6118 16.8433 34.5932 16.4504 34.5667 16.0587C28.2485 25.482 16.5826 29.8873 7.14767 31.2286Z" fill="#F0B90B"/>
</svg>
