<svg width="34" height="34" viewBox="0 0 34 34" fill="none" xmlns="http://www.w3.org/2000/svg">
<g clip-path="url(#clip0_12_41)">
<path fill-rule="evenodd" clip-rule="evenodd" d="M17 34C26.3888 34 34 26.3888 34 17C34 7.61118 26.3888 0 17 0C7.61118 0 0 7.61118 0 17C0 26.3888 7.61118 34 17 34Z" fill="white"/>
<path d="M8.35453 11.5486C8.38265 11.2638 8.27654 10.9824 8.06879 10.7907L5.9524 8.18142V7.79163H12.5238L17.6032 19.1924L22.0688 7.79163H28.3334V8.18142L26.5238 9.957C26.3678 10.0787 26.2904 10.2787 26.3228 10.4767V23.5232C26.2904 23.7212 26.3678 23.9212 26.5238 24.0429L28.291 25.8185V26.2083H19.4021V25.8185L21.2328 23.9996C21.4127 23.8155 21.4127 23.7614 21.4127 23.4799V12.9344L16.3228 26.165H15.6349L9.709 12.9344V21.8018C9.65963 22.1745 9.78062 22.5498 10.037 22.8195L12.418 25.7752V26.165H5.66669V25.7752L8.04761 22.8195C8.30225 22.5494 8.41615 22.1716 8.35453 21.8018V11.5486Z" fill="#00B2FF"/>
</g>
<defs>
<clipPath id="clip0_12_41">
<rect width="34" height="34" fill="white"/>
</clipPath>
</defs>
</svg>
