<svg width="204" height="170" viewBox="0 0 204 170" fill="none" xmlns="http://www.w3.org/2000/svg">
<g opacity="0.6" filter="url(#filter0_f_102_2)">
<path opacity="0.2" d="M118.506 146.766C154.502 136.921 181.199 119.86 178.135 108.659C175.072 97.4575 143.408 96.3575 107.413 106.202C71.4171 116.046 44.7204 133.107 47.7838 144.309C50.8473 155.51 82.5109 156.61 118.506 146.766Z" fill="black"/>
<path d="M154.965 31.4669C173.809 43.6097 193.495 69.6987 186.643 92.6549C180.861 112.047 159.132 119.249 129.755 128.991C119.906 132.257 45.6123 156.709 26.72 128.535C19.8079 118.228 21.7499 103.018 22.8107 94.6819C24.8971 78.3313 32.0606 67.1792 35.2568 62.3239C51.2029 38.1184 75.7384 28.976 85.6212 25.98C95.7538 22.9049 126.972 13.4368 154.965 31.4669Z" fill="url(#paint0_radial_102_2)"/>
<path d="M90.649 24.5144C103.893 20.8923 130.656 15.7915 154.981 31.4623C173.825 43.6051 193.512 69.694 186.66 92.6503C180.877 112.042 159.148 119.244 129.771 128.987C127.474 129.745 121.675 131.661 113.897 133.788C88.3044 140.787 41.2253 150.131 26.7365 128.53C19.8244 118.224 21.7664 103.013 22.8273 94.6772C24.9136 78.3267 32.0772 67.1746 35.2734 62.3193C51.2026 38.1184 75.7382 28.976 85.6209 25.98C86.9577 25.5746 88.6285 25.067 90.649 24.5144ZM89.9122 21.8205C87.8918 22.3731 86.1839 22.8908 84.8235 23.3027C72.1174 27.1577 48.5017 37.1488 32.9297 60.8032C30.0051 65.2223 22.2569 77.0156 20.0463 94.3412C18.948 102.937 16.9079 118.927 24.3981 130.104C31.3163 140.419 45.3847 145.33 66.2141 144.697C83.3568 144.174 101.996 139.953 114.613 136.502C122.638 134.307 128.664 132.297 130.629 131.659C145.508 126.724 158.337 122.47 168.394 116.897C179.775 110.592 186.425 103.145 189.311 93.4634C192.66 82.2326 190.42 69.4791 182.844 56.5855C176.242 45.5551 167.227 36.164 156.475 29.1174C145.431 22.004 132.716 18.2429 118.699 17.9651C109.495 17.7787 100.072 19.042 89.9122 21.8205Z" fill="#1A1A1A"/>
<path opacity="0.2" d="M185.4 68.525C187.141 75.2078 187.362 82.0383 185.403 88.6111C179.621 108.003 157.892 115.208 128.515 124.948C118.666 128.213 44.3723 152.665 25.4799 124.491C24.4265 122.892 23.5583 121.178 22.8921 119.383C23.6084 122.643 24.9063 125.748 26.7235 128.548C45.614 156.715 119.909 132.27 129.758 129.005C159.135 119.262 180.861 112.061 186.647 92.6684C189.003 84.7564 188.216 76.4774 185.4 68.525Z" fill="black"/>
<path opacity="0.3" d="M23.67 97.8237C25.7563 81.4732 32.9199 70.3211 36.1161 65.4658C52.0585 41.2468 76.594 32.1044 86.4768 29.1084C96.6127 26.0323 127.831 16.5643 155.824 34.5944C168.692 42.8847 181.942 57.6794 186.881 73.5418C182.822 56.5159 168.677 40.3011 154.968 31.4661C126.972 13.437 95.7538 22.905 85.6212 25.9801C75.7418 28.9752 51.2063 38.1176 35.2639 62.3366C32.0677 67.1919 24.9041 78.344 22.8178 94.6945C21.9533 101.446 20.5164 112.747 23.6968 122.272C21.6881 113.498 22.8996 103.847 23.67 97.8237Z" fill="white"/>
<path d="M114.49 64.6067L113.972 64.5042L113.504 64.7496C109.509 66.8427 105.319 69.2501 101.785 71.5644C98.3083 73.8412 95.2911 76.1387 93.8093 78.0247L93.5869 78.3077L93.5172 78.6607C91.6065 88.3333 97.8987 97.7233 107.571 99.634C117.244 101.545 126.634 95.2525 128.544 85.5799C130.455 75.9074 124.163 66.5174 114.49 64.6067Z" fill="url(#paint1_linear_102_2)" stroke="black" stroke-width="3"/>
<path d="M65.9382 88.1061L65.9359 88.0133L65.9222 87.9215C65.7036 86.4566 64.8307 85.317 63.7814 84.4002C62.7389 83.4895 61.3829 82.6778 59.9395 81.8909C59.2032 81.4896 58.4347 81.0889 57.6436 80.6764C55.2418 79.4242 52.632 78.0634 50.0846 76.2466L49.6772 75.956L49.1768 75.9683C45.069 76.0691 41.8285 77.8592 39.69 80.8695C37.5881 83.8283 36.6288 87.8468 36.7394 92.3542C36.9647 101.533 43.5193 109.253 51.8602 109.048C56.2573 108.94 59.8484 105.715 62.2283 101.776C64.637 97.7888 66.051 92.7021 65.9382 88.1061Z" fill="url(#paint2_linear_102_2)" stroke="black" stroke-width="3"/>
<path opacity="0.3" d="M137.922 37.3121C138.004 33.2332 131.874 29.8028 124.231 29.6501C116.587 29.4975 110.325 32.6804 110.244 36.7593C110.162 40.8383 116.292 44.2686 123.936 44.4213C131.579 44.574 137.841 41.3911 137.922 37.3121Z" fill="white"/>
<path opacity="0.3" d="M102.901 42.1978C105.424 40.8565 106.382 37.7239 105.041 35.2009C103.7 32.6779 100.567 31.7199 98.0439 33.0612C95.5209 34.4024 94.5629 37.5351 95.9042 40.0581C97.2454 42.5811 100.378 43.5391 102.901 42.1978Z" fill="white"/>
<path opacity="0.3" d="M125.503 115.442C128.259 114.688 129.882 111.843 129.128 109.087C128.374 106.331 125.529 104.707 122.773 105.461C120.017 106.215 118.394 109.06 119.147 111.817C119.901 114.573 122.746 116.196 125.503 115.442Z" fill="white"/>
<path opacity="0.3" d="M139.941 112.319C141.213 111.096 141.254 109.074 140.031 107.802C138.809 106.53 136.787 106.489 135.515 107.712C134.243 108.934 134.202 110.956 135.425 112.228C136.647 113.5 138.669 113.541 139.941 112.319Z" fill="white"/>
<path opacity="0.5" d="M147.912 54.5791L145.998 47.5783L138.979 45.7339L133.872 50.8947L135.786 57.8955L142.809 59.7389L147.912 54.5791Z" fill="#49769B"/>
<path opacity="0.5" d="M158.91 64.8973L156.995 57.8931L149.973 56.053L144.865 61.2104L146.781 68.2146L153.803 70.058L158.91 64.8973Z" fill="#49769B"/>
<path opacity="0.5" d="M161.433 104.016L159.518 97.015L152.499 95.1706L147.392 100.331L149.307 107.332L156.329 109.176L161.433 104.016Z" fill="#49769B"/>
<path opacity="0.5" d="M165.684 89.6647L163.768 82.6605L156.746 80.8171L151.639 85.9778L153.555 92.982L160.576 94.822L165.684 89.6647Z" fill="#49769B"/>
<path opacity="0.5" d="M150.952 93.6937L149.036 86.6895L142.014 84.8461L136.91 90.0059L138.826 97.01L145.844 98.851L150.952 93.6937Z" fill="#49769B"/>
<path opacity="0.5" d="M49.1467 122.64L47.5433 116.778L41.6665 115.233L37.3906 119.554L38.994 125.417L44.8733 126.958L49.1467 122.64Z" fill="#49769B"/>
<path opacity="0.5" d="M40.3734 113.997L38.7701 108.135L32.8899 106.59L28.614 110.912L30.2174 116.775L36.0967 118.316L40.3734 113.997Z" fill="#49769B"/>
<path opacity="0.5" d="M56.3491 64.9809L54.7458 59.1183L48.8665 57.5775L44.5931 61.895L46.1965 67.7576L52.0733 69.3027L56.3491 64.9809Z" fill="#49769B"/>
<path opacity="0.5" d="M173.899 60.7984L171.983 53.7942L164.962 51.9542L159.854 57.1115L161.769 64.1157L168.792 65.9591L173.899 60.7984Z" fill="#49769B"/>
</g>
<defs>
<filter id="filter0_f_102_2" x="11.9395" y="10.9471" width="185.883" height="149.538" filterUnits="userSpaceOnUse" color-interpolation-filters="sRGB">
<feFlood flood-opacity="0" result="BackgroundImageFix"/>
<feBlend mode="normal" in="SourceGraphic" in2="BackgroundImageFix" result="shape"/>
<feGaussianBlur stdDeviation="3.5" result="effect1_foregroundBlur_102_2"/>
</filter>
<radialGradient id="paint0_radial_102_2" cx="0" cy="0" r="1" gradientUnits="userSpaceOnUse" gradientTransform="translate(100.298 79.6969) rotate(-15.2958) scale(71.989 71.989)">
<stop stop-color="#529ED7"/>
<stop offset="0.25" stop-color="#3989C5"/>
<stop offset="0.47" stop-color="#2D8BD3"/>
<stop offset="0.520833" stop-color="#398AC8"/>
<stop offset="0.67" stop-color="#437EAE"/>
<stop offset="0.86" stop-color="#457198"/>
<stop offset="1" stop-color="#254F79"/>
</radialGradient>
<linearGradient id="paint1_linear_102_2" x1="132.747" y1="114.323" x2="96.6849" y2="60.9066" gradientUnits="userSpaceOnUse">
<stop stop-color="#FF4B4B"/>
<stop offset="0.17" stop-color="#FF4B4B"/>
<stop offset="0.36" stop-color="#FF5252"/>
<stop offset="0.567501" stop-color="#FF3F3F"/>
<stop offset="0.673991" stop-color="#FF0000"/>
</linearGradient>
<linearGradient id="paint2_linear_102_2" x1="33.3627" y1="123.424" x2="51.114" y2="64.2829" gradientUnits="userSpaceOnUse">
<stop stop-color="#FF4B4B"/>
<stop offset="0.17" stop-color="#FF4B4B"/>
<stop offset="0.36" stop-color="#FF5252"/>
<stop offset="0.567501" stop-color="#FF3F3F"/>
<stop offset="0.673991" stop-color="#FF0000"/>
</linearGradient>
</defs>
</svg>
