<svg width="270" height="233" viewBox="0 0 270 233" fill="none" xmlns="http://www.w3.org/2000/svg">
<path opacity="0.2" d="M109.023 212.804C52.6737 204.574 9.06956 183.686 11.6308 166.151C14.1919 148.616 61.9486 141.073 118.298 149.303C174.648 157.534 218.252 178.421 215.691 195.956C213.13 213.491 165.373 221.034 109.023 212.804Z" fill="black"/>
<path d="M32.4001 44.9283C6.11093 66.8185 -18.8662 109.989 -4.22615 143.489C8.13152 171.789 42.3814 178.665 88.6867 187.97C104.211 191.088 221.282 214.335 244.669 168.154C253.225 151.26 247.461 128.581 244.307 116.151C238.112 91.7725 225.191 76.2101 219.449 69.449C190.803 35.7446 151.942 26.4506 136.416 23.7468C120.498 20.9695 71.4545 12.4226 32.4001 44.9283Z" fill="url(#paint0_radial_98_323)"/>
<path d="M128.529 22.4601C107.796 19.4318 66.3113 16.673 32.3739 44.9245C6.08478 66.8147 -18.8924 109.986 -4.25232 143.485C8.10536 171.785 42.3553 178.661 88.6605 187.966C92.2807 188.688 101.42 190.513 113.597 192.292C153.661 198.143 226.706 203.558 244.642 168.15C253.199 151.256 247.435 128.577 244.281 116.148C238.086 91.7687 225.165 76.2062 219.423 69.4451C190.803 35.7446 151.942 26.4506 136.417 23.7468C134.316 23.3808 131.691 22.9221 128.529 22.4601ZM129.144 18.2429C132.307 18.7049 134.99 19.1721 137.127 19.5435C157.089 23.0243 194.714 33.7746 222.691 66.7137C227.941 72.8645 241.866 89.2897 248.431 115.122C251.69 127.938 257.748 151.781 248.477 170.099C239.912 187.009 219.514 197.059 187.846 199.965C161.784 202.356 132.767 199.42 113.015 196.535C100.453 194.701 90.9516 192.774 87.8577 192.172C64.4043 187.459 44.1833 183.397 27.915 176.821C9.50597 169.384 -1.94837 159.339 -8.11673 145.209C-15.274 128.819 -14.2492 109.086 -5.16664 88.1501C2.7857 70.217 14.698 54.319 29.6756 41.6499C45.0841 28.8254 63.6457 20.7685 84.8262 17.746C98.733 15.7554 113.24 15.9199 129.144 18.2429Z" fill="#1A1A1A"/>
<path opacity="0.2" d="M-6.82215 106.709C-8.2186 117.155 -7.28606 127.542 -3.09852 137.134C9.25916 165.433 43.5083 172.315 89.8143 181.614C105.339 184.732 222.409 207.98 245.796 161.799C247.095 159.181 248.092 156.424 248.768 153.581C248.288 158.653 246.899 163.596 244.666 168.175C221.28 214.346 104.208 191.109 88.6838 187.991C42.3785 178.686 8.1339 171.811 -4.22906 143.51C-9.2671 131.963 -9.6108 119.277 -6.82215 106.709Z" fill="black"/>
<path opacity="0.3" d="M243.588 121.07C237.394 96.691 224.473 81.1285 218.731 74.3674C190.087 40.642 151.227 31.3479 135.701 28.6442C119.777 25.8661 70.7341 17.3192 31.6797 49.8249C13.727 64.7706 -3.59673 89.6393 -8.13371 114.583C-5.14526 88.0403 13.2707 60.8544 32.3949 44.9277C71.4547 12.4227 120.498 20.9696 136.416 23.747C151.937 26.4499 190.797 35.744 219.441 69.4694C225.183 76.2305 238.104 91.793 244.298 116.172C246.861 126.237 251.135 143.089 248.085 158.106C249.5 144.444 245.873 130.05 243.588 121.07Z" fill="white"/>
<path d="M100.103 88.3627L100.605 88.198L101.1 88.3846C107.521 90.8069 114.29 93.6658 120.045 96.5015C125.737 99.3069 130.624 102.178 133.117 104.658L133.372 104.912L133.484 105.254C138.038 119.136 130.475 134.081 116.593 138.635C102.711 143.188 87.7655 135.626 83.2119 121.744C78.6584 107.861 86.2208 92.9163 100.103 88.3627Z" fill="url(#paint1_linear_98_323)" stroke="black" stroke-width="3"/>
<path d="M200.106 93.8718L200.475 93.5338L200.973 93.4851C206.972 92.899 211.966 94.9198 215.593 98.8947C219.177 102.823 221.333 108.551 221.991 115.288C223.324 128.925 215.017 141.334 202.895 142.518C196.608 143.132 190.804 139.162 186.538 133.726C182.237 128.246 179.213 120.944 178.546 114.119L178.537 114.027L178.539 113.934C178.592 111.935 179.573 110.22 180.927 108.709C182.276 107.205 184.118 105.766 186.152 104.31C187.172 103.581 188.248 102.841 189.361 102.075C192.775 99.7269 196.54 97.1373 200.106 93.8718Z" fill="url(#paint2_linear_98_323)" stroke="black" stroke-width="3"/>
<path opacity="0.3" d="M59.2987 50.6189C58.4182 44.4556 67.0666 38.1218 78.6154 36.472C90.1643 34.8222 100.24 38.481 101.121 44.6443C102.001 50.8075 93.3527 57.1413 81.8039 58.7911C70.2551 60.441 60.1791 56.7821 59.2987 50.6189Z" fill="white"/>
<path opacity="0.3" d="M113.253 51.519C109.182 49.9556 107.15 45.3885 108.713 41.3179C110.276 37.2474 114.843 35.2149 118.914 36.7782C122.985 38.3415 125.017 42.9087 123.454 46.9793C121.89 51.0498 117.323 53.0823 113.253 51.519Z" fill="white"/>
<path opacity="0.3" d="M92.6126 166.657C88.298 166.027 85.3111 162.018 85.9413 157.704C86.5715 153.389 90.5801 150.402 94.8948 151.032C99.2094 151.663 102.196 155.671 101.566 159.986C100.936 164.301 96.9273 167.287 92.6126 166.657Z" fill="white"/>
<path opacity="0.3" d="M70.1626 164.606C68.0089 162.99 67.5724 159.935 69.1877 157.781C70.803 155.628 73.8584 155.191 76.0121 156.806C78.1659 158.422 78.6023 161.477 76.987 163.631C75.3717 165.785 72.3163 166.221 70.1626 164.606Z" fill="white"/>
<path opacity="0.5" d="M47.3719 78.6274L48.9726 67.6679L59.2621 63.5714L67.9553 70.4405L66.3546 81.4L56.0599 85.4956L47.3719 78.6274Z" fill="#49769B"/>
<path opacity="0.5" d="M32.6284 96.2976L34.2299 85.3329L44.5239 81.2425L53.2179 88.1062L51.6164 99.071L41.3217 103.167L32.6284 96.2976Z" fill="#49769B"/>
<path opacity="0.5" d="M36.0681 156.018L37.6688 145.059L47.9583 140.962L56.6515 147.831L55.0508 158.791L44.756 162.887L36.0681 156.018Z" fill="#49769B"/>
<path opacity="0.5" d="M26.9655 135.07L28.567 124.105L38.8618 120.009L47.555 126.878L45.9535 137.843L35.6595 141.934L26.9655 135.07Z" fill="#49769B"/>
<path opacity="0.5" d="M50.0282 138.438L51.6297 127.473L61.9245 123.378L70.6125 130.246L69.0109 141.211L58.7222 145.302L50.0282 138.438Z" fill="#49769B"/>
<path opacity="0.5" d="M209.605 163.388L210.945 154.211L219.56 150.779L226.839 156.532L225.498 165.71L216.879 169.135L209.605 163.388Z" fill="#49769B"/>
<path opacity="0.5" d="M221.29 148.668L222.63 139.491L231.25 136.06L238.529 141.813L237.188 150.99L228.569 154.416L221.29 148.668Z" fill="#49769B"/>
<path opacity="0.5" d="M187.994 77.3884L189.334 68.2107L197.953 64.7856L205.228 70.5321L203.887 79.7098L195.272 83.141L187.994 77.3884Z" fill="#49769B"/>
<path opacity="0.5" d="M9.16502 92.8709L10.7665 81.9061L21.0605 77.8157L29.7545 84.6795L28.153 95.6442L17.8583 99.7399L9.16502 92.8709Z" fill="#49769B"/>
<defs>
<radialGradient id="paint0_radial_98_323" cx="0" cy="0" r="1" gradientUnits="userSpaceOnUse" gradientTransform="translate(124.156 107.836) rotate(-171.69) scale(109.857 109.857)">
<stop stop-color="#529ED7"/>
<stop offset="0.25" stop-color="#3989C5"/>
<stop offset="0.47" stop-color="#2D8BD3"/>
<stop offset="0.520833" stop-color="#398AC8"/>
<stop offset="0.67" stop-color="#437EAE"/>
<stop offset="0.86" stop-color="#457198"/>
<stop offset="1" stop-color="#254F79"/>
</radialGradient>
<linearGradient id="paint1_linear_98_323" x1="81.4317" y1="166.307" x2="126.14" y2="78.7036" gradientUnits="userSpaceOnUse">
<stop stop-color="#FF4B4B"/>
<stop offset="0.17" stop-color="#FF4B4B"/>
<stop offset="0.36" stop-color="#FF5252"/>
<stop offset="0.567501" stop-color="#FF3F3F"/>
<stop offset="0.673991" stop-color="#FF0000"/>
</linearGradient>
<linearGradient id="paint2_linear_98_323" x1="233.658" y1="161.646" x2="195.793" y2="75.3595" gradientUnits="userSpaceOnUse">
<stop stop-color="#FF4B4B"/>
<stop offset="0.17" stop-color="#FF4B4B"/>
<stop offset="0.36" stop-color="#FF5252"/>
<stop offset="0.567501" stop-color="#FF3F3F"/>
<stop offset="0.673991" stop-color="#FF0000"/>
</linearGradient>
</defs>
</svg>
