<svg width="239" height="170" viewBox="0 0 239 170" fill="none" xmlns="http://www.w3.org/2000/svg">
<g opacity="0.8">
<path d="M48.2988 117.235C47.7362 118.222 47.3753 119.311 47.2369 120.438C47.0985 121.566 47.1855 122.71 47.4927 123.803L59.2632 114.624L59.8234 110.317C59.8234 110.317 50.4216 114.139 48.2988 117.235Z" fill="url(#paint0_linear_108_155)"/>
<path d="M66.6017 113.364C66.6017 113.364 48.2099 119.63 44.4626 131.571C44.4626 131.571 43.8977 121.525 56.2262 114.673C68.5547 107.821 66.6017 113.364 66.6017 113.364Z" fill="url(#paint1_linear_108_155)"/>
<path d="M69.0954 113.386C63.6064 113.111 53.6005 114.198 46.4642 124.144C46.4642 124.144 54.3373 107.052 83.7886 100.495C83.7886 100.495 79.0656 97.7161 78.0749 89.3216C78.0749 89.3216 84.8405 104.823 101.411 94.9841C115.37 86.7072 123.745 104.339 123.745 104.339C123.745 104.339 124.057 105.312 109.52 111.229C91.2049 118.678 78.4769 118.679 70.9343 115.18L73.1059 113.906C71.7768 113.608 70.4235 113.431 69.0625 113.378L69.0954 113.386Z" fill="url(#paint2_linear_108_155)"/>
<path style="mix-blend-mode:multiply" opacity="0.6" d="M106.223 107.249C106.223 107.249 94.3862 113.984 86.0718 114.32C73.0134 114.856 67.8564 108.994 54.6425 114.284C54.6425 114.284 60.7116 108.251 69.7362 108.056C78.7608 107.862 97.0072 110.773 106.223 107.249Z" fill="url(#paint3_linear_108_155)"/>
<path d="M121.587 94.5531C121.587 94.5531 114.609 103.411 103.209 102.792C91.8091 102.174 89.085 100.427 80.2071 101.377C71.3292 102.327 54.6874 108.131 48.2987 117.235C48.2987 117.235 55.3534 108.436 77.0253 111.997C96.9687 115.226 116.093 103.507 121.587 94.5531Z" fill="url(#paint4_linear_108_155)"/>
<path d="M102.687 101.188C102.687 101.188 87.719 102.732 82.884 99.532C78.049 96.3319 78.0878 89.3246 78.0878 89.3246C78.0878 89.3246 84.2757 100.488 102.687 101.188Z" fill="url(#paint5_linear_108_155)"/>
<path d="M84.191 100.191C87.9976 101.211 91.9326 101.67 95.8718 101.554C95.8718 101.554 87.1838 101.916 80.2073 101.377L83.2011 100.423L81.8732 98.7319L84.191 100.191Z" fill="url(#paint6_linear_108_155)"/>
<path d="M75.2049 110.457C76.6301 110.568 77.4727 110.677 77.4727 110.677C77.4727 110.677 76.3503 110.608 75.2049 110.457Z" fill="url(#paint7_linear_108_155)"/>
<path d="M62.3355 110.287C62.3355 110.287 74.5323 105.501 75.8644 102.1C77.2907 101.766 78.7368 101.524 80.1939 101.374C82.1536 101.211 92.8741 101.765 92.8741 101.765C91.0612 101.8 89.2515 101.933 87.453 102.165C86.3917 102.436 73.2877 109.006 72.8354 109.68C72.5948 110.035 73.9032 110.292 75.1917 110.454C74.4339 110.399 73.5154 110.349 72.4494 110.307C81.7851 111.12 91.4037 113.005 108.112 106.091C108.112 106.091 96.0637 113.264 82.8786 112.501C69.6935 111.739 58.15 108.346 48.246 117.223C48.2988 117.235 50.6701 111.683 62.3355 110.287Z" fill="url(#paint8_linear_108_155)"/>
<path d="M135.774 92.4148C135.774 92.4148 142.736 99.6121 155.145 101.981C167.554 104.35 179.617 104.218 183.927 105.341C188.237 106.464 194.037 114.374 203.972 115.845C210.373 116.706 216.869 116.567 223.227 115.433C218.124 118.078 212.541 119.666 206.81 120.102C200.443 120.633 190.918 116.029 190.918 116.029C190.918 116.029 200.659 124.52 209.682 126.914C207.832 127.851 205.817 128.416 203.75 128.578C198.73 128.195 194.004 126.064 190.392 122.557C190.392 122.557 193.284 128.853 191.31 135.37C191.31 135.37 187.732 139.521 180.097 141.074C180.097 141.074 184.733 131.654 184.658 125.724C184.658 125.724 183.416 133.622 179.077 139.89C179.077 139.89 173.435 141.864 169.131 139.895C170.041 138.43 170.829 136.892 171.486 135.298C171.486 135.298 167.184 125.536 167.732 118.368C167.732 118.368 164.869 128.019 154.932 136.431C154.932 136.431 150.662 138.231 146.432 136.453L150.92 132.787C148.868 133.908 146.621 134.629 144.3 134.912C140.814 135.226 130.327 131.825 125.001 128.256L123.316 128.613C123.316 128.613 120.828 127.046 118.465 122.322C118.465 122.322 114.792 120.171 113.086 117.158L113.559 115.878C113.559 115.878 112.519 113.413 113.295 111.654C116.755 108.806 120.63 106.503 124.785 104.826C124.785 104.826 117.208 107.162 112.453 107.166C112.453 107.166 110.984 106.095 111.609 104.787C112.233 103.479 135.774 92.4148 135.774 92.4148Z" fill="url(#paint9_linear_108_155)"/>
<path style="mix-blend-mode:multiply" opacity="0.6" d="M165.209 105.987C165.209 105.987 146.629 118.483 118.412 122.31C116.448 120.777 114.645 119.046 113.033 117.146C113.033 117.146 118.158 108.746 136.137 101.068C136.131 101.095 155.047 105.297 165.209 105.987Z" fill="url(#paint10_linear_108_155)"/>
<path d="M201.963 115.435C197.597 114.639 193.39 113.135 189.51 110.981C178.677 104.6 164.223 106.657 149.778 105.211C134.913 103.724 132.818 97.4303 132.818 97.4303L135.764 92.3986C135.764 92.3986 144.693 99.7329 155.135 101.965C165.576 104.197 183.155 104.408 185.103 105.269C187.051 106.131 194.406 113.307 201.963 115.435Z" fill="url(#paint11_linear_108_155)"/>
<path style="mix-blend-mode:multiply" opacity="0.6" d="M169.93 106.19C169.93 106.19 146.738 124.753 123.263 128.601C121.834 127.376 120.589 125.951 119.566 124.37C119.566 124.37 147.62 118.584 165.209 105.987L169.93 106.19Z" fill="url(#paint12_linear_108_155)"/>
<path style="mix-blend-mode:multiply" opacity="0.6" d="M146.406 136.447C146.406 136.447 165.179 122.955 171.337 106.29L172.463 106.373C172.463 106.373 167.944 126.161 154.919 136.427C154.906 136.424 149.337 138.685 146.406 136.447Z" fill="url(#paint13_linear_108_155)"/>
<path d="M171.495 135.32C171.495 135.32 179.366 123.037 180.196 109.708C180.196 109.708 178.912 119.13 170.665 133.209L171.495 135.32Z" fill="url(#paint14_linear_108_155)"/>
<path d="M184.646 125.29C184.646 125.29 185.145 116.327 183.707 110.107C183.707 110.107 191.071 124.384 180.1 141.095C180.1 141.095 183.313 134.591 183.276 131.168C183.302 131.174 184.588 127.429 184.646 125.29Z" fill="url(#paint15_linear_108_155)"/>
<path d="M119.564 124.377C119.564 124.377 132.799 119.967 139.259 117.694C139.259 117.694 125.756 121.634 118.411 122.316L119.564 124.377Z" fill="url(#paint16_linear_108_155)"/>
<path d="M150.894 132.781C153.859 130.312 156.654 127.647 159.26 124.802C153.788 128.51 148.07 131.842 142.146 134.774C142.146 134.774 149.125 134.632 150.894 132.781Z" fill="url(#paint17_linear_108_155)"/>
<path d="M165.209 105.987C165.209 105.987 148.238 116.483 130.747 119.991C130.747 119.991 132.093 117.987 137.987 113.205C143.881 108.424 157.473 105.733 157.473 105.733L165.209 105.987Z" fill="url(#paint18_linear_108_155)"/>
<path d="M171.324 106.286C171.324 106.286 167.639 118.138 159.26 124.802C159.976 121.397 161.344 118.163 163.288 115.278C166.609 110.22 169.93 106.19 169.93 106.19L171.324 106.286Z" fill="url(#paint19_linear_108_155)"/>
<path style="mix-blend-mode:multiply" opacity="0.99" d="M195.749 113.808C195.749 113.808 191.197 113.351 184.511 110.325C173.269 105.246 141.214 109.501 132.331 103.267L115.311 102.433L135.774 92.4148L138.888 94.6734C138.888 94.6734 136.965 97.1698 139.44 100.129C143.727 105.272 167.543 105.097 176.025 105.576C185.432 106.108 189.942 112.037 195.749 113.808Z" fill="url(#paint20_linear_108_155)"/>
<path d="M91.1545 107.958C91.8709 109.203 92.7877 110.322 93.868 111.27C95.5328 112.823 99.3823 116.631 101.404 117.016C103.885 117.486 106.534 114.975 109.009 114.499C113.323 113.659 116.522 113.328 120.423 111.866C120.779 111.732 121.177 111.601 121.503 111.419C122.963 110.821 124.373 110.111 125.722 109.294L126.208 108.988C127.019 108.48 128.221 107.651 129.517 106.656C129.453 106.752 129.398 106.844 129.337 106.927C128.963 107.51 128.534 108.056 128.056 108.557C130.36 107.293 132.357 105.536 133.902 103.41C134.057 104.537 134.03 105.681 133.822 106.799C133.822 106.799 137.71 103.6 137.933 100.313C138.157 97.0254 135.843 93.9084 136.531 90.8941C136.885 90.5181 137.288 90.1924 137.731 89.9258C138.857 89.2752 139.857 88.4269 140.683 87.4216C140.927 87.1427 141.11 86.8157 141.219 86.4617C141.329 86.1078 141.363 85.7347 141.319 85.3668C141.249 84.7231 141.092 84.0919 140.852 83.4906C140.504 82.8408 140.021 82.2735 139.434 81.8274C138.334 81.0808 137.17 80.434 135.955 79.8946C134.429 79.0862 133.027 78.0649 131.789 76.8614C131.496 76.6268 131.283 76.3064 131.18 75.945C131.381 76.9265 131.808 77.8481 132.425 78.6374C133.068 79.6745 133.82 80.6396 134.668 81.5163L134.266 81.4244C132.921 81.051 131.682 80.3688 130.647 79.4321C131.135 80.1924 131.677 80.9168 132.269 81.5998C132.428 81.782 132.579 81.9759 132.737 82.1647C132.699 82.1599 132.661 82.1513 132.625 82.1391C130.083 82.2073 127.552 82.4858 125.057 82.9717C123.317 83.3089 121.597 83.7408 119.904 84.2655C119.158 84.4908 118.451 84.7318 117.746 84.994C115.475 85.8217 113.258 86.7451 111.03 87.7492C108.802 88.7533 106.694 89.6876 104.512 90.612C103.147 92.1253 101.834 93.7688 100.086 94.6186C95.9372 96.6484 91.4774 98.5516 90.5573 102.915C90.115 104.611 90.3282 106.412 91.1545 107.958Z" fill="url(#paint21_linear_108_155)"/>
<path fill-rule="evenodd" clip-rule="evenodd" d="M98.7 121.534C98.7 121.534 97.3182 123.391 95.6691 122.924C94.9739 122.637 94.3463 122.207 93.8264 121.664C93.8264 121.664 93.2888 120.979 93.3174 120.853C93.0225 121.221 92.7608 121.614 92.5356 122.028C93.5075 122.871 94.6377 123.511 95.86 123.912C97.0513 123.468 98.054 122.629 98.7 121.534Z" fill="url(#paint22_linear_108_155)"/>
<path style="mix-blend-mode:multiply" opacity="0.6" d="M112.193 111.222C112.193 111.222 107.025 109.542 104.693 109.572L103.21 110.961C106.129 111.841 109.229 111.931 112.193 111.222ZM90.5887 102.929C91.489 98.5613 95.9487 96.6581 100.117 94.6329C101.866 93.783 103.178 92.1395 104.544 90.6262C106.718 89.7349 108.887 88.7172 111.062 87.7635C108.164 91.3351 105.368 95.3116 105.368 95.3116L109.256 95.6719L104.406 96.2438C100.117 99.8308 99.4418 105.825 99.4418 105.825C101.732 107.466 105.319 107.438 105.319 107.438L109.064 102.741C109.436 100.321 110.26 97.9929 111.492 95.8773C110.553 97.8114 110.069 99.9342 110.075 102.084L114.286 103.122L110.229 103.139C108.552 104.697 107.307 106.663 106.615 108.845C108.96 110.157 113.749 109.849 113.749 109.849L119.182 104.747C116.963 106.848 115.051 109.253 113.505 111.889C116.683 112.08 119.839 111.246 122.508 109.511L127.463 100.76L124.679 107.39C126.808 107.182 129.707 106.644 130.748 105.639C130.235 106.154 129.763 106.58 129.323 106.959C128.221 107.897 127.004 108.692 125.701 109.324C124.584 109.902 123.264 110.516 121.483 111.449C121.129 111.597 120.765 111.736 120.402 111.896C116.501 113.358 113.302 113.689 108.988 114.529C106.513 115.005 103.863 117.522 101.383 117.046C99.3879 116.667 95.512 112.853 93.8472 111.3C92.7669 110.353 91.8501 109.233 91.1337 107.988C90.5674 106.365 90.3809 104.635 90.5887 102.929Z" fill="url(#paint23_linear_108_155)"/>
<path d="M136.224 88.3466C136.458 88.9967 137.394 90.2446 139.756 90.9644C140.412 91.1536 141.054 91.3861 141.679 91.6604C142.085 91.8194 142.465 92.0372 142.808 92.3069L143.033 90.1998L141.516 89.3052L140.236 89.0754L136.224 88.3466Z" fill="url(#paint24_linear_108_155)"/>
<path d="M136.224 88.3468C136.497 88.8091 136.89 89.1889 137.361 89.4462C137.516 89.506 137.673 89.556 137.834 89.5957L137.873 89.6048L138.533 89.7554L138.573 89.7644C138.902 89.8398 139.265 89.9226 139.635 90.007C140.464 90.189 141.246 90.5426 141.931 91.0449C142.289 91.3862 142.576 91.7962 142.773 92.2504C142.941 92.6241 143.056 93.0195 143.115 93.4251C144.241 92.2942 145.861 88.9654 144.917 87.4173C143.966 85.8677 140.105 85.062 140.105 85.062C139.795 85.2165 139.539 85.4601 139.369 85.7615C139.145 86.0714 138.878 86.4822 138.516 87.0033C138.219 87.4158 137.819 87.7431 137.355 87.9528C137.002 88.1428 136.62 88.2758 136.224 88.3468Z" fill="url(#paint25_linear_108_155)"/>
<path style="mix-blend-mode:multiply" opacity="0.99" d="M138.548 89.7797L137.823 89.614L137.895 89.6306C138.357 89.7984 140.857 90.7303 141.656 91.6692C142.062 91.8282 142.443 92.0461 142.785 92.3157C142.953 92.6895 143.069 93.0849 143.128 93.4904C144.254 92.3596 145.874 89.0307 144.93 87.4827C145.013 87.7638 145.002 88.0641 144.899 88.3385C144.796 88.6129 144.607 88.8465 144.36 89.0043C143.484 89.4982 139.234 87.1396 139.107 86.9092C138.979 86.6787 139.211 86.239 139.357 85.8143C139.133 86.1241 138.866 86.535 138.504 87.0561C138.207 87.4685 137.807 87.7959 137.343 88.0055C138.344 88.1998 139.306 88.5601 140.188 89.0716C141.479 89.8937 139.708 90.0514 139.622 90.0597L138.56 89.8172L138.548 89.7797Z" fill="url(#paint26_linear_108_155)"/>
<path d="M142.188 88.1262C142.068 87.8799 141.868 87.6821 141.62 87.5661C141.373 87.4501 141.092 87.423 140.827 87.4893C141.222 87.809 141.689 88.0276 142.188 88.1262Z" fill="white"/>
<path d="M44.0924 36.1325C44.0924 36.1325 37.2524 37.4575 33.5047 43.597C33.5047 43.597 32.9166 47.9042 35.0182 54.1998C35.4632 55.5035 35.9825 56.7806 36.5736 58.0249C36.5736 58.0249 42.5636 53.5842 45.2003 44.5607C45.2003 44.5607 45.2003 44.5607 45.2094 44.5212C45.247 44.3563 45.2847 44.1914 45.3223 44.0265C45 45.6809 44.2368 52.5783 38.1385 58.2227C38.1385 58.2227 39.7621 63.0558 42.9444 66.2601C43.5033 66.8255 44.1211 67.3295 44.7871 67.7635C44.7871 67.7635 59.198 63.4624 62.4152 55.4528C62.2958 55.7934 62.0811 56.3689 61.7714 57.1171C60.1302 61.052 55.883 69.6521 49.0887 72.5698C49.0887 72.5698 55.7132 82.8546 62.7043 87.3104L62.5658 80.6235C62.993 82.9128 63.7223 85.1354 64.7345 87.2328C64.918 87.6147 65.1116 88.0129 65.3319 88.3547C66.0309 89.5483 69.6248 92.6523 79.3186 89.4669C81.9636 88.5676 84.5353 87.4659 87.011 86.1714C88.3315 85.4944 75.0029 93.8389 75.0877 93.8929C75.5 94.0936 75.9222 94.2734 76.3526 94.4317C80.6683 96.0765 87.0366 96.7258 93.6941 96.3516C96.1724 96.2202 98.6414 95.9499 101.09 95.5422C102.6 95.282 104.083 94.8869 105.523 94.3617C111.764 92.1644 118.098 87.9201 121.609 85.37C121.96 85.1101 122.3 84.8339 122.579 84.6477C123.232 84.1584 123.73 83.7723 124.025 83.5414L124.101 83.4824L124.374 83.3505L124.207 83.2636L121.97 82.0587C114.58 77.9492 92.1251 65.1456 83.7184 56.5565C81.1856 53.9724 78.7914 51.2674 76.5588 48.6756C76.3971 48.4721 76.2207 48.2722 76.0559 48.0819L75.9029 47.9012C69.519 40.3917 64.5987 33.5843 61.8699 31.129C58.4231 27.9892 49.4595 27.3995 41.9643 20.4413C41.3906 19.9147 40.8244 19.3551 40.3068 18.765C35.2994 13.0962 31.0694 6.78578 27.7283 9.78465e-05C29.0901 6.63082 31.5764 12.9797 35.0795 18.7718C38.8592 25.1036 48.4918 31.1204 48.8625 31.3508C48.4602 31.2589 35.6135 27.4645 27.8277 20.5024C28.323 22.8793 29.2099 25.1574 30.4521 27.2435C30.4521 27.2435 35.6855 34.3514 44.0924 36.1325Z" fill="url(#paint27_linear_108_155)"/>
<path d="M64.7614 87.2665C64.9448 87.6484 65.1384 88.0466 65.3588 88.3884C66.0578 89.5821 69.6516 92.686 79.3454 89.5006C81.9904 88.6013 84.5622 87.4996 87.0379 86.2051C88.3584 85.5282 75.0297 93.8726 75.1145 93.9267C75.5268 94.1274 75.949 94.3072 76.3795 94.4654C77.9535 93.9851 79.4988 93.3872 81.0384 92.7534C83.7106 91.7189 86.3711 90.6748 88.9601 89.427C95.7064 86.1358 101.68 81.4551 106.49 75.692C106.745 75.3963 102.9 73.4841 102.471 73.3862C101.295 73.2494 99.7006 75.1547 98.7646 75.8501C96.0322 77.9545 93.1355 79.8365 90.1022 81.4779C88.4014 82.3892 86.6529 83.2084 84.8643 83.9321C78.6762 86.508 71.9811 87.6352 65.2907 87.2278C65.1134 87.2197 64.9357 87.2327 64.7614 87.2665Z" fill="url(#paint28_linear_108_155)"/>
<path style="mix-blend-mode:multiply" opacity="0.6" d="M75.1283 93.9576C80.8359 96.649 91.3735 97.2442 101.124 95.6053C102.634 95.3451 104.117 94.95 105.557 94.4248C111.798 92.2275 118.132 87.9832 121.643 85.4331C121.994 85.1732 122.334 84.897 122.613 84.7108C123.266 84.2215 123.764 83.8354 124.059 83.6045L124.135 83.5455L124.374 83.3503L124.182 83.2508L121.945 82.0459C115.518 80.5968 109.222 78.6204 103.12 76.1368C94.9389 83.3945 84.1296 87.727 87.0517 86.236C88.3722 85.5591 75.0405 93.9167 75.1283 93.9576Z" fill="url(#paint29_linear_108_155)"/>
<path d="M41.9444 20.4367C43.6295 22.1877 45.4377 23.8159 47.3552 25.3089C47.7271 25.5951 48.1172 25.8923 48.5418 26.1906C50.1809 27.4203 51.9181 28.5133 53.736 29.4587C65.9305 35.7136 71.0112 46.5897 81.7959 59.5041C92.8868 72.7799 110.027 81.1426 120.696 85.1752C121.012 85.2843 121.339 85.3591 121.672 85.3982C121.962 85.4503 122.259 85.4421 122.546 85.3742C122.832 85.3063 123.102 85.18 123.338 85.0034C123.573 84.8267 123.77 84.6034 123.916 84.3474C124.061 84.0913 124.152 83.808 124.184 83.5151C124.212 83.3898 124.235 83.2909 124.249 83.2315C124.249 83.2315 92.4255 65.0753 83.709 56.5057C81.4382 54.2938 78.9907 51.5488 76.5494 48.6248L76.0465 48.0311L75.8935 47.8504C69.0838 39.744 62.5187 30.8399 61.1028 29.8989C59.1404 28.6457 48.6572 26.2933 41.9444 20.4367Z" fill="url(#paint30_linear_108_155)"/>
<path d="M42.9712 66.2939C43.5301 66.8593 44.1479 67.3633 44.8139 67.7973C44.8139 67.7973 59.2249 63.4962 62.442 55.4866C62.3226 55.8272 62.1079 56.4027 61.7982 57.1509C64.8077 52.8051 67.1929 48.0587 68.8839 43.0503C68.564 43.5394 64.0733 57.8856 42.9712 66.2939Z" fill="url(#paint31_linear_108_155)"/>
<path d="M57.4346 54.1348C57.4346 54.1348 64.3353 48.0769 67.5247 42.5593C67.5247 42.5593 63.8343 58.3237 42.0192 62.0443C42.0192 62.0443 49.5742 59.807 52.0067 57.3298C52.0052 57.3364 55.8386 55.6233 57.4346 54.1348Z" fill="url(#paint32_linear_108_155)"/>
<path style="mix-blend-mode:multiply" opacity="0.99" d="M47.3698 25.3051C47.5717 25.5455 50.9661 29.4922 57.5765 33.7917C69.0542 41.2708 74.3148 59.6553 83.702 66.5945C87.9699 69.7553 110.066 83.3721 105.568 94.4065C111.809 92.2091 118.143 87.9649 121.654 85.4147C121.944 85.4669 122.241 85.4587 122.528 85.3908C122.815 85.3228 123.084 85.1966 123.32 85.0199C123.555 84.8433 123.752 84.62 123.898 84.3639C124.043 84.1079 124.135 83.8246 124.166 83.5317L124.374 83.3502L124.182 83.2507C124.154 83.3727 124.112 83.4913 124.059 83.6045C123.931 83.8959 123.731 84.1501 123.478 84.3435C123.225 84.5369 122.928 84.6633 122.613 84.7107C121.773 84.835 120.914 84.7371 120.124 84.4268C87.3645 73.774 72.2195 46.1298 66.1706 38.3082C59.9565 30.2684 53.6058 29.755 48.5189 26.199C48.1294 25.9296 47.7458 25.6339 47.3698 25.3051Z" fill="url(#paint33_linear_108_155)"/>
<path d="M35.018 54.1996C35.463 55.5033 35.9823 56.7804 36.5733 58.0247C36.5733 58.0247 42.5634 53.584 45.2001 44.5605C45.2001 44.5605 45.2001 44.5605 45.2091 44.521C45.2965 44.1384 45.3824 43.7624 45.4236 43.3693C44.2145 45.9185 42.5315 48.2143 40.4642 50.1343C38.8124 51.6958 36.9847 53.0601 35.018 54.1996Z" fill="url(#paint34_linear_108_155)"/>
<mask id="mask0_108_155" style="mask-type:alpha" maskUnits="userSpaceOnUse" x="133" y="84" width="5" height="3">
<path d="M134.842 84.1447C136.522 84.5286 137.314 85.9758 137.5 86.6514C135.992 86.7035 134.956 86.1256 134.627 85.8301C133.998 85.1084 133.161 83.7609 134.842 84.1447Z" fill="url(#paint35_linear_108_155)"/>
</mask>
<g mask="url(#mask0_108_155)">
<path d="M134.842 84.1447C136.522 84.5286 137.314 85.9758 137.5 86.6514C135.992 86.7035 134.956 86.1256 134.627 85.8301C133.998 85.1084 133.161 83.7609 134.842 84.1447Z" fill="url(#paint36_linear_108_155)"/>
<path d="M134.473 85.1964C134.435 85.379 134.453 85.5687 134.523 85.7414C134.593 85.9142 134.713 86.0622 134.867 86.1666C135.022 86.271 135.204 86.3272 135.39 86.3279C135.577 86.3286 135.759 86.2739 135.914 86.1707C136.07 86.0674 136.191 85.9204 136.262 85.7482C136.334 85.576 136.352 85.3864 136.316 85.2036C136.279 85.0207 136.189 84.8529 136.057 84.7213C135.925 84.5898 135.757 84.5005 135.574 84.4648C135.454 84.4405 135.33 84.4402 135.209 84.4638C135.089 84.4874 134.974 84.5346 134.872 84.6025C134.77 84.6705 134.682 84.7579 134.614 84.8598C134.545 84.9617 134.497 85.0761 134.473 85.1964Z" fill="url(#paint37_radial_108_155)"/>
<path d="M134.698 85.2415C134.662 85.3974 134.69 85.561 134.775 85.6963C134.86 85.8317 134.996 85.9277 135.151 85.9633C135.229 85.979 135.309 85.9793 135.387 85.9641C135.464 85.9489 135.538 85.9185 135.604 85.8748C135.67 85.831 135.727 85.7746 135.771 85.7089C135.815 85.6432 135.846 85.5695 135.862 85.4919C135.878 85.4143 135.878 85.3343 135.863 85.2566C135.847 85.1789 135.817 85.105 135.773 85.039C135.729 84.973 135.673 84.9163 135.607 84.8721C135.542 84.8279 135.468 84.7971 135.39 84.7814C135.238 84.7545 135.081 84.7873 134.952 84.873C134.823 84.9587 134.732 85.0906 134.698 85.2415Z" fill="url(#paint38_linear_108_155)"/>
<path style="mix-blend-mode:screen" opacity="0.5" d="M135.746 84.8504L135.301 85.2805L134.423 84.9315L134.593 84.5932C134.989 84.6127 135.379 84.6996 135.746 84.8504Z" fill="url(#paint39_linear_108_155)"/>
</g>
<path style="mix-blend-mode:multiply" opacity="0.6" d="M129.275 106.226C130.496 105.589 131.222 105.116 131.222 105.116C132.255 102.354 131.073 96.6503 130.791 95.302L130.682 95.145C130.665 95.2176 130.644 95.3099 130.617 95.4287C130.59 95.5474 130.635 95.6203 130.64 95.6908C130.637 95.9469 130.639 96.2111 130.635 96.4738C130.634 96.9941 130.627 97.5129 130.619 98.0316C130.576 100.805 130.43 103.693 129.275 106.226Z" fill="url(#paint40_linear_108_155)"/>
<path style="mix-blend-mode:multiply" opacity="0.6" d="M133.889 103.435C133.889 103.435 133.295 104.396 133.313 104.164C133.746 98.9884 131.799 92.7143 131.799 92.7143C131.799 92.7143 134.757 99.3928 133.889 103.435Z" fill="url(#paint41_linear_108_155)"/>
<path d="M96.7638 123.264C97.5776 122.782 98.2811 122.134 98.829 121.363C99.3279 120.759 99.7938 120.128 100.225 119.474C100.514 119.027 100.797 118.578 101.064 118.111C101.486 117.359 101.867 116.584 102.204 115.79C102.488 115.126 102.949 113.927 101.741 114.019C100.809 114.091 100.521 115.198 100.214 115.905C99.9943 116.528 99.5748 117.062 99.0208 117.423C98.7646 117.577 98.4796 117.677 98.1833 117.717C97.8953 117.763 97.3 117.786 96.7662 117.845C96.5218 117.864 96.2798 117.907 96.0433 117.971C95.727 118.078 95.4229 118.218 95.136 118.389C95.6693 118.372 96.2016 118.444 96.7111 118.603C96.7805 118.622 96.8461 118.654 96.905 118.695C96.8466 119.376 96.6597 120.04 96.3542 120.652C95.9907 120.921 95.5826 121.123 95.1486 121.251C94.9651 121.315 94.7665 121.322 94.5787 121.272C94.3909 121.222 94.2226 121.116 94.0957 120.969C94.0737 120.941 94.0575 120.909 94.0478 120.874C93.8684 120.445 94.4059 119.763 94.5773 119.316C94.1034 119.669 93.6692 120.072 93.2823 120.519C93.159 120.652 93.0679 120.812 93.0161 120.986C92.9871 121.173 94.9276 124.164 96.7638 123.264Z" fill="url(#paint42_linear_108_155)"/>
<path fill-rule="evenodd" clip-rule="evenodd" d="M93.2895 120.548C93.3524 120.689 93.456 120.807 93.5869 120.887C93.741 120.918 93.8992 120.924 94.055 120.904C93.8756 120.474 94.4131 119.792 94.5845 119.345C94.1106 119.698 93.6764 120.102 93.2895 120.548Z" fill="url(#paint43_linear_108_155)"/>
<path fill-rule="evenodd" clip-rule="evenodd" d="M95.1463 118.405C95.6796 118.388 96.2119 118.46 96.7214 118.619C96.805 118.532 96.8689 118.428 96.9088 118.315C96.8867 118.152 96.8327 117.996 96.7501 117.855C96.5058 117.875 96.2638 117.917 96.0272 117.981C95.7198 118.092 95.4246 118.234 95.1463 118.405Z" fill="url(#paint44_linear_108_155)"/>
<path style="mix-blend-mode:multiply" opacity="0.6" fill-rule="evenodd" clip-rule="evenodd" d="M99.0046 117.433C99.7586 117.383 100.862 117.323 100.984 117.608C101.031 117.772 101.058 117.941 101.064 118.111C101.486 117.359 101.867 116.584 102.204 115.79C102.488 115.126 102.949 113.927 101.741 114.019C100.809 114.091 100.521 115.198 100.214 115.905C99.9943 116.528 99.5748 117.062 99.0208 117.423L99.0046 117.433Z" fill="url(#paint45_linear_108_155)"/>
<path fill-rule="evenodd" clip-rule="evenodd" d="M92.3145 116.766C92.3145 116.766 90.6184 118.662 88.8522 118.008C88.1183 117.626 87.4715 117.095 86.9526 116.45C86.9526 116.45 86.404 115.631 86.4737 115.508C86.1163 115.882 85.7918 116.286 85.5038 116.716C86.4878 117.737 87.6656 118.551 88.9683 119.111C90.3205 118.738 91.5024 117.909 92.3145 116.766Z" fill="url(#paint46_linear_108_155)"/>
<path d="M90.0206 118.484C90.9636 118.038 91.8009 117.396 92.4768 116.602C93.0815 115.989 93.6545 115.347 94.1935 114.676C94.5551 114.217 94.913 113.744 95.2446 113.264C95.7844 112.48 96.2807 111.667 96.731 110.828C97.0991 110.128 97.7281 108.862 96.3999 108.844C95.3704 108.824 94.9385 110.016 94.5335 110.756C94.2322 111.419 93.7199 111.963 93.0765 112.304C92.7785 112.446 92.4557 112.527 92.1263 112.545C91.8099 112.563 91.1511 112.531 90.5588 112.541C90.2994 112.542 90.0406 112.566 89.7856 112.614C89.4282 112.703 89.0809 112.828 88.7494 112.988C89.335 113.018 89.9109 113.149 90.4511 113.377C90.5248 113.406 90.5929 113.447 90.6522 113.499C90.6206 113.638 90.235 115.326 89.8563 115.587C89.4319 115.846 88.965 116.029 88.4771 116.125C88.2696 116.175 88.0522 116.163 87.8517 116.09C87.6512 116.017 87.4765 115.887 87.3494 115.715L87.3045 115.608C87.1533 115.115 87.8039 114.424 88.0452 113.945C87.4893 114.283 86.9724 114.682 86.5037 115.134C86.3571 115.269 86.2413 115.434 86.1641 115.618C86.091 115.817 87.9346 119.291 90.0206 118.484Z" fill="url(#paint47_linear_108_155)"/>
<path fill-rule="evenodd" clip-rule="evenodd" d="M86.4847 115.157C86.5672 115.342 86.6792 115.521 86.7751 115.556C86.9389 115.614 87.1121 115.639 87.2855 115.631C87.1342 115.139 87.7848 114.448 88.0261 113.968C87.4703 114.307 86.9533 114.705 86.4847 115.157Z" fill="url(#paint48_linear_108_155)"/>
<path fill-rule="evenodd" clip-rule="evenodd" d="M88.7332 112.999C89.3188 113.028 89.8947 113.16 90.4349 113.387C90.5372 113.3 90.6172 113.19 90.668 113.066C90.6634 112.887 90.6206 112.712 90.5426 112.551C90.2832 112.552 90.0244 112.577 89.7694 112.625C89.412 112.713 89.0647 112.838 88.7332 112.999Z" fill="url(#paint49_linear_108_155)"/>
<path style="mix-blend-mode:multiply" opacity="0.6" fill-rule="evenodd" clip-rule="evenodd" d="M93.0603 112.314C93.888 112.337 95.1265 112.384 95.2068 112.7C95.2428 112.886 95.2555 113.075 95.2446 113.264C95.7844 112.48 96.2807 111.667 96.731 110.828C97.0991 110.128 97.7281 108.862 96.3999 108.844C95.3704 108.824 94.9385 110.016 94.5335 110.756C94.2322 111.419 93.7199 111.963 93.0765 112.304L93.0603 112.314Z" fill="url(#paint50_linear_108_155)"/>
<g style="mix-blend-mode:multiply">
<path d="M137.489 86.7003C137.357 85.76 136.009 84.0642 133.955 83.9422" stroke="#D5D5D5"/>
</g>
<path d="M137.549 86.6216C137.375 85.688 135.954 84.053 133.897 84.0214" stroke="black" stroke-width="0.4"/>
</g>
<defs>
<linearGradient id="paint0_linear_108_155" x1="61.2453" y1="114.628" x2="46.1298" y2="119.515" gradientUnits="userSpaceOnUse">
<stop stop-color="#25182B"/>
<stop offset="1" stop-color="#16091C"/>
</linearGradient>
<linearGradient id="paint1_linear_108_155" x1="68.1996" y1="116.917" x2="42.4363" y2="125.246" gradientUnits="userSpaceOnUse">
<stop stop-color="#25182B"/>
<stop offset="1" stop-color="#16091C"/>
</linearGradient>
<linearGradient id="paint2_linear_108_155" x1="119.79" y1="92.0536" x2="44.0258" y2="116.548" gradientUnits="userSpaceOnUse">
<stop stop-color="#302438"/>
<stop offset="1" stop-color="#201226"/>
</linearGradient>
<linearGradient id="paint3_linear_108_155" x1="104.709" y1="102.525" x2="55.9508" y2="118.288" gradientUnits="userSpaceOnUse">
<stop offset="0.01" stop-color="#C87DC2"/>
<stop offset="0.98" stop-color="#AF799D"/>
</linearGradient>
<linearGradient id="paint4_linear_108_155" x1="47.9503" y1="107.265" x2="121.97" y2="104.538" gradientUnits="userSpaceOnUse">
<stop stop-color="#302438"/>
<stop offset="1" stop-color="#201226"/>
</linearGradient>
<linearGradient id="paint5_linear_108_155" x1="91.5089" y1="102.91" x2="89.176" y2="87.6446" gradientUnits="userSpaceOnUse">
<stop stop-color="#302438"/>
<stop offset="1" stop-color="#201226"/>
</linearGradient>
<linearGradient id="paint6_linear_108_155" x1="94.808" y1="98.2245" x2="80.6839" y2="102.791" gradientUnits="userSpaceOnUse">
<stop stop-color="#2C1619"/>
<stop offset="1" stop-color="#37223E"/>
</linearGradient>
<linearGradient id="paint7_linear_108_155" x1="75.8212" y1="111.197" x2="75.81" y2="110.898" gradientUnits="userSpaceOnUse">
<stop stop-color="#2C1619"/>
<stop offset="1" stop-color="#37223E"/>
</linearGradient>
<linearGradient id="paint8_linear_108_155" x1="47.3845" y1="110.397" x2="107.826" y2="108.137" gradientUnits="userSpaceOnUse">
<stop stop-color="#2C1628"/>
<stop offset="1" stop-color="#37223E"/>
</linearGradient>
<linearGradient id="paint9_linear_108_155" x1="225.99" y1="113.925" x2="114.91" y2="96.0351" gradientUnits="userSpaceOnUse">
<stop stop-color="#232323"/>
<stop offset="1" stop-color="#201226"/>
</linearGradient>
<linearGradient id="paint10_linear_108_155" x1="126.775" y1="125.05" x2="143.597" y2="93.0049" gradientUnits="userSpaceOnUse">
<stop stop-color="#753470"/>
<stop offset="0.98" stop-color="#844467"/>
</linearGradient>
<linearGradient id="paint11_linear_108_155" x1="174.757" y1="123.386" x2="163.853" y2="84.7116" gradientUnits="userSpaceOnUse">
<stop stop-color="#372740"/>
<stop offset="1" stop-color="#201226"/>
</linearGradient>
<linearGradient id="paint12_linear_108_155" x1="130.643" y1="130.783" x2="149.924" y2="94.0494" gradientUnits="userSpaceOnUse">
<stop offset="0.01" stop-color="#C87DC2"/>
<stop offset="0.98" stop-color="#C787AA"/>
</linearGradient>
<linearGradient id="paint13_linear_108_155" x1="149.666" y1="136.443" x2="167.644" y2="102.198" gradientUnits="userSpaceOnUse">
<stop offset="0.01" stop-color="#C87DC2"/>
<stop offset="0.98" stop-color="#C787AA"/>
</linearGradient>
<linearGradient id="paint14_linear_108_155" x1="181.267" y1="132.746" x2="175.237" y2="111.36" gradientUnits="userSpaceOnUse">
<stop stop-color="#2C1619"/>
<stop offset="1" stop-color="#37223E"/>
</linearGradient>
<linearGradient id="paint15_linear_108_155" x1="188.522" y1="138.907" x2="180.711" y2="111.205" gradientUnits="userSpaceOnUse">
<stop stop-color="#2C1619"/>
<stop offset="1" stop-color="#37223E"/>
</linearGradient>
<linearGradient id="paint16_linear_108_155" x1="120.912" y1="122.904" x2="141.434" y2="116.945" gradientUnits="userSpaceOnUse">
<stop stop-color="#2C1619"/>
<stop offset="1" stop-color="#1E1424"/>
</linearGradient>
<linearGradient id="paint17_linear_108_155" x1="153.991" y1="132.539" x2="152.404" y2="126.912" gradientUnits="userSpaceOnUse">
<stop stop-color="#2C1619"/>
<stop offset="1" stop-color="#1E1424"/>
</linearGradient>
<linearGradient id="paint18_linear_108_155" x1="139.476" y1="122.923" x2="152.677" y2="97.7702" gradientUnits="userSpaceOnUse">
<stop stop-color="#2C1619"/>
<stop offset="1" stop-color="#37223E"/>
</linearGradient>
<linearGradient id="paint19_linear_108_155" x1="158.966" y1="122.919" x2="169.163" y2="103.5" gradientUnits="userSpaceOnUse">
<stop stop-color="#2C1619"/>
<stop offset="1" stop-color="#37223E"/>
</linearGradient>
<linearGradient id="paint20_linear_108_155" x1="162.391" y1="123.478" x2="152.373" y2="87.9484" gradientUnits="userSpaceOnUse">
<stop offset="0.02" stop-color="#EEACA4"/>
<stop offset="1" stop-color="#6B454E"/>
</linearGradient>
<linearGradient id="paint21_linear_108_155" x1="114.796" y1="76.8659" x2="116.296" y2="117.013" gradientUnits="userSpaceOnUse">
<stop stop-color="#1A154D"/>
<stop offset="1" stop-color="#201226"/>
</linearGradient>
<linearGradient id="paint22_linear_108_155" x1="95.9282" y1="123.911" x2="95.4197" y2="120.539" gradientUnits="userSpaceOnUse">
<stop offset="0.02" stop-color="#963E35"/>
<stop offset="0.99" stop-color="#850C18"/>
</linearGradient>
<linearGradient id="paint23_linear_108_155" x1="110.674" y1="117.223" x2="109.588" y2="88.1637" gradientUnits="userSpaceOnUse">
<stop offset="0.01" stop-color="#C87DC2"/>
<stop offset="0.98" stop-color="#C787AA"/>
</linearGradient>
<linearGradient id="paint24_linear_108_155" x1="142.755" y1="90.5478" x2="136.02" y2="90.7996" gradientUnits="userSpaceOnUse">
<stop offset="0.02" stop-color="#FD8A1B"/>
<stop offset="0.99" stop-color="#D34D0E"/>
</linearGradient>
<linearGradient id="paint25_linear_108_155" x1="140.645" y1="93.9312" x2="140.327" y2="85.4238" gradientUnits="userSpaceOnUse">
<stop offset="0.02" stop-color="#FC8C1C"/>
<stop offset="0.99" stop-color="#FDAC2B"/>
</linearGradient>
<linearGradient id="paint26_linear_108_155" x1="141.222" y1="93.9097" x2="140.929" y2="86.0744" gradientUnits="userSpaceOnUse">
<stop offset="0.01" stop-color="#FDBEB6"/>
<stop offset="0.98" stop-color="#FDE1D4"/>
</linearGradient>
<linearGradient id="paint27_linear_108_155" x1="28.1225" y1="49.6393" x2="122.634" y2="46.1064" gradientUnits="userSpaceOnUse">
<stop stop-color="#232323"/>
<stop offset="1" stop-color="#201226"/>
<stop offset="1" stop-color="#201226"/>
</linearGradient>
<linearGradient id="paint28_linear_108_155" x1="106.389" y1="83.6939" x2="64.0824" y2="85.2754" gradientUnits="userSpaceOnUse">
<stop stop-color="#2C1619"/>
<stop offset="1" stop-color="#37223E"/>
</linearGradient>
<linearGradient id="paint29_linear_108_155" x1="106.547" y1="97.9254" x2="92.0727" y2="80.136" gradientUnits="userSpaceOnUse">
<stop offset="0.01" stop-color="#C87DC2"/>
<stop offset="0.98" stop-color="#C787AA"/>
</linearGradient>
<linearGradient id="paint30_linear_108_155" x1="122.658" y1="51.6468" x2="42.4924" y2="54.6434" gradientUnits="userSpaceOnUse">
<stop stop-color="#372740"/>
<stop offset="1" stop-color="#201226"/>
</linearGradient>
<linearGradient id="paint31_linear_108_155" x1="55.7554" y1="67.6846" x2="54.8608" y2="43.7511" gradientUnits="userSpaceOnUse">
<stop stop-color="#2C1619"/>
<stop offset="1" stop-color="#37223E"/>
</linearGradient>
<linearGradient id="paint32_linear_108_155" x1="49.7402" y1="65.3116" x2="62.5963" y2="39.5803" gradientUnits="userSpaceOnUse">
<stop stop-color="#2C1619"/>
<stop offset="1" stop-color="#37223E"/>
</linearGradient>
<linearGradient id="paint33_linear_108_155" x1="123.093" y1="58.375" x2="47.9992" y2="61.182" gradientUnits="userSpaceOnUse">
<stop offset="0.02" stop-color="#EEACA4"/>
<stop offset="0.99" stop-color="#D48798"/>
</linearGradient>
<linearGradient id="paint34_linear_108_155" x1="39.8442" y1="58.1962" x2="39.3069" y2="43.8225" gradientUnits="userSpaceOnUse">
<stop stop-color="#2C1619"/>
<stop offset="1" stop-color="#37223E"/>
</linearGradient>
<linearGradient id="paint35_linear_108_155" x1="134.195" y1="83.9971" x2="137.415" y2="86.8063" gradientUnits="userSpaceOnUse">
<stop stop-color="white"/>
<stop offset="1" stop-color="#F2F2F2"/>
</linearGradient>
<linearGradient id="paint36_linear_108_155" x1="134.195" y1="83.9971" x2="137.415" y2="86.8063" gradientUnits="userSpaceOnUse">
<stop stop-color="white"/>
<stop offset="1" stop-color="#F2F2F2"/>
</linearGradient>
<radialGradient id="paint37_radial_108_155" cx="0" cy="0" r="1" gradientUnits="userSpaceOnUse" gradientTransform="translate(135.155 86.0513) rotate(-168.282) scale(1.82061 1.82062)">
<stop offset="0.16" stop-color="#FF2F00"/>
<stop offset="1" stop-color="#860000"/>
</radialGradient>
<linearGradient id="paint38_linear_108_155" x1="135.1" y1="85.8676" x2="135.345" y2="84.687" gradientUnits="userSpaceOnUse">
<stop stop-color="#610800"/>
<stop offset="1" stop-color="#790E0E"/>
</linearGradient>
<linearGradient id="paint39_linear_108_155" x1="135.634" y1="84.9872" x2="134.383" y2="84.7276" gradientUnits="userSpaceOnUse">
<stop stop-color="#C26060"/>
<stop offset="1" stop-color="#EDCDCD"/>
</linearGradient>
<linearGradient id="paint40_linear_108_155" x1="126.679" y1="103.013" x2="132.731" y2="99.2176" gradientUnits="userSpaceOnUse">
<stop offset="0.01" stop-color="#C87DC2"/>
<stop offset="0.98" stop-color="#C787AA"/>
</linearGradient>
<linearGradient id="paint41_linear_108_155" x1="130.32" y1="99.7169" x2="134.395" y2="97.1627" gradientUnits="userSpaceOnUse">
<stop offset="0.01" stop-color="#C87DC2"/>
<stop offset="0.98" stop-color="#C787AA"/>
</linearGradient>
<linearGradient id="paint42_linear_108_155" x1="92.4952" y1="119.453" x2="102.265" y2="119.088" gradientUnits="userSpaceOnUse">
<stop offset="0.02" stop-color="#E65E47"/>
<stop offset="0.99" stop-color="#AB2718"/>
</linearGradient>
<linearGradient id="paint43_linear_108_155" x1="93.5276" y1="121.427" x2="93.4695" y2="119.872" gradientUnits="userSpaceOnUse">
<stop offset="0.02" stop-color="#9F044C"/>
<stop offset="0.99" stop-color="#980218"/>
</linearGradient>
<linearGradient id="paint44_linear_108_155" x1="95.5978" y1="119.147" x2="95.5692" y2="118.379" gradientUnits="userSpaceOnUse">
<stop offset="0.02" stop-color="#9F044C"/>
<stop offset="0.99" stop-color="#980218"/>
</linearGradient>
<linearGradient id="paint45_linear_108_155" x1="100.426" y1="118.613" x2="100.273" y2="114.539" gradientUnits="userSpaceOnUse">
<stop offset="0.01" stop-color="#C87DC2"/>
<stop offset="0.98" stop-color="#AF799D"/>
</linearGradient>
<linearGradient id="paint46_linear_108_155" x1="89.0663" y1="119.13" x2="88.8433" y2="115.381" gradientUnits="userSpaceOnUse">
<stop offset="0.02" stop-color="#963E35"/>
<stop offset="0.99" stop-color="#850C18"/>
</linearGradient>
<linearGradient id="paint47_linear_108_155" x1="86.2545" y1="113.362" x2="96.956" y2="113.936" gradientUnits="userSpaceOnUse">
<stop offset="0.02" stop-color="#E65E47"/>
<stop offset="0.99" stop-color="#AB2718"/>
</linearGradient>
<linearGradient id="paint48_linear_108_155" x1="87.1836" y1="115.62" x2="87.275" y2="113.918" gradientUnits="userSpaceOnUse">
<stop offset="0.02" stop-color="#9F044C"/>
<stop offset="0.99" stop-color="#980218"/>
</linearGradient>
<linearGradient id="paint49_linear_108_155" x1="89.6708" y1="113.335" x2="89.7158" y2="112.497" gradientUnits="userSpaceOnUse">
<stop offset="0.02" stop-color="#9F044C"/>
<stop offset="0.99" stop-color="#980218"/>
</linearGradient>
<linearGradient id="paint50_linear_108_155" x1="94.9945" y1="113.242" x2="95.2347" y2="108.769" gradientUnits="userSpaceOnUse">
<stop offset="0.01" stop-color="#C87DC2"/>
<stop offset="0.98" stop-color="#AF799D"/>
</linearGradient>
</defs>
</svg>
