<svg width="143" height="91" viewBox="0 0 143 91" fill="none" xmlns="http://www.w3.org/2000/svg">
<path d="M113.129 71.5325C113.399 72.1961 113.533 72.9066 113.525 73.6227C113.518 74.3388 113.368 75.0462 113.085 75.7039L106.497 68.9856L106.506 66.2479C106.506 66.2479 112.062 69.4206 113.129 71.5325Z" fill="url(#paint0_linear_108_154)"/>
<path d="M102.017 67.586C102.017 67.586 112.985 73.0365 114.329 80.8107C114.329 80.8107 115.521 74.5809 108.39 69.2702C101.259 63.9595 102.017 67.586 102.017 67.586Z" fill="url(#paint1_linear_108_154)"/>
<path d="M100.457 67.3908C103.91 67.6774 110.071 69.1926 113.699 76.003C113.699 76.003 110.207 64.6659 92.353 58.1094C92.353 58.1094 95.536 56.7675 96.8561 51.6052C96.8561 51.6052 91.3342 60.7256 81.8021 53.1944C73.7717 46.8571 67.0664 57.1741 67.0664 57.1741C67.0664 57.1741 66.7901 57.7563 75.379 62.6674C86.2006 68.851 94.1532 69.9146 99.1582 68.3582L97.9077 67.381C98.763 67.3057 99.6234 67.3084 100.478 67.3889L100.457 67.3908Z" fill="url(#paint2_linear_108_154)"/>
<path style="mix-blend-mode:multiply" opacity="0.6" d="M77.7715 60.4558C77.7715 60.4558 84.6049 65.6525 89.7718 66.5567C97.8862 67.9824 101.598 64.7503 109.413 69.1587C109.413 69.1587 106.124 64.8825 100.502 64.0073C94.8792 63.1321 83.2354 63.4271 77.7715 60.4558Z" fill="url(#paint3_linear_108_154)"/>
<path d="M69.2324 51.2402C69.2324 51.2402 72.8526 57.3576 80.0271 57.9231C87.2015 58.4886 89.0495 57.6249 94.5172 58.9598C99.9849 60.2946 109.898 65.311 113.13 71.5326C113.13 71.5326 109.457 65.4458 95.6183 65.8611C82.8876 66.2131 71.9174 57.2936 69.2324 51.2402Z" fill="url(#paint4_linear_108_154)"/>
<path d="M80.487 56.9642C80.487 56.9642 89.7104 59.1787 92.9986 57.5831C96.2868 55.9874 96.8478 51.6059 96.8478 51.6059C96.8478 51.6059 92.0492 58.0644 80.487 56.9642Z" fill="url(#paint5_linear_108_154)"/>
<path d="M92.1271 57.8859C89.6635 58.2054 87.1664 58.1636 84.7148 57.762C84.7148 57.762 90.1131 58.7134 94.5171 58.9597L92.7262 58.1135L93.6971 57.1677L92.1271 57.8859Z" fill="url(#paint6_linear_108_154)"/>
<path d="M96.8843 65.0508C95.9845 65.0007 95.449 64.9985 95.449 64.9985C95.449 64.9985 96.156 65.0492 96.8843 65.0508Z" fill="url(#paint7_linear_108_154)"/>
<path d="M104.94 66.0195C104.94 66.0195 97.7184 62.0105 97.1702 59.7738C96.3069 59.4463 95.4236 59.1741 94.5256 58.959C93.3148 58.6934 86.5702 58.144 86.5702 58.144C87.7 58.3173 88.8196 58.5518 89.924 58.8466C90.5645 59.1046 98.2034 64.3044 98.4297 64.7633C98.5504 65.0049 97.7114 65.0563 96.8928 65.0501C97.3709 65.079 97.949 65.1244 98.6186 65.1871C92.7175 64.9157 86.5502 65.2898 76.6882 59.5748C76.6882 59.5748 83.617 65.0625 91.919 65.6872C100.221 66.3118 107.717 65.156 113.164 71.5295C113.13 71.5326 112.112 67.8658 104.94 66.0195Z" fill="url(#paint8_linear_108_154)"/>
<path d="M60.5461 48.7193C60.5461 48.7193 55.5952 52.635 47.6441 53.0788C39.693 53.5226 32.1662 52.4327 29.3795 52.7745C26.5928 53.1162 22.3084 57.5745 15.978 57.6638C11.9066 57.6671 7.8595 57.0377 3.98142 55.7983C6.94893 57.8766 10.3051 59.3351 13.8493 60.0865C17.7833 60.9498 24.1191 58.8685 24.1191 58.8685C24.1191 58.8685 17.3239 63.3605 11.4859 64.1026C12.5633 64.8426 13.7753 65.3641 15.0534 65.6378C18.2218 65.8175 21.3531 64.8811 23.9027 62.9914C23.9027 62.9914 21.5695 66.6836 22.2587 70.9203C22.2587 70.9203 24.1478 73.8132 28.7884 75.4211C28.7884 75.4211 26.6785 69.1478 27.2208 65.4489C27.2208 65.4489 27.337 70.4878 29.5248 74.7666C29.5248 74.7666 32.8851 76.4708 35.7389 75.6003C35.2926 74.6088 34.9289 73.5822 34.6516 72.5309C34.6516 72.5309 38.1542 66.7911 38.4108 62.2662C38.4108 62.2662 39.3939 68.5359 44.8999 74.6213C44.8999 74.6213 47.4174 76.1031 50.2088 75.3454L47.711 72.6797C48.8996 73.5517 50.243 74.1898 51.6699 74.5601C53.8219 75.0476 60.6582 73.7983 64.2845 72.0131L65.3073 72.3774C65.3073 72.3774 66.9924 71.6057 68.8635 68.8512C68.8635 68.8512 71.338 67.8143 72.6557 66.0743L72.4672 65.235C72.4672 65.235 73.3229 63.7815 72.9847 62.6177C71.0608 60.5492 68.832 58.7869 66.3756 57.3918C66.3756 57.3918 70.915 59.4844 73.8855 59.8838C73.8855 59.8838 74.8932 59.3372 74.612 58.4679C74.3308 57.5986 60.5461 48.7193 60.5461 48.7193Z" fill="url(#paint9_linear_108_154)"/>
<path style="mix-blend-mode:multiply" opacity="0.6" d="M41.0212 54.741C41.0212 54.741 51.5865 64.1003 68.8975 68.848C70.253 68.0542 71.5237 67.1237 72.6896 66.071C72.6896 66.071 70.1892 60.3947 59.5969 54.0959C59.5984 54.1129 47.4283 55.1586 41.0212 54.741Z" fill="url(#paint10_linear_108_154)"/>
<path d="M17.2674 57.5751C20.0619 57.4425 22.8159 56.8537 25.4203 55.8322C32.722 52.7498 41.5811 55.242 50.7273 55.5449C60.1399 55.8576 61.9745 52.0999 61.9745 52.0999L60.5537 48.71C60.5537 48.71 54.362 52.5469 47.6516 53.0694C40.9412 53.5919 29.9399 52.256 28.651 52.6314C27.3621 53.0069 22.1671 56.8764 17.2674 57.5751Z" fill="url(#paint11_linear_108_154)"/>
<path style="mix-blend-mode:multiply" opacity="0.6" d="M38.0544 54.4741C38.0544 54.4741 50.995 68.0094 65.3413 72.3743C66.3366 71.7278 67.2336 70.9415 68.0049 70.0394C68.0049 70.0394 50.9595 64.081 41.0213 54.7411L38.0544 54.4741Z" fill="url(#paint12_linear_108_154)"/>
<path style="mix-blend-mode:multiply" opacity="0.6" d="M50.2256 75.3437C50.2256 75.3437 39.623 65.3454 37.1668 54.4185L36.4563 54.3767C36.4563 54.3767 37.6273 67.1178 44.9082 74.6204C44.9167 74.6196 48.2072 76.4972 50.2256 75.3437Z" fill="url(#paint13_linear_108_154)"/>
<path d="M34.6444 72.5442C34.6444 72.5442 30.7521 64.2119 31.3465 55.8142C31.3465 55.8142 31.3621 61.8088 35.339 71.294L34.6444 72.5442Z" fill="url(#paint14_linear_108_154)"/>
<path d="M27.2648 65.1795C27.2648 65.1795 27.7014 59.5373 29.1198 55.7708C29.1198 55.7708 23.326 64.0767 28.7855 75.4343C28.7855 75.4343 27.3209 71.1019 27.63 68.9663C27.613 68.9678 27.1225 66.5202 27.2648 65.1795Z" fill="url(#paint15_linear_108_154)"/>
<path d="M68.0054 70.0437C68.0054 70.0437 60.104 66.1829 56.2578 64.2236C56.2578 64.2236 64.3654 67.8128 68.8981 68.8524L68.0054 70.0437Z" fill="url(#paint16_linear_108_154)"/>
<path d="M47.7282 72.6781C46.0818 70.888 44.558 68.9891 43.167 66.9941C46.2764 69.768 49.5709 72.3271 53.0278 74.6537C53.0278 74.6537 48.6789 73.9826 47.7282 72.6781Z" fill="url(#paint17_linear_108_154)"/>
<path d="M41.0212 54.741C41.0212 54.741 50.7484 62.7169 61.3844 66.3691C61.3844 66.3691 60.7108 65.0048 57.4272 61.5248C54.1436 58.0448 45.8757 55.2285 45.8757 55.2285L41.0212 54.741Z" fill="url(#paint18_linear_108_154)"/>
<path d="M37.1755 54.4177C37.1755 54.4177 38.4883 62.1305 43.1668 66.9942C43.004 64.8069 42.4194 62.6718 41.4454 60.7066C39.7932 57.2694 38.0544 54.474 38.0544 54.474L37.1755 54.4177Z" fill="url(#paint19_linear_108_154)"/>
<path style="mix-blend-mode:multiply" opacity="0.99" d="M21.2862 57.0774C21.2862 57.0774 24.1687 57.1722 28.599 55.8399C36.0471 53.605 55.7206 58.9407 61.7909 55.7874L72.4953 56.688L60.546 48.7194L58.4118 49.8706C58.4118 49.8706 59.4051 51.591 57.6116 53.2334C54.5034 56.0888 39.6373 53.9903 34.2975 53.5816C28.3754 53.128 25.0623 56.4562 21.2862 57.0774Z" fill="url(#paint20_linear_108_154)"/>
<path d="M87.1273 62.1573C86.5756 62.8758 85.9093 63.4985 85.1552 64.0004C83.9853 64.8317 81.262 66.8894 79.9666 66.9613C78.377 67.0474 76.9319 65.2572 75.4251 64.7533C72.7997 63.8682 70.8288 63.394 68.5135 62.1549C68.3018 62.0416 68.0643 61.9264 67.8757 61.7853C67.0138 61.2899 66.1918 60.7283 65.4171 60.1053L65.1388 59.8739C64.6751 59.4883 63.993 58.87 63.2663 58.1401C63.2981 58.2058 63.3252 58.2675 63.3561 58.3246C63.5411 58.7201 63.7636 59.0969 64.0206 59.4499C62.6862 58.4681 61.5857 57.2032 60.7978 55.7459C60.6064 56.4369 60.5277 57.1542 60.5647 57.8702C60.5647 57.8702 58.4024 55.5463 58.5374 53.4738C58.6725 51.4013 60.3786 49.647 60.2002 47.7061C60.0105 47.4417 59.7855 47.2044 59.5315 47.0009C58.8819 46.5004 58.3279 45.8868 57.896 45.1897C57.7668 44.9951 57.68 44.7755 57.6411 44.5452C57.6023 44.3149 57.6122 44.079 57.6703 43.8528C57.7677 43.4564 57.9185 43.0751 58.1186 42.7194C58.3901 42.3424 58.7396 42.0284 59.1433 41.7986C59.893 41.424 60.6746 41.1171 61.4788 40.8816C62.4993 40.5039 63.4609 39.9829 64.3347 39.3342C64.5377 39.2122 64.6976 39.0298 64.7921 38.8125C64.5842 39.409 64.241 39.9492 63.7893 40.3908C63.3011 40.9851 62.7506 41.5253 62.1472 42.0022L62.4063 41.9784C63.2777 41.8575 64.1089 41.5347 64.8337 41.0358C64.4652 41.4701 64.0661 41.8775 63.6394 42.2548C63.5245 42.3553 63.4145 42.464 63.2999 42.5687C63.3242 42.5689 63.3484 42.5667 63.3721 42.5621C64.9542 42.8169 66.5124 43.2023 68.0308 43.7143C69.0898 44.0703 70.1287 44.4838 71.1426 44.953C71.5896 45.1561 72.0115 45.3657 72.4302 45.5885C73.7801 46.2953 75.0879 47.0574 76.3961 47.8708C77.7044 48.6842 78.9434 49.4441 80.2296 50.2038C80.9566 51.2634 81.6392 52.3999 82.6608 53.0769C85.0834 54.6916 87.711 56.2532 87.9215 59.0563C88.0562 60.1531 87.7726 61.2604 87.1273 62.1573Z" fill="url(#paint21_linear_108_154)"/>
<path fill-rule="evenodd" clip-rule="evenodd" d="M81.2791 70.01C81.2791 70.01 81.9873 71.2855 83.0567 71.1315C83.5151 71.0099 83.9431 70.794 84.3134 70.4978C84.3134 70.4978 84.7064 70.1147 84.699 70.034C84.8526 70.2883 84.9833 70.5558 85.0894 70.8333C84.4118 71.2786 83.6522 71.5843 82.855 71.7325C82.1477 71.3561 81.5913 70.7479 81.2791 70.01Z" fill="url(#paint22_linear_108_154)"/>
<path style="mix-blend-mode:multiply" opacity="0.6" d="M73.7093 62.4397C73.7093 62.4397 77.0788 61.8217 78.5332 62.0349L79.3439 63.0269C77.4469 63.3332 75.5025 63.1306 73.7093 62.4397ZM87.9008 59.0625C87.7031 56.2582 85.0755 54.6966 82.6401 53.0831C81.6185 52.4061 80.9359 51.2696 80.2089 50.21C78.9247 49.4715 77.6547 48.6545 76.3754 47.877C77.8876 50.3506 79.3024 53.0687 79.3024 53.0687L76.8434 52.9692L79.8259 53.7315C82.2062 56.3309 82.1273 60.1328 82.1273 60.1328C80.5593 60.9664 78.3202 60.6497 78.3202 60.6497L76.3729 57.4024C76.3425 55.8592 76.0224 54.3355 75.429 52.9107C75.8539 54.1976 75.9795 55.5644 75.7963 56.9072L73.0782 57.2041L75.6116 57.5537C76.5293 58.6671 77.1431 59.9992 77.3931 61.4202C75.8187 62.0446 72.8519 61.4521 72.8519 61.4521L69.8832 57.8104C71.0945 59.3087 72.0879 60.9708 72.8339 62.7472C70.8322 62.6008 68.9303 61.8163 67.4074 60.5092L65.0423 54.6277L66.2282 59.0029C64.915 58.6953 63.1487 58.1167 62.5819 57.4021C62.8595 57.7664 63.1189 58.0723 63.3624 58.3454C63.9726 59.024 64.6666 59.6223 65.4277 60.1258C66.0776 60.58 66.8511 61.0742 67.8863 61.8057C68.0945 61.9279 68.3109 62.0451 68.5241 62.1754C70.8394 63.4145 72.8103 63.8886 75.4357 64.7737C76.9425 65.2777 78.388 67.0721 79.9772 66.9817C81.2556 66.9114 83.9959 64.8521 85.1658 64.0208C85.9199 63.5189 86.5862 62.8962 87.1378 62.1778C87.6271 61.2114 87.8882 60.1456 87.9008 59.0625Z" fill="url(#paint23_linear_108_154)"/>
<path d="M60.6044 46.1399C60.4044 46.5266 59.7151 47.2281 58.1793 47.4806C57.7538 47.5441 57.333 47.6357 56.9196 47.7549C56.6526 47.8203 56.3967 47.9247 56.16 48.0645L56.1958 46.7293L57.2182 46.297L58.0372 46.2602L60.6044 46.1399Z" fill="url(#paint24_linear_108_154)"/>
<path d="M60.6047 46.1397C60.3956 46.4058 60.1184 46.6103 59.8025 46.7317C59.7012 46.7562 59.5984 46.7742 59.4948 46.7857L59.4694 46.788L59.0447 46.8271L59.0192 46.8294C58.8068 46.8489 58.5732 46.8704 58.3354 46.8922C57.802 46.9368 57.2838 47.0923 56.8141 47.349C56.5615 47.5323 56.3484 47.7646 56.1873 48.0319C56.0511 48.2514 55.946 48.4888 55.8753 48.7373C55.2663 47.9367 54.5316 45.7214 55.2509 44.833C55.9744 43.9442 58.4547 43.7633 58.4547 43.7633C58.6353 43.8857 58.775 44.0593 58.856 44.2618C58.9697 44.4741 59.1025 44.7531 59.2851 45.1089C59.4364 45.3915 59.6591 45.6294 59.931 45.7991C60.1362 45.9474 60.3636 46.0624 60.6047 46.1397Z" fill="url(#paint25_linear_108_154)"/>
<path style="mix-blend-mode:multiply" opacity="0.99" d="M59.033 46.8412L59.5002 46.7983L59.4535 46.8026C59.1512 46.8689 57.5109 47.2423 56.9334 47.7623C56.6664 47.8277 56.4105 47.9321 56.1738 48.0719C56.0375 48.2914 55.9325 48.5288 55.8617 48.7773C55.2528 47.9767 54.5181 45.7614 55.2374 44.873C55.1623 45.0417 55.144 45.2303 55.1853 45.4103C55.2265 45.5903 55.3251 45.7521 55.4662 45.8713C55.9724 46.2531 58.8248 45.1343 58.9239 45.001C59.023 44.8677 58.9146 44.5736 58.8591 44.296C58.9728 44.5083 59.1055 44.7873 59.2881 45.1431C59.4394 45.4257 59.6621 45.6636 59.934 45.8333C59.2923 45.8711 58.6615 46.0159 58.0675 46.2618C57.1926 46.6677 58.2859 46.9141 58.3385 46.9264L59.0222 46.8636L59.033 46.8412Z" fill="url(#paint26_linear_108_154)"/>
<path d="M56.8971 45.504C56.9921 45.3601 57.1337 45.2533 57.2982 45.2015C57.4627 45.1497 57.6401 45.1561 57.8004 45.2197C57.5269 45.3865 57.2168 45.4841 56.8971 45.504Z" fill="white"/>
<path d="M122.531 21.2095C122.531 21.2095 126.694 22.6086 128.523 26.7576C128.523 26.7576 128.531 29.498 126.692 33.256C126.305 34.0334 125.874 34.7881 125.401 35.5162C125.401 35.5162 122.029 32.2413 121.135 26.3831C121.135 26.3831 121.135 26.3831 121.133 26.3576C121.123 26.2514 121.113 26.1452 121.103 26.0391C121.167 27.0997 121.067 31.4731 124.406 35.5091C124.406 35.5091 122.988 38.3933 120.732 40.1296C120.336 40.4362 119.908 40.6995 119.455 40.9151C119.455 40.9151 110.81 37.0242 109.469 31.751C109.515 31.9737 109.601 32.3513 109.732 32.8446C110.429 35.4403 112.365 41.1685 116.366 43.5589C116.366 43.5589 111.368 49.4319 106.628 51.6321L107.273 47.4655C106.815 48.8603 106.174 50.188 105.366 51.414C105.219 51.6373 105.065 51.8699 104.899 52.0651C104.363 52.7526 101.858 54.3918 96.0669 51.592C94.4894 50.8092 92.9745 49.906 91.5358 48.8905C90.7672 48.3572 98.3984 54.6841 98.3409 54.7108C98.0665 54.8018 97.7877 54.8788 97.5055 54.9417C94.6716 55.6091 90.6384 55.4829 86.5099 54.6932C84.9723 54.404 83.4522 54.029 81.9567 53.5698C81.0348 53.2811 80.1407 52.9103 79.2851 52.4619C75.5691 50.5678 71.9661 47.387 69.9853 45.5004C69.7878 45.3087 69.598 45.1077 69.4395 44.968C69.0724 44.6078 68.7937 44.325 68.6282 44.156L68.5857 44.1128L68.4262 44.0076L68.5381 43.9673L70.0365 43.4013C74.9967 41.4507 90.0963 35.326 96.0663 30.6615C97.8646 29.2584 99.5865 27.7682 101.198 26.3352C101.316 26.2216 101.443 26.1114 101.562 26.0063L101.672 25.9062C106.288 21.7472 109.931 17.9047 111.841 16.5985C114.257 14.9246 119.907 15.3047 125.171 11.583C125.574 11.3019 125.974 10.9995 126.347 10.6741C129.949 7.55028 133.119 3.96065 135.773 -0.000149995C134.369 4.02912 132.285 7.78836 129.612 11.1149C126.722 14.7554 120.201 17.7104 119.95 17.8234C120.209 17.7996 128.553 16.5016 133.999 12.8018C133.491 14.2455 132.746 15.5949 131.796 16.7946C131.796 16.7946 127.933 20.7987 122.531 21.2095Z" fill="url(#paint27_linear_108_154)"/>
<path d="M105.346 51.4331C105.2 51.6564 105.046 51.889 104.879 52.0842C104.343 52.7716 101.838 54.4109 96.0475 51.611C94.4699 50.8283 92.955 49.9251 91.5163 48.9095C90.7478 48.3763 98.3789 54.7032 98.3214 54.7299C98.047 54.8208 97.7682 54.8979 97.486 54.9608C96.5427 54.5293 95.6271 54.0267 94.718 53.5021C93.1348 52.6325 91.5597 51.758 90.0462 50.7621C86.1058 48.1423 82.764 44.7188 80.2402 40.7163C80.1056 40.5102 82.6678 39.6366 82.9439 39.6112C83.6903 39.624 84.5272 40.9475 85.054 41.4602C86.5855 43.0033 88.2383 44.4211 89.9964 45.7C90.983 46.4114 92.0071 47.0693 93.0642 47.6709C96.7155 49.7971 100.805 51.0605 105.019 51.3647C105.13 51.3744 105.24 51.3974 105.346 51.4331Z" fill="url(#paint28_linear_108_154)"/>
<path style="mix-blend-mode:multiply" opacity="0.6" d="M98.31 54.748C94.5191 55.953 87.8852 55.4449 81.9301 53.6066C81.0083 53.3179 80.1142 52.9471 79.2585 52.4988C75.5425 50.6046 71.9395 47.4238 69.9587 45.5372C69.7612 45.3455 69.5714 45.1445 69.4129 45.0049C69.0458 44.6446 68.7671 44.3618 68.6017 44.1929L68.5591 44.1497L68.4262 44.0077L68.5547 43.9616L70.0531 43.3956C74.1896 43.0269 78.2886 42.3178 82.3086 41.2756C86.8141 46.4935 93.2062 50.1033 91.5049 48.9277C90.7364 48.3944 98.3683 54.7298 98.31 54.748Z" fill="url(#paint29_linear_108_154)"/>
<path d="M125.184 11.5821C123.985 12.5355 122.719 13.4018 121.396 14.1745C121.14 14.3222 120.871 14.4754 120.581 14.6263C119.454 15.2577 118.278 15.7956 117.063 16.2345C108.921 19.1243 104.838 25.4956 97.0213 32.6641C88.9829 40.0328 77.575 43.8266 70.5722 45.4553C70.3654 45.497 70.1547 45.5164 69.9437 45.5131C69.7582 45.5214 69.573 45.4914 69.3996 45.4251C69.2262 45.3587 69.0683 45.2573 68.9358 45.1273C68.8033 44.9972 68.699 44.8412 68.6294 44.6691C68.5599 44.4969 68.5265 44.3123 68.5314 44.1267C68.524 44.046 68.5181 43.9823 68.5146 43.9441C68.5146 43.9441 89.9145 35.2574 96.0764 30.6309C97.68 29.4385 99.4385 27.9277 101.208 26.3046L101.572 25.9757L101.683 25.8756C106.614 21.3792 111.46 16.364 112.423 15.8943C113.754 15.2752 120.501 14.6808 125.184 11.5821Z" fill="url(#paint30_linear_108_154)"/>
<path d="M120.713 40.1485C120.316 40.4551 119.888 40.7184 119.436 40.934C119.436 40.934 110.791 37.0431 109.45 31.7699C109.496 31.9926 109.582 32.3702 109.713 32.8635C108.195 29.8968 107.101 26.732 106.463 23.4614C106.622 23.7937 108.23 33.1326 120.713 40.1485Z" fill="url(#paint31_linear_108_154)"/>
<path d="M112.691 31.3435C112.691 31.3435 108.885 26.9821 107.353 23.2683C107.353 23.2683 108.343 33.4264 121.662 37.5729C121.662 37.5729 117.129 35.5441 115.816 33.7931C115.816 33.7974 113.564 32.4068 112.691 31.3435Z" fill="url(#paint32_linear_108_154)"/>
<path style="mix-blend-mode:multiply" opacity="0.99" d="M121.387 14.1709C121.241 14.3042 118.791 16.4867 114.301 18.6211C106.505 22.3356 101.683 33.3833 95.2382 36.9351C92.3076 38.5536 77.3644 45.2163 79.2532 52.4864C75.5372 50.5923 71.9342 47.4114 69.9534 45.5249C69.7679 45.5332 69.5827 45.5033 69.4093 45.4369C69.2359 45.3705 69.078 45.2691 68.9455 45.1391C68.813 45.009 68.7087 44.853 68.6391 44.6809C68.5696 44.5087 68.5362 44.3241 68.5411 44.1385L68.4263 44.0077L68.5548 43.9616C68.5621 44.0402 68.5779 44.1177 68.6018 44.1929C68.6576 44.3857 68.7612 44.5612 68.903 44.7032C69.0449 44.8452 69.2203 44.9489 69.4131 45.0049C69.9277 45.1527 70.472 45.1632 70.992 45.0354C92.3503 41.1151 104.122 25.1073 108.554 20.7254C113.109 16.2209 117.119 16.4305 120.595 14.6335C120.861 14.4977 121.125 14.3449 121.387 14.1709Z" fill="url(#paint33_linear_108_154)"/>
<path d="M126.692 33.256C126.305 34.0334 125.874 34.788 125.401 35.5161C125.401 35.5161 122.029 32.2412 121.135 26.383C121.135 26.383 121.135 26.383 121.132 26.3575C121.11 26.1112 121.088 25.8691 121.095 25.6201C121.637 27.3138 122.497 28.8888 123.628 30.2611C124.53 31.3747 125.558 32.3798 126.692 33.256Z" fill="url(#paint34_linear_108_154)"/>
<mask id="mask0_108_154" style="mask-type:alpha" maskUnits="userSpaceOnUse" x="59" y="43" width="4" height="3">
<path d="M61.8193 43.6298C60.7372 43.7293 60.1216 44.5674 59.9491 44.9741C60.8871 45.1325 61.5824 44.8579 61.8128 44.7008C62.2659 44.3024 62.9015 43.5304 61.8193 43.6298Z" fill="url(#paint35_linear_108_154)"/>
</mask>
<g mask="url(#mask0_108_154)">
<path d="M61.8193 43.6298C60.7372 43.7293 60.1216 44.5674 59.9491 44.9741C60.8871 45.1325 61.5824 44.8579 61.8128 44.7008C62.2659 44.3024 62.9015 43.5304 61.8193 43.6298Z" fill="url(#paint36_linear_108_154)"/>
<path d="M61.9617 44.3176C61.9702 44.4348 61.9436 44.5519 61.8853 44.654C61.8271 44.7561 61.7398 44.8385 61.6345 44.8909C61.5293 44.9432 61.4109 44.9631 61.2943 44.948C61.1778 44.9329 61.0683 44.8834 60.9799 44.806C60.8915 44.7285 60.8282 44.6265 60.7979 44.513C60.7676 44.3994 60.7717 44.2794 60.8098 44.1682C60.8479 44.057 60.9181 43.9596 61.0117 43.8885C61.1052 43.8173 61.2178 43.7756 61.3351 43.7685C61.4123 43.7634 61.4898 43.7736 61.5631 43.7984C61.6363 43.8232 61.704 43.8623 61.7622 43.9132C61.8204 43.9642 61.868 44.0262 61.9022 44.0956C61.9364 44.165 61.9567 44.2404 61.9617 44.3176Z" fill="url(#paint37_radial_108_154)"/>
<path d="M61.8175 44.3271C61.8268 44.4275 61.7958 44.5274 61.7313 44.6048C61.6669 44.6823 61.5743 44.731 61.474 44.7402C61.4242 44.7436 61.3742 44.7371 61.3269 44.7211C61.2796 44.7051 61.236 44.6799 61.1984 44.6471C61.1608 44.6142 61.1301 44.5743 61.108 44.5295C61.0859 44.4848 61.0728 44.4361 61.0694 44.3863C61.0661 44.3365 61.0726 44.2866 61.0886 44.2393C61.1046 44.192 61.1297 44.1483 61.1626 44.1108C61.1955 44.0732 61.2354 44.0425 61.2801 44.0204C61.3249 43.9982 61.3735 43.9851 61.4233 43.9818C61.5208 43.9777 61.6161 44.0113 61.6895 44.0756C61.7629 44.1399 61.8087 44.23 61.8175 44.3271Z" fill="url(#paint38_linear_108_154)"/>
<path style="mix-blend-mode:screen" opacity="0.5" d="M61.1956 43.9951L61.4374 44.301L62.0155 44.1563L61.9375 43.9308C61.6884 43.9098 61.4374 43.9316 61.1956 43.9951Z" fill="url(#paint39_linear_108_154)"/>
</g>
<path style="mix-blend-mode:multiply" opacity="0.6" d="M63.4535 57.8916C62.7437 57.3915 62.3298 57.0355 62.3298 57.0355C61.9148 55.2235 63.1296 51.7583 63.4184 50.9394L63.5002 50.8505C63.5045 50.8972 63.5099 50.9567 63.5169 51.0332C63.524 51.1096 63.4893 51.1513 63.4804 51.195C63.4609 51.3552 63.4375 51.5201 63.4184 51.6846C63.3754 52.0098 63.3368 52.3346 63.2981 52.6594C63.0936 54.3956 62.9437 56.2125 63.4535 57.8916Z" fill="url(#paint40_linear_108_154)"/>
<path style="mix-blend-mode:multiply" opacity="0.6" d="M60.8037 55.7625C60.8037 55.7625 61.0947 56.4125 61.1027 56.2661C61.2647 52.9962 63.0051 49.2386 63.0051 49.2386C63.0051 49.2386 60.5992 53.1645 60.8037 55.7625Z" fill="url(#paint41_linear_108_154)"/>
<path d="M82.344 71.2527C81.8759 70.8832 81.4904 70.4197 81.2125 69.8919C80.9512 69.473 80.7127 69.0403 80.498 68.5956C80.3545 68.2919 80.2152 67.9878 80.0878 67.674C79.8865 67.1687 79.7132 66.6528 79.5689 66.1284C79.4472 65.6899 79.2591 64.902 80.0061 65.0604C80.5827 65.183 80.6699 65.8988 80.8028 66.3662C80.8881 66.7742 81.1056 67.1426 81.4216 67.4143C81.5689 67.532 81.7386 67.6184 81.9204 67.6683C82.0965 67.7206 82.4665 67.7851 82.7951 67.8663C82.9462 67.899 83.0938 67.9456 83.2362 68.0056C83.425 68.0988 83.6033 68.2116 83.7683 68.3422C83.4365 68.2873 83.0978 68.288 82.7663 68.3443C82.7212 68.3509 82.6776 68.365 82.6374 68.3862C82.617 68.8166 82.6784 69.2469 82.8182 69.6544C83.0228 69.8529 83.2609 70.0137 83.5214 70.1294C83.6307 70.1849 83.7542 70.2061 83.8757 70.1904C83.9973 70.1746 84.1113 70.1226 84.2028 70.0411C84.2189 70.0255 84.2317 70.0068 84.2406 69.9862C84.3886 69.7328 84.1098 69.2616 84.04 68.9682C84.3066 69.2284 84.5442 69.5168 84.7486 69.8282C84.8145 69.9217 84.8581 70.029 84.8759 70.142C84.8784 70.2617 83.4162 71.9679 82.344 71.2527Z" fill="url(#paint42_linear_108_154)"/>
<path fill-rule="evenodd" clip-rule="evenodd" d="M84.7418 69.8461C84.6908 69.9284 84.6162 69.9935 84.5277 70.0328C84.4288 70.0395 84.3296 70.0298 84.2338 70.0041C84.3819 69.7507 84.103 69.2795 84.0332 68.9861C84.2998 69.2463 84.5374 69.5346 84.7418 69.8461Z" fill="url(#paint43_linear_108_154)"/>
<path fill-rule="evenodd" clip-rule="evenodd" d="M83.7608 68.3515C83.429 68.2966 83.0904 68.2973 82.7588 68.3537C82.7138 68.2925 82.6826 68.2223 82.6671 68.148C82.6945 68.0485 82.7413 67.9555 82.8047 67.8741C82.9557 67.9068 83.1034 67.9534 83.2458 68.0134C83.4287 68.1081 83.6013 68.2214 83.7608 68.3515Z" fill="url(#paint44_linear_108_154)"/>
<path style="mix-blend-mode:multiply" opacity="0.6" fill-rule="evenodd" clip-rule="evenodd" d="M81.4309 67.422C80.964 67.3279 80.2796 67.1981 80.1794 67.3658C80.1366 67.4644 80.1058 67.5679 80.0878 67.674C79.8865 67.1687 79.7132 66.6528 79.5689 66.1284C79.4472 65.6899 79.2591 64.902 80.0061 65.0604C80.5827 65.183 80.6699 65.8988 80.8028 66.3662C80.8881 66.7742 81.1056 67.1426 81.4216 67.4143L81.4309 67.422Z" fill="url(#paint45_linear_108_154)"/>
<path fill-rule="evenodd" clip-rule="evenodd" d="M85.667 67.5637C85.667 67.5637 86.5684 68.8899 87.7265 68.6293C88.217 68.4514 88.6654 68.174 89.0435 67.8144C89.0435 67.8144 89.4547 67.3484 89.4214 67.2658C89.6135 67.5293 89.7825 67.809 89.9265 68.1016C89.2265 68.6572 88.4226 69.0675 87.5619 69.3083C86.7482 68.9624 86.0788 68.3461 85.667 67.5637Z" fill="url(#paint46_linear_108_154)"/>
<path d="M86.9567 68.8285C86.4047 68.4712 85.9351 68.0005 85.5791 67.4476C85.2524 67.0145 84.9481 66.565 84.6673 66.1009C84.4797 65.7841 84.2956 65.4583 84.1285 65.1311C83.8567 64.596 83.6146 64.0463 83.4032 63.4846C83.2317 63.0164 82.9444 62.1733 83.7758 62.2725C84.4207 62.346 84.591 63.127 84.7822 63.6234C84.9151 64.0627 85.1898 64.4456 85.5633 64.7123C85.7377 64.8256 85.9326 64.9037 86.1369 64.9422C86.3331 64.9798 86.7475 65.0146 87.1167 65.0706C87.2787 65.0928 87.4383 65.1298 87.5936 65.1809C87.8096 65.266 88.0161 65.3734 88.2098 65.5012C87.8415 65.4707 87.4707 65.5048 87.1141 65.6019C87.0657 65.6137 87.0197 65.6338 86.9782 65.6615C86.9864 65.7507 87.0864 66.8379 87.3012 67.0323C87.5448 67.2298 87.8212 67.3828 88.118 67.484C88.2435 67.5323 88.3804 67.5427 88.5118 67.5139C88.6431 67.4851 88.7631 67.4183 88.8569 67.3219L88.8939 67.2586C89.0295 66.9634 88.6807 66.4772 88.57 66.1576C88.889 66.4155 89.1787 66.7078 89.4338 67.029C89.5141 67.1259 89.5727 67.2388 89.6056 67.3602C89.6347 67.4903 88.1926 69.5073 86.9567 68.8285Z" fill="url(#paint47_linear_108_154)"/>
<path fill-rule="evenodd" clip-rule="evenodd" d="M89.4442 67.0452C89.3771 67.1542 89.2923 67.2562 89.2293 67.2706C89.1222 67.2928 89.0119 67.2942 88.9042 67.2747C89.0398 66.9796 88.6911 66.4934 88.5803 66.1738C88.8994 66.4317 89.1891 66.724 89.4442 67.0452Z" fill="url(#paint48_linear_108_154)"/>
<path fill-rule="evenodd" clip-rule="evenodd" d="M88.2191 65.509C87.8508 65.4785 87.48 65.5126 87.1234 65.6097C87.0667 65.5468 87.026 65.4712 87.0046 65.3893C87.0224 65.2782 87.0638 65.1722 87.1259 65.0784C87.288 65.1006 87.4476 65.1376 87.6029 65.1887C87.8189 65.2738 88.0254 65.3812 88.2191 65.509Z" fill="url(#paint49_linear_108_154)"/>
<path style="mix-blend-mode:multiply" opacity="0.6" fill-rule="evenodd" clip-rule="evenodd" d="M85.5726 64.72C85.0536 64.6649 84.2758 64.5907 84.1992 64.7819C84.1612 64.8949 84.1374 65.0122 84.1285 65.1311C83.8567 64.596 83.6146 64.0463 83.4032 63.4846C83.2317 63.0164 82.9444 62.1733 83.7758 62.2725C84.4207 62.346 84.591 63.127 84.7822 63.6234C84.9151 64.0627 85.1898 64.4456 85.5633 64.7123L85.5726 64.72Z" fill="url(#paint50_linear_108_154)"/>
<g style="mix-blend-mode:multiply">
<path d="M59.9522 45.0056C60.1133 44.4292 61.097 43.4822 62.3906 43.5775" stroke="#D5D5D5"/>
</g>
<path d="M59.9213 44.9513C60.1077 44.3825 61.132 43.4796 62.4202 43.6316" stroke="black" stroke-width="0.4"/>
<defs>
<linearGradient id="paint0_linear_108_154" x1="105.258" y1="68.8228" x2="114.294" y2="73.1385" gradientUnits="userSpaceOnUse">
<stop stop-color="#25182B"/>
<stop offset="1" stop-color="#16091C"/>
</linearGradient>
<linearGradient id="paint1_linear_108_154" x1="100.722" y1="69.6721" x2="116.124" y2="77.0279" gradientUnits="userSpaceOnUse">
<stop stop-color="#25182B"/>
<stop offset="1" stop-color="#16091C"/>
</linearGradient>
<linearGradient id="paint2_linear_108_154" x1="70.5634" y1="49.8284" x2="115.857" y2="71.4603" gradientUnits="userSpaceOnUse">
<stop stop-color="#302438"/>
<stop offset="1" stop-color="#201226"/>
</linearGradient>
<linearGradient id="paint3_linear_108_154" x1="79.1118" y1="57.6304" x2="108.261" y2="71.5517" gradientUnits="userSpaceOnUse">
<stop offset="0.01" stop-color="#C87DC2"/>
<stop offset="0.98" stop-color="#AF799D"/>
</linearGradient>
<linearGradient id="paint4_linear_108_154" x1="114.18" y1="65.3327" x2="68.1586" y2="57.4472" gradientUnits="userSpaceOnUse">
<stop stop-color="#302438"/>
<stop offset="1" stop-color="#201226"/>
</linearGradient>
<linearGradient id="paint5_linear_108_154" x1="87.3274" y1="58.9737" x2="90.06" y2="49.6302" gradientUnits="userSpaceOnUse">
<stop stop-color="#302438"/>
<stop offset="1" stop-color="#201226"/>
</linearGradient>
<linearGradient id="paint6_linear_108_154" x1="85.6576" y1="55.7704" x2="94.1013" y2="59.8031" gradientUnits="userSpaceOnUse">
<stop stop-color="#2C1619"/>
<stop offset="1" stop-color="#37223E"/>
</linearGradient>
<linearGradient id="paint7_linear_108_154" x1="96.4374" y1="65.4614" x2="96.4694" y2="65.2756" gradientUnits="userSpaceOnUse">
<stop stop-color="#2C1619"/>
<stop offset="1" stop-color="#37223E"/>
</linearGradient>
<linearGradient id="paint8_linear_108_154" x1="114.272" y1="67.3365" x2="76.6958" y2="60.8772" gradientUnits="userSpaceOnUse">
<stop stop-color="#2C1628"/>
<stop offset="1" stop-color="#37223E"/>
</linearGradient>
<linearGradient id="paint9_linear_108_154" x1="2.38099" y1="54.625" x2="73.2801" y2="52.7238" gradientUnits="userSpaceOnUse">
<stop stop-color="#232323"/>
<stop offset="1" stop-color="#201226"/>
</linearGradient>
<linearGradient id="paint10_linear_108_154" x1="63.4433" y1="69.8618" x2="55.6087" y2="48.4346" gradientUnits="userSpaceOnUse">
<stop stop-color="#753470"/>
<stop offset="0.98" stop-color="#844467"/>
</linearGradient>
<linearGradient id="paint11_linear_108_154" x1="33.6023" y1="64.8148" x2="43.6454" y2="41.5612" gradientUnits="userSpaceOnUse">
<stop stop-color="#372740"/>
<stop offset="1" stop-color="#201226"/>
</linearGradient>
<linearGradient id="paint12_linear_108_154" x1="60.5478" y1="73.1212" x2="51.5684" y2="48.559" gradientUnits="userSpaceOnUse">
<stop offset="0.01" stop-color="#C87DC2"/>
<stop offset="0.98" stop-color="#C787AA"/>
</linearGradient>
<linearGradient id="paint13_linear_108_154" x1="48.1893" y1="75.0689" x2="39.8161" y2="52.1704" gradientUnits="userSpaceOnUse">
<stop offset="0.01" stop-color="#C87DC2"/>
<stop offset="0.98" stop-color="#C787AA"/>
</linearGradient>
<linearGradient id="paint14_linear_108_154" x1="28.7534" y1="70.1195" x2="34.3069" y2="57.261" gradientUnits="userSpaceOnUse">
<stop stop-color="#2C1619"/>
<stop offset="1" stop-color="#37223E"/>
</linearGradient>
<linearGradient id="paint15_linear_108_154" x1="23.706" y1="73.3636" x2="30.8999" y2="56.7072" gradientUnits="userSpaceOnUse">
<stop stop-color="#2C1619"/>
<stop offset="1" stop-color="#37223E"/>
</linearGradient>
<linearGradient id="paint16_linear_108_154" x1="67.286" y1="69.0106" x2="54.9613" y2="63.5738" gradientUnits="userSpaceOnUse">
<stop stop-color="#2C1619"/>
<stop offset="1" stop-color="#1E1424"/>
</linearGradient>
<linearGradient id="paint17_linear_108_154" x1="45.8134" y1="72.2681" x2="47.2746" y2="68.8849" gradientUnits="userSpaceOnUse">
<stop stop-color="#2C1619"/>
<stop offset="1" stop-color="#1E1424"/>
</linearGradient>
<linearGradient id="paint18_linear_108_154" x1="55.6852" y1="67.472" x2="49.5374" y2="50.6538" gradientUnits="userSpaceOnUse">
<stop stop-color="#2C1619"/>
<stop offset="1" stop-color="#37223E"/>
</linearGradient>
<linearGradient id="paint19_linear_108_154" x1="43.5082" y1="65.8421" x2="38.7585" y2="52.8572" gradientUnits="userSpaceOnUse">
<stop stop-color="#2C1619"/>
<stop offset="1" stop-color="#37223E"/>
</linearGradient>
<linearGradient id="paint20_linear_108_154" x1="41.3214" y1="65.9055" x2="50.548" y2="44.5425" gradientUnits="userSpaceOnUse">
<stop offset="0.02" stop-color="#EEACA4"/>
<stop offset="1" stop-color="#6B454E"/>
</linearGradient>
<linearGradient id="paint21_linear_108_154" x1="74.9524" y1="40.7563" x2="70.6619" y2="65.7156" gradientUnits="userSpaceOnUse">
<stop stop-color="#1A154D"/>
<stop offset="1" stop-color="#201226"/>
</linearGradient>
<linearGradient id="paint22_linear_108_154" x1="82.8124" y1="71.7266" x2="83.4117" y2="69.6623" gradientUnits="userSpaceOnUse">
<stop offset="0.02" stop-color="#963E35"/>
<stop offset="0.99" stop-color="#850C18"/>
</linearGradient>
<linearGradient id="paint23_linear_108_154" x1="74.1572" y1="66.3164" x2="77.2627" y2="48.2501" gradientUnits="userSpaceOnUse">
<stop offset="0.01" stop-color="#C87DC2"/>
<stop offset="0.98" stop-color="#C787AA"/>
</linearGradient>
<linearGradient id="paint24_linear_108_154" x1="56.3401" y1="46.9699" x2="60.5275" y2="47.6897" gradientUnits="userSpaceOnUse">
<stop offset="0.02" stop-color="#FD8A1B"/>
<stop offset="0.99" stop-color="#D34D0E"/>
</linearGradient>
<linearGradient id="paint25_linear_108_154" x1="57.3765" y1="49.2599" x2="58.2857" y2="43.9708" gradientUnits="userSpaceOnUse">
<stop offset="0.02" stop-color="#FC8C1C"/>
<stop offset="0.99" stop-color="#FDAC2B"/>
</linearGradient>
<linearGradient id="paint26_linear_108_154" x1="57.0177" y1="49.1984" x2="57.855" y2="44.3273" gradientUnits="userSpaceOnUse">
<stop offset="0.01" stop-color="#FDBEB6"/>
<stop offset="0.98" stop-color="#FDE1D4"/>
</linearGradient>
<linearGradient id="paint27_linear_108_154" x1="131.381" y1="30.9825" x2="72.6236" y2="20.8821" gradientUnits="userSpaceOnUse">
<stop stop-color="#232323"/>
<stop offset="1" stop-color="#201226"/>
<stop offset="1" stop-color="#201226"/>
</linearGradient>
<linearGradient id="paint28_linear_108_154" x1="79.6353" y1="45.7245" x2="105.937" y2="50.2457" gradientUnits="userSpaceOnUse">
<stop stop-color="#2C1619"/>
<stop offset="1" stop-color="#37223E"/>
</linearGradient>
<linearGradient id="paint29_linear_108_154" x1="78.3478" y1="54.6033" x2="88.8771" y2="44.6969" gradientUnits="userSpaceOnUse">
<stop offset="0.01" stop-color="#C87DC2"/>
<stop offset="0.98" stop-color="#C787AA"/>
</linearGradient>
<linearGradient id="paint30_linear_108_154" x1="72.1463" y1="24.3422" x2="121.985" y2="32.9094" gradientUnits="userSpaceOnUse">
<stop stop-color="#372740"/>
<stop offset="1" stop-color="#201226"/>
</linearGradient>
<linearGradient id="paint31_linear_108_154" x1="112.609" y1="39.9498" x2="115.167" y2="25.0704" gradientUnits="userSpaceOnUse">
<stop stop-color="#2C1619"/>
<stop offset="1" stop-color="#37223E"/>
</linearGradient>
<linearGradient id="paint32_linear_108_154" x1="116.565" y1="38.9696" x2="110.681" y2="21.8185" gradientUnits="userSpaceOnUse">
<stop stop-color="#2C1619"/>
<stop offset="1" stop-color="#37223E"/>
</linearGradient>
<linearGradient id="paint33_linear_108_154" x1="71.3126" y1="28.5098" x2="117.998" y2="36.5349" gradientUnits="userSpaceOnUse">
<stop offset="0.02" stop-color="#EEACA4"/>
<stop offset="0.99" stop-color="#D48798"/>
</linearGradient>
<linearGradient id="paint34_linear_108_154" x1="123.343" y1="35.3501" x2="124.879" y2="26.414" gradientUnits="userSpaceOnUse">
<stop stop-color="#2C1619"/>
<stop offset="1" stop-color="#37223E"/>
</linearGradient>
<linearGradient id="paint35_linear_108_154" x1="62.2355" y1="43.5916" x2="59.989" y2="45.0779" gradientUnits="userSpaceOnUse">
<stop stop-color="white"/>
<stop offset="1" stop-color="#F2F2F2"/>
</linearGradient>
<linearGradient id="paint36_linear_108_154" x1="62.2355" y1="43.5916" x2="59.989" y2="45.0779" gradientUnits="userSpaceOnUse">
<stop stop-color="white"/>
<stop offset="1" stop-color="#F2F2F2"/>
</linearGradient>
<radialGradient id="paint37_radial_108_154" cx="0" cy="0" r="1" gradientUnits="userSpaceOnUse" gradientTransform="translate(61.4646 44.7948) rotate(-4.10542) scale(1.14767 1.14767)">
<stop offset="0.16" stop-color="#FF2F00"/>
<stop offset="1" stop-color="#860000"/>
</radialGradient>
<linearGradient id="paint38_linear_108_154" x1="61.5138" y1="44.6847" x2="61.4594" y2="43.9266" gradientUnits="userSpaceOnUse">
<stop stop-color="#610800"/>
<stop offset="1" stop-color="#790E0E"/>
</linearGradient>
<linearGradient id="paint39_linear_108_154" x1="61.2539" y1="44.09" x2="62.0575" y2="44.0323" gradientUnits="userSpaceOnUse">
<stop stop-color="#C26060"/>
<stop offset="1" stop-color="#EDCDCD"/>
</linearGradient>
<linearGradient id="paint40_linear_108_154" x1="65.344" y1="56.1011" x2="61.8796" y2="53.224" gradientUnits="userSpaceOnUse">
<stop offset="0.01" stop-color="#C87DC2"/>
<stop offset="0.98" stop-color="#C787AA"/>
</linearGradient>
<linearGradient id="paint41_linear_108_154" x1="63.3443" y1="53.7375" x2="61.0116" y2="51.8012" gradientUnits="userSpaceOnUse">
<stop offset="0.01" stop-color="#C87DC2"/>
<stop offset="0.98" stop-color="#C787AA"/>
</linearGradient>
<linearGradient id="paint42_linear_108_154" x1="85.3295" y1="69.2278" x2="79.2553" y2="68.1837" gradientUnits="userSpaceOnUse">
<stop offset="0.02" stop-color="#E65E47"/>
<stop offset="0.99" stop-color="#AB2718"/>
</linearGradient>
<linearGradient id="paint43_linear_108_154" x1="84.5197" y1="70.375" x2="84.6858" y2="69.4084" gradientUnits="userSpaceOnUse">
<stop offset="0.02" stop-color="#9F044C"/>
<stop offset="0.99" stop-color="#980218"/>
</linearGradient>
<linearGradient id="paint44_linear_108_154" x1="83.4168" y1="68.7774" x2="83.4988" y2="68.3004" gradientUnits="userSpaceOnUse">
<stop offset="0.02" stop-color="#9F044C"/>
<stop offset="0.99" stop-color="#980218"/>
</linearGradient>
<linearGradient id="paint45_linear_108_154" x1="80.4446" y1="68.0404" x2="80.88" y2="65.5078" gradientUnits="userSpaceOnUse">
<stop offset="0.01" stop-color="#C87DC2"/>
<stop offset="0.98" stop-color="#AF799D"/>
</linearGradient>
<linearGradient id="paint46_linear_108_154" x1="87.4991" y1="69.312" x2="87.9515" y2="66.9886" gradientUnits="userSpaceOnUse">
<stop offset="0.02" stop-color="#963E35"/>
<stop offset="0.99" stop-color="#850C18"/>
</linearGradient>
<linearGradient id="paint47_linear_108_154" x1="89.7375" y1="65.9428" x2="83.0031" y2="65.4082" gradientUnits="userSpaceOnUse">
<stop offset="0.02" stop-color="#E65E47"/>
<stop offset="0.99" stop-color="#AB2718"/>
</linearGradient>
<linearGradient id="paint48_linear_108_154" x1="88.9688" y1="67.2765" x2="89.0538" y2="66.2051" gradientUnits="userSpaceOnUse">
<stop offset="0.02" stop-color="#9F044C"/>
<stop offset="0.99" stop-color="#980218"/>
</linearGradient>
<linearGradient id="paint49_linear_108_154" x1="87.6052" y1="65.641" x2="87.647" y2="65.1138" gradientUnits="userSpaceOnUse">
<stop offset="0.02" stop-color="#9F044C"/>
<stop offset="0.99" stop-color="#980218"/>
</linearGradient>
<linearGradient id="paint50_linear_108_154" x1="84.2866" y1="65.1379" x2="84.51" y2="62.3234" gradientUnits="userSpaceOnUse">
<stop offset="0.01" stop-color="#C87DC2"/>
<stop offset="0.98" stop-color="#AF799D"/>
</linearGradient>
</defs>
</svg>
