<svg width="178" height="179" viewBox="0 0 178 179" fill="none" xmlns="http://www.w3.org/2000/svg">
<path d="M126.314 142.084C153.561 122.519 160.413 85.4912 141.663 59.379C140.787 58.158 131.504 45.6366 131.504 45.6366L129.554 47.0363C109.459 32.1169 80.589 31.5171 58.3754 47.4673C36.1619 63.4175 27.3597 91.4895 35.4663 115.439L33.5812 116.793C33.5812 116.793 44.4529 132.069 45.194 132.966L45.2401 133.03C64.6058 156.654 100.116 160.895 126.314 142.084Z" fill="#F1B81A"/>
<path d="M40.9533 128.868C37.6156 124.22 33.0534 117.821 32.7612 117.414C32.4382 116.964 32.5255 116.317 32.9967 115.979L34.282 115.056C30.4852 103.303 30.5509 90.2369 34.5154 78.1701C38.6991 65.459 46.7438 54.5531 57.797 46.6165C68.8502 38.6799 81.5163 34.6172 94.7781 34.6395C107.323 34.6574 119.659 38.5906 129.576 45.7548L130.882 44.8166C131.332 44.4936 131.979 44.5809 132.302 45.0307C132.671 45.5448 141.601 57.5735 142.477 58.7945C161.534 85.3351 154.562 123.099 126.907 142.956C99.253 162.813 64.3268 157.893 44.5063 133.816C44.4755 133.774 44.4448 133.731 44.3986 133.666L44.3679 133.624C44.0756 133.217 42.6699 131.304 40.9472 128.905L40.9533 128.868ZM35.0319 117.05C38.4003 121.741 45.4482 131.647 45.9986 132.323C45.9986 132.323 46.014 132.344 46.0294 132.366C46.0294 132.366 46.0447 132.387 46.0601 132.409C65.1737 155.727 100.174 159.619 125.729 141.27C151.284 122.92 159.224 85.5983 140.828 59.9788C140.09 58.9506 133.341 49.8687 131.268 47.0719L130.133 47.8871C129.769 48.1486 129.278 48.1436 128.925 47.8778C119.257 40.6977 107.132 36.7425 94.7404 36.7119C81.9323 36.6885 69.5572 40.7045 58.9753 48.3027C48.3933 55.901 40.486 66.5459 36.4484 78.8275C32.5509 90.7163 32.5522 103.604 36.4434 115.127C36.5824 115.547 36.4303 116.013 36.0815 116.296L35.0105 117.065L35.0319 117.05Z" fill="#C0892A"/>
<g style="mix-blend-mode:multiply">
<path d="M112.295 38.3269C111.052 37.953 109.788 37.5943 108.534 37.294L152.001 97.8296C152.117 96.5449 152.203 95.2173 152.224 93.9358L112.295 38.3269Z" fill="#BD8034"/>
<path d="M98.294 35.7833L150.144 107.993C150.429 106.944 150.678 105.889 150.905 104.849L101.517 36.0666C100.443 35.9282 99.358 35.8635 98.294 35.7833Z" fill="#BD8034"/>
<path d="M81.0139 37.2182L143.261 123.909C143.747 123.138 144.195 122.361 144.607 121.579L83.652 36.6874C82.7573 36.8429 81.8779 37.0198 81.0139 37.2182Z" fill="#BD8034"/>
<path d="M60.083 46.2737L127.99 140.847C128.639 140.349 129.272 139.829 129.906 139.31L62.152 44.9504C61.4572 45.3843 60.7624 45.8183 60.083 46.2737Z" fill="#BD8034"/>
<path d="M150.667 79.0163L125.934 44.5714C124.288 43.5454 122.593 42.587 120.881 41.739L151.751 84.7309C151.479 82.8156 151.149 80.9096 150.682 79.0377L150.667 79.0163Z" fill="#BD8034"/>
<path d="M89.2387 35.9224L147.118 116.53C147.511 115.63 147.883 114.747 148.218 113.857L92.1229 35.7344C91.1513 35.7828 90.1796 35.8311 89.2387 35.9224Z" fill="#BD8034"/>
<path d="M73.4872 39.4409L138.749 130.33C139.275 129.661 139.822 128.976 140.311 128.3L75.91 38.6103C75.0922 38.8729 74.2897 39.1569 73.4872 39.4409Z" fill="#BD8034"/>
<path d="M48.7612 55.9615L115.192 148.479C115.948 148.13 116.705 147.782 117.446 147.412L50.4919 54.1669C49.9048 54.7508 49.3116 55.3715 48.7612 55.9615Z" fill="#BD8034"/>
<path d="M54.15 50.7611L121.827 145.013C122.537 144.601 123.232 144.167 123.911 143.712L56.0499 49.2021C55.4012 49.7004 54.7679 50.22 54.15 50.7611Z" fill="#BD8034"/>
<path d="M43.905 61.9483L107.983 151.188C108.8 150.925 109.618 150.663 110.421 150.379L45.4357 59.8752C44.9101 60.5448 44.3784 61.2513 43.905 61.9483Z" fill="#BD8034"/>
<path d="M36.1302 76.6211L91.579 153.844C92.566 153.817 93.5377 153.768 94.494 153.699L37.1995 73.9054C36.8062 74.8046 36.4652 75.7312 36.1302 76.6211Z" fill="#BD8034"/>
<path d="M32.4836 96.998L71.1055 150.786C72.3787 151.203 73.658 151.583 74.9588 151.948L32.6146 92.9756C32.529 94.3032 32.4588 95.6522 32.4682 96.9765L32.4836 96.998Z" fill="#BD8034"/>
<path d="M66.5237 42.4932L133.631 135.953C134.218 135.369 134.827 134.77 135.377 134.18L68.7619 41.4055C68.0056 41.7538 67.2646 42.1235 66.5237 42.4932Z" fill="#BD8034"/>
<path d="M39.6484 68.7705L100.142 153.019C101.037 152.864 101.932 152.708 102.796 152.51L40.9637 66.3976C40.4936 67.1897 40.0449 67.9664 39.633 68.7491L39.6484 68.7705Z" fill="#BD8034"/>
<path d="M33.587 85.7843L82.0836 153.325C83.1722 153.484 84.273 153.571 85.3523 153.672L34.3025 82.5759C34.0323 83.6465 33.799 84.7231 33.587 85.7843Z" fill="#BD8034"/>
<path d="M34.641 112.753L56.8821 143.727C58.614 144.919 60.4163 146.027 62.2581 147.01L33.2647 106.631C33.6071 108.69 34.0812 110.752 34.6564 112.774L34.641 112.753Z" fill="#BD8034"/>
</g>
<path d="M35.4121 119.569C54.1769 145.702 91.4662 151.035 118.7 131.48C145.934 111.926 152.799 74.8878 134.034 48.7542C115.269 22.6207 77.9801 17.2877 50.7463 36.8426C23.5126 56.3975 16.6472 93.4352 35.4121 119.569Z" fill="#F1B81A"/>
<path d="M34.5981 120.153C15.5255 93.5912 22.5134 55.8487 50.1465 36.0071C77.7795 16.1655 115.797 21.5923 134.87 48.1544C153.942 74.7164 146.954 112.459 119.3 132.316C91.6453 152.173 53.6492 146.731 34.5766 120.169L34.5981 120.153ZM133.199 49.3541C114.788 23.7132 78.0796 18.4824 51.3462 37.678C24.6128 56.8735 17.8363 93.328 36.2475 118.969C54.6586 144.61 91.3667 149.841 118.1 130.645C144.833 111.449 151.595 74.9736 133.199 49.3541Z" fill="#C0892A"/>
<g style="mix-blend-mode:screen" opacity="0.71">
<path d="M139.334 65.6293L46.5663 44.8111C43.9821 47.316 41.6681 50.0163 39.6305 52.8755L141.419 75.7222C141.052 72.3172 140.378 68.9376 139.334 65.6293Z" fill="#FFF8A3"/>
<path d="M136.708 104.655L29.2116 80.5498C28.2905 89.847 29.7395 99.3253 33.6943 108.043L118.827 127.136C126.825 121.003 132.848 113.205 136.687 104.67L136.708 104.655Z" fill="#FFF8A3"/>
</g>
<g style="mix-blend-mode:multiply">
<path d="M130.928 50.9843C113.609 26.8643 79.0784 21.9531 53.9302 40.0104C28.7819 58.0678 22.414 92.3784 39.7177 116.477C57.0214 140.576 91.5675 145.508 116.716 127.451C141.864 109.393 148.232 75.0829 130.928 50.9843ZM38.0683 117.661C20.1032 92.6416 26.6825 57.043 52.7304 38.3396C78.7783 19.6362 114.619 24.7435 132.599 49.7846C150.58 74.8257 143.985 110.403 117.937 129.106C91.889 147.81 56.0548 142.666 38.0897 117.646L38.0683 117.661Z" fill="#C0892A"/>
</g>
</svg>
