<svg width="231" height="232" viewBox="0 0 231 232" fill="none" xmlns="http://www.w3.org/2000/svg">
<g style="mix-blend-mode:color-dodge" opacity="0.8" filter="url(#filter0_f_0_486)">
<path d="M153.314 168.084C180.561 148.519 187.413 111.491 168.663 85.379C167.787 84.158 158.504 71.6366 158.504 71.6366L156.554 73.0363C136.459 58.1169 107.589 57.5171 85.3754 73.4673C63.1619 89.4175 54.3597 117.489 62.4663 141.439L60.5812 142.793C60.5812 142.793 71.4529 158.069 72.1939 158.966L72.2401 159.03C91.6058 182.654 127.116 186.895 153.314 168.084Z" fill="#F1B81A"/>
<path d="M67.9532 154.868C64.6155 150.22 60.0534 143.821 59.7612 143.414C59.4381 142.964 59.5254 142.317 59.9967 141.979L61.282 141.056C57.4852 129.303 57.5509 116.237 61.5154 104.17C65.6991 91.459 73.7437 80.5531 84.7969 72.6165C95.8502 64.6799 108.516 60.6172 121.778 60.6395C134.323 60.6574 146.659 64.5906 156.576 71.7548L157.882 70.8166C158.332 70.4936 158.979 70.5809 159.302 71.0307C159.671 71.5448 168.601 83.5735 169.477 84.7945C188.534 111.335 181.562 149.099 153.907 168.956C126.253 188.813 91.3268 183.893 71.5063 159.816C71.4755 159.774 71.4447 159.731 71.3986 159.666L71.3678 159.624C71.0756 159.217 69.6699 157.304 67.9472 154.905L67.9532 154.868ZM62.0318 143.05C65.4003 147.741 72.4481 157.647 72.9986 158.323C72.9986 158.323 73.0139 158.344 73.0293 158.366C73.0293 158.366 73.0447 158.387 73.0601 158.409C92.1736 181.727 127.174 185.619 152.729 167.27C178.284 148.92 186.224 111.598 167.828 85.9788C167.09 84.9506 160.341 75.8687 158.268 73.0719L157.133 73.8871C156.769 74.1486 156.278 74.1436 155.925 73.8778C146.257 66.6977 134.132 62.7425 121.74 62.7119C108.932 62.6885 96.5572 66.7045 85.9752 74.3027C75.3933 81.901 67.4859 92.5459 63.4484 104.827C59.5508 116.716 59.5522 129.604 63.4434 141.127C63.5824 141.547 63.4303 142.013 63.0815 142.296L62.0104 143.065L62.0318 143.05Z" fill="#C0892A"/>
<g style="mix-blend-mode:multiply">
<path d="M139.295 64.3269C138.052 63.953 136.788 63.5943 135.534 63.294L179.001 123.83C179.117 122.545 179.203 121.217 179.224 119.936L139.295 64.3269Z" fill="#BD8034"/>
<path d="M125.294 61.7835L177.144 133.994C177.429 132.944 177.678 131.889 177.905 130.849L128.517 62.0667C127.443 61.9284 126.358 61.8636 125.294 61.7835Z" fill="#BD8034"/>
<path d="M108.014 63.218L170.261 149.909C170.747 149.138 171.195 148.361 171.607 147.579L110.652 62.6873C109.757 62.8428 108.878 63.0197 108.014 63.218Z" fill="#BD8034"/>
<path d="M87.083 72.2737L154.991 166.847C155.639 166.349 156.272 165.829 156.906 165.31L89.1521 70.9504C88.4573 71.3843 87.7624 71.8183 87.083 72.2737Z" fill="#BD8034"/>
<path d="M177.667 105.016L152.934 70.5714C151.288 69.5454 149.594 68.587 147.881 67.739L178.751 110.731C178.479 108.816 178.15 106.91 177.682 105.038L177.667 105.016Z" fill="#BD8034"/>
<path d="M116.239 61.9224L174.118 142.53C174.511 141.63 174.883 140.747 175.218 139.857L119.123 61.7344C118.151 61.7828 117.18 61.8311 116.239 61.9224Z" fill="#BD8034"/>
<path d="M100.487 65.4409L165.749 156.33C166.275 155.661 166.822 154.976 167.311 154.3L102.91 64.6103C102.092 64.8729 101.29 65.1569 100.487 65.4409Z" fill="#BD8034"/>
<path d="M75.7613 81.9613L142.192 174.479C142.949 174.13 143.705 173.782 144.446 173.412L77.4919 80.1667C76.9048 80.7507 76.3116 81.3714 75.7613 81.9613Z" fill="#BD8034"/>
<path d="M81.1501 76.7611L148.827 171.013C149.537 170.601 150.232 170.167 150.911 169.712L83.0499 75.2021C82.4013 75.7004 81.768 76.22 81.1501 76.7611Z" fill="#BD8034"/>
<path d="M70.905 87.9483L134.983 177.188C135.8 176.925 136.618 176.663 137.421 176.379L72.4357 85.8752C71.9101 86.5448 71.3784 87.2513 70.905 87.9483Z" fill="#BD8034"/>
<path d="M63.1302 102.621L118.579 179.844C119.566 179.817 120.538 179.768 121.494 179.699L64.1995 99.9055C63.8063 100.805 63.4652 101.731 63.1302 102.621Z" fill="#BD8034"/>
<path d="M59.4836 122.998L98.1055 176.786C99.3788 177.203 100.658 177.583 101.959 177.948L59.6147 118.976C59.529 120.303 59.4588 121.652 59.4682 122.977L59.4836 122.998Z" fill="#BD8034"/>
<path d="M93.5237 68.4932L160.631 161.953C161.219 161.369 161.827 160.77 162.377 160.18L95.7619 67.4055C95.0056 67.7538 94.2646 68.1235 93.5237 68.4932Z" fill="#BD8034"/>
<path d="M66.6484 94.7704L127.142 179.019C128.037 178.864 128.932 178.708 129.796 178.51L67.9638 92.3975C67.4936 93.1895 67.0449 93.9663 66.633 94.749L66.6484 94.7704Z" fill="#BD8034"/>
<path d="M60.587 111.784L109.084 179.325C110.172 179.484 111.273 179.571 112.352 179.672L61.3026 108.576C61.0324 109.646 60.799 110.723 60.587 111.784Z" fill="#BD8034"/>
<path d="M61.6411 138.753L83.8821 169.727C85.6141 170.919 87.4163 172.027 89.2581 173.01L60.2648 132.631C60.6071 134.69 61.0812 136.752 61.6565 138.774L61.6411 138.753Z" fill="#BD8034"/>
</g>
<path d="M62.4121 145.569C81.1769 171.702 118.466 177.035 145.7 157.48C172.934 137.926 179.799 100.888 161.034 74.7542C142.269 48.6207 104.98 43.2877 77.7463 62.8426C50.5126 82.3975 43.6472 119.435 62.4121 145.569Z" fill="#F1B81A"/>
<path d="M61.5981 146.153C42.5255 119.591 49.5134 81.8487 77.1465 62.0071C104.78 42.1655 142.797 47.5923 161.87 74.1544C180.942 100.716 173.954 138.459 146.3 158.316C118.645 178.173 80.6492 172.731 61.5766 146.169L61.5981 146.153ZM160.199 75.3541C141.788 49.7132 105.08 44.4824 78.3462 63.678C51.6128 82.8735 44.8363 119.328 63.2475 144.969C81.6586 170.61 118.367 175.841 145.1 156.645C171.833 137.449 178.595 100.974 160.199 75.3541Z" fill="#C0892A"/>
<g style="mix-blend-mode:screen" opacity="0.71">
<path d="M166.334 91.6293L73.5662 70.8111C70.982 73.316 68.6681 76.0163 66.6304 78.8755L168.419 101.722C168.052 98.3172 167.378 94.9376 166.334 91.6293Z" fill="#FFF8A3"/>
<path d="M163.708 130.655L56.2116 106.55C55.2905 115.847 56.7395 125.325 60.6943 134.043L145.827 153.136C153.825 147.004 159.848 139.205 163.687 130.67L163.708 130.655Z" fill="#FFF8A3"/>
</g>
<g style="mix-blend-mode:multiply">
<path d="M157.928 76.9843C140.609 52.8643 106.078 47.9531 80.9301 66.0104C55.7819 84.0678 49.414 118.378 66.7177 142.477C84.0214 166.576 118.568 171.508 143.716 153.451C168.864 135.393 175.232 101.083 157.928 76.9843ZM65.0683 143.661C47.1032 118.642 53.6825 83.043 79.7304 64.3396C105.778 45.6362 141.619 50.7435 159.599 75.7846C177.58 100.826 170.985 136.403 144.937 155.106C118.889 173.81 83.0548 168.666 65.0897 143.646L65.0683 143.661Z" fill="#C0892A"/>
</g>
</g>
<defs>
<filter id="filter0_f_0_486" x="0.847534" y="0.0588379" width="229.372" height="231.222" filterUnits="userSpaceOnUse" color-interpolation-filters="sRGB">
<feFlood flood-opacity="0" result="BackgroundImageFix"/>
<feBlend mode="normal" in="SourceGraphic" in2="BackgroundImageFix" result="shape"/>
<feGaussianBlur stdDeviation="25" result="effect1_foregroundBlur_0_486"/>
</filter>
</defs>
</svg>
