<svg width="724" height="147" viewBox="0 0 724 147" fill="none" xmlns="http://www.w3.org/2000/svg">
<path d="M20.5767 107.145C22.3659 102.473 29.523 76.827 31.2129 71.6579C32.8034 74.6401 43.2408 91.5388 50.895 103.07H51.889C59.3443 92.6322 72.0681 73.0496 73.2609 71.2603C74.3544 73.9442 83.7978 99.1929 86.9787 107.145L107.058 98.1989C106.685 97.4382 107.17 90.8616 107.17 90.8616C107.17 90.8616 83.44 45.5553 77.5353 32.8903H76.5413C71.2728 41.439 57.2568 64.6996 53.3801 70.5645C50.2985 65.4949 35.5867 41.1408 29.523 31.2998H28.529C23.8418 41.5631 0.994019 92.0394 0.994019 92.0394C0.994019 92.0394 1.31006 99.1451 0.994019 99.8887L20.5767 107.145Z" fill="url(#paint0_linear_54_2872)"/>
<path d="M126.034 106.946C128.022 102.97 131.302 96.2108 131.799 95.4156L158.34 94.1233C159.036 95.1173 163.609 102.771 166.292 106.847L184.583 96.8072C184.026 96.0897 184.583 89.0604 184.583 89.0604C184.583 89.0604 155.522 53.9953 146.113 40.942H144.225C136.51 51.8427 108.141 90.085 108.141 90.085C108.141 90.085 108.561 97.1325 108.141 97.8013L126.034 106.946ZM137.366 82.493C139.652 77.821 142.734 71.9561 144.821 67.8806C146.511 71.3597 149.791 76.9264 152.276 81.7972L137.366 82.493Z" fill="url(#paint1_linear_54_2872)"/>
<path d="M210.185 104.66C210.085 102.175 210.085 80.4055 210.085 76.0317C213.763 79.0139 243.088 100.286 252.233 105.754L253.823 105.356C254.022 99.7893 254.028 87.5564 254.723 75.3297C255.419 62.9042 255.68 50.286 256.277 43.6259H238.117C238.018 47.3039 238.217 68.0794 238.217 72.652C236.328 70.6639 208.594 51.2801 195.871 43.0295L191.042 90.085C190.148 101.318 190.602 98.6276 190.602 104.064L210.185 104.66Z" fill="url(#paint2_linear_54_2872)"/>
<path d="M291.783 59.2324C291.783 51.4789 291.485 46.7075 291.783 44.5206H270.014C270.014 46.4093 269.914 53.467 269.914 57.3437V61.9163C269.914 82.3936 271.604 88.6561 275.978 94.8191C282.737 104.362 294.268 105.455 301.624 105.455C311.664 105.455 320.909 102.175 326.376 95.9126C333.135 88.159 334.229 78.318 334.229 62.1151V58.139C334.229 51.4789 334.129 45.117 334.129 43.2283H312.758C312.857 46.3098 312.758 52.1747 312.758 58.0396V61.2205C312.758 80.4055 312.658 83.5864 310.173 87.0656C308.483 89.4513 305.998 90.7436 302.817 90.7436C300.034 90.7436 297.748 89.9483 295.859 87.9602C292.38 84.1829 291.783 78.4174 291.783 64.8984V59.2324Z" fill="url(#paint3_linear_54_2872)"/>
<path d="M349.881 44.0236C349.981 45.7134 349.881 66.8865 349.881 68.2782V79.5109C349.881 81.499 349.881 99.5905 349.682 104.064C357.436 104.064 388.848 104.958 391.532 104.958L391.432 88.4573C384.176 88.8549 373.539 88.8549 371.353 88.8549V74.0436C371.353 63.4074 371.253 46.0116 371.353 44.0236H349.881Z" fill="url(#paint4_linear_54_2872)"/>
<path d="M484.596 81.3996C484.596 78.4174 484.496 76.1001 484.596 72.2233L463.324 72.1216C463.324 74.905 463.324 77.7216 463.324 80.6043L463.225 88.5567C455.67 88.7555 445.232 84.8787 445.232 75.0377C445.232 61.4193 464.219 52.9699 477.638 51.1807L477.606 43.4893L476.83 42.7127C436.074 51.6591 421.773 64.0038 421.773 76.1311C421.773 91.7376 433.9 105.257 462.827 105.654C472.966 105.754 482.31 104.064 484.795 103.368C484.795 101.28 484.596 92.4334 484.596 88.6561V81.3996Z" fill="url(#paint5_linear_54_2872)"/>
<path d="M509.769 106.946C511.757 102.97 515.037 96.2108 515.535 95.4156L542.075 94.1233C542.771 95.1173 547.344 102.771 550.028 106.847L568.318 96.8072L568.468 89.3084C568.468 89.3084 538.937 53.5514 529.849 40.942C529.849 40.942 498.089 85.4254 491.876 90.085V97.8013L509.769 106.946ZM521.101 82.493C523.387 77.821 526.469 71.9561 528.556 67.8806C530.246 71.3597 533.527 76.9264 536.012 81.7972L521.101 82.493Z" fill="url(#paint6_linear_54_2872)"/>
<path d="M587.26 106.648C588.95 102.672 595.411 81.5984 596.704 77.2246C598.095 79.7097 607.439 93.4275 614.397 103.169H615.789C622.549 94.3221 633.881 78.318 634.974 76.7276C635.67 79.0139 644.119 99.8887 647.002 106.648L665.69 99.0935V91.3226L637.757 43.5265C632.887 50.783 620.362 69.9681 616.883 75.0377C614 70.6639 600.878 50.5842 595.312 42.2343H593.92C589.498 51.2455 574.349 80.1942 569.245 92.4148L569.169 100.485L587.26 106.648Z" fill="url(#paint7_linear_54_2872)"/>
<path d="M717.105 89.7495C712.831 90.1471 699.113 89.9483 696.827 89.9483V80.8031C698.815 80.8031 710.843 81.1013 713.229 81.1013L713.03 66.9859C709.054 67.3836 698.616 67.7812 696.827 67.7812V57.5425C698.417 57.5425 712.632 57.0455 716.012 57.0455L715.614 42.5325C711.837 42.8307 681.519 44.0236 675.853 44.0236C675.853 46.5087 676.051 66.8865 676.051 68.2782V79.5109C676.051 81.499 676.051 99.5905 675.853 104.064C681.121 104.064 713.726 104.958 717.404 104.958L717.105 89.7495Z" fill="url(#paint8_linear_54_2872)"/>
<mask id="mask0_54_2872" style="mask-type:alpha" maskUnits="userSpaceOnUse" x="0" y="23" width="718" height="77">
<path d="M20.5767 99.0815C22.366 94.4095 29.5231 68.7632 31.2129 63.5942C32.8034 66.5763 43.2409 83.4751 50.895 95.006H51.889C59.3443 84.5685 72.0681 64.9859 73.2609 63.1966C74.3544 65.8805 83.7978 91.1292 86.9787 99.0815L107.058 90.1351C104.374 84.6679 84.3942 39.5384 77.5353 24.8265H76.5413C71.2729 33.3753 57.2569 56.6359 53.3801 62.5008C50.2986 57.4311 35.5867 33.0771 29.5231 23.2361H28.529C22.7636 35.8604 2.68392 87.8489 0.994043 91.825L20.5767 99.0815ZM126.034 98.8827C128.022 94.9066 131.302 88.1471 131.799 87.3518L158.34 86.0596C159.036 87.0536 163.609 94.7077 166.292 98.7833L184.583 88.7435C180.805 83.8727 157.147 48.1865 146.113 32.8783H144.225C135.08 45.8008 110.825 85.4631 108.141 89.7375L126.034 98.8827ZM137.366 74.4293C139.652 69.7573 142.734 63.8924 144.821 59.8168C146.511 63.296 149.791 68.8626 152.276 73.7334L137.366 74.4293ZM210.185 96.5964C210.085 94.1113 210.085 72.3418 210.085 67.968C213.763 70.9501 243.088 92.2226 252.233 97.6899L253.823 97.2923C254.022 91.7256 254.718 79.7971 255.414 67.5704C256.11 55.1448 257.004 42.6199 257.601 35.9598L238.117 35.5622C238.018 39.2402 238.217 60.0157 238.217 64.5883C236.328 62.6002 208.594 43.2163 195.871 34.9658L194.28 35.4628C193.386 46.6955 191.199 90.0357 190.602 96L210.185 96.5964ZM291.783 51.1687C291.783 43.4151 291.982 38.6437 292.28 36.4568H270.014C270.014 38.3455 269.914 45.4032 269.914 49.28V53.8526C269.914 74.3299 271.604 80.5923 275.978 86.7554C282.738 96.2982 294.268 97.3917 301.624 97.3917C311.664 97.3917 320.909 94.1113 326.376 87.8489C333.136 80.0953 334.229 70.2543 334.229 54.0514V50.0752C334.229 43.4151 334.13 37.0533 334.13 35.1646H312.261C312.36 38.2461 312.758 44.111 312.758 49.9758V53.1568C312.758 72.3418 312.658 75.5227 310.173 79.0019C308.483 81.3876 305.998 82.6798 302.817 82.6798C300.034 82.6798 297.748 81.8846 295.859 79.8965C292.38 76.1191 291.783 70.3537 291.783 56.8347V51.1687ZM349.583 35.9598C349.682 37.6497 349.881 58.8228 349.881 60.2145V71.4471C349.881 73.4352 349.881 91.5268 349.682 96C357.436 96 388.848 96.8946 391.532 96.8946L391.432 80.3935C384.176 80.7911 373.539 80.7911 371.353 80.7911V65.9799C371.353 55.3437 371.75 37.9479 371.85 35.9598H349.583ZM484.597 73.3358C484.597 70.3537 484.597 68.0674 484.696 64.1906H463.125C463.125 66.974 463.324 69.6579 463.324 72.5406L463.225 80.4929C455.67 80.6917 445.232 76.815 445.232 66.974C445.232 53.3556 464.219 44.9062 477.638 43.1169L473.066 23.6337C432.31 32.5801 421.773 55.9401 421.773 68.0674C421.773 83.6739 433.9 97.1929 462.827 97.5905C472.966 97.6899 482.31 96 484.795 95.3042C484.795 93.2167 484.597 84.3697 484.597 80.5923V73.3358ZM509.769 98.8827C511.757 94.9066 515.038 88.1471 515.535 87.3518L542.075 86.0596C542.771 87.0536 547.344 94.7077 550.028 98.7833L568.318 88.7435C564.541 83.8727 540.883 48.1865 529.849 32.8783H527.96C518.815 45.8008 494.56 85.4631 491.876 89.7375L509.769 98.8827ZM521.101 74.4293C523.387 69.7573 526.469 63.8924 528.557 59.8168C530.246 63.296 533.527 68.8626 536.012 73.7334L521.101 74.4293ZM587.26 98.5845C588.95 94.6083 595.411 73.5346 596.704 69.1608C598.095 71.646 607.439 85.3637 614.398 95.1054H615.789C622.549 86.2584 633.881 70.2543 634.974 68.6638C635.67 70.9501 644.119 91.825 647.002 98.5845L665.69 91.0298C663.304 86.3578 645.412 47.9877 639.149 35.4628H637.758C632.887 42.7193 620.362 61.9043 616.883 66.974C614 62.6002 600.879 42.5205 595.312 34.1705H593.92C588.652 44.9062 570.759 89.0417 569.169 92.4214L587.26 98.5845ZM717.105 81.6858C712.831 82.0834 699.113 81.8846 696.827 81.8846V72.7394C698.815 72.7394 710.843 73.0376 713.229 73.0376L713.03 58.9222C709.054 59.3198 698.616 59.7174 696.827 59.7174V49.4788C698.417 49.4788 712.632 48.9818 716.012 48.9818L715.614 34.4688C711.837 34.767 681.519 35.9598 675.853 35.9598C675.853 38.4449 676.051 58.8228 676.051 60.2145V71.4471C676.051 73.4352 676.051 91.5268 675.853 96C681.121 96 713.726 96.8946 717.404 96.8946L717.105 81.6858Z" fill="url(#paint9_linear_54_2872)"/>
</mask>
<g mask="url(#mask0_54_2872)">
<g filter="url(#filter0_i_54_2872)">
<path d="M20.5767 99.0815C22.366 94.4095 29.5231 68.7632 31.2129 63.5942C32.8034 66.5763 43.2409 83.4751 50.895 95.006H51.889C59.3443 84.5685 72.0681 64.9859 73.2609 63.1966C74.3544 65.8805 83.7978 91.1292 86.9787 99.0815L107.058 90.1351C104.374 84.6679 84.3942 39.5384 77.5353 24.8265H76.5413C71.2729 33.3753 57.2569 56.6359 53.3801 62.5008C50.2986 57.4311 35.5867 33.0771 29.5231 23.2361H28.529C22.7636 35.8604 2.68392 87.8489 0.994043 91.825L20.5767 99.0815ZM126.034 98.8827C128.022 94.9066 131.302 88.1471 131.799 87.3518L158.34 86.0596C159.036 87.0536 163.609 94.7077 166.292 98.7833L184.583 88.7435C180.805 83.8727 157.147 48.1865 146.113 32.8783H144.225C135.08 45.8008 110.825 85.4631 108.141 89.7375L126.034 98.8827ZM137.366 74.4293C139.652 69.7573 142.734 63.8924 144.821 59.8168C146.511 63.296 149.791 68.8626 152.276 73.7334L137.366 74.4293ZM210.185 96.5964C210.085 94.1113 210.085 72.3418 210.085 67.968C213.763 70.9501 243.088 92.2226 252.233 97.6899L253.823 97.2923C254.022 91.7256 254.718 79.7971 255.414 67.5704C256.11 55.1448 257.004 42.6199 257.601 35.9598L238.117 35.5622C238.018 39.2402 238.217 60.0157 238.217 64.5883C236.328 62.6002 208.594 43.2163 195.871 34.9658L194.28 35.4628C193.386 46.6955 191.199 90.0357 190.602 96L210.185 96.5964ZM291.783 51.1687C291.783 43.4151 291.982 38.6437 292.28 36.4568H270.014C270.014 38.3455 269.914 45.4032 269.914 49.28V53.8526C269.914 74.3299 271.604 80.5923 275.978 86.7554C282.738 96.2982 294.268 97.3917 301.624 97.3917C311.664 97.3917 320.909 94.1113 326.376 87.8489C333.136 80.0953 334.229 70.2543 334.229 54.0514V50.0752C334.229 43.4151 334.13 37.0533 334.13 35.1646H312.261C312.36 38.2461 312.758 44.111 312.758 49.9758V53.1568C312.758 72.3418 312.658 75.5227 310.173 79.0019C308.483 81.3876 305.998 82.6798 302.817 82.6798C300.034 82.6798 297.748 81.8846 295.859 79.8965C292.38 76.1191 291.783 70.3537 291.783 56.8347V51.1687ZM349.583 35.9598C349.682 37.6497 349.881 58.8228 349.881 60.2145V71.4471C349.881 73.4352 349.881 91.5268 349.682 96C357.436 96 388.848 96.8946 391.532 96.8946L391.432 80.3935C384.176 80.7911 373.539 80.7911 371.353 80.7911V65.9799C371.353 55.3437 371.75 37.9479 371.85 35.9598H349.583ZM484.597 73.3358C484.597 70.3537 484.597 68.0674 484.696 64.1906H463.125C463.125 66.974 463.324 69.6579 463.324 72.5406L463.225 80.4929C455.67 80.6917 445.232 76.815 445.232 66.974C445.232 53.3556 464.219 44.9062 477.638 43.1169L473.066 23.6337C432.31 32.5801 421.773 55.9401 421.773 68.0674C421.773 83.6739 433.9 97.1929 462.827 97.5905C472.966 97.6899 482.31 96 484.795 95.3042C484.795 93.2167 484.597 84.3697 484.597 80.5923V73.3358ZM509.769 98.8827C511.757 94.9066 515.038 88.1471 515.535 87.3518L542.075 86.0596C542.771 87.0536 547.344 94.7077 550.028 98.7833L568.318 88.7435C564.541 83.8727 540.883 48.1865 529.849 32.8783H527.96C518.815 45.8008 494.56 85.4631 491.876 89.7375L509.769 98.8827ZM521.101 74.4293C523.387 69.7573 526.469 63.8924 528.557 59.8168C530.246 63.296 533.527 68.8626 536.012 73.7334L521.101 74.4293ZM587.26 98.5845C588.95 94.6083 595.411 73.5346 596.704 69.1608C598.095 71.646 607.439 85.3637 614.398 95.1054H615.789C622.549 86.2584 633.881 70.2543 634.974 68.6638C635.67 70.9501 644.119 91.825 647.002 98.5845L665.69 91.0298C663.304 86.3578 645.412 47.9877 639.149 35.4628H637.758C632.887 42.7193 620.362 61.9043 616.883 66.974C614 62.6002 600.879 42.5205 595.312 34.1705H593.92C588.652 44.9062 570.759 89.0417 569.169 92.4214L587.26 98.5845ZM717.105 81.6858C712.831 82.0834 699.113 81.8846 696.827 81.8846V72.7394C698.815 72.7394 710.843 73.0376 713.229 73.0376L713.03 58.9222C709.054 59.3198 698.616 59.7174 696.827 59.7174V49.4788C698.417 49.4788 712.632 48.9818 716.012 48.9818L715.614 34.4688C711.837 34.767 681.519 35.9598 675.853 35.9598C675.853 38.4449 676.051 58.8228 676.051 60.2145V71.4471C676.051 73.4352 676.051 91.5268 675.853 96C681.121 96 713.726 96.8946 717.404 96.8946L717.105 81.6858Z" fill="url(#paint10_linear_54_2872)"/>
</g>
<g style="mix-blend-mode:color-dodge" filter="url(#filter1_f_54_2872)">
<circle cx="667" cy="20" r="60" fill="#0094FF"/>
</g>
<g style="mix-blend-mode:color-dodge" filter="url(#filter2_f_54_2872)">
<circle cx="397" cy="34" r="60" fill="#0094FF"/>
</g>
<g style="mix-blend-mode:color-dodge" filter="url(#filter3_f_54_2872)">
<circle cx="225" cy="20" r="60" fill="#0094FF"/>
</g>
<g style="mix-blend-mode:color-dodge" filter="url(#filter4_f_54_2872)">
<circle cx="23" cy="26" r="60" fill="#0094FF"/>
</g>
</g>
<defs>
<filter id="filter0_i_54_2872" x="0.994019" y="23.2361" width="716.41" height="75.8455" filterUnits="userSpaceOnUse" color-interpolation-filters="sRGB">
<feFlood flood-opacity="0" result="BackgroundImageFix"/>
<feBlend mode="normal" in="SourceGraphic" in2="BackgroundImageFix" result="shape"/>
<feColorMatrix in="SourceAlpha" type="matrix" values="0 0 0 0 0 0 0 0 0 0 0 0 0 0 0 0 0 0 127 0" result="hardAlpha"/>
<feOffset dy="-2"/>
<feComposite in2="hardAlpha" operator="arithmetic" k2="-1" k3="1"/>
<feColorMatrix type="matrix" values="0 0 0 0 1 0 0 0 0 1 0 0 0 0 1 0 0 0 1 0"/>
<feBlend mode="normal" in2="shape" result="effect1_innerShadow_54_2872"/>
</filter>
<filter id="filter1_f_54_2872" x="548" y="-99" width="238" height="238" filterUnits="userSpaceOnUse" color-interpolation-filters="sRGB">
<feFlood flood-opacity="0" result="BackgroundImageFix"/>
<feBlend mode="normal" in="SourceGraphic" in2="BackgroundImageFix" result="shape"/>
<feGaussianBlur stdDeviation="29.5" result="effect1_foregroundBlur_54_2872"/>
</filter>
<filter id="filter2_f_54_2872" x="278" y="-85" width="238" height="238" filterUnits="userSpaceOnUse" color-interpolation-filters="sRGB">
<feFlood flood-opacity="0" result="BackgroundImageFix"/>
<feBlend mode="normal" in="SourceGraphic" in2="BackgroundImageFix" result="shape"/>
<feGaussianBlur stdDeviation="29.5" result="effect1_foregroundBlur_54_2872"/>
</filter>
<filter id="filter3_f_54_2872" x="106" y="-99" width="238" height="238" filterUnits="userSpaceOnUse" color-interpolation-filters="sRGB">
<feFlood flood-opacity="0" result="BackgroundImageFix"/>
<feBlend mode="normal" in="SourceGraphic" in2="BackgroundImageFix" result="shape"/>
<feGaussianBlur stdDeviation="29.5" result="effect1_foregroundBlur_54_2872"/>
</filter>
<filter id="filter4_f_54_2872" x="-96" y="-93" width="238" height="238" filterUnits="userSpaceOnUse" color-interpolation-filters="sRGB">
<feFlood flood-opacity="0" result="BackgroundImageFix"/>
<feBlend mode="normal" in="SourceGraphic" in2="BackgroundImageFix" result="shape"/>
<feGaussianBlur stdDeviation="29.5" result="effect1_foregroundBlur_54_2872"/>
</filter>
<linearGradient id="paint0_linear_54_2872" x1="13.2021" y1="7.76587" x2="747.862" y2="135.128" gradientUnits="userSpaceOnUse">
<stop stop-color="#0069B5"/>
<stop offset="1" stop-color="#005695"/>
</linearGradient>
<linearGradient id="paint1_linear_54_2872" x1="13.2021" y1="7.76587" x2="747.862" y2="135.128" gradientUnits="userSpaceOnUse">
<stop stop-color="#0069B5"/>
<stop offset="1" stop-color="#005695"/>
</linearGradient>
<linearGradient id="paint2_linear_54_2872" x1="13.2021" y1="7.76587" x2="747.862" y2="135.128" gradientUnits="userSpaceOnUse">
<stop stop-color="#0069B5"/>
<stop offset="1" stop-color="#005695"/>
</linearGradient>
<linearGradient id="paint3_linear_54_2872" x1="13.2021" y1="7.76587" x2="747.862" y2="135.128" gradientUnits="userSpaceOnUse">
<stop stop-color="#0069B5"/>
<stop offset="1" stop-color="#005695"/>
</linearGradient>
<linearGradient id="paint4_linear_54_2872" x1="13.2021" y1="7.76587" x2="747.862" y2="135.128" gradientUnits="userSpaceOnUse">
<stop stop-color="#0069B5"/>
<stop offset="1" stop-color="#005695"/>
</linearGradient>
<linearGradient id="paint5_linear_54_2872" x1="13.2021" y1="7.76587" x2="747.862" y2="135.128" gradientUnits="userSpaceOnUse">
<stop stop-color="#0069B5"/>
<stop offset="1" stop-color="#005695"/>
</linearGradient>
<linearGradient id="paint6_linear_54_2872" x1="13.2021" y1="7.76587" x2="747.862" y2="135.128" gradientUnits="userSpaceOnUse">
<stop stop-color="#0069B5"/>
<stop offset="1" stop-color="#005695"/>
</linearGradient>
<linearGradient id="paint7_linear_54_2872" x1="13.2021" y1="7.76587" x2="747.862" y2="135.128" gradientUnits="userSpaceOnUse">
<stop stop-color="#0069B5"/>
<stop offset="1" stop-color="#005695"/>
</linearGradient>
<linearGradient id="paint8_linear_54_2872" x1="13.2021" y1="7.76587" x2="747.862" y2="135.128" gradientUnits="userSpaceOnUse">
<stop stop-color="#0069B5"/>
<stop offset="1" stop-color="#005695"/>
</linearGradient>
<linearGradient id="paint9_linear_54_2872" x1="13.206" y1="-9.24576e-05" x2="748.36" y2="126.618" gradientUnits="userSpaceOnUse">
<stop stop-color="#3AACFF"/>
<stop offset="1" stop-color="#0094FF"/>
</linearGradient>
<linearGradient id="paint10_linear_54_2872" x1="13.206" y1="-9.24576e-05" x2="748.36" y2="126.618" gradientUnits="userSpaceOnUse">
<stop stop-color="#3AACFF"/>
<stop offset="1" stop-color="#0094FF"/>
</linearGradient>
</defs>
</svg>
