<svg width="850" height="178" viewBox="0 0 850 178" fill="none" xmlns="http://www.w3.org/2000/svg">
<g opacity="0.1">
<path d="M52.0717 118.362C51.8427 116.072 51.7281 100.27 51.7281 88.475V56.6411C53.5603 56.6411 74.7447 57.2137 76.9204 57.3282V37.2889C71.3094 37.7469 46.3461 38.2049 44.1704 38.2049H34.208C32.9484 38.2049 5.80944 37.7469 0.656469 37.2889V57.3282C4.20629 57.2137 20.4668 56.6411 25.9633 56.6411V86.6429C25.9633 99.1245 25.8488 115.385 25.6198 118.362H52.0717ZM120.791 120.194C159.152 120.309 170.718 92.8264 170.718 75.5354C170.718 50.3431 153.656 35.2277 126.402 35.2277C92.6218 35.2277 76.5903 58.9313 76.5903 81.0319C76.5903 99.3535 90.2171 120.194 120.791 120.194ZM122.051 102.445C112.661 102.445 104.531 94.6586 104.531 79.3142C104.531 65.3439 111.86 52.9768 124.914 52.9768C135.907 52.9768 142.777 61.5651 142.663 76.3369C142.548 93.399 134.418 102.445 122.051 102.445ZM213.369 119.507C213.14 117.332 212.796 91.6813 212.796 82.864V80.8028H213.025C220.468 91.6813 241.424 118.706 243.37 121.111L263.524 103.476C258.829 98.552 242.454 81.3754 238.332 76.795C244.515 70.2679 258.257 56.4121 262.608 51.8317L243.599 35.1132C240.966 38.3195 219.667 64.8859 213.025 73.4742H212.796V70.4969C212.796 60.5345 213.254 37.7469 213.369 35.9147H186.688C186.688 38.5485 187.146 61.6796 187.146 71.642V83.7801C187.146 96.8343 186.802 116.187 186.688 119.507H213.369ZM328.674 99.8116C323.292 100.27 306.001 100.041 303.024 100.041V86.4139C305.543 86.4139 320.773 86.8719 323.865 86.8719L323.521 68.5502C318.483 69.0083 305.314 69.5808 303.024 69.5808V54.4654C305.085 54.4654 323.063 53.8929 327.3 53.8929L326.842 34.9987C322.605 35.3422 284.13 37.0598 277.717 37.0598C277.832 40.3806 278.061 67.9777 278.061 69.8098V85.1542C278.061 87.788 278.061 112.293 277.717 118.362C283.672 118.362 325.01 119.507 329.132 119.507L328.674 99.8116ZM368.761 119.164C368.647 115.385 368.532 82.2915 368.532 77.5966C370.25 78.9707 411.588 111.721 425.329 120.652L426.474 120.08C426.818 112.637 427.619 96.3763 428.536 79.7723C429.566 63.0537 430.597 45.9917 431.284 37.0598L407.924 36.4873C407.809 41.4112 408.153 72.1001 408.153 78.3981C404.145 75.4209 367.387 47.5948 351.126 35.6857L349.981 36.3728C348.836 51.6027 346.088 110.232 345.401 118.362L368.761 119.164ZM487.583 120.194C525.944 120.309 537.509 92.8264 537.509 75.5354C537.509 50.3431 520.447 35.2277 493.194 35.2277C459.413 35.2277 443.382 58.9313 443.382 81.0319C443.382 99.3535 457.008 120.194 487.583 120.194ZM488.842 102.445C479.452 102.445 471.322 94.6586 471.322 79.3142C471.322 65.3439 478.651 52.9768 491.705 52.9768C502.698 52.9768 509.569 61.5651 509.454 76.3369C509.34 93.399 501.209 102.445 488.842 102.445ZM561.807 121.912C563.868 116.53 572.113 86.9864 574.06 81.0319C575.892 84.4672 587.915 103.934 596.733 117.217H597.878C606.466 105.194 621.123 82.635 622.497 80.5738C623.757 83.6656 634.636 112.751 638.3 121.912L661.431 111.606C658.339 105.308 635.323 53.3203 627.421 36.3728H626.276C620.207 46.2207 604.061 73.0161 599.595 79.7723C596.046 73.9322 579.098 45.8772 572.113 34.5406H570.968C564.326 49.0834 541.195 108.972 539.248 113.553L561.807 121.912ZM700.81 71.413C700.81 57.6717 701.154 39.121 701.268 37.0598H674.702C674.702 39.8081 675.045 69.2373 675.045 71.184V83.5511C675.045 86.5284 674.931 113.324 674.702 118.362H701.268C701.154 115.729 700.81 95.2312 700.81 83.7801V71.413ZM780.455 98.3229C777.707 98.552 774.042 98.8955 769.462 98.8955C754.232 98.8955 744.613 91.6813 744.613 82.864C744.613 72.1001 754.346 61.5651 778.508 57.2137L773.47 35.2277C733.964 43.7015 716.673 66.7181 716.673 85.7268C716.673 101.071 730.528 120.194 768.088 120.194C773.47 120.194 777.592 119.736 781.6 119.278L780.455 98.3229ZM797.12 120.423C831.931 116.416 845.1 100.384 845.1 87.788C845.1 77.482 835.252 72.3291 829.183 69.3518C821.739 65.6875 818.075 63.9698 818.075 61.2216C818.075 56.5266 825.289 54.1219 839.603 54.1219L836.511 34.9987C807.54 37.5179 790.478 51.4882 790.478 64.3133C790.478 73.9322 798.837 79.6577 806.052 83.7801C815.327 89.0476 817.274 90.4217 817.274 92.7119C817.274 98.0939 805.135 101.186 794.028 100.842L797.12 120.423Z" fill="url(#paint0_linear_28_4)"/>
<g filter="url(#filter0_i_28_4)">
<path d="M52.0717 110.299C51.8427 108.008 51.7281 92.2059 51.7281 80.4114V48.5774C53.5603 48.5774 74.7447 49.15 76.9204 49.2645V29.2252C71.3094 29.6832 46.3461 30.1413 44.1704 30.1413H34.208C32.9484 30.1413 5.80944 29.6832 0.656469 29.2252V49.2645C4.20629 49.15 20.4668 48.5774 25.9633 48.5774V78.5792C25.9633 91.0608 25.8488 107.321 25.6198 110.299H52.0717ZM120.791 112.131C159.152 112.245 170.718 84.7627 170.718 67.4717C170.718 42.2794 153.656 27.164 126.402 27.164C92.6218 27.164 76.5903 50.8676 76.5903 72.9682C76.5903 91.2898 90.2171 112.131 120.791 112.131ZM122.051 94.3816C112.661 94.3816 104.531 86.5949 104.531 71.2505C104.531 57.2802 111.86 44.9131 124.914 44.9131C135.907 44.9131 142.777 53.5014 142.663 68.2732C142.548 85.3353 134.418 94.3816 122.051 94.3816ZM213.369 111.444C213.14 109.268 212.796 83.6176 212.796 74.8003V72.7391H213.025C220.468 83.6176 241.424 110.642 243.37 113.047L263.524 95.4122C258.829 90.4883 242.454 73.3117 238.332 68.7313C244.515 62.2042 258.257 48.3484 262.608 43.768L243.599 27.0495C240.966 30.2558 219.667 56.8222 213.025 65.4105H212.796V62.4332C212.796 52.4708 213.254 29.6832 213.369 27.851H186.688C186.688 30.4848 187.146 53.6159 187.146 63.5783V75.7164C187.146 88.7706 186.802 108.123 186.688 111.444H213.369ZM328.674 91.7479C323.292 92.2059 306.001 91.9769 303.024 91.9769V78.3502C305.543 78.3502 320.773 78.8082 323.865 78.8082L323.521 60.4865C318.483 60.9446 305.314 61.5171 303.024 61.5171V46.4017C305.085 46.4017 323.063 45.8292 327.3 45.8292L326.842 26.935C322.605 27.2785 284.13 28.9961 277.717 28.9961C277.832 32.3169 278.061 59.914 278.061 61.7461V77.0905C278.061 79.7243 278.061 104.23 277.717 110.299C283.672 110.299 325.01 111.444 329.132 111.444L328.674 91.7479ZM368.761 111.1C368.647 107.321 368.532 74.2278 368.532 69.5329C370.25 70.907 411.588 103.657 425.329 112.589L426.474 112.016C426.818 104.573 427.619 88.3126 428.536 71.7086C429.566 54.99 430.597 37.928 431.284 28.9961L407.924 28.4236C407.809 33.3475 408.153 64.0364 408.153 70.3344C404.145 67.3572 367.387 39.5311 351.126 27.622L349.981 28.3091C348.836 43.539 346.088 102.168 345.401 110.299L368.761 111.1ZM487.583 112.131C525.944 112.245 537.509 84.7627 537.509 67.4717C537.509 42.2794 520.447 27.164 493.194 27.164C459.413 27.164 443.382 50.8676 443.382 72.9682C443.382 91.2898 457.008 112.131 487.583 112.131ZM488.842 94.3816C479.452 94.3816 471.322 86.5949 471.322 71.2505C471.322 57.2802 478.651 44.9131 491.705 44.9131C502.698 44.9131 509.569 53.5014 509.454 68.2732C509.34 85.3353 501.209 94.3816 488.842 94.3816ZM561.807 113.848C563.868 108.466 572.113 78.9227 574.06 72.9682C575.892 76.4035 587.915 95.8703 596.733 109.153H597.878C606.466 97.1299 621.123 74.5713 622.497 72.5101C623.757 75.6019 634.636 104.688 638.3 113.848L661.431 103.542C658.339 97.2444 635.323 45.2566 627.421 28.3091H626.276C620.207 38.157 604.061 64.9524 599.595 71.7086C596.046 65.8685 579.098 37.8135 572.113 26.4769H570.968C564.326 41.0197 541.195 100.909 539.248 105.489L561.807 113.848ZM700.81 63.3493C700.81 49.608 701.154 31.0573 701.268 28.9961H674.702C674.702 31.7444 675.045 61.1736 675.045 63.1203V75.4874C675.045 78.4647 674.931 105.26 674.702 110.299H701.268C701.154 107.665 700.81 87.1675 700.81 75.7164V63.3493ZM780.455 90.2593C777.707 90.4883 774.042 90.8318 769.462 90.8318C754.232 90.8318 744.613 83.6176 744.613 74.8003C744.613 64.0364 754.346 53.5014 778.508 49.15L773.47 27.164C733.964 35.6378 716.673 58.6544 716.673 77.6631C716.673 93.0075 730.528 112.131 768.088 112.131C773.47 112.131 777.592 111.673 781.6 111.215L780.455 90.2593ZM797.12 112.36C831.931 108.352 845.1 92.3204 845.1 79.7243C845.1 69.4183 835.252 64.2654 829.183 61.2881C821.739 57.6238 818.075 55.9061 818.075 53.1579C818.075 48.4629 825.289 46.0582 839.603 46.0582L836.511 26.935C807.54 29.4542 790.478 43.4245 790.478 56.2496C790.478 65.8685 798.837 71.594 806.052 75.7164C815.327 80.9839 817.274 82.358 817.274 84.6482C817.274 90.0302 805.135 93.122 794.028 92.7785L797.12 112.36Z" fill="url(#paint1_linear_28_4)"/>
</g>
</g>
<path d="M101.334 115C101.135 113.012 101.036 99.2941 101.036 89.0555V61.4211C102.627 61.4211 121.016 61.9181 122.905 62.0175V44.6218C118.034 45.0194 96.3641 45.417 94.4754 45.417H85.8272C84.7338 45.417 61.175 45.0194 56.7018 44.6218V62.0175C59.7833 61.9181 73.8987 61.4211 78.6701 61.4211V87.465C78.6701 98.3001 78.5707 112.415 78.3719 115H101.334ZM160.989 116.59C194.289 116.69 204.329 92.8328 204.329 77.8228C204.329 55.9539 189.518 42.8325 165.859 42.8325C136.535 42.8325 122.618 63.4092 122.618 82.5942C122.618 98.4989 134.448 116.59 160.989 116.59ZM162.082 101.183C153.931 101.183 146.873 94.4233 146.873 81.1031C146.873 68.9758 153.235 58.2402 164.567 58.2402C174.11 58.2402 180.074 65.6955 179.975 78.5186C179.875 93.3299 172.818 101.183 162.082 101.183ZM241.353 115.994C241.154 114.105 240.856 91.8388 240.856 84.1847V82.3954H241.055C247.516 91.8388 265.707 115.298 267.397 117.386L284.892 102.077C280.816 97.8031 266.602 82.8924 263.023 78.9163C268.391 73.2502 280.319 61.2223 284.097 57.2461L267.596 42.7331C265.309 45.5164 246.82 68.5782 241.055 76.0335H240.856V73.449C240.856 64.8008 241.254 45.0194 241.353 43.4289H218.192C218.192 45.7152 218.589 65.7949 218.589 74.4431V84.9799C218.589 96.312 218.291 113.111 218.192 115.994H241.353ZM341.448 98.8965C336.776 99.2941 321.766 99.0953 319.181 99.0953V87.2662C321.368 87.2662 334.589 87.6638 337.273 87.6638L336.974 71.7591C332.601 72.1568 321.169 72.6538 319.181 72.6538V59.5324C320.97 59.5324 336.577 59.0354 340.255 59.0354L339.857 42.6337C336.179 42.9319 302.779 44.423 297.213 44.423C297.312 47.3057 297.511 71.2621 297.511 72.8526V86.1728C297.511 88.4591 297.511 109.732 297.213 115C302.382 115 338.267 115.994 341.845 115.994L341.448 98.8965ZM376.246 115.696C376.147 112.415 376.047 83.6877 376.047 79.6121C377.538 80.8049 413.423 109.235 425.352 116.988L426.346 116.491C426.644 110.03 427.34 95.9144 428.135 81.5008C429.03 66.9877 429.924 52.1765 430.521 44.423L410.242 43.926C410.143 48.2003 410.441 74.8407 410.441 80.3079C406.962 77.7234 375.053 53.5682 360.938 43.2301L359.944 43.8265C358.95 57.0473 356.564 107.942 355.968 115L376.246 115.696ZM479.393 116.59C512.693 116.69 522.733 92.8328 522.733 77.8228C522.733 55.9539 507.922 42.8325 484.264 42.8325C454.939 42.8325 441.023 63.4092 441.023 82.5942C441.023 98.4989 452.852 116.59 479.393 116.59ZM480.486 101.183C472.335 101.183 465.277 94.4233 465.277 81.1031C465.277 68.9758 471.639 58.2402 482.971 58.2402C492.514 58.2402 498.478 65.6955 498.379 78.5186C498.28 93.3299 491.222 101.183 480.486 101.183ZM543.825 118.082C545.615 113.41 552.772 87.7632 554.462 82.5942C556.052 85.5763 566.49 102.475 574.144 114.006H575.138C582.593 103.569 595.317 83.9859 596.51 82.1966C597.603 84.8805 607.046 110.129 610.227 118.082L630.307 109.135C627.623 103.668 607.643 58.5384 600.784 43.8265H599.79C594.522 52.3753 580.506 75.6359 576.629 81.5008C573.547 76.4311 558.835 52.0771 552.772 42.2361H551.778C546.012 54.8604 525.933 106.849 524.243 110.825L543.825 118.082ZM664.491 74.2443C664.491 62.3157 664.789 46.2122 664.889 44.423H641.827C641.827 46.8087 642.125 72.3556 642.125 74.0454V84.7811C642.125 87.3656 642.026 110.626 641.827 115H664.889C664.789 112.714 664.491 94.9203 664.491 84.9799V74.2443ZM733.629 97.6043C731.244 97.8031 728.063 98.1013 724.086 98.1013C710.866 98.1013 702.516 91.8388 702.516 84.1847C702.516 74.8407 710.965 65.6955 731.939 61.9181L727.566 42.8325C693.271 50.1884 678.261 70.1687 678.261 86.6698C678.261 99.99 690.289 116.59 722.894 116.59C727.566 116.59 731.144 116.193 734.623 115.795L733.629 97.6043ZM748.096 116.789C778.315 113.31 789.746 99.3935 789.746 88.4591C789.746 79.5127 781.197 75.0395 775.929 72.455C769.468 69.274 766.287 67.783 766.287 65.3973C766.287 61.3217 772.549 59.2342 784.975 59.2342L782.291 42.6337C757.141 44.8206 742.33 56.9479 742.33 68.0812C742.33 76.4311 749.587 81.4014 755.849 84.9799C763.901 89.5525 765.591 90.7454 765.591 92.7334C765.591 97.4054 755.054 100.089 745.412 99.7911L748.096 116.789Z" fill="url(#paint2_linear_28_4)"/>
<g filter="url(#filter1_i_28_4)">
<path d="M101.334 108C101.135 106.012 101.036 92.2941 101.036 82.0555V54.4211C102.627 54.4211 121.016 54.9181 122.905 55.0175V37.6218C118.034 38.0194 96.3641 38.417 94.4754 38.417H85.8272C84.7338 38.417 61.175 38.0194 56.7018 37.6218V55.0175C59.7833 54.9181 73.8987 54.4211 78.6701 54.4211V80.465C78.6701 91.3001 78.5707 105.415 78.3719 108H101.334ZM160.989 109.59C194.289 109.69 204.329 85.8328 204.329 70.8228C204.329 48.9539 189.518 35.8325 165.859 35.8325C136.535 35.8325 122.618 56.4092 122.618 75.5942C122.618 91.4989 134.448 109.59 160.989 109.59ZM162.082 94.1828C153.931 94.1828 146.873 87.4233 146.873 74.1031C146.873 61.9758 153.235 51.2402 164.567 51.2402C174.11 51.2402 180.074 58.6955 179.975 71.5186C179.875 86.3299 172.818 94.1828 162.082 94.1828ZM241.353 108.994C241.154 107.105 240.856 84.8388 240.856 77.1847V75.3954H241.055C247.516 84.8388 265.707 108.298 267.397 110.386L284.892 95.0774C280.816 90.8031 266.602 75.8924 263.023 71.9163C268.391 66.2502 280.319 54.2223 284.097 50.2461L267.596 35.7331C265.309 38.5164 246.82 61.5782 241.055 69.0335H240.856V66.449C240.856 57.8008 241.254 38.0194 241.353 36.4289H218.192C218.192 38.7152 218.589 58.7949 218.589 67.4431V77.9799C218.589 89.312 218.291 106.111 218.192 108.994H241.353ZM341.448 91.8965C336.776 92.2941 321.766 92.0953 319.181 92.0953V80.2662C321.368 80.2662 334.589 80.6638 337.273 80.6638L336.974 64.7591C332.601 65.1568 321.169 65.6538 319.181 65.6538V52.5324C320.97 52.5324 336.577 52.0354 340.255 52.0354L339.857 35.6337C336.179 35.9319 302.779 37.423 297.213 37.423C297.312 40.3057 297.511 64.2621 297.511 65.8526V79.1728C297.511 81.4591 297.511 102.732 297.213 108C302.382 108 338.267 108.994 341.845 108.994L341.448 91.8965ZM376.246 108.696C376.147 105.415 376.047 76.6877 376.047 72.6121C377.538 73.8049 413.423 102.235 425.352 109.988L426.346 109.491C426.644 103.03 427.34 88.9144 428.135 74.5008C429.03 59.9877 429.924 45.1765 430.521 37.423L410.242 36.926C410.143 41.2003 410.441 67.8407 410.441 73.3079C406.962 70.7234 375.053 46.5682 360.938 36.2301L359.944 36.8265C358.95 50.0473 356.564 100.942 355.968 108L376.246 108.696ZM479.393 109.59C512.693 109.69 522.733 85.8328 522.733 70.8228C522.733 48.9539 507.922 35.8325 484.264 35.8325C454.939 35.8325 441.023 56.4092 441.023 75.5942C441.023 91.4989 452.852 109.59 479.393 109.59ZM480.486 94.1828C472.335 94.1828 465.277 87.4233 465.277 74.1031C465.277 61.9758 471.639 51.2402 482.971 51.2402C492.514 51.2402 498.478 58.6955 498.379 71.5186C498.28 86.3299 491.222 94.1828 480.486 94.1828ZM543.825 111.082C545.615 106.41 552.772 80.7632 554.462 75.5942C556.052 78.5763 566.49 95.4751 574.144 107.006H575.138C582.593 96.5685 595.317 76.9859 596.51 75.1966C597.603 77.8805 607.046 103.129 610.227 111.082L630.307 102.135C627.623 96.6679 607.643 51.5384 600.784 36.8265H599.79C594.522 45.3753 580.506 68.6359 576.629 74.5008C573.547 69.4311 558.835 45.0771 552.772 35.2361H551.778C546.012 47.8604 525.933 99.8489 524.243 103.825L543.825 111.082ZM664.491 67.2443C664.491 55.3157 664.789 39.2122 664.889 37.423H641.827C641.827 39.8087 642.125 65.3556 642.125 67.0454V77.7811C642.125 80.3656 642.026 103.626 641.827 108H664.889C664.789 105.714 664.491 87.9203 664.491 77.9799V67.2443ZM733.629 90.6043C731.244 90.8031 728.063 91.1013 724.086 91.1013C710.866 91.1013 702.516 84.8388 702.516 77.1847C702.516 67.8407 710.965 58.6955 731.939 54.9181L727.566 35.8325C693.271 43.1884 678.261 63.1687 678.261 79.6698C678.261 92.99 690.289 109.59 722.894 109.59C727.566 109.59 731.144 109.193 734.623 108.795L733.629 90.6043ZM748.096 109.789C778.315 106.31 789.746 92.3935 789.746 81.4591C789.746 72.5127 781.197 68.0395 775.929 65.455C769.468 62.274 766.287 60.783 766.287 58.3973C766.287 54.3217 772.549 52.2342 784.975 52.2342L782.291 35.6337C757.141 37.8206 742.33 49.9479 742.33 61.0812C742.33 69.4311 749.587 74.4014 755.849 77.9799C763.901 82.5525 765.591 83.7454 765.591 85.7334C765.591 90.4054 755.054 93.0894 745.412 92.7911L748.096 109.789Z" fill="url(#paint3_linear_28_4)"/>
</g>
<defs>
<filter id="filter0_i_28_4" x="0.656464" y="26.4769" width="844.443" height="87.3715" filterUnits="userSpaceOnUse" color-interpolation-filters="sRGB">
<feFlood flood-opacity="0" result="BackgroundImageFix"/>
<feBlend mode="normal" in="SourceGraphic" in2="BackgroundImageFix" result="shape"/>
<feColorMatrix in="SourceAlpha" type="matrix" values="0 0 0 0 0 0 0 0 0 0 0 0 0 0 0 0 0 0 127 0" result="hardAlpha"/>
<feOffset dy="-2.30393"/>
<feComposite in2="hardAlpha" operator="arithmetic" k2="-1" k3="1"/>
<feColorMatrix type="matrix" values="0 0 0 0 1 0 0 0 0 1 0 0 0 0 1 0 0 0 1 0"/>
<feBlend mode="normal" in2="shape" result="effect1_innerShadow_28_4"/>
</filter>
<filter id="filter1_i_28_4" x="56.7018" y="35.2361" width="733.044" height="75.8455" filterUnits="userSpaceOnUse" color-interpolation-filters="sRGB">
<feFlood flood-opacity="0" result="BackgroundImageFix"/>
<feBlend mode="normal" in="SourceGraphic" in2="BackgroundImageFix" result="shape"/>
<feColorMatrix in="SourceAlpha" type="matrix" values="0 0 0 0 0 0 0 0 0 0 0 0 0 0 0 0 0 0 127 0" result="hardAlpha"/>
<feOffset dy="-2"/>
<feComposite in2="hardAlpha" operator="arithmetic" k2="-1" k3="1"/>
<feColorMatrix type="matrix" values="0 0 0 0 1 0 0 0 0 1 0 0 0 0 1 0 0 0 1 0"/>
<feBlend mode="normal" in2="shape" result="effect1_innerShadow_28_4"/>
</filter>
<linearGradient id="paint0_linear_28_4" x1="16.4861" y1="8.36218" x2="877.564" y2="159.634" gradientUnits="userSpaceOnUse">
<stop stop-color="#0076CB"/>
<stop offset="1" stop-color="#005EA2"/>
</linearGradient>
<linearGradient id="paint1_linear_28_4" x1="16.4861" y1="0.298478" x2="877.564" y2="151.57" gradientUnits="userSpaceOnUse">
<stop stop-color="#0094FF"/>
<stop offset="1" stop-color="#0079D1"/>
</linearGradient>
<linearGradient id="paint2_linear_28_4" x1="70.4432" y1="18.9999" x2="818.017" y2="150.069" gradientUnits="userSpaceOnUse">
<stop stop-color="#0076CB"/>
<stop offset="1" stop-color="#005EA2"/>
</linearGradient>
<linearGradient id="paint3_linear_28_4" x1="70.4432" y1="11.9999" x2="818.017" y2="143.069" gradientUnits="userSpaceOnUse">
<stop stop-color="#0094FF"/>
<stop offset="1" stop-color="#0079D1"/>
</linearGradient>
</defs>
</svg>
