<svg width="248" height="252" viewBox="0 0 248 252" fill="none" xmlns="http://www.w3.org/2000/svg">
<g opacity="0.5">
<path d="M173.493 202.414C213.319 176.676 225.557 124.87 200.892 86.7036C199.739 84.919 187.499 66.597 187.499 66.597L184.65 68.4383C157.31 45.9817 116.589 43.1359 84.1211 64.1182C51.6528 85.1005 37.281 124.126 47.0685 158.503L44.3132 160.284C44.3132 160.284 58.6054 182.606 59.5896 183.922L59.6503 184.016C85.3574 218.713 135.201 227.159 173.493 202.414Z" fill="#F1B81A"/>
<path d="M53.886 177.843C49.4953 171.049 43.497 161.699 43.1125 161.104C42.6876 160.446 42.8557 159.539 43.5445 159.093L45.4231 157.879C40.8762 141.022 41.8737 122.579 48.3068 105.816C55.094 88.1583 67.2076 73.3171 83.3634 62.8766C99.5193 52.436 117.684 47.5769 136.407 48.5266C154.118 49.4206 171.264 55.8282 184.769 66.6301L186.679 65.3959C187.336 64.971 188.244 65.139 188.669 65.7965C189.154 66.548 200.929 84.1498 202.082 85.9345C227.152 124.727 214.692 177.564 174.271 203.686C133.85 229.808 84.8779 220.443 58.56 185.076C58.5195 185.013 58.479 184.951 58.4183 184.857L58.3779 184.794C57.9934 184.199 56.1411 181.402 53.8749 177.895L53.886 177.843ZM46.3438 160.747C50.775 167.603 60.0401 182.078 60.7704 183.07C60.7704 183.07 60.7907 183.102 60.8109 183.133C60.8109 183.133 60.8311 183.164 60.8514 183.196C86.2236 217.443 135.372 225.362 172.724 201.224C210.077 177.085 223.871 124.939 199.671 87.4925C198.7 85.9896 189.801 72.6993 187.067 68.6069L185.408 69.6793C184.876 70.0233 184.183 69.9824 183.703 69.5826C170.549 58.7753 153.704 52.3513 136.21 51.4501C118.128 50.5302 100.377 55.3435 84.9103 65.339C69.4433 75.3344 57.5416 89.8167 50.9905 106.878C44.6642 123.394 43.7737 141.591 48.4699 158.13C48.6371 158.732 48.39 159.38 47.878 159.755L46.3125 160.767L46.3438 160.747Z" fill="#C0892A"/>
<g style="mix-blend-mode:multiply">
<path d="M160.884 54.9458C159.156 54.3318 157.396 53.7379 155.646 53.2269L212.826 141.708C213.079 139.903 213.292 138.034 213.411 136.226L160.884 54.9458Z" fill="#BD8034"/>
<path d="M141.292 50.3849L209.5 155.93C209.976 154.469 210.4 152.996 210.793 151.544L145.823 51.008C144.317 50.7383 142.789 50.5717 141.292 50.3849Z" fill="#BD8034"/>
<path d="M116.795 51.2143L198.68 177.925C199.419 176.871 200.107 175.805 200.742 174.728L120.556 50.6475C119.282 50.8051 118.028 50.994 116.795 51.2143Z" fill="#BD8034"/>
<path d="M86.615 62.5504L175.947 200.783C176.897 200.125 177.827 199.435 178.757 198.745L89.6279 60.8252C88.6169 61.3899 87.6058 61.9545 86.615 62.5504Z" fill="#BD8034"/>
<path d="M212.245 115.053L179.709 64.7065C177.457 63.144 175.13 61.6734 172.771 60.3576L213.38 123.196C213.129 120.473 212.796 117.759 212.265 115.084L212.245 115.053Z" fill="#BD8034"/>
<path d="M128.497 49.954L204.637 167.773C205.254 166.53 205.84 165.308 206.375 164.075L132.583 49.8882C131.207 49.8893 129.832 49.8903 128.497 49.954Z" fill="#BD8034"/>
<path d="M106.014 53.8312L191.865 186.679C192.654 185.77 193.474 184.84 194.211 183.92L109.492 52.8261C108.319 53.1403 107.167 53.4857 106.014 53.8312Z" fill="#BD8034"/>
<path d="M69.9588 75.4448L157.348 210.672C158.44 210.232 159.532 209.793 160.604 209.322L72.5266 73.0308C71.6572 73.8146 70.7767 74.6499 69.9588 75.4448Z" fill="#BD8034"/>
<path d="M77.9274 68.4756L166.955 206.239C167.987 205.705 168.998 205.141 169.989 204.545L80.7178 66.406C79.7674 67.0646 78.8373 67.7544 77.9274 68.4756Z" fill="#BD8034"/>
<path d="M62.6876 83.5615L146.981 213.998C148.154 213.684 149.327 213.37 150.48 213.024L64.9924 80.7405C64.2039 81.6495 63.4043 82.6101 62.6876 83.5615Z" fill="#BD8034"/>
<path d="M50.694 103.74L123.636 216.612C125.032 216.642 126.407 216.641 127.762 216.609L52.3918 99.98C51.7743 101.222 51.2286 102.507 50.694 103.74Z" fill="#BD8034"/>
<path d="M44.1344 132.258L94.9411 210.877C96.71 211.554 98.49 212.179 100.301 212.784L44.598 126.588C44.3852 128.456 44.1926 130.356 44.1142 132.227L44.1344 132.258Z" fill="#BD8034"/>
<path d="M95.9705 57.6586L184.25 194.263C185.119 193.479 186.02 192.675 186.838 191.881L99.2061 56.2778C98.1141 56.7172 97.0423 57.1879 95.9705 57.6586Z" fill="#BD8034"/>
<path d="M56.2052 92.8993L135.784 216.041C137.058 215.883 138.332 215.726 139.566 215.505L58.2267 89.6399C57.5081 90.7257 56.8208 91.7913 56.185 92.8679L56.2052 92.8993Z" fill="#BD8034"/>
<path d="M46.4686 116.502L110.265 215.222C111.791 215.523 113.34 215.721 114.857 215.939L47.701 112.021C47.2454 113.514 46.8414 115.018 46.4686 116.502Z" fill="#BD8034"/>
<path d="M46.0897 154.652L75.3475 199.926C77.7104 201.728 80.1783 203.418 82.7108 204.933L44.5703 145.914C44.9111 148.845 45.4377 151.789 46.1099 154.683L46.0897 154.652Z" fill="#BD8034"/>
</g>
<path d="M46.7062 164.329C71.3912 202.527 123.671 212.639 163.478 186.915C203.284 161.191 215.542 109.371 190.857 71.1736C166.172 32.9757 113.891 22.8639 74.0852 48.5881C34.2792 74.3124 22.0212 126.132 46.7062 164.329Z" fill="#F1B81A"/>
<path d="M45.5166 165.098C20.4268 126.274 32.9066 73.4684 73.2963 47.367C113.686 21.2656 166.988 31.5603 192.078 70.3844C217.168 109.209 204.688 162.014 164.267 188.136C123.846 214.258 70.575 203.943 45.4853 165.118L45.5166 165.098ZM189.636 71.9627C165.416 34.4848 113.949 24.5576 74.8745 49.8092C35.7999 75.0608 23.7078 126.062 47.9274 163.54C72.1471 201.018 123.614 210.945 162.689 185.694C201.763 160.442 213.835 109.409 189.636 71.9627Z" fill="#C0892A"/>
<g style="mix-blend-mode:screen" opacity="0.71">
<path d="M197.17 95.3671L67.6315 59.5499C63.8093 62.9076 60.3552 66.5601 57.2802 70.4559L199.415 109.762C199.133 104.929 198.416 100.11 197.17 95.3671Z" fill="#FFF8A3"/>
<path d="M190.761 150.286L40.6533 108.809C38.7089 121.872 40.0985 135.355 45.0787 147.938L163.958 180.79C175.675 172.685 184.719 162.091 190.73 150.306L190.761 150.286Z" fill="#FFF8A3"/>
</g>
<g style="mix-blend-mode:multiply">
<path d="M186.317 74.1073C163.534 38.8525 115.119 29.5271 78.3613 53.2814C41.6036 77.0357 30.2367 125.039 52.9996 160.262C75.7625 195.486 124.197 204.842 160.955 181.088C197.713 157.334 209.08 109.331 186.317 74.1073ZM50.5887 161.82C26.9558 125.25 38.7103 75.4434 76.783 50.8393C114.856 26.2351 165.106 35.9279 188.759 72.5291C212.412 109.13 200.637 158.906 162.565 183.51C124.492 208.114 74.253 198.37 50.62 161.8L50.5887 161.82Z" fill="#C0892A"/>
</g>
</g>
</svg>
