<svg width="296" height="286" viewBox="0 0 296 286" fill="none" xmlns="http://www.w3.org/2000/svg">
<g opacity="0.7" filter="url(#filter0_f_0_1019)">
<path d="M258.245 106.155C239.251 48.7993 179.277 17.1235 124.311 35.3254C121.741 36.1765 95.227 45.407 95.227 45.407L96.5858 49.5103C60.1391 76.0399 43.5948 125.35 59.0791 172.109C74.5635 218.868 118.093 249.084 163.623 248.017L164.937 251.985C164.937 251.985 197.041 241.504 198.98 240.712L199.115 240.667C250.135 220.069 276.506 161.301 258.245 106.155Z" fill="#F1B81A"/>
<path d="M189.657 245.8C179.873 249.04 166.421 253.445 165.564 253.729C164.617 254.042 163.552 253.545 163.223 252.553L162.327 249.847C140.081 250.059 117.655 242.925 99.0406 229.625C79.4365 215.603 65.0105 195.913 57.3056 172.646C49.6008 149.379 49.4226 125.421 56.5871 102.634C63.3586 81.0781 76.7493 61.9833 94.3942 48.785L93.4834 46.0345C93.1698 45.0876 93.6676 44.0221 94.6145 43.7085C95.6967 43.3502 121.174 34.4631 123.744 33.6119C179.611 15.1114 240.786 47.3904 260.063 105.602C279.34 163.815 252.116 221.214 200.073 242.351C199.983 242.381 199.893 242.411 199.758 242.455L199.667 242.485C198.811 242.769 194.767 244.158 189.717 245.83L189.657 245.8ZM166.158 249.629C176.033 246.359 196.849 239.566 198.307 238.983C198.307 238.983 198.353 238.968 198.398 238.953C198.398 238.953 198.443 238.938 198.488 238.923C248.846 218.594 274.345 160.515 256.531 106.722C238.718 52.9289 178.822 19.2254 124.894 37.0839C122.729 37.8007 103.49 44.522 97.5679 46.5832L98.3592 48.973C98.6131 49.7396 98.3411 50.5802 97.6943 51.0446C80.1553 63.8075 66.8405 82.5269 60.1296 103.813C53.207 125.819 53.4613 149.251 60.8376 171.526C68.214 193.801 82.2652 213.115 101.209 226.656C119.554 239.744 141.71 246.667 163.611 246.17C164.407 246.156 165.127 246.668 165.426 247.42L166.173 249.674L166.158 249.629Z" fill="#C0892A"/>
<g style="mix-blend-mode:multiply">
<path d="M72.3386 74.5017C71.028 76.4368 69.7323 78.4169 68.5418 80.4123L195.968 38.2149C193.822 37.3245 191.586 36.4639 189.394 35.7387L72.3386 74.5017Z" fill="#BD8034"/>
<path d="M60.4426 97.2043L212.443 46.8691C210.793 45.8144 209.113 44.8197 207.447 43.8702L62.6612 91.8163C61.8466 93.5871 61.1521 95.4183 60.4426 97.2043Z" fill="#BD8034"/>
<path d="M53.6238 127.682L236.106 67.2531C235.042 66.0043 233.948 64.8155 232.823 63.6868L54.1289 122.862C53.9154 124.483 53.7471 126.09 53.6238 127.682Z" fill="#BD8034"/>
<path d="M57.9444 168.531L257.02 102.607C256.512 101.225 255.959 99.8566 255.406 98.4886L56.7812 164.263C57.1539 165.691 57.5266 167.119 57.9444 168.531Z" fill="#BD8034"/>
<path d="M162.908 30.3994L90.4024 54.4098C87.7544 56.6877 85.1962 59.0859 82.818 61.5747L173.315 31.6065C169.876 31.0439 166.423 30.5865 162.953 30.3845L162.908 30.3994Z" fill="#BD8034"/>
<path d="M55.8157 112.846L225.492 56.6579C224.157 55.4987 222.838 54.3846 221.488 53.3305L57.0423 107.787C56.6034 109.483 56.1645 111.18 55.8157 112.846Z" fill="#BD8034"/>
<path d="M53.4006 141.816L244.72 78.4603C243.852 77.1969 242.968 75.8884 242.069 74.685L53.2744 137.205C53.2864 138.752 53.3435 140.284 53.4006 141.816Z" fill="#BD8034"/>
<path d="M68.5153 193.201L263.262 128.71C263.07 127.223 262.877 125.735 262.64 124.263L66.3601 189.261C67.0484 190.584 67.7968 191.938 68.5153 193.201Z" fill="#BD8034"/>
<path d="M62.4708 181.142L260.87 115.442C260.542 114 260.17 112.572 259.752 111.159L60.8116 177.039C61.3196 178.421 61.8726 179.789 62.4708 181.142Z" fill="#BD8034"/>
<path d="M76.1981 204.766L264.046 142.56C264.034 141.013 264.022 139.466 263.965 137.934L73.4567 201.021C74.3254 202.284 75.2542 203.578 76.1981 204.766Z" fill="#BD8034"/>
<path d="M97.2451 226.017L259.797 172.188C260.281 170.476 260.72 168.78 261.114 167.098L93.151 222.719C94.4855 223.879 95.8953 224.963 97.2451 226.017Z" fill="#BD8034"/>
<path d="M130.316 243.235L243.539 205.741C244.94 203.777 246.281 201.781 247.606 199.741L123.472 240.849C125.708 241.709 127.989 242.555 130.271 243.25L130.316 243.235Z" fill="#BD8034"/>
<path d="M54.9059 155.428L251.637 90.2799C250.948 88.9568 250.245 87.5885 249.527 86.3254L54.2387 150.995C54.4311 152.483 54.6685 153.955 54.9059 155.428Z" fill="#BD8034"/>
<path d="M85.6393 215.75L262.981 157.023C263.194 155.401 263.408 153.78 263.531 152.188L82.2666 212.214C83.3757 213.447 84.4698 214.636 85.5942 215.765L85.6393 215.75Z" fill="#BD8034"/>
<path d="M111.631 235.313L253.802 188.233C254.662 186.447 255.402 184.601 256.156 182.8L106.5 232.359C108.195 233.398 109.921 234.378 111.631 235.313Z" fill="#BD8034"/>
<path d="M158.56 247.992L223.761 226.401C226.74 224.063 229.614 221.561 232.293 218.922L147.297 247.069C151.021 247.587 154.82 247.88 158.605 247.977L158.56 247.992Z" fill="#BD8034"/>
</g>
<path d="M170.692 250.329C225.703 232.112 254.909 170.872 235.925 113.546C216.941 56.2195 156.957 24.5148 101.946 42.7316C46.9358 60.9484 17.7303 122.188 36.714 179.515C55.6978 236.841 115.682 268.546 170.692 250.329Z" fill="#F1B81A"/>
<path d="M171.26 252.043C115.347 270.558 54.2175 238.264 34.9554 180.097C15.6934 121.93 45.4514 59.4885 101.364 40.973C157.276 22.4575 218.406 54.7515 237.683 112.964C256.96 171.176 227.187 233.572 171.275 252.088L171.26 252.043ZM102.529 44.4901C48.555 62.3635 19.8376 122.659 38.4725 178.932C57.1074 235.206 116.137 266.444 170.11 248.571C224.084 230.697 252.801 170.401 234.166 114.128C215.531 57.8551 156.457 26.6316 102.529 44.4901Z" fill="#C0892A"/>
<g style="mix-blend-mode:screen" opacity="0.71">
<path d="M133.805 42.689L48.167 190.983C51.0846 196.771 54.4836 202.2 58.3039 207.24L152.276 44.5277C146.225 43.3292 140.053 42.6712 133.805 42.689Z" fill="#FFF8A3"/>
<path d="M199.484 68.1726L100.282 240.022C115.77 246.601 132.843 249.203 149.955 247.089L228.525 110.993C222.279 93.9474 212.109 79.4026 199.499 68.2176L199.484 68.1726Z" fill="#FFF8A3"/>
</g>
<g style="mix-blend-mode:multiply">
<path d="M104.111 49.2697C53.3392 66.0829 26.3411 122.807 43.8711 175.744C61.401 228.68 116.964 258.064 167.691 241.266C218.418 224.468 245.461 167.728 227.931 114.792C210.401 61.8554 154.838 32.4714 104.111 49.2697ZM168.841 244.738C116.175 262.178 58.5111 231.739 40.354 176.908C22.1969 122.078 50.2356 63.2079 102.947 45.7526C155.658 28.2973 213.276 58.7518 231.433 113.582C249.591 168.412 221.492 227.252 168.826 244.693L168.841 244.738Z" fill="#C0892A"/>
</g>
</g>
<defs>
<filter id="filter0_f_0_1019" x="20.0922" y="19.3955" width="255.173" height="246.87" filterUnits="userSpaceOnUse" color-interpolation-filters="sRGB">
<feFlood flood-opacity="0" result="BackgroundImageFix"/>
<feBlend mode="normal" in="SourceGraphic" in2="BackgroundImageFix" result="shape"/>
<feGaussianBlur stdDeviation="4.5" result="effect1_foregroundBlur_0_1019"/>
</filter>
</defs>
</svg>
