<svg width="257" height="243" viewBox="0 0 257 243" fill="none" xmlns="http://www.w3.org/2000/svg">
<g opacity="0.5">
<path d="M244.317 132.037C249.788 71.8668 207.435 18.8903 149.771 13.6472C147.075 13.402 119.08 11.2858 119.08 11.2858L118.689 15.5904C74.6832 25.3729 39.8369 63.9851 35.3766 113.039C30.9163 162.093 58.7731 207.169 100.946 224.358L100.568 228.521C100.568 228.521 134.188 231.721 136.282 231.769L136.424 231.781C191.425 233.253 239.056 189.889 244.317 132.037Z" fill="#F1B81A"/>
<path d="M125.703 232.714C115.438 231.781 101.346 230.452 100.447 230.37C99.4538 230.28 98.6755 229.398 98.7701 228.358L99.0282 225.519C78.5458 216.837 60.8287 201.347 49.0676 181.724C36.6873 161.044 31.3166 137.232 33.536 112.824C35.7554 88.4151 45.152 66.3761 60.8141 48.3407C75.6248 31.2773 95.5226 19.112 116.968 14.0508L117.231 11.1653C117.321 10.1719 118.203 9.39359 119.196 9.48392C120.331 9.58714 147.239 11.6045 149.935 11.8496C208.544 17.1787 251.757 71.1874 246.204 132.256C240.652 193.325 192.784 235.094 136.63 233.708C136.536 233.699 136.441 233.691 136.299 233.678L136.204 233.669C135.306 233.588 131.044 233.248 125.746 232.766L125.703 232.714ZM102.628 226.848C112.987 227.79 134.785 229.868 136.355 229.915C136.355 229.915 136.402 229.919 136.45 229.924C136.45 229.924 136.497 229.928 136.544 229.932C190.832 231.387 237.388 188.307 242.519 131.874C247.65 75.4403 206.179 20.6362 149.604 15.492C147.333 15.2855 127.01 13.7715 120.757 13.2983L120.529 15.8054C120.456 16.6096 119.871 17.2718 119.093 17.4395C97.9179 22.1437 78.2393 33.9951 63.5921 50.835C48.4632 68.2511 39.3462 89.8386 37.2214 113.207C35.0966 136.575 40.2738 159.891 52.2413 179.866C63.839 199.188 81.3927 214.377 101.673 222.66C102.408 222.965 102.864 223.722 102.838 224.53L102.623 226.896L102.628 226.848Z" fill="#C0892A"/>
<g style="mix-blend-mode:multiply">
<path d="M86.4829 28.8306C84.5091 30.0819 82.5309 31.3806 80.643 32.7352L214.323 44.8902C212.71 43.2173 211.003 41.5359 209.283 39.9963L86.4829 28.8306Z" fill="#BD8034"/>
<path d="M66.516 44.9005L225.976 59.3996C224.884 57.774 223.74 56.1915 222.592 54.6563L70.7003 40.8453C69.2468 42.144 67.8792 43.5459 66.516 44.9005Z" fill="#BD8034"/>
<path d="M48.1019 70.126L239.54 87.5327C239.062 85.9631 238.533 84.4365 237.953 82.9529L50.4886 65.9075C49.6458 67.3093 48.8502 68.7155 48.1019 70.126Z" fill="#BD8034"/>
<path d="M35.7634 109.306L244.609 128.296C244.695 126.825 244.734 125.35 244.772 123.875L36.4 104.928C36.172 106.386 35.9441 107.844 35.7634 109.306Z" fill="#BD8034"/>
<path d="M187.128 24.5319L111.064 17.6157C107.727 18.6477 104.424 19.826 101.25 21.159L196.189 29.7914C193.26 27.9035 190.276 26.1059 187.175 24.5362L187.128 24.5319Z" fill="#BD8034"/>
<path d="M56.0318 57.397L234.035 73.5822C233.274 71.9868 232.509 70.4387 231.692 68.9335L59.1754 53.2473C58.096 54.6277 57.0166 56.008 56.0318 57.397Z" fill="#BD8034"/>
<path d="M42.2573 82.9966L242.967 101.246C242.674 99.7413 242.386 98.1888 242.042 96.7267L43.9819 78.7178C43.3755 80.1412 42.8164 81.5689 42.2573 82.9966Z" fill="#BD8034"/>
<path d="M35.6124 136.145L239.917 154.721C240.334 153.281 240.751 151.84 241.121 150.395L35.2083 131.672C35.3114 133.16 35.4576 134.7 35.6124 136.145Z" fill="#BD8034"/>
<path d="M34.8817 122.676L243.018 141.601C243.293 140.147 243.521 138.689 243.701 137.227L34.9979 118.251C34.9118 119.721 34.8731 121.196 34.8817 122.676Z" fill="#BD8034"/>
<path d="M38.0419 149.815L235.109 167.734C235.715 166.311 236.321 164.887 236.881 163.459L37.0228 145.287C37.3152 146.792 37.6506 148.349 38.0419 149.815Z" fill="#BD8034"/>
<path d="M48.8611 177.699L219.391 193.205C220.517 191.829 221.597 190.448 222.629 189.063L46.4229 173.042C47.184 174.637 48.0441 176.194 48.8611 177.699Z" fill="#BD8034"/>
<path d="M72.3145 206.684L191.094 217.484C193.162 216.241 195.188 214.947 197.218 213.605L66.9908 201.764C68.698 203.445 70.4525 205.131 72.2672 206.679L72.3145 206.684Z" fill="#BD8034"/>
<path d="M38.2063 96.0784L244.592 114.844C244.489 113.356 244.39 111.821 244.235 110.376L39.3631 91.748C38.946 93.1886 38.5761 94.6335 38.2063 96.0784Z" fill="#BD8034"/>
<path d="M42.3161 163.654L228.361 180.57C229.204 179.168 230.047 177.766 230.795 176.356L40.6347 159.065C41.1593 160.639 41.6882 162.166 42.2688 163.65L42.3161 163.654Z" fill="#BD8034"/>
<path d="M58.343 191.963L207.491 205.525C208.992 204.23 210.407 202.833 211.817 201.483L54.8168 187.207C55.9563 188.837 57.1475 190.424 58.343 191.963Z" fill="#BD8034"/>
<path d="M96.3143 222.316L164.715 228.535C168.379 227.58 172.013 226.432 175.522 225.082L86.3549 216.974C89.5629 218.935 92.93 220.72 96.3616 222.32L96.3143 222.316Z" fill="#BD8034"/>
</g>
<path d="M106.506 229.3C164.217 234.547 215.433 190.048 220.901 129.908C226.369 69.7681 184.019 16.7613 126.309 11.5139C68.5985 6.26653 17.3821 50.7657 11.9138 110.906C6.44555 171.046 48.796 224.052 106.506 229.3Z" fill="#F1B81A"/>
<path d="M106.343 231.097C47.6863 225.764 4.52051 171.759 10.069 110.738C15.6174 49.7161 67.82 4.33555 126.476 9.66896C185.133 15.0024 228.299 69.0067 222.746 130.076C217.193 191.145 164.995 236.478 106.339 231.144L106.343 231.097ZM126.141 13.3586C69.5185 8.21018 19.1265 52.0383 13.7587 111.073C8.39084 170.108 50.0516 222.306 106.674 227.455C163.296 232.603 213.688 188.775 219.056 129.74C224.424 70.7053 182.716 18.5028 126.141 13.3586Z" fill="#C0892A"/>
<g style="mix-blend-mode:screen" opacity="0.71">
<path d="M155.538 24.1872L17.8393 125.991C18.2048 132.463 19.155 138.797 20.6471 144.943L171.741 33.244C166.671 29.7305 161.274 26.6643 155.538 24.1872Z" fill="#FFF8A3"/>
<path d="M205.593 73.7623L46.057 191.752C57.6333 203.965 72.25 213.164 88.7847 218.054L215.134 124.614C216.21 106.492 212.688 89.0974 205.589 73.8096L205.593 73.7623Z" fill="#FFF8A3"/>
</g>
<g style="mix-blend-mode:multiply">
<path d="M125.685 18.3729C72.4211 13.5298 25.0307 54.7692 19.9812 110.304C14.9317 165.838 54.1542 214.953 107.371 219.792C160.587 224.63 208.025 183.395 213.075 127.861C218.124 72.3264 178.902 23.2117 125.685 18.3729ZM107.04 223.434C51.7889 218.41 11.0613 167.489 16.2915 109.968C21.5217 52.447 70.7225 9.65517 126.02 14.6832C181.318 19.7112 221.999 70.6279 216.769 128.149C211.538 185.67 162.294 228.41 107.044 223.387L107.04 223.434Z" fill="#C0892A"/>
</g>
</g>
</svg>
