<svg width="303" height="288" viewBox="0 0 303 288" fill="none" xmlns="http://www.w3.org/2000/svg">
<g opacity="0.4">
<path d="M256.807 192.741C280.445 141.88 256.987 80.8965 204.48 56.4929C202.024 55.3518 176.401 43.8802 176.401 43.8802L174.709 47.5188C130.4 40.977 85.821 62.8512 66.5495 104.316C47.2781 145.78 59.5607 194.86 93.8559 224.414L92.2205 227.932C92.2205 227.932 122.79 242.286 124.741 243.047L124.871 243.107C176.039 263.291 234.079 241.643 256.807 192.741Z" fill="#F1B81A"/>
<path d="M114.522 240.242C105.175 235.898 92.3572 229.892 91.5388 229.512C90.6342 229.091 90.1748 228.051 90.5837 227.172L91.6987 224.773C75.1453 210.126 63.2806 190.463 58.2767 169.223C53.017 146.843 55.2989 124.127 64.8882 103.495C74.4774 82.8626 90.0741 66.7728 110.32 56.3445C129.468 46.4757 151.884 42.6477 173.568 45.5784L174.702 43.1393C175.092 42.2996 176.159 41.9202 177.064 42.3406C178.097 42.8211 202.731 53.8322 205.186 54.9733C258.554 79.7774 282.503 141.961 258.511 193.582C234.519 245.203 176.748 265.371 124.472 244.867C124.386 244.827 124.299 244.787 124.17 244.727L124.084 244.686C123.266 244.306 119.37 242.544 114.546 240.302L114.522 240.242ZM94.6682 227.174C104.101 231.558 123.921 240.867 125.38 241.448C125.38 241.448 125.423 241.468 125.466 241.488C125.466 241.488 125.509 241.508 125.552 241.528C176.056 261.451 232.999 239.683 255.17 191.981C277.34 144.278 255.271 81.9954 203.755 58.0522C201.687 57.0913 183.079 48.7828 177.356 46.2202L176.371 48.3394C176.055 49.0192 175.302 49.3988 174.52 49.2784C153.2 46.1279 131.086 49.7561 112.16 59.4851C92.6053 69.5537 77.4098 85.3438 68.2293 105.096C59.0489 124.849 56.7375 147.065 61.8267 168.685C66.7697 189.604 78.5736 208.948 95.0603 223.174C95.6566 223.695 95.8517 224.515 95.5788 225.214L94.6496 227.214L94.6682 227.174Z" fill="#C0892A"/>
<g style="mix-blend-mode:multiply">
<path d="M140.411 48.061C138.174 48.4798 135.918 48.9386 133.73 49.4774L255.456 106.052C254.457 104.032 253.372 101.972 252.231 100.031L140.411 48.061Z" fill="#BD8034"/>
<path d="M116.729 55.2877L261.931 122.773C261.406 120.973 260.819 119.193 260.214 117.453L121.904 53.1706C120.14 53.8097 118.425 54.5687 116.729 55.2877Z" fill="#BD8034"/>
<path d="M91.6895 71.073L266.009 152.091C266.044 150.552 266.017 149.032 265.929 147.532L95.2269 68.1952C94.0047 69.1344 92.8256 70.0937 91.6895 71.073Z" fill="#BD8034"/>
<path d="M68.0605 101.177L258.231 189.562C258.764 188.303 259.254 187.023 259.744 185.744L70.0041 97.5583C69.3419 98.7578 68.6796 99.9574 68.0605 101.177Z" fill="#BD8034"/>
<path d="M236.193 78.8658L166.93 46.6747C163.481 46.4329 160.019 46.3312 156.63 46.4094L243.08 86.5883C240.912 83.9276 238.663 81.3268 236.236 78.8859L236.193 78.8658Z" fill="#BD8034"/>
<path d="M103.046 62.6399L265.133 137.973C264.91 136.313 264.667 134.693 264.363 133.093L107.273 60.0824C105.835 60.9215 104.398 61.7607 103.046 62.6399Z" fill="#BD8034"/>
<path d="M82.2461 80.3468L265.008 165.289C265.197 163.869 265.404 162.41 265.531 161.01L85.1804 77.1887C84.1736 78.2281 83.2098 79.2874 82.2461 80.3468Z" fill="#BD8034"/>
<path d="M59.6652 124.649L245.701 211.113C246.536 209.994 247.37 208.874 248.162 207.735L60.6613 120.59C60.3005 121.93 59.9643 123.33 59.6652 124.649Z" fill="#BD8034"/>
<path d="M63.1214 112.593L252.646 200.678C253.352 199.499 254.014 198.299 254.633 197.08L64.5912 108.754C64.0582 110.014 63.5683 111.293 63.1214 112.593Z" fill="#BD8034"/>
<path d="M57.7413 137.467L237.187 220.867C238.194 219.828 239.201 218.789 240.164 217.729L58.1774 133.147C57.989 134.567 57.825 136.047 57.7413 137.467Z" fill="#BD8034"/>
<path d="M59.3207 165.624L214.602 237.794C216.082 236.975 217.52 236.135 218.915 235.276L58.4645 160.704C58.6883 162.364 59.0167 164.024 59.3207 165.624Z" fill="#BD8034"/>
<path d="M72.4193 199.086L180.578 249.355C182.901 248.976 185.2 248.537 187.518 248.058L68.9357 192.945C70.0209 195.005 71.1491 197.086 72.3762 199.066L72.4193 199.086Z" fill="#BD8034"/>
<path d="M74.4211 90.4215L262.352 177.766C262.713 176.426 263.092 175.047 263.391 173.727L76.8385 87.0232C76.004 88.1426 75.2125 89.2821 74.4211 90.4215Z" fill="#BD8034"/>
<path d="M57.4971 151.065L226.907 229.801C228.129 228.862 229.351 227.922 230.487 226.943L57.3302 146.465C57.3386 148.025 57.3655 149.545 57.4541 151.045L57.4971 151.065Z" fill="#BD8034"/>
<path d="M63.8332 181.384L199.645 244.505C201.452 243.886 203.209 243.147 204.948 242.448L61.9863 176.004C62.5546 177.824 63.1846 179.624 63.8332 181.384Z" fill="#BD8034"/>
<path d="M90.1369 221.032L152.422 249.98C156.154 250.402 159.918 250.644 163.626 250.666L82.4321 212.929C84.8399 215.75 87.4512 218.471 90.18 221.052L90.1369 221.032Z" fill="#BD8034"/>
</g>
<path d="M97.5548 230.655C150.105 255.078 211.858 233.667 235.485 182.832C259.112 131.996 235.665 70.9868 183.115 46.5632C130.565 22.1396 68.8116 43.5506 45.1848 94.3861C21.558 145.222 45.0049 206.231 97.5548 230.655Z" fill="#F1B81A"/>
<path d="M96.8485 232.174C43.437 207.35 19.5316 145.186 43.5048 93.6052C67.478 42.0244 130.428 20.1795 183.84 45.0036C237.251 69.8277 261.157 131.992 237.165 183.612C213.173 235.233 150.241 257.038 96.8299 232.214L96.8485 232.174ZM182.39 48.1224C130.831 24.1592 70.0572 45.2653 46.8646 95.1667C23.6719 145.068 46.7201 205.132 98.2795 229.095C149.839 253.058 210.612 231.952 233.805 182.051C256.998 132.149 233.906 72.0656 182.39 48.1224Z" fill="#C0892A"/>
<g style="mix-blend-mode:screen" opacity="0.71">
<path d="M206.65 67.7122L46.1069 109.644C44.4595 115.443 43.4034 121.321 42.914 127.22L219.073 81.2167C215.395 76.3955 211.273 71.854 206.65 67.7122Z" fill="#FFF8A3"/>
<path d="M238.384 128.36L52.3672 176.979C59.4762 191.66 70.3658 204.744 84.3806 214.71L231.701 176.21C238.283 160.696 240.327 144.239 238.365 128.4L238.384 128.36Z" fill="#FFF8A3"/>
</g>
<g style="mix-blend-mode:multiply">
<path d="M180.42 52.3609C131.919 29.819 74.7589 49.6871 52.9414 96.6296C31.124 143.572 52.832 200.096 101.29 222.618C149.748 245.139 206.951 225.291 228.769 178.349C250.586 131.406 228.878 74.8827 180.42 52.3609ZM99.8591 225.696C49.5489 202.314 26.9837 143.69 49.5817 95.0681C72.1796 46.4462 131.516 25.8393 181.87 49.242C232.223 72.6447 254.745 131.248 232.147 179.87C209.549 228.492 150.188 249.039 99.8777 225.656L99.8591 225.696Z" fill="#C0892A"/>
</g>
</g>
</svg>
