<svg width="288" height="282" viewBox="0 0 288 282" fill="none" xmlns="http://www.w3.org/2000/svg">
<g opacity="0.5">
<path d="M184.583 236.257C240.134 212.497 268.669 154.806 248.398 107.413C247.451 105.197 237.23 82.3871 237.23 82.3871L233.256 84.0869C205.602 54.3386 156.42 45.158 111.132 64.5282C65.8446 83.8985 38.0309 126.609 41.0518 167.491L37.2087 169.135C37.2087 169.135 48.901 196.834 49.7637 198.489L49.8136 198.605C72.2686 242.167 131.173 259.101 184.583 236.257Z" fill="#F1B81A"/>
<path d="M44.3584 190.682C40.7498 182.246 35.838 170.641 35.5221 169.902C35.1728 169.086 35.6159 168.069 36.5767 167.658L39.197 166.537C38.0255 146.526 44.0657 125.5 56.3313 107.192C69.2646 87.9086 87.9927 72.6316 110.527 62.9932C133.062 53.3548 156.602 50.415 179.309 54.2244C200.789 57.8226 220.137 67.6679 233.873 82.0289L236.537 80.8894C237.455 80.4972 238.523 80.8219 238.873 81.6384C239.272 82.5715 249.11 104.487 250.058 106.703C270.661 154.874 241.585 213.716 185.205 237.83C128.824 261.945 71.2285 244.084 48.1997 199.663C48.1664 199.586 48.1332 199.508 48.0833 199.391L48.05 199.314C47.7341 198.575 46.1938 195.094 44.3313 190.74L44.3584 190.682ZM39.577 169.962C43.2188 178.476 50.7975 196.437 51.4336 197.682C51.4336 197.682 51.4502 197.721 51.4668 197.76C51.4668 197.76 51.4835 197.799 51.5001 197.838C73.662 240.835 131.851 257.063 183.951 234.779C236.052 212.495 266.584 154.64 246.695 108.141C245.897 106.275 238.457 89.7265 236.175 84.6318L233.86 85.6218C233.118 85.9393 232.28 85.7919 231.795 85.2632C218.491 70.9472 199.516 61.1266 178.304 57.5517C156.375 53.8696 133.355 56.8169 111.781 66.0444C90.2068 75.2719 71.8323 90.1677 59.3441 108.801C47.274 126.841 41.4294 147.599 42.8671 167.267C42.9148 167.982 42.4427 168.69 41.7169 169.046L39.5333 169.98L39.577 169.962Z" fill="#C0892A"/>
<g style="mix-blend-mode:multiply">
<path d="M207.642 65.1475C205.683 64.1916 203.681 63.2543 201.668 62.4135L248.662 172.286C249.444 170.249 250.193 168.135 250.811 166.077L207.642 65.1475Z" fill="#BD8034"/>
<path d="M184.813 57.067L240.87 188.128C241.835 186.52 242.74 184.891 243.601 183.281L190.205 58.4402C188.429 57.9119 186.599 57.4988 184.813 57.067Z" fill="#BD8034"/>
<path d="M154.561 54.461L221.86 211.804C223.041 210.701 224.162 209.578 225.223 208.434L159.321 54.3568C157.718 54.3527 156.131 54.3874 154.561 54.461Z" fill="#BD8034"/>
<path d="M114.599 63.0912L188.017 234.742C189.354 234.124 190.674 233.467 191.995 232.81L118.743 61.5484C117.356 62.0497 115.969 62.551 114.599 63.0912Z" fill="#BD8034"/>
<path d="M254.912 141.604L228.172 79.0862C225.818 76.9654 223.35 74.9396 220.801 73.0864L254.176 151.117C254.58 147.954 254.88 144.791 254.928 141.642L254.912 141.604Z" fill="#BD8034"/>
<path d="M169.238 54.7142L231.814 201.016C232.895 199.679 233.933 198.362 234.911 197.024L174.264 55.232C172.578 55.0335 170.891 54.835 169.238 54.7142Z" fill="#BD8034"/>
<path d="M140.66 55.8996L211.217 220.863C212.422 219.934 213.669 218.987 214.813 218.037L145.187 55.2511C143.667 55.4414 142.163 55.6705 140.66 55.8996Z" fill="#BD8034"/>
<path d="M90.8098 75.4737L162.631 243.392C164.085 243.046 165.538 242.7 166.975 242.316L94.5886 73.0756C93.3179 73.849 92.0202 74.68 90.8098 75.4737Z" fill="#BD8034"/>
<path d="M102.4 68.6307L175.568 239.698C176.972 239.236 178.359 238.735 179.73 238.194L106.362 66.6603C105.024 67.2782 103.704 67.935 102.4 68.6307Z" fill="#BD8034"/>
<path d="M79.775 83.7348L149.052 245.705C150.572 245.514 152.092 245.324 153.596 245.095L83.3376 80.8313C82.1334 81.7603 80.9022 82.7468 79.775 83.7348Z" fill="#BD8034"/>
<path d="M59.8002 105.156L119.748 245.315C121.451 245.552 123.138 245.751 124.808 245.91L62.8639 101.086C61.7823 102.422 60.7777 103.818 59.8002 105.156Z" fill="#BD8034"/>
<path d="M44.3091 136.939L86.0649 234.564C88.0569 235.598 90.0758 236.574 92.1385 237.531L46.3584 130.498C45.6094 132.612 44.8771 134.764 44.2924 136.9L44.3091 136.939Z" fill="#BD8034"/>
<path d="M127.347 58.8344L199.9 228.464C201.17 227.69 202.485 226.898 203.695 226.104L131.674 57.7194C130.221 58.0651 128.784 58.4498 127.347 58.8344Z" fill="#BD8034"/>
<path d="M69.3884 93.5123L134.791 246.423C136.394 246.427 137.997 246.432 139.567 246.358L72.7182 90.0645C71.5535 91.2065 70.4325 92.3299 69.3718 93.4734L69.3884 93.5123Z" fill="#BD8034"/>
<path d="M51.2866 119.191L103.718 241.777C105.511 242.344 107.357 242.796 109.16 243.267L53.9678 114.227C53.0193 115.875 52.1311 117.542 51.2866 119.191Z" fill="#BD8034"/>
<path d="M40.8571 162.929L64.9029 219.148C67.3292 221.56 69.9136 223.858 72.6228 225.964L41.2768 152.677C40.929 156.091 40.8057 159.548 40.8737 162.968L40.8571 162.929Z" fill="#BD8034"/>
</g>
<path d="M39.0855 174.127C59.373 221.559 120.829 240.759 176.352 217.011C231.874 193.264 260.438 135.561 240.15 88.1285C219.863 40.6962 158.407 21.4962 102.884 45.2441C47.3615 68.9919 18.798 126.695 39.0855 174.127Z" fill="#F1B81A"/>
<path d="M37.426 174.837C16.8059 126.627 45.899 67.8238 102.236 43.7278C158.572 19.6317 221.233 39.19 241.854 87.4C262.474 135.61 233.381 194.413 177 218.528C120.62 242.642 58.0025 223.066 37.3824 174.856L37.426 174.837ZM238.447 88.8569C218.542 42.3188 158.035 23.4488 103.533 46.7604C49.0303 70.0719 20.8836 126.86 40.7888 173.399C60.6939 219.937 121.201 238.807 175.703 215.495C230.206 192.184 258.336 135.356 238.447 88.8569Z" fill="#C0892A"/>
<g style="mix-blend-mode:screen" opacity="0.71">
<path d="M241.572 116.817L92.1085 56.8896C86.5454 60.1888 81.3565 63.8799 76.569 67.9053L240.565 133.667C241.481 128.078 241.86 122.443 241.572 116.817Z" fill="#FFF8A3"/>
<path d="M219.37 178.927L46.1665 109.516C40.3706 124.228 38.5526 139.907 41.3719 155.074L178.54 210.05C195.024 202.448 208.879 191.601 219.326 178.946L219.37 178.927Z" fill="#FFF8A3"/>
</g>
<g style="mix-blend-mode:multiply">
<path d="M233.818 90.8367C215.093 47.0589 158.171 29.3232 106.901 51.2525C55.6299 73.1817 29.1558 126.633 47.8636 170.372C66.5714 214.111 123.51 231.886 174.781 209.957C226.051 188.027 252.526 134.576 233.818 90.8367ZM44.5009 171.811C25.078 126.4 52.4987 70.9337 105.604 48.2199C158.708 25.5061 217.785 43.9302 237.224 89.3797C256.664 134.829 229.226 190.257 176.122 212.97C123.017 235.684 63.9674 217.203 44.5445 171.792L44.5009 171.811Z" fill="#C0892A"/>
</g>
</g>
</svg>
