<svg width="325" height="325" viewBox="0 0 325 325" fill="none" xmlns="http://www.w3.org/2000/svg">
<g opacity="0.4">
<path d="M244.948 244.948C287.67 202.226 289.047 134.414 248.105 93.4719C246.191 91.5575 226.039 72.01 226.039 72.01L222.982 75.0664C182.913 54.4106 131.425 61.7661 96.5955 96.5955C61.7661 131.425 54.3099 183.887 75.7046 224.091L72.749 227.046C72.749 227.046 96.5283 251.027 98.1069 252.404L98.2077 252.505C139.519 288.846 203.871 286.024 244.948 244.948Z" fill="#F1B81A"/>
<path d="M89.3743 246.359C82.086 239.07 72.1108 229.028 71.4726 228.39C70.7673 227.684 70.7337 226.509 71.4726 225.77L73.4878 223.755C63.3111 203.972 59.6165 180.73 63.1431 158.126C66.8712 134.313 77.9884 112.583 95.3192 95.252C112.65 77.9213 133.977 67.0056 157.555 63.1767C179.857 59.5494 202.931 62.9416 222.646 72.7825L224.695 70.7337C225.4 70.0284 226.576 69.9948 227.281 70.7001C228.087 71.5062 247.467 90.2812 249.381 92.1956C290.995 133.81 289.618 202.964 246.258 246.325C202.897 289.685 139.385 291.13 97.1328 254.117C97.0657 254.05 96.9985 253.983 96.8977 253.882L96.8306 253.815C96.1924 253.177 93.136 250.187 89.3743 246.426L89.3743 246.359ZM75.4023 227.08C82.7577 234.435 98.174 249.986 99.3496 251.027C99.3496 251.027 99.3831 251.061 99.4167 251.094C99.4167 251.094 99.4503 251.128 99.4839 251.161C140.258 287.032 203.603 283.74 243.672 243.672C283.74 203.603 286.965 134.951 246.795 94.7818C245.183 93.1696 230.539 78.996 226.039 74.6298L224.258 76.4099C223.687 76.9808 222.814 77.1152 222.109 76.7457C202.83 66.8041 180.126 63.3111 158.093 66.8713C135.321 70.5658 114.497 81.3135 97.9053 97.9054C81.3135 114.497 70.3643 135.724 66.7705 158.731C63.3111 180.999 67.0728 203.905 77.3503 223.251C77.7197 223.956 77.5854 224.829 77.048 225.434L75.3687 227.113L75.4023 227.08Z" fill="#C0892A"/>
<g style="mix-blend-mode:multiply">
<path d="M189.765 64.6206C187.447 64.3184 185.096 64.0497 182.779 63.8817L277.695 158.798C277.527 156.48 277.292 154.096 276.956 151.812L189.765 64.6206Z" fill="#BD8034"/>
<path d="M164.138 64.1839L277.359 177.405C277.56 175.457 277.695 173.509 277.795 171.594L169.949 63.7472C168.001 63.8144 166.053 64.0159 164.138 64.1839Z" fill="#BD8034"/>
<path d="M133.843 71.7747L269.768 207.7C270.407 206.189 270.978 204.677 271.481 203.166L138.377 70.0618C136.832 70.5992 135.321 71.1701 133.843 71.7747Z" fill="#BD8034"/>
<path d="M99.2823 93.9755L247.567 242.261C248.575 241.186 249.549 240.078 250.523 238.969L102.574 91.0199C101.465 91.9939 100.357 92.9679 99.2823 93.9755Z" fill="#BD8034"/>
<path d="M269.835 125.748L215.828 71.7409C212.604 70.3974 209.312 69.1883 206.021 68.1807L273.429 135.589C272.388 132.264 271.246 128.973 269.869 125.782L269.835 125.748Z" fill="#BD8034"/>
<path d="M148.084 67.0724L274.47 193.459C274.907 191.746 275.31 190.067 275.646 188.388L153.155 65.8969C151.442 66.2663 149.73 66.6358 148.084 67.0724Z" fill="#BD8034"/>
<path d="M121.114 77.9209L263.622 220.429C264.361 219.086 265.133 217.709 265.805 216.365L125.178 75.7378C123.801 76.4431 122.457 77.182 121.114 77.9209Z" fill="#BD8034"/>
<path d="M81.9851 114.497L227.046 259.558C228.289 258.718 229.531 257.878 230.741 257.005L84.5377 110.802C83.6644 112.011 82.7912 113.288 81.9851 114.497Z" fill="#BD8034"/>
<path d="M90.046 103.682L237.827 251.463C238.969 250.523 240.078 249.549 241.153 248.541L92.9681 100.357C91.9605 101.432 90.9865 102.54 90.046 103.682Z" fill="#BD8034"/>
<path d="M75.1 126.555L215.022 266.477C216.399 265.771 217.776 265.066 219.12 264.327L77.2159 122.423C76.477 123.767 75.7381 125.177 75.1 126.555Z" fill="#BD8034"/>
<path d="M65.5613 154.902L186.641 275.982C188.388 275.646 190.101 275.276 191.78 274.873L66.6696 149.763C66.233 151.476 65.8971 153.222 65.5613 154.902Z" fill="#BD8034"/>
<path d="M65.0238 192.183L149.36 276.519C151.745 276.889 154.129 277.191 156.548 277.46L64.0834 184.995C64.3185 187.38 64.5872 189.798 64.9902 192.149L65.0238 192.183Z" fill="#BD8034"/>
<path d="M109.627 85.3772L256.166 231.916C257.039 230.707 257.946 229.464 258.752 228.255L113.288 82.7911C112.045 83.6307 110.836 84.504 109.627 85.3772Z" fill="#BD8034"/>
<path d="M69.5244 139.922L201.621 272.018C203.166 271.481 204.711 270.944 206.189 270.339L71.1702 135.321C70.5656 136.866 69.9946 138.377 69.4908 139.888L69.5244 139.922Z" fill="#BD8034"/>
<path d="M63.7139 171.93L169.613 277.829C171.594 277.795 173.576 277.627 175.524 277.493L64.0498 166.019C63.8818 168 63.7811 169.982 63.7139 171.93Z" fill="#BD8034"/>
<path d="M73.4541 219.556L122.02 268.122C125.446 269.734 128.973 271.179 132.533 272.388L69.2222 209.077C70.4313 212.637 71.8755 216.164 73.4877 219.589L73.4541 219.556Z" fill="#BD8034"/>
</g>
<path d="M76.8128 231.446C117.788 272.422 185.622 271.023 228.322 228.322C271.023 185.622 272.422 117.789 231.446 76.8129C190.47 35.8372 122.637 37.2357 79.9364 79.9364C37.2356 122.637 35.8372 190.47 76.8128 231.446Z" fill="#F1B81A"/>
<path d="M75.5365 232.722C33.889 191.075 35.2997 121.953 78.6265 78.6264C121.953 35.2996 191.108 33.8554 232.756 75.5029C274.403 117.15 272.993 186.272 229.632 229.632C186.272 272.993 117.15 274.403 75.5029 232.756L75.5365 232.722ZM230.136 78.1226C189.933 37.9194 123.162 39.33 81.2463 81.2462C39.3301 123.162 37.9194 189.933 78.1227 230.136C118.326 270.339 185.096 268.929 227.012 227.012C268.929 185.096 270.306 118.292 230.136 78.1226Z" fill="#C0892A"/>
<g style="mix-blend-mode:screen" opacity="0.71">
<path d="M245.787 105.261L74.8312 95.3189C70.9688 100.525 67.6437 105.999 64.856 111.676L252.438 122.591C250.792 116.646 248.609 110.836 245.787 105.261Z" fill="#FFF8A3"/>
<path d="M252.505 175.39L54.4104 163.903C55.4852 180.696 60.8255 197.12 70.3977 211.462L227.281 220.564C239.708 207.331 248.138 191.713 252.471 175.423L252.505 175.39Z" fill="#FFF8A3"/>
</g>
<g style="mix-blend-mode:multiply">
<path d="M226.576 81.6828C188.757 43.8642 125.95 45.2076 86.5193 84.6384C47.0886 124.069 45.7787 186.91 83.5637 224.695C121.349 262.48 184.189 261.17 223.62 221.739C263.051 182.308 264.361 119.468 226.576 81.6828ZM80.9776 227.281C41.7483 188.052 43.0582 122.86 83.8996 82.0186C124.741 41.1772 189.933 39.8002 229.196 79.063C268.458 118.326 267.115 183.484 226.274 224.325C185.432 265.167 120.24 266.477 81.0111 227.247L80.9776 227.281Z" fill="#C0892A"/>
</g>
</g>
</svg>
