<svg width="777" height="57" viewBox="0 0 777 57" fill="none" xmlns="http://www.w3.org/2000/svg">
<g filter="url(#filter0_i_124_2274)">
<path d="M15.264 39C15.156 37.884 15.192 34.644 15.192 29.46V23.916C15.192 19.056 15.48 14.268 15.48 13.08H15.372C14.328 14.268 6.3 21.756 5.616 22.368L7.236 24.312C8.28 23.232 11.052 20.568 12.096 19.344V28.668C12.096 33.528 11.88 38.064 11.88 39H15.264ZM28.2971 39H32.3291V35.004H28.2971V39ZM47.1443 24.24C47.1443 19.92 47.2523 14.088 47.2883 13.44H38.9363C38.9363 14.304 39.0443 23.556 39.0443 24.168V28.056C39.0443 28.992 39.0083 37.416 38.9363 39H47.2883C47.2523 38.172 47.1443 31.728 47.1443 28.128V24.24ZM61.0549 39.252C61.0189 38.064 60.9829 27.66 60.9829 26.184C61.5229 26.616 74.5189 36.912 78.8389 39.72L79.1989 39.54C79.3069 37.2 79.5589 32.088 79.8469 26.868C80.1709 21.612 80.4949 16.248 80.7109 13.44L73.3669 13.26C73.3309 14.808 73.4389 24.456 73.4389 26.436C72.1789 25.5 60.6229 16.752 55.5109 13.008L55.1509 13.224C54.7909 18.012 53.9269 36.444 53.7109 39L61.0549 39.252ZM95.022 39C95.022 38.496 94.986 33.492 94.986 32.916V29.856L102.33 29.928L102.222 24.24C98.19 24.348 95.778 24.564 94.986 24.564V19.02L102.906 18.84L102.762 12.9C98.982 13.044 89.946 13.44 86.994 13.44C87.066 14.484 87.138 23.16 87.138 23.736V28.524C87.138 29.388 87.138 37.092 86.994 39H95.022ZM120.172 39.576C132.232 39.612 135.868 30.972 135.868 25.536C135.868 17.616 130.504 12.864 121.936 12.864C111.316 12.864 106.276 20.316 106.276 27.264C106.276 33.024 110.56 39.576 120.172 39.576ZM120.568 33.996C117.616 33.996 115.06 31.548 115.06 26.724C115.06 22.332 117.364 18.444 121.468 18.444C124.924 18.444 127.084 21.144 127.048 25.788C127.012 31.152 124.456 33.996 120.568 33.996ZM148.881 18.408C152.769 18.444 153.957 20.064 153.957 21.756C153.957 24.168 151.401 26.148 149.817 27.084C150.789 28.668 157.773 38.784 158.601 40.152L165.189 35.184C164.253 34.032 158.745 28.452 157.665 27.228C160.473 25.248 162.309 22.98 162.309 20.028C162.309 16.716 159.429 14.628 154.101 13.944C150.861 13.512 145.857 13.44 140.925 13.44C141.033 14.124 141.105 21.936 141.105 23.016V25.968C141.105 26.724 141.177 38.136 141.033 39H149.061C148.989 38.46 148.881 29.352 148.881 27.984V18.408ZM172.511 40.116C173.159 38.424 175.751 29.136 176.363 27.264C176.939 28.344 180.719 34.464 183.491 38.64H183.851C186.551 34.86 191.159 27.768 191.591 27.12C191.987 28.092 195.407 37.236 196.559 40.116L203.831 36.876C202.859 34.896 195.623 18.552 193.139 13.224H192.779C190.871 16.32 185.795 24.744 184.391 26.868C183.275 25.032 177.947 16.212 175.751 12.648H175.391C173.303 17.22 166.031 36.048 165.419 37.488L172.511 40.116ZM211.063 40.152C211.855 38.46 213.151 35.652 213.439 35.148L224.275 34.536C224.635 35.148 226.471 38.352 227.515 40.116L234.643 35.904C233.131 33.852 223.447 18.624 219.127 12.108H218.767C215.275 17.616 205.303 34.5 204.223 36.336L211.063 40.152ZM215.743 29.82C216.679 27.804 217.939 25.14 218.803 23.412C219.451 24.888 220.819 27.444 221.827 29.496L215.743 29.82ZM249.247 39C249.175 38.28 249.139 33.312 249.139 29.604V19.596C249.715 19.596 256.375 19.776 257.059 19.812V13.512C255.295 13.656 247.447 13.8 246.763 13.8H243.631C243.235 13.8 234.703 13.656 233.083 13.512V19.812C234.199 19.776 239.311 19.596 241.039 19.596V29.028C241.039 32.952 241.003 38.064 240.931 39H249.247ZM268.945 24.24C268.945 19.92 269.053 14.088 269.089 13.44H260.737C260.737 14.304 260.845 23.556 260.845 24.168V28.056C260.845 28.992 260.809 37.416 260.737 39H269.089C269.053 38.172 268.945 31.728 268.945 28.128V24.24ZM288.008 39.576C300.068 39.612 303.704 30.972 303.704 25.536C303.704 17.616 298.34 12.864 289.772 12.864C279.152 12.864 274.112 20.316 274.112 27.264C274.112 33.024 278.396 39.576 288.008 39.576ZM288.404 33.996C285.452 33.996 282.896 31.548 282.896 26.724C282.896 22.332 285.2 18.444 289.304 18.444C292.76 18.444 294.92 21.144 294.884 25.788C294.848 31.152 292.292 33.996 288.404 33.996ZM314.988 39.252C314.952 38.064 314.916 27.66 314.916 26.184C315.456 26.616 328.452 36.912 332.772 39.72L333.132 39.54C333.24 37.2 333.492 32.088 333.78 26.868C334.104 21.612 334.428 16.248 334.644 13.44L327.3 13.26C327.264 14.808 327.372 24.456 327.372 26.436C326.112 25.5 314.556 16.752 309.444 13.008L309.084 13.224C308.724 18.012 307.86 36.444 307.644 39L314.988 39.252ZM367.496 32.7C366.632 32.772 365.48 32.88 364.04 32.88C359.252 32.88 356.228 30.612 356.228 27.84C356.228 24.456 359.288 21.144 366.884 19.776L365.3 12.864C352.88 15.528 347.444 22.764 347.444 28.74C347.444 33.564 351.8 39.576 363.608 39.576C365.3 39.576 366.596 39.432 367.856 39.288L367.496 32.7ZM384.371 39.576C396.431 39.612 400.067 30.972 400.067 25.536C400.067 17.616 394.703 12.864 386.135 12.864C375.515 12.864 370.475 20.316 370.475 27.264C370.475 33.024 374.759 39.576 384.371 39.576ZM384.767 33.996C381.815 33.996 379.259 31.548 379.259 26.724C379.259 22.332 381.563 18.444 385.667 18.444C389.123 18.444 391.283 21.144 391.247 25.788C391.211 31.152 388.655 33.996 384.767 33.996ZM405.088 13.44C405.16 14.124 405.232 23.16 405.232 23.736V28.524C405.232 29.388 405.232 37.092 405.124 39C408.004 39 420.496 39.36 421.36 39.36L421.324 32.664C418.444 32.808 414.196 32.808 413.332 32.808V26.22C413.332 21.684 413.476 14.268 413.512 13.44H405.088ZM426.146 13.44C426.218 14.124 426.29 23.16 426.29 23.736V28.524C426.29 29.388 426.29 37.092 426.182 39C429.062 39 441.554 39.36 442.418 39.36L442.382 32.664C439.502 32.808 435.254 32.808 434.39 32.808V26.22C434.39 21.684 434.534 14.268 434.57 13.44H426.146ZM463.261 33.168C461.569 33.312 456.133 33.24 455.197 33.24V28.956C455.989 28.956 460.777 29.1 461.749 29.1L461.641 23.34C460.057 23.484 455.917 23.664 455.197 23.664V18.912C455.845 18.912 461.497 18.732 462.829 18.732L462.685 12.792C461.353 12.9 449.257 13.44 447.241 13.44C447.277 14.484 447.349 23.16 447.349 23.736V28.56C447.349 29.388 447.349 37.092 447.241 39C449.113 39 462.109 39.36 463.405 39.36L463.261 33.168ZM487.167 32.7C486.303 32.772 485.151 32.88 483.711 32.88C478.923 32.88 475.899 30.612 475.899 27.84C475.899 24.456 478.959 21.144 486.555 19.776L484.971 12.864C472.551 15.528 467.115 22.764 467.115 28.74C467.115 33.564 471.471 39.576 483.279 39.576C484.971 39.576 486.267 39.432 487.527 39.288L487.167 32.7ZM505.115 39C505.043 38.28 505.007 33.312 505.007 29.604V19.596C505.583 19.596 512.243 19.776 512.927 19.812V13.512C511.163 13.656 503.315 13.8 502.631 13.8H499.499C499.103 13.8 490.571 13.656 488.951 13.512V19.812C490.067 19.776 495.179 19.596 496.907 19.596V29.028C496.907 32.952 496.871 38.064 496.799 39H505.115ZM524.812 24.24C524.812 19.92 524.92 14.088 524.956 13.44H516.604C516.604 14.304 516.712 23.556 516.712 24.168V28.056C516.712 28.992 516.676 37.416 516.604 39H524.956C524.92 38.172 524.812 31.728 524.812 28.128V24.24ZM543.875 39.576C555.935 39.612 559.571 30.972 559.571 25.536C559.571 17.616 554.207 12.864 545.639 12.864C535.019 12.864 529.979 20.316 529.979 27.264C529.979 33.024 534.263 39.576 543.875 39.576ZM544.271 33.996C541.319 33.996 538.763 31.548 538.763 26.724C538.763 22.332 541.067 18.444 545.171 18.444C548.627 18.444 550.787 21.144 550.751 25.788C550.715 31.152 548.159 33.996 544.271 33.996ZM570.856 39.252C570.82 38.064 570.784 27.66 570.784 26.184C571.324 26.616 584.32 36.912 588.64 39.72L589 39.54C589.108 37.2 589.36 32.088 589.648 26.868C589.972 21.612 590.296 16.248 590.512 13.44L583.168 13.26C583.132 14.808 583.24 24.456 583.24 26.436C581.98 25.5 570.424 16.752 565.312 13.008L564.952 13.224C564.592 18.012 563.728 36.444 563.512 39L570.856 39.252ZM608.891 40.152C609.683 38.46 610.979 35.652 611.267 35.148L622.103 34.536C622.463 35.148 624.299 38.352 625.343 40.116L632.471 35.904C630.959 33.852 621.275 18.624 616.955 12.108H616.595C613.103 17.616 603.131 34.5 602.051 36.336L608.891 40.152ZM613.571 29.82C614.507 27.804 615.767 25.14 616.631 23.412C617.279 24.888 618.647 27.444 619.655 29.496L613.571 29.82ZM642.469 39.252C642.433 38.064 642.397 27.66 642.397 26.184C642.937 26.616 655.933 36.912 660.253 39.72L660.613 39.54C660.721 37.2 660.973 32.088 661.261 26.868C661.585 21.612 661.909 16.248 662.125 13.44L654.781 13.26C654.745 14.808 654.853 24.456 654.853 26.436C653.593 25.5 642.037 16.752 636.925 13.008L636.565 13.224C636.205 18.012 635.341 36.444 635.125 39L642.469 39.252ZM668.552 27.624C668.552 28.596 668.48 37.524 668.336 39.18C679.964 39.18 693.428 34.536 693.428 23.196C693.428 20.28 691.628 15.384 682.196 14.088C678.848 13.62 674.996 13.44 668.372 13.44C668.516 14.448 668.552 22.404 668.552 23.16V27.624ZM676.472 19.2C680.54 19.2 684.86 20.208 684.86 24.456C684.86 29.496 680 32.052 676.472 32.628V19.2ZM714.734 19.884C714.734 16.608 714.806 14.556 714.95 13.62H706.562C706.562 14.448 706.526 17.436 706.526 19.092V21.036C706.526 29.784 707.138 32.448 708.902 35.076C711.638 39.072 716.03 39.576 718.982 39.576C722.978 39.576 726.47 38.208 728.666 35.544C731.402 32.268 731.798 28.02 731.798 21.108V19.452C731.798 16.608 731.762 13.872 731.762 13.08H723.518C723.554 14.412 723.698 16.896 723.698 19.38V20.748C723.698 28.92 723.626 30.432 722.654 31.908C721.862 33.096 720.71 33.6 719.45 33.6C718.334 33.6 717.218 33.276 716.39 32.304C715.022 30.684 714.734 28.092 714.734 22.332V19.884ZM737.762 39.648C748.706 38.388 752.846 33.348 752.846 29.388C752.846 26.148 749.75 24.528 747.842 23.592C745.502 22.44 744.35 21.9 744.35 21.036C744.35 19.56 746.618 18.804 751.118 18.804L750.146 12.792C741.038 13.584 735.674 17.976 735.674 22.008C735.674 25.032 738.302 26.832 740.57 28.128C743.486 29.784 744.098 30.216 744.098 30.936C744.098 32.628 740.282 33.6 736.79 33.492L737.762 39.648ZM773.902 33.168C772.21 33.312 766.774 33.24 765.838 33.24V28.956C766.63 28.956 771.418 29.1 772.39 29.1L772.282 23.34C770.698 23.484 766.558 23.664 765.838 23.664V18.912C766.486 18.912 772.138 18.732 773.47 18.732L773.326 12.792C771.994 12.9 759.898 13.44 757.882 13.44C757.918 14.484 757.99 23.16 757.99 23.736V28.56C757.99 29.388 757.99 37.092 757.882 39C759.754 39 772.75 39.36 774.046 39.36L773.902 33.168Z" fill="url(#paint0_linear_124_2274)"/>
</g>
<mask id="mask0_124_2274" style="mask-type:alpha" maskUnits="userSpaceOnUse" x="5" y="8" width="770" height="29">
<path d="M15.264 35C15.156 33.884 15.192 30.644 15.192 25.46V19.916C15.192 15.056 15.48 10.268 15.48 9.08H15.372C14.328 10.268 6.3 17.756 5.616 18.368L7.236 20.312C8.28 19.232 11.052 16.568 12.096 15.344V24.668C12.096 29.528 11.88 34.064 11.88 35H15.264ZM28.2971 35H32.3291V31.004H28.2971V35ZM47.1443 20.24C47.1443 15.92 47.2523 10.088 47.2883 9.44H38.9363C38.9363 10.304 39.0443 19.556 39.0443 20.168V24.056C39.0443 24.992 39.0083 33.416 38.9363 35H47.2883C47.2523 34.172 47.1443 27.728 47.1443 24.128V20.24ZM61.0549 35.252C61.0189 34.064 60.9829 23.66 60.9829 22.184C61.5229 22.616 74.5189 32.912 78.8389 35.72L79.1989 35.54C79.3069 33.2 79.5589 28.088 79.8469 22.868C80.1709 17.612 80.4949 12.248 80.7109 9.44L73.3669 9.26C73.3309 10.808 73.4389 20.456 73.4389 22.436C72.1789 21.5 60.6229 12.752 55.5109 9.008L55.1509 9.224C54.7909 14.012 53.9269 32.444 53.7109 35L61.0549 35.252ZM95.022 35C95.022 34.496 94.986 29.492 94.986 28.916V25.856L102.33 25.928L102.222 20.24C98.19 20.348 95.778 20.564 94.986 20.564V15.02L102.906 14.84L102.762 8.9C98.982 9.044 89.946 9.44 86.994 9.44C87.066 10.484 87.138 19.16 87.138 19.736V24.524C87.138 25.388 87.138 33.092 86.994 35H95.022ZM120.172 35.576C132.232 35.612 135.868 26.972 135.868 21.536C135.868 13.616 130.504 8.864 121.936 8.864C111.316 8.864 106.276 16.316 106.276 23.264C106.276 29.024 110.56 35.576 120.172 35.576ZM120.568 29.996C117.616 29.996 115.06 27.548 115.06 22.724C115.06 18.332 117.364 14.444 121.468 14.444C124.924 14.444 127.084 17.144 127.048 21.788C127.012 27.152 124.456 29.996 120.568 29.996ZM148.881 14.408C152.769 14.444 153.957 16.064 153.957 17.756C153.957 20.168 151.401 22.148 149.817 23.084C150.789 24.668 157.773 34.784 158.601 36.152L165.189 31.184C164.253 30.032 158.745 24.452 157.665 23.228C160.473 21.248 162.309 18.98 162.309 16.028C162.309 12.716 159.429 10.628 154.101 9.944C150.861 9.512 145.857 9.44 140.925 9.44C141.033 10.124 141.105 17.936 141.105 19.016V21.968C141.105 22.724 141.177 34.136 141.033 35H149.061C148.989 34.46 148.881 25.352 148.881 23.984V14.408ZM172.511 36.116C173.159 34.424 175.751 25.136 176.363 23.264C176.939 24.344 180.719 30.464 183.491 34.64H183.851C186.551 30.86 191.159 23.768 191.591 23.12C191.987 24.092 195.407 33.236 196.559 36.116L203.831 32.876C202.859 30.896 195.623 14.552 193.139 9.224H192.779C190.871 12.32 185.795 20.744 184.391 22.868C183.275 21.032 177.947 12.212 175.751 8.648H175.391C173.303 13.22 166.031 32.048 165.419 33.488L172.511 36.116ZM211.063 36.152C211.855 34.46 213.151 31.652 213.439 31.148L224.275 30.536C224.635 31.148 226.471 34.352 227.515 36.116L234.643 31.904C233.131 29.852 223.447 14.624 219.127 8.108H218.767C215.275 13.616 205.303 30.5 204.223 32.336L211.063 36.152ZM215.743 25.82C216.679 23.804 217.939 21.14 218.803 19.412C219.451 20.888 220.819 23.444 221.827 25.496L215.743 25.82ZM249.247 35C249.175 34.28 249.139 29.312 249.139 25.604V15.596C249.715 15.596 256.375 15.776 257.059 15.812V9.512C255.295 9.656 247.447 9.8 246.763 9.8H243.631C243.235 9.8 234.703 9.656 233.083 9.512V15.812C234.199 15.776 239.311 15.596 241.039 15.596V25.028C241.039 28.952 241.003 34.064 240.931 35H249.247ZM268.945 20.24C268.945 15.92 269.053 10.088 269.089 9.44H260.737C260.737 10.304 260.845 19.556 260.845 20.168V24.056C260.845 24.992 260.809 33.416 260.737 35H269.089C269.053 34.172 268.945 27.728 268.945 24.128V20.24ZM288.008 35.576C300.068 35.612 303.704 26.972 303.704 21.536C303.704 13.616 298.34 8.864 289.772 8.864C279.152 8.864 274.112 16.316 274.112 23.264C274.112 29.024 278.396 35.576 288.008 35.576ZM288.404 29.996C285.452 29.996 282.896 27.548 282.896 22.724C282.896 18.332 285.2 14.444 289.304 14.444C292.76 14.444 294.92 17.144 294.884 21.788C294.848 27.152 292.292 29.996 288.404 29.996ZM314.988 35.252C314.952 34.064 314.916 23.66 314.916 22.184C315.456 22.616 328.452 32.912 332.772 35.72L333.132 35.54C333.24 33.2 333.492 28.088 333.78 22.868C334.104 17.612 334.428 12.248 334.644 9.44L327.3 9.26C327.264 10.808 327.372 20.456 327.372 22.436C326.112 21.5 314.556 12.752 309.444 9.008L309.084 9.224C308.724 14.012 307.86 32.444 307.644 35L314.988 35.252ZM367.496 28.7C366.632 28.772 365.48 28.88 364.04 28.88C359.252 28.88 356.228 26.612 356.228 23.84C356.228 20.456 359.288 17.144 366.884 15.776L365.3 8.864C352.88 11.528 347.444 18.764 347.444 24.74C347.444 29.564 351.8 35.576 363.608 35.576C365.3 35.576 366.596 35.432 367.856 35.288L367.496 28.7ZM384.371 35.576C396.431 35.612 400.067 26.972 400.067 21.536C400.067 13.616 394.703 8.864 386.135 8.864C375.515 8.864 370.475 16.316 370.475 23.264C370.475 29.024 374.759 35.576 384.371 35.576ZM384.767 29.996C381.815 29.996 379.259 27.548 379.259 22.724C379.259 18.332 381.563 14.444 385.667 14.444C389.123 14.444 391.283 17.144 391.247 21.788C391.211 27.152 388.655 29.996 384.767 29.996ZM405.088 9.44C405.16 10.124 405.232 19.16 405.232 19.736V24.524C405.232 25.388 405.232 33.092 405.124 35C408.004 35 420.496 35.36 421.36 35.36L421.324 28.664C418.444 28.808 414.196 28.808 413.332 28.808V22.22C413.332 17.684 413.476 10.268 413.512 9.44H405.088ZM426.146 9.44C426.218 10.124 426.29 19.16 426.29 19.736V24.524C426.29 25.388 426.29 33.092 426.182 35C429.062 35 441.554 35.36 442.418 35.36L442.382 28.664C439.502 28.808 435.254 28.808 434.39 28.808V22.22C434.39 17.684 434.534 10.268 434.57 9.44H426.146ZM463.261 29.168C461.569 29.312 456.133 29.24 455.197 29.24V24.956C455.989 24.956 460.777 25.1 461.749 25.1L461.641 19.34C460.057 19.484 455.917 19.664 455.197 19.664V14.912C455.845 14.912 461.497 14.732 462.829 14.732L462.685 8.792C461.353 8.9 449.257 9.44 447.241 9.44C447.277 10.484 447.349 19.16 447.349 19.736V24.56C447.349 25.388 447.349 33.092 447.241 35C449.113 35 462.109 35.36 463.405 35.36L463.261 29.168ZM487.167 28.7C486.303 28.772 485.151 28.88 483.711 28.88C478.923 28.88 475.899 26.612 475.899 23.84C475.899 20.456 478.959 17.144 486.555 15.776L484.971 8.864C472.551 11.528 467.115 18.764 467.115 24.74C467.115 29.564 471.471 35.576 483.279 35.576C484.971 35.576 486.267 35.432 487.527 35.288L487.167 28.7ZM505.115 35C505.043 34.28 505.007 29.312 505.007 25.604V15.596C505.583 15.596 512.243 15.776 512.927 15.812V9.512C511.163 9.656 503.315 9.8 502.631 9.8H499.499C499.103 9.8 490.571 9.656 488.951 9.512V15.812C490.067 15.776 495.179 15.596 496.907 15.596V25.028C496.907 28.952 496.871 34.064 496.799 35H505.115ZM524.812 20.24C524.812 15.92 524.92 10.088 524.956 9.44H516.604C516.604 10.304 516.712 19.556 516.712 20.168V24.056C516.712 24.992 516.676 33.416 516.604 35H524.956C524.92 34.172 524.812 27.728 524.812 24.128V20.24ZM543.875 35.576C555.935 35.612 559.571 26.972 559.571 21.536C559.571 13.616 554.207 8.864 545.639 8.864C535.019 8.864 529.979 16.316 529.979 23.264C529.979 29.024 534.263 35.576 543.875 35.576ZM544.271 29.996C541.319 29.996 538.763 27.548 538.763 22.724C538.763 18.332 541.067 14.444 545.171 14.444C548.627 14.444 550.787 17.144 550.751 21.788C550.715 27.152 548.159 29.996 544.271 29.996ZM570.856 35.252C570.82 34.064 570.784 23.66 570.784 22.184C571.324 22.616 584.32 32.912 588.64 35.72L589 35.54C589.108 33.2 589.36 28.088 589.648 22.868C589.972 17.612 590.296 12.248 590.512 9.44L583.168 9.26C583.132 10.808 583.24 20.456 583.24 22.436C581.98 21.5 570.424 12.752 565.312 9.008L564.952 9.224C564.592 14.012 563.728 32.444 563.512 35L570.856 35.252ZM608.891 36.152C609.683 34.46 610.979 31.652 611.267 31.148L622.103 30.536C622.463 31.148 624.299 34.352 625.343 36.116L632.471 31.904C630.959 29.852 621.275 14.624 616.955 8.108H616.595C613.103 13.616 603.131 30.5 602.051 32.336L608.891 36.152ZM613.571 25.82C614.507 23.804 615.767 21.14 616.631 19.412C617.279 20.888 618.647 23.444 619.655 25.496L613.571 25.82ZM642.469 35.252C642.433 34.064 642.397 23.66 642.397 22.184C642.937 22.616 655.933 32.912 660.253 35.72L660.613 35.54C660.721 33.2 660.973 28.088 661.261 22.868C661.585 17.612 661.909 12.248 662.125 9.44L654.781 9.26C654.745 10.808 654.853 20.456 654.853 22.436C653.593 21.5 642.037 12.752 636.925 9.008L636.565 9.224C636.205 14.012 635.341 32.444 635.125 35L642.469 35.252ZM668.552 23.624C668.552 24.596 668.48 33.524 668.336 35.18C679.964 35.18 693.428 30.536 693.428 19.196C693.428 16.28 691.628 11.384 682.196 10.088C678.848 9.62 674.996 9.44 668.372 9.44C668.516 10.448 668.552 18.404 668.552 19.16V23.624ZM676.472 15.2C680.54 15.2 684.86 16.208 684.86 20.456C684.86 25.496 680 28.052 676.472 28.628V15.2ZM714.734 15.884C714.734 12.608 714.806 10.556 714.95 9.62H706.562C706.562 10.448 706.526 13.436 706.526 15.092V17.036C706.526 25.784 707.138 28.448 708.902 31.076C711.638 35.072 716.03 35.576 718.982 35.576C722.978 35.576 726.47 34.208 728.666 31.544C731.402 28.268 731.798 24.02 731.798 17.108V15.452C731.798 12.608 731.762 9.872 731.762 9.08H723.518C723.554 10.412 723.698 12.896 723.698 15.38V16.748C723.698 24.92 723.626 26.432 722.654 27.908C721.862 29.096 720.71 29.6 719.45 29.6C718.334 29.6 717.218 29.276 716.39 28.304C715.022 26.684 714.734 24.092 714.734 18.332V15.884ZM737.762 35.648C748.706 34.388 752.846 29.348 752.846 25.388C752.846 22.148 749.75 20.528 747.842 19.592C745.502 18.44 744.35 17.9 744.35 17.036C744.35 15.56 746.618 14.804 751.118 14.804L750.146 8.792C741.038 9.584 735.674 13.976 735.674 18.008C735.674 21.032 738.302 22.832 740.57 24.128C743.486 25.784 744.098 26.216 744.098 26.936C744.098 28.628 740.282 29.6 736.79 29.492L737.762 35.648ZM773.902 29.168C772.21 29.312 766.774 29.24 765.838 29.24V24.956C766.63 24.956 771.418 25.1 772.39 25.1L772.282 19.34C770.698 19.484 766.558 19.664 765.838 19.664V14.912C766.486 14.912 772.138 14.732 773.47 14.732L773.326 8.792C771.994 8.9 759.898 9.44 757.882 9.44C757.918 10.484 757.99 19.16 757.99 19.736V24.56C757.99 25.388 757.99 33.092 757.882 35C759.754 35 772.75 35.36 774.046 35.36L773.902 29.168Z" fill="url(#paint1_linear_124_2274)"/>
</mask>
<g mask="url(#mask0_124_2274)">
<g filter="url(#filter1_i_124_2274)">
<path d="M15.264 35C15.156 33.884 15.192 30.644 15.192 25.46V19.916C15.192 15.056 15.48 10.268 15.48 9.08H15.372C14.328 10.268 6.3 17.756 5.616 18.368L7.236 20.312C8.28 19.232 11.052 16.568 12.096 15.344V24.668C12.096 29.528 11.88 34.064 11.88 35H15.264ZM28.2971 35H32.3291V31.004H28.2971V35ZM47.1443 20.24C47.1443 15.92 47.2523 10.088 47.2883 9.44H38.9363C38.9363 10.304 39.0443 19.556 39.0443 20.168V24.056C39.0443 24.992 39.0083 33.416 38.9363 35H47.2883C47.2523 34.172 47.1443 27.728 47.1443 24.128V20.24ZM61.0549 35.252C61.0189 34.064 60.9829 23.66 60.9829 22.184C61.5229 22.616 74.5189 32.912 78.8389 35.72L79.1989 35.54C79.3069 33.2 79.5589 28.088 79.8469 22.868C80.1709 17.612 80.4949 12.248 80.7109 9.44L73.3669 9.26C73.3309 10.808 73.4389 20.456 73.4389 22.436C72.1789 21.5 60.6229 12.752 55.5109 9.008L55.1509 9.224C54.7909 14.012 53.9269 32.444 53.7109 35L61.0549 35.252ZM95.022 35C95.022 34.496 94.986 29.492 94.986 28.916V25.856L102.33 25.928L102.222 20.24C98.19 20.348 95.778 20.564 94.986 20.564V15.02L102.906 14.84L102.762 8.9C98.982 9.044 89.946 9.44 86.994 9.44C87.066 10.484 87.138 19.16 87.138 19.736V24.524C87.138 25.388 87.138 33.092 86.994 35H95.022ZM120.172 35.576C132.232 35.612 135.868 26.972 135.868 21.536C135.868 13.616 130.504 8.864 121.936 8.864C111.316 8.864 106.276 16.316 106.276 23.264C106.276 29.024 110.56 35.576 120.172 35.576ZM120.568 29.996C117.616 29.996 115.06 27.548 115.06 22.724C115.06 18.332 117.364 14.444 121.468 14.444C124.924 14.444 127.084 17.144 127.048 21.788C127.012 27.152 124.456 29.996 120.568 29.996ZM148.881 14.408C152.769 14.444 153.957 16.064 153.957 17.756C153.957 20.168 151.401 22.148 149.817 23.084C150.789 24.668 157.773 34.784 158.601 36.152L165.189 31.184C164.253 30.032 158.745 24.452 157.665 23.228C160.473 21.248 162.309 18.98 162.309 16.028C162.309 12.716 159.429 10.628 154.101 9.944C150.861 9.512 145.857 9.44 140.925 9.44C141.033 10.124 141.105 17.936 141.105 19.016V21.968C141.105 22.724 141.177 34.136 141.033 35H149.061C148.989 34.46 148.881 25.352 148.881 23.984V14.408ZM172.511 36.116C173.159 34.424 175.751 25.136 176.363 23.264C176.939 24.344 180.719 30.464 183.491 34.64H183.851C186.551 30.86 191.159 23.768 191.591 23.12C191.987 24.092 195.407 33.236 196.559 36.116L203.831 32.876C202.859 30.896 195.623 14.552 193.139 9.224H192.779C190.871 12.32 185.795 20.744 184.391 22.868C183.275 21.032 177.947 12.212 175.751 8.648H175.391C173.303 13.22 166.031 32.048 165.419 33.488L172.511 36.116ZM211.063 36.152C211.855 34.46 213.151 31.652 213.439 31.148L224.275 30.536C224.635 31.148 226.471 34.352 227.515 36.116L234.643 31.904C233.131 29.852 223.447 14.624 219.127 8.108H218.767C215.275 13.616 205.303 30.5 204.223 32.336L211.063 36.152ZM215.743 25.82C216.679 23.804 217.939 21.14 218.803 19.412C219.451 20.888 220.819 23.444 221.827 25.496L215.743 25.82ZM249.247 35C249.175 34.28 249.139 29.312 249.139 25.604V15.596C249.715 15.596 256.375 15.776 257.059 15.812V9.512C255.295 9.656 247.447 9.8 246.763 9.8H243.631C243.235 9.8 234.703 9.656 233.083 9.512V15.812C234.199 15.776 239.311 15.596 241.039 15.596V25.028C241.039 28.952 241.003 34.064 240.931 35H249.247ZM268.945 20.24C268.945 15.92 269.053 10.088 269.089 9.44H260.737C260.737 10.304 260.845 19.556 260.845 20.168V24.056C260.845 24.992 260.809 33.416 260.737 35H269.089C269.053 34.172 268.945 27.728 268.945 24.128V20.24ZM288.008 35.576C300.068 35.612 303.704 26.972 303.704 21.536C303.704 13.616 298.34 8.864 289.772 8.864C279.152 8.864 274.112 16.316 274.112 23.264C274.112 29.024 278.396 35.576 288.008 35.576ZM288.404 29.996C285.452 29.996 282.896 27.548 282.896 22.724C282.896 18.332 285.2 14.444 289.304 14.444C292.76 14.444 294.92 17.144 294.884 21.788C294.848 27.152 292.292 29.996 288.404 29.996ZM314.988 35.252C314.952 34.064 314.916 23.66 314.916 22.184C315.456 22.616 328.452 32.912 332.772 35.72L333.132 35.54C333.24 33.2 333.492 28.088 333.78 22.868C334.104 17.612 334.428 12.248 334.644 9.44L327.3 9.26C327.264 10.808 327.372 20.456 327.372 22.436C326.112 21.5 314.556 12.752 309.444 9.008L309.084 9.224C308.724 14.012 307.86 32.444 307.644 35L314.988 35.252ZM367.496 28.7C366.632 28.772 365.48 28.88 364.04 28.88C359.252 28.88 356.228 26.612 356.228 23.84C356.228 20.456 359.288 17.144 366.884 15.776L365.3 8.864C352.88 11.528 347.444 18.764 347.444 24.74C347.444 29.564 351.8 35.576 363.608 35.576C365.3 35.576 366.596 35.432 367.856 35.288L367.496 28.7ZM384.371 35.576C396.431 35.612 400.067 26.972 400.067 21.536C400.067 13.616 394.703 8.864 386.135 8.864C375.515 8.864 370.475 16.316 370.475 23.264C370.475 29.024 374.759 35.576 384.371 35.576ZM384.767 29.996C381.815 29.996 379.259 27.548 379.259 22.724C379.259 18.332 381.563 14.444 385.667 14.444C389.123 14.444 391.283 17.144 391.247 21.788C391.211 27.152 388.655 29.996 384.767 29.996ZM405.088 9.44C405.16 10.124 405.232 19.16 405.232 19.736V24.524C405.232 25.388 405.232 33.092 405.124 35C408.004 35 420.496 35.36 421.36 35.36L421.324 28.664C418.444 28.808 414.196 28.808 413.332 28.808V22.22C413.332 17.684 413.476 10.268 413.512 9.44H405.088ZM426.146 9.44C426.218 10.124 426.29 19.16 426.29 19.736V24.524C426.29 25.388 426.29 33.092 426.182 35C429.062 35 441.554 35.36 442.418 35.36L442.382 28.664C439.502 28.808 435.254 28.808 434.39 28.808V22.22C434.39 17.684 434.534 10.268 434.57 9.44H426.146ZM463.261 29.168C461.569 29.312 456.133 29.24 455.197 29.24V24.956C455.989 24.956 460.777 25.1 461.749 25.1L461.641 19.34C460.057 19.484 455.917 19.664 455.197 19.664V14.912C455.845 14.912 461.497 14.732 462.829 14.732L462.685 8.792C461.353 8.9 449.257 9.44 447.241 9.44C447.277 10.484 447.349 19.16 447.349 19.736V24.56C447.349 25.388 447.349 33.092 447.241 35C449.113 35 462.109 35.36 463.405 35.36L463.261 29.168ZM487.167 28.7C486.303 28.772 485.151 28.88 483.711 28.88C478.923 28.88 475.899 26.612 475.899 23.84C475.899 20.456 478.959 17.144 486.555 15.776L484.971 8.864C472.551 11.528 467.115 18.764 467.115 24.74C467.115 29.564 471.471 35.576 483.279 35.576C484.971 35.576 486.267 35.432 487.527 35.288L487.167 28.7ZM505.115 35C505.043 34.28 505.007 29.312 505.007 25.604V15.596C505.583 15.596 512.243 15.776 512.927 15.812V9.512C511.163 9.656 503.315 9.8 502.631 9.8H499.499C499.103 9.8 490.571 9.656 488.951 9.512V15.812C490.067 15.776 495.179 15.596 496.907 15.596V25.028C496.907 28.952 496.871 34.064 496.799 35H505.115ZM524.812 20.24C524.812 15.92 524.92 10.088 524.956 9.44H516.604C516.604 10.304 516.712 19.556 516.712 20.168V24.056C516.712 24.992 516.676 33.416 516.604 35H524.956C524.92 34.172 524.812 27.728 524.812 24.128V20.24ZM543.875 35.576C555.935 35.612 559.571 26.972 559.571 21.536C559.571 13.616 554.207 8.864 545.639 8.864C535.019 8.864 529.979 16.316 529.979 23.264C529.979 29.024 534.263 35.576 543.875 35.576ZM544.271 29.996C541.319 29.996 538.763 27.548 538.763 22.724C538.763 18.332 541.067 14.444 545.171 14.444C548.627 14.444 550.787 17.144 550.751 21.788C550.715 27.152 548.159 29.996 544.271 29.996ZM570.856 35.252C570.82 34.064 570.784 23.66 570.784 22.184C571.324 22.616 584.32 32.912 588.64 35.72L589 35.54C589.108 33.2 589.36 28.088 589.648 22.868C589.972 17.612 590.296 12.248 590.512 9.44L583.168 9.26C583.132 10.808 583.24 20.456 583.24 22.436C581.98 21.5 570.424 12.752 565.312 9.008L564.952 9.224C564.592 14.012 563.728 32.444 563.512 35L570.856 35.252ZM608.891 36.152C609.683 34.46 610.979 31.652 611.267 31.148L622.103 30.536C622.463 31.148 624.299 34.352 625.343 36.116L632.471 31.904C630.959 29.852 621.275 14.624 616.955 8.108H616.595C613.103 13.616 603.131 30.5 602.051 32.336L608.891 36.152ZM613.571 25.82C614.507 23.804 615.767 21.14 616.631 19.412C617.279 20.888 618.647 23.444 619.655 25.496L613.571 25.82ZM642.469 35.252C642.433 34.064 642.397 23.66 642.397 22.184C642.937 22.616 655.933 32.912 660.253 35.72L660.613 35.54C660.721 33.2 660.973 28.088 661.261 22.868C661.585 17.612 661.909 12.248 662.125 9.44L654.781 9.26C654.745 10.808 654.853 20.456 654.853 22.436C653.593 21.5 642.037 12.752 636.925 9.008L636.565 9.224C636.205 14.012 635.341 32.444 635.125 35L642.469 35.252ZM668.552 23.624C668.552 24.596 668.48 33.524 668.336 35.18C679.964 35.18 693.428 30.536 693.428 19.196C693.428 16.28 691.628 11.384 682.196 10.088C678.848 9.62 674.996 9.44 668.372 9.44C668.516 10.448 668.552 18.404 668.552 19.16V23.624ZM676.472 15.2C680.54 15.2 684.86 16.208 684.86 20.456C684.86 25.496 680 28.052 676.472 28.628V15.2ZM714.734 15.884C714.734 12.608 714.806 10.556 714.95 9.62H706.562C706.562 10.448 706.526 13.436 706.526 15.092V17.036C706.526 25.784 707.138 28.448 708.902 31.076C711.638 35.072 716.03 35.576 718.982 35.576C722.978 35.576 726.47 34.208 728.666 31.544C731.402 28.268 731.798 24.02 731.798 17.108V15.452C731.798 12.608 731.762 9.872 731.762 9.08H723.518C723.554 10.412 723.698 12.896 723.698 15.38V16.748C723.698 24.92 723.626 26.432 722.654 27.908C721.862 29.096 720.71 29.6 719.45 29.6C718.334 29.6 717.218 29.276 716.39 28.304C715.022 26.684 714.734 24.092 714.734 18.332V15.884ZM737.762 35.648C748.706 34.388 752.846 29.348 752.846 25.388C752.846 22.148 749.75 20.528 747.842 19.592C745.502 18.44 744.35 17.9 744.35 17.036C744.35 15.56 746.618 14.804 751.118 14.804L750.146 8.792C741.038 9.584 735.674 13.976 735.674 18.008C735.674 21.032 738.302 22.832 740.57 24.128C743.486 25.784 744.098 26.216 744.098 26.936C744.098 28.628 740.282 29.6 736.79 29.492L737.762 35.648ZM773.902 29.168C772.21 29.312 766.774 29.24 765.838 29.24V24.956C766.63 24.956 771.418 25.1 772.39 25.1L772.282 19.34C770.698 19.484 766.558 19.664 765.838 19.664V14.912C766.486 14.912 772.138 14.732 773.47 14.732L773.326 8.792C771.994 8.9 759.898 9.44 757.882 9.44C757.918 10.484 757.99 19.16 757.99 19.736V24.56C757.99 25.388 757.99 33.092 757.882 35C759.754 35 772.75 35.36 774.046 35.36L773.902 29.168Z" fill="url(#paint2_linear_124_2274)"/>
</g>
<g style="mix-blend-mode:color-dodge" filter="url(#filter2_f_124_2274)">
<circle cx="527.592" cy="-10.328" r="41.0164" fill="#0094FF"/>
</g>
<g style="mix-blend-mode:color-dodge" filter="url(#filter3_f_124_2274)">
<circle cx="343.018" cy="-0.757397" r="41.0164" fill="#0094FF"/>
</g>
<g style="mix-blend-mode:color-dodge" filter="url(#filter4_f_124_2274)">
<circle cx="225.438" cy="-10.328" r="41.0164" fill="#0094FF"/>
</g>
<g style="mix-blend-mode:color-dodge" filter="url(#filter5_f_124_2274)">
<circle cx="87.3494" cy="-6.22651" r="41.0164" fill="#0094FF"/>
</g>
</g>
<defs>
<filter id="filter0_i_124_2274" x="5.61621" y="12.108" width="768.429" height="28.0439" filterUnits="userSpaceOnUse" color-interpolation-filters="sRGB">
<feFlood flood-opacity="0" result="BackgroundImageFix"/>
<feBlend mode="normal" in="SourceGraphic" in2="BackgroundImageFix" result="shape"/>
<feColorMatrix in="SourceAlpha" type="matrix" values="0 0 0 0 0 0 0 0 0 0 0 0 0 0 0 0 0 0 127 0" result="hardAlpha"/>
<feOffset dy="-1.36721"/>
<feComposite in2="hardAlpha" operator="arithmetic" k2="-1" k3="1"/>
<feColorMatrix type="matrix" values="0 0 0 0 1 0 0 0 0 1 0 0 0 0 1 0 0 0 1 0"/>
<feBlend mode="normal" in2="shape" result="effect1_innerShadow_124_2274"/>
</filter>
<filter id="filter1_i_124_2274" x="5.61621" y="8.10803" width="768.429" height="28.0439" filterUnits="userSpaceOnUse" color-interpolation-filters="sRGB">
<feFlood flood-opacity="0" result="BackgroundImageFix"/>
<feBlend mode="normal" in="SourceGraphic" in2="BackgroundImageFix" result="shape"/>
<feColorMatrix in="SourceAlpha" type="matrix" values="0 0 0 0 0 0 0 0 0 0 0 0 0 0 0 0 0 0 127 0" result="hardAlpha"/>
<feOffset dy="-1.36721"/>
<feComposite in2="hardAlpha" operator="arithmetic" k2="-1" k3="1"/>
<feColorMatrix type="matrix" values="0 0 0 0 1 0 0 0 0 1 0 0 0 0 1 0 0 0 1 0"/>
<feBlend mode="normal" in2="shape" result="effect1_innerShadow_124_2274"/>
</filter>
<filter id="filter2_f_124_2274" x="446.243" y="-91.6772" width="162.698" height="162.698" filterUnits="userSpaceOnUse" color-interpolation-filters="sRGB">
<feFlood flood-opacity="0" result="BackgroundImageFix"/>
<feBlend mode="normal" in="SourceGraphic" in2="BackgroundImageFix" result="shape"/>
<feGaussianBlur stdDeviation="20.1664" result="effect1_foregroundBlur_124_2274"/>
</filter>
<filter id="filter3_f_124_2274" x="261.669" y="-82.1066" width="162.698" height="162.698" filterUnits="userSpaceOnUse" color-interpolation-filters="sRGB">
<feFlood flood-opacity="0" result="BackgroundImageFix"/>
<feBlend mode="normal" in="SourceGraphic" in2="BackgroundImageFix" result="shape"/>
<feGaussianBlur stdDeviation="20.1664" result="effect1_foregroundBlur_124_2274"/>
</filter>
<filter id="filter4_f_124_2274" x="144.089" y="-91.6772" width="162.698" height="162.698" filterUnits="userSpaceOnUse" color-interpolation-filters="sRGB">
<feFlood flood-opacity="0" result="BackgroundImageFix"/>
<feBlend mode="normal" in="SourceGraphic" in2="BackgroundImageFix" result="shape"/>
<feGaussianBlur stdDeviation="20.1664" result="effect1_foregroundBlur_124_2274"/>
</filter>
<filter id="filter5_f_124_2274" x="6.00021" y="-87.5757" width="162.698" height="162.698" filterUnits="userSpaceOnUse" color-interpolation-filters="sRGB">
<feFlood flood-opacity="0" result="BackgroundImageFix"/>
<feBlend mode="normal" in="SourceGraphic" in2="BackgroundImageFix" result="shape"/>
<feGaussianBlur stdDeviation="20.1664" result="effect1_foregroundBlur_124_2274"/>
</filter>
<linearGradient id="paint0_linear_124_2274" x1="14.1728" y1="3.99997" x2="657.468" y2="333.8" gradientUnits="userSpaceOnUse">
<stop stop-color="#00538F"/>
<stop offset="1" stop-color="#005FA4"/>
</linearGradient>
<linearGradient id="paint1_linear_124_2274" x1="14.1728" y1="-3.3335e-05" x2="657.468" y2="329.8" gradientUnits="userSpaceOnUse">
<stop stop-color="#3AACFF"/>
<stop offset="1" stop-color="#0094FF"/>
</linearGradient>
<linearGradient id="paint2_linear_124_2274" x1="14.1728" y1="-3.3335e-05" x2="657.468" y2="329.8" gradientUnits="userSpaceOnUse">
<stop stop-color="#3AACFF"/>
<stop offset="1" stop-color="#0094FF"/>
</linearGradient>
</defs>
</svg>
