<svg width="293" height="57" viewBox="0 0 293 57" fill="none" xmlns="http://www.w3.org/2000/svg">
<g filter="url(#filter0_i_141_66)">
<path d="M11.7 40.224C17.46 36.624 23.472 28.848 23.472 21.648C23.472 18.948 22.68 16.896 21.06 15.384C19.26 13.692 17.064 13.008 14.292 13.008C8.928 12.936 4.5 17.184 4.392 21.972C4.356 26.508 8.676 29.82 15.156 29.748C13.5 32.556 10.548 34.86 8.784 35.868L11.7 40.224ZM17.532 21.612C17.532 23.664 17.172 25.176 16.74 26.148C12.924 26.328 10.332 24.456 10.332 21.252C10.332 18.876 11.952 17.004 13.932 17.004C16.164 17.004 17.532 18.768 17.532 21.612ZM30.5438 34.068V39H35.7278V34.068H30.5438ZM69.6218 34.176C68.6138 34.356 67.3178 34.5 65.8778 34.5C59.5058 34.5 56.3018 31.476 56.3018 28.02C56.3018 23.556 60.9098 19.596 68.7578 18.408L67.6058 13.008C55.0778 15.528 49.6418 22.872 49.6418 28.812C49.6418 33.024 53.4578 39.576 65.4818 39.576C67.3538 39.576 68.7938 39.432 69.9818 39.252L69.6218 34.176ZM72.9194 27.156C72.9194 34.14 77.8514 39.54 85.9514 39.576C97.1474 39.576 100.927 30.972 100.927 25.824C100.927 17.616 95.4914 13.008 87.7154 13.008C78.2474 13.008 72.9194 20.136 72.9194 27.156ZM79.6514 26.796C79.6514 21.216 82.9994 17.652 87.2114 17.652C91.0274 17.652 94.1954 20.496 94.1594 26.004C94.1234 32.304 90.0194 34.932 86.6354 34.932C82.5674 34.932 79.6514 31.872 79.6514 26.796ZM111.48 39.252C111.444 38.064 111.624 24.816 111.624 23.592H111.696C112.164 24.24 127.32 37.668 130.2 39.72L130.488 39.612C130.596 36.372 130.812 30.936 131.1 25.752C131.352 20.568 131.64 15.672 131.784 13.584L126.096 13.404C126.06 14.808 125.952 27.408 125.952 28.884C124.8 27.768 110.832 15.456 107.448 12.756L107.16 12.864C107.016 15.024 106.728 20.928 106.44 26.58C106.152 32.232 105.864 37.668 105.756 39L111.48 39.252ZM150.12 39C150.048 38.28 149.868 31.836 149.868 26.652V18.3C151.452 18.3 158.112 18.48 158.796 18.588V13.584C157.032 13.8 149.184 13.944 148.5 13.944H145.368C144.972 13.944 136.44 13.8 134.82 13.584V18.588C135.936 18.48 141.048 18.3 143.748 18.3V26.076C143.748 30.72 143.712 38.064 143.604 39H150.12ZM161.814 39.972C162.606 38.46 164.514 34.14 164.838 33.42L176.358 32.88C176.754 33.42 179.382 38.316 180.282 39.936L185.754 36.624C183.882 33.852 174.666 18.228 170.814 12.288H170.562C168.15 16.104 157.998 34.428 156.558 36.948L161.814 39.972ZM166.71 29.244C167.394 27.84 169.842 22.764 170.562 21.36C171.102 22.476 173.73 27.372 174.486 28.884L166.71 29.244ZM207.575 34.176C206.567 34.356 205.271 34.5 203.831 34.5C197.459 34.5 194.255 31.476 194.255 28.02C194.255 23.556 198.863 19.596 206.711 18.408L205.559 13.008C193.031 15.528 187.595 22.872 187.595 28.812C187.595 33.024 191.411 39.576 203.435 39.576C205.307 39.576 206.747 39.432 207.935 39.252L207.575 34.176ZM224.616 39C224.544 38.28 224.364 31.836 224.364 26.652V18.3C225.948 18.3 232.608 18.48 233.292 18.588V13.584C231.528 13.8 223.68 13.944 222.996 13.944H219.864C219.468 13.944 210.936 13.8 209.316 13.584V18.588C210.432 18.48 215.544 18.3 218.244 18.3V26.076C218.244 30.72 218.208 38.064 218.1 39H224.616ZM270.112 19.452C270.112 16.608 270.076 14.016 270.076 13.224H263.74C263.776 14.556 263.92 16.896 263.92 19.38V20.712C263.92 27.516 263.884 30.216 262.588 32.196C261.616 33.672 260.14 34.572 258.196 34.572C256.504 34.572 254.956 33.96 253.876 32.376C252.508 30.432 252.22 27.804 252.22 22.332V19.884C252.22 16.608 252.292 14.7 252.436 13.764H246.028C246.028 14.592 245.992 17.436 245.992 19.092V21.036C245.992 29.784 246.604 32.52 248.332 35.148C250.996 39.144 255.208 39.576 257.728 39.576C261.652 39.576 264.82 38.28 266.98 35.616C269.716 32.34 270.112 28.02 270.112 21.108V19.452ZM277.557 39.648C286.845 38.244 290.805 33.672 290.805 29.892C290.805 26.76 288.033 25.356 285.837 24.168C283.821 23.088 282.129 22.26 282.129 21.036C282.129 18.948 285.621 17.796 289.185 17.652L288.321 12.936C280.905 13.872 275.541 17.904 275.541 21.864C275.541 24.744 277.989 26.4 280.581 27.876C283.389 29.46 284.145 30.072 284.145 31.224C284.145 33.348 280.077 34.644 276.585 34.86L277.557 39.648Z" fill="url(#paint0_linear_141_66)"/>
</g>
<mask id="mask0_141_66" style="mask-type:alpha" maskUnits="userSpaceOnUse" x="4" y="8" width="287" height="29">
<path d="M11.7 36.224C17.46 32.624 23.472 24.848 23.472 17.648C23.472 14.948 22.68 12.896 21.06 11.384C19.26 9.692 17.064 9.008 14.292 9.008C8.928 8.936 4.5 13.184 4.392 17.972C4.356 22.508 8.676 25.82 15.156 25.748C13.5 28.556 10.548 30.86 8.784 31.868L11.7 36.224ZM17.532 17.612C17.532 19.664 17.172 21.176 16.74 22.148C12.924 22.328 10.332 20.456 10.332 17.252C10.332 14.876 11.952 13.004 13.932 13.004C16.164 13.004 17.532 14.768 17.532 17.612ZM30.5438 30.068V35H35.7278V30.068H30.5438ZM69.6218 30.176C68.6138 30.356 67.3178 30.5 65.8778 30.5C59.5058 30.5 56.3018 27.476 56.3018 24.02C56.3018 19.556 60.9098 15.596 68.7578 14.408L67.6058 9.008C55.0778 11.528 49.6418 18.872 49.6418 24.812C49.6418 29.024 53.4578 35.576 65.4818 35.576C67.3538 35.576 68.7938 35.432 69.9818 35.252L69.6218 30.176ZM72.9194 23.156C72.9194 30.14 77.8514 35.54 85.9514 35.576C97.1474 35.576 100.927 26.972 100.927 21.824C100.927 13.616 95.4914 9.008 87.7154 9.008C78.2474 9.008 72.9194 16.136 72.9194 23.156ZM79.6514 22.796C79.6514 17.216 82.9994 13.652 87.2114 13.652C91.0274 13.652 94.1954 16.496 94.1594 22.004C94.1234 28.304 90.0194 30.932 86.6354 30.932C82.5674 30.932 79.6514 27.872 79.6514 22.796ZM111.48 35.252C111.444 34.064 111.624 20.816 111.624 19.592H111.696C112.164 20.24 127.32 33.668 130.2 35.72L130.488 35.612C130.596 32.372 130.812 26.936 131.1 21.752C131.352 16.568 131.64 11.672 131.784 9.584L126.096 9.404C126.06 10.808 125.952 23.408 125.952 24.884C124.8 23.768 110.832 11.456 107.448 8.756L107.16 8.864C107.016 11.024 106.728 16.928 106.44 22.58C106.152 28.232 105.864 33.668 105.756 35L111.48 35.252ZM150.12 35C150.048 34.28 149.868 27.836 149.868 22.652V14.3C151.452 14.3 158.112 14.48 158.796 14.588V9.584C157.032 9.8 149.184 9.944 148.5 9.944H145.368C144.972 9.944 136.44 9.8 134.82 9.584V14.588C135.936 14.48 141.048 14.3 143.748 14.3V22.076C143.748 26.72 143.712 34.064 143.604 35H150.12ZM161.814 35.972C162.606 34.46 164.514 30.14 164.838 29.42L176.358 28.88C176.754 29.42 179.382 34.316 180.282 35.936L185.754 32.624C183.882 29.852 174.666 14.228 170.814 8.288H170.562C168.15 12.104 157.998 30.428 156.558 32.948L161.814 35.972ZM166.71 25.244C167.394 23.84 169.842 18.764 170.562 17.36C171.102 18.476 173.73 23.372 174.486 24.884L166.71 25.244ZM207.575 30.176C206.567 30.356 205.271 30.5 203.831 30.5C197.459 30.5 194.255 27.476 194.255 24.02C194.255 19.556 198.863 15.596 206.711 14.408L205.559 9.008C193.031 11.528 187.595 18.872 187.595 24.812C187.595 29.024 191.411 35.576 203.435 35.576C205.307 35.576 206.747 35.432 207.935 35.252L207.575 30.176ZM224.616 35C224.544 34.28 224.364 27.836 224.364 22.652V14.3C225.948 14.3 232.608 14.48 233.292 14.588V9.584C231.528 9.8 223.68 9.944 222.996 9.944H219.864C219.468 9.944 210.936 9.8 209.316 9.584V14.588C210.432 14.48 215.544 14.3 218.244 14.3V22.076C218.244 26.72 218.208 34.064 218.1 35H224.616ZM270.112 15.452C270.112 12.608 270.076 10.016 270.076 9.224H263.74C263.776 10.556 263.92 12.896 263.92 15.38V16.712C263.92 23.516 263.884 26.216 262.588 28.196C261.616 29.672 260.14 30.572 258.196 30.572C256.504 30.572 254.956 29.96 253.876 28.376C252.508 26.432 252.22 23.804 252.22 18.332V15.884C252.22 12.608 252.292 10.7 252.436 9.764H246.028C246.028 10.592 245.992 13.436 245.992 15.092V17.036C245.992 25.784 246.604 28.52 248.332 31.148C250.996 35.144 255.208 35.576 257.728 35.576C261.652 35.576 264.82 34.28 266.98 31.616C269.716 28.34 270.112 24.02 270.112 17.108V15.452ZM277.557 35.648C286.845 34.244 290.805 29.672 290.805 25.892C290.805 22.76 288.033 21.356 285.837 20.168C283.821 19.088 282.129 18.26 282.129 17.036C282.129 14.948 285.621 13.796 289.185 13.652L288.321 8.936C280.905 9.872 275.541 13.904 275.541 17.864C275.541 20.744 277.989 22.4 280.581 23.876C283.389 25.46 284.145 26.072 284.145 27.224C284.145 29.348 280.077 30.644 276.585 30.86L277.557 35.648Z" fill="url(#paint1_linear_141_66)"/>
</mask>
<g mask="url(#mask0_141_66)">
<g filter="url(#filter1_i_141_66)">
<path d="M11.7 36.224C17.46 32.624 23.472 24.848 23.472 17.648C23.472 14.948 22.68 12.896 21.06 11.384C19.26 9.692 17.064 9.008 14.292 9.008C8.928 8.936 4.5 13.184 4.392 17.972C4.356 22.508 8.676 25.82 15.156 25.748C13.5 28.556 10.548 30.86 8.784 31.868L11.7 36.224ZM17.532 17.612C17.532 19.664 17.172 21.176 16.74 22.148C12.924 22.328 10.332 20.456 10.332 17.252C10.332 14.876 11.952 13.004 13.932 13.004C16.164 13.004 17.532 14.768 17.532 17.612ZM30.5438 30.068V35H35.7278V30.068H30.5438ZM69.6218 30.176C68.6138 30.356 67.3178 30.5 65.8778 30.5C59.5058 30.5 56.3018 27.476 56.3018 24.02C56.3018 19.556 60.9098 15.596 68.7578 14.408L67.6058 9.008C55.0778 11.528 49.6418 18.872 49.6418 24.812C49.6418 29.024 53.4578 35.576 65.4818 35.576C67.3538 35.576 68.7938 35.432 69.9818 35.252L69.6218 30.176ZM72.9194 23.156C72.9194 30.14 77.8514 35.54 85.9514 35.576C97.1474 35.576 100.927 26.972 100.927 21.824C100.927 13.616 95.4914 9.008 87.7154 9.008C78.2474 9.008 72.9194 16.136 72.9194 23.156ZM79.6514 22.796C79.6514 17.216 82.9994 13.652 87.2114 13.652C91.0274 13.652 94.1954 16.496 94.1594 22.004C94.1234 28.304 90.0194 30.932 86.6354 30.932C82.5674 30.932 79.6514 27.872 79.6514 22.796ZM111.48 35.252C111.444 34.064 111.624 20.816 111.624 19.592H111.696C112.164 20.24 127.32 33.668 130.2 35.72L130.488 35.612C130.596 32.372 130.812 26.936 131.1 21.752C131.352 16.568 131.64 11.672 131.784 9.584L126.096 9.404C126.06 10.808 125.952 23.408 125.952 24.884C124.8 23.768 110.832 11.456 107.448 8.756L107.16 8.864C107.016 11.024 106.728 16.928 106.44 22.58C106.152 28.232 105.864 33.668 105.756 35L111.48 35.252ZM150.12 35C150.048 34.28 149.868 27.836 149.868 22.652V14.3C151.452 14.3 158.112 14.48 158.796 14.588V9.584C157.032 9.8 149.184 9.944 148.5 9.944H145.368C144.972 9.944 136.44 9.8 134.82 9.584V14.588C135.936 14.48 141.048 14.3 143.748 14.3V22.076C143.748 26.72 143.712 34.064 143.604 35H150.12ZM161.814 35.972C162.606 34.46 164.514 30.14 164.838 29.42L176.358 28.88C176.754 29.42 179.382 34.316 180.282 35.936L185.754 32.624C183.882 29.852 174.666 14.228 170.814 8.288H170.562C168.15 12.104 157.998 30.428 156.558 32.948L161.814 35.972ZM166.71 25.244C167.394 23.84 169.842 18.764 170.562 17.36C171.102 18.476 173.73 23.372 174.486 24.884L166.71 25.244ZM207.575 30.176C206.567 30.356 205.271 30.5 203.831 30.5C197.459 30.5 194.255 27.476 194.255 24.02C194.255 19.556 198.863 15.596 206.711 14.408L205.559 9.008C193.031 11.528 187.595 18.872 187.595 24.812C187.595 29.024 191.411 35.576 203.435 35.576C205.307 35.576 206.747 35.432 207.935 35.252L207.575 30.176ZM224.616 35C224.544 34.28 224.364 27.836 224.364 22.652V14.3C225.948 14.3 232.608 14.48 233.292 14.588V9.584C231.528 9.8 223.68 9.944 222.996 9.944H219.864C219.468 9.944 210.936 9.8 209.316 9.584V14.588C210.432 14.48 215.544 14.3 218.244 14.3V22.076C218.244 26.72 218.208 34.064 218.1 35H224.616ZM270.112 15.452C270.112 12.608 270.076 10.016 270.076 9.224H263.74C263.776 10.556 263.92 12.896 263.92 15.38V16.712C263.92 23.516 263.884 26.216 262.588 28.196C261.616 29.672 260.14 30.572 258.196 30.572C256.504 30.572 254.956 29.96 253.876 28.376C252.508 26.432 252.22 23.804 252.22 18.332V15.884C252.22 12.608 252.292 10.7 252.436 9.764H246.028C246.028 10.592 245.992 13.436 245.992 15.092V17.036C245.992 25.784 246.604 28.52 248.332 31.148C250.996 35.144 255.208 35.576 257.728 35.576C261.652 35.576 264.82 34.28 266.98 31.616C269.716 28.34 270.112 24.02 270.112 17.108V15.452ZM277.557 35.648C286.845 34.244 290.805 29.672 290.805 25.892C290.805 22.76 288.033 21.356 285.837 20.168C283.821 19.088 282.129 18.26 282.129 17.036C282.129 14.948 285.621 13.796 289.185 13.652L288.321 8.936C280.905 9.872 275.541 13.904 275.541 17.864C275.541 20.744 277.989 22.4 280.581 23.876C283.389 25.46 284.145 26.072 284.145 27.224C284.145 29.348 280.077 30.644 276.585 30.86L277.557 35.648Z" fill="url(#paint2_linear_141_66)"/>
</g>
<g style="mix-blend-mode:color-dodge" filter="url(#filter2_f_141_66)">
<circle cx="343.018" cy="-0.757397" r="41.0164" fill="#0094FF"/>
</g>
<g style="mix-blend-mode:color-dodge" filter="url(#filter3_f_141_66)">
<circle cx="225.438" cy="-10.328" r="41.0164" fill="#0094FF"/>
</g>
<g style="mix-blend-mode:color-dodge" filter="url(#filter4_f_141_66)">
<circle cx="87.3494" cy="-6.22651" r="41.0164" fill="#0094FF"/>
</g>
</g>
<defs>
<filter id="filter0_i_141_66" x="4.35596" y="12.2881" width="286.449" height="27.936" filterUnits="userSpaceOnUse" color-interpolation-filters="sRGB">
<feFlood flood-opacity="0" result="BackgroundImageFix"/>
<feBlend mode="normal" in="SourceGraphic" in2="BackgroundImageFix" result="shape"/>
<feColorMatrix in="SourceAlpha" type="matrix" values="0 0 0 0 0 0 0 0 0 0 0 0 0 0 0 0 0 0 127 0" result="hardAlpha"/>
<feOffset dy="-1.36721"/>
<feComposite in2="hardAlpha" operator="arithmetic" k2="-1" k3="1"/>
<feColorMatrix type="matrix" values="0 0 0 0 1 0 0 0 0 1 0 0 0 0 1 0 0 0 1 0"/>
<feBlend mode="normal" in2="shape" result="effect1_innerShadow_141_66"/>
</filter>
<filter id="filter1_i_141_66" x="4.35596" y="8.28809" width="286.449" height="27.936" filterUnits="userSpaceOnUse" color-interpolation-filters="sRGB">
<feFlood flood-opacity="0" result="BackgroundImageFix"/>
<feBlend mode="normal" in="SourceGraphic" in2="BackgroundImageFix" result="shape"/>
<feColorMatrix in="SourceAlpha" type="matrix" values="0 0 0 0 0 0 0 0 0 0 0 0 0 0 0 0 0 0 127 0" result="hardAlpha"/>
<feOffset dy="-1.36721"/>
<feComposite in2="hardAlpha" operator="arithmetic" k2="-1" k3="1"/>
<feColorMatrix type="matrix" values="0 0 0 0 1 0 0 0 0 1 0 0 0 0 1 0 0 0 1 0"/>
<feBlend mode="normal" in2="shape" result="effect1_innerShadow_141_66"/>
</filter>
<filter id="filter2_f_141_66" x="261.669" y="-82.1066" width="162.698" height="162.698" filterUnits="userSpaceOnUse" color-interpolation-filters="sRGB">
<feFlood flood-opacity="0" result="BackgroundImageFix"/>
<feBlend mode="normal" in="SourceGraphic" in2="BackgroundImageFix" result="shape"/>
<feGaussianBlur stdDeviation="20.1664" result="effect1_foregroundBlur_141_66"/>
</filter>
<filter id="filter3_f_141_66" x="144.089" y="-91.6772" width="162.698" height="162.698" filterUnits="userSpaceOnUse" color-interpolation-filters="sRGB">
<feFlood flood-opacity="0" result="BackgroundImageFix"/>
<feBlend mode="normal" in="SourceGraphic" in2="BackgroundImageFix" result="shape"/>
<feGaussianBlur stdDeviation="20.1664" result="effect1_foregroundBlur_141_66"/>
</filter>
<filter id="filter4_f_141_66" x="6.00021" y="-87.5757" width="162.698" height="162.698" filterUnits="userSpaceOnUse" color-interpolation-filters="sRGB">
<feFlood flood-opacity="0" result="BackgroundImageFix"/>
<feBlend mode="normal" in="SourceGraphic" in2="BackgroundImageFix" result="shape"/>
<feGaussianBlur stdDeviation="20.1664" result="effect1_foregroundBlur_141_66"/>
</filter>
<linearGradient id="paint0_linear_141_66" x1="5.34443" y1="3.99997" x2="300.647" y2="61.0891" gradientUnits="userSpaceOnUse">
<stop stop-color="#00538F"/>
<stop offset="1" stop-color="#005FA4"/>
</linearGradient>
<linearGradient id="paint1_linear_141_66" x1="5.34443" y1="-3.3335e-05" x2="300.647" y2="57.0891" gradientUnits="userSpaceOnUse">
<stop stop-color="#3AACFF"/>
<stop offset="1" stop-color="#0094FF"/>
</linearGradient>
<linearGradient id="paint2_linear_141_66" x1="5.34443" y1="-3.3335e-05" x2="300.647" y2="57.0891" gradientUnits="userSpaceOnUse">
<stop stop-color="#3AACFF"/>
<stop offset="1" stop-color="#0094FF"/>
</linearGradient>
</defs>
</svg>
