<svg width="414" height="57" viewBox="0 0 414 57" fill="none" xmlns="http://www.w3.org/2000/svg">
<g filter="url(#filter0_i_141_30)">
<path d="M6.372 39.864C14.796 38.64 21.384 33.528 21.384 28.56C21.384 25.428 19.656 22.152 11.448 21.18L11.988 17.976L21.348 18.264L21.384 13.152C19.044 13.296 10.296 13.584 7.848 13.62L6.264 25.212C11.736 25.536 14.796 26.832 14.796 29.388C14.796 32.988 9.072 34.86 5.4 35.292L6.372 39.864ZM30.5438 34.068V39H35.7278V34.068H30.5438ZM52.5218 39.648C61.8098 38.244 65.7698 33.672 65.7698 29.892C65.7698 26.76 62.9978 25.356 60.8018 24.168C58.7858 23.088 57.0938 22.26 57.0938 21.036C57.0938 18.948 60.5858 17.796 64.1498 17.652L63.2858 12.936C55.8698 13.872 50.5058 17.904 50.5058 21.864C50.5058 24.744 52.9538 26.4 55.5458 27.876C58.3538 29.46 59.1098 30.072 59.1098 31.224C59.1098 33.348 55.0418 34.644 51.5498 34.86L52.5218 39.648ZM86.256 34.428C84.06 34.608 78.948 34.536 78.048 34.536V28.38C78.804 28.38 83.88 28.524 84.744 28.524L84.636 23.988C82.98 24.132 78.732 24.312 78.048 24.312V17.76C78.66 17.76 84.6 17.58 85.824 17.58L85.68 12.936C84.456 13.044 73.44 13.584 71.892 13.584C71.928 14.484 72 23.16 72 23.736V28.56C72 29.388 72 37.092 71.892 39C73.296 39 85.428 39.36 86.4 39.36L86.256 34.428ZM110.684 34.176C109.676 34.356 108.38 34.5 106.94 34.5C100.568 34.5 97.3643 31.476 97.3643 28.02C97.3643 23.556 101.972 19.596 109.82 18.408L108.668 13.008C96.1403 15.528 90.7043 22.872 90.7043 28.812C90.7043 33.024 94.5203 39.576 106.544 39.576C108.416 39.576 109.856 39.432 111.044 39.252L110.684 34.176ZM139.893 19.452C139.893 16.608 139.857 14.016 139.857 13.224H133.521C133.557 14.556 133.701 16.896 133.701 19.38V20.712C133.701 27.516 133.665 30.216 132.369 32.196C131.397 33.672 129.921 34.572 127.977 34.572C126.285 34.572 124.737 33.96 123.657 32.376C122.289 30.432 122.001 27.804 122.001 22.332V19.884C122.001 16.608 122.073 14.7 122.217 13.764H115.809C115.809 14.592 115.773 17.436 115.773 19.092V21.036C115.773 29.784 116.385 32.52 118.113 35.148C120.777 39.144 124.989 39.576 127.509 39.576C131.433 39.576 134.601 38.28 136.761 35.616C139.497 32.34 139.893 28.02 139.893 21.108V19.452ZM153.602 39C153.53 38.46 153.422 29.352 153.422 27.984V17.544C158.498 17.58 159.686 19.488 159.686 21.18C159.686 24.024 156.698 26.112 155.006 27.048C156.05 28.596 163.466 38.928 164.114 39.936L169.19 36.048C168.254 35.004 162.35 28.416 161.342 27.192C164.186 25.248 166.13 22.944 166.13 19.956C166.13 16.716 163.322 14.7 158.138 14.052C155.114 13.656 150.902 13.584 147.266 13.584C147.374 14.268 147.446 21.936 147.446 23.016V25.968C147.446 26.724 147.518 38.136 147.374 39H153.602ZM180.393 39C180.357 38.172 180.249 31.728 180.249 28.128V24.24C180.249 19.92 180.357 14.232 180.393 13.584H173.985C174.021 14.448 174.129 23.556 174.129 24.168V28.056C174.129 28.992 174.093 37.416 174.021 39H180.393ZM199.866 39C199.794 38.28 199.614 31.836 199.614 26.652V18.3C201.198 18.3 207.858 18.48 208.542 18.588V13.584C206.778 13.8 198.93 13.944 198.246 13.944H195.114C194.718 13.944 186.186 13.8 184.566 13.584V18.588C185.682 18.48 190.794 18.3 193.494 18.3V26.076C193.494 30.72 193.458 38.064 193.35 39H199.866ZM225.278 39C225.206 38.28 225.098 35.076 225.098 34.572V31.8C225.098 27.624 226.934 24.204 229.202 22.008C231.002 20.244 233.342 18.984 235.25 18.516L233.27 13.008C230.894 13.764 228.302 15.492 226.646 17.184C224.81 19.056 223.406 21.036 222.506 23.592H222.29C221.462 20.82 219.806 18.552 218.33 16.968C216.854 15.456 214.406 13.98 212.21 13.008L209.798 18.516C211.274 19.02 212.93 19.992 214.37 21.252C216.89 23.448 219.014 27.156 219.014 31.836V33.888C219.014 34.356 218.87 38.172 218.834 39H225.278ZM247.119 27.156C247.119 34.14 252.051 39.54 260.151 39.576C271.347 39.576 275.127 30.972 275.127 25.824C275.127 17.616 269.691 13.008 261.915 13.008C252.447 13.008 247.119 20.136 247.119 27.156ZM253.851 26.796C253.851 21.216 257.199 17.652 261.411 17.652C265.227 17.652 268.395 20.496 268.359 26.004C268.323 32.304 264.219 34.932 260.835 34.932C256.767 34.932 253.851 31.872 253.851 26.796ZM287.3 39C287.228 38.496 287.228 32.736 287.228 32.16V28.956L294.572 29.064L294.464 24.564C291.404 24.672 287.876 24.888 287.228 24.888V17.868L295.148 17.688L295.004 13.044C292.196 13.188 283.16 13.584 281.036 13.584C281.108 14.484 281.18 23.16 281.18 23.736V28.524C281.18 29.388 281.18 37.092 281 39H287.3ZM311.555 27.624C311.555 28.596 311.483 37.524 311.339 39.18C321.563 39.18 335.315 34.536 335.315 23.268C335.315 20.532 333.695 15.492 323.291 14.124C320.051 13.692 316.127 13.584 311.375 13.584C311.519 14.592 311.555 22.404 311.555 23.16V27.624ZM317.603 18.12C323.687 18.084 328.655 19.668 328.655 24.384C328.655 29.388 323.579 33.204 317.603 33.924V18.12ZM340.513 39.972C341.305 38.46 343.213 34.14 343.537 33.42L355.057 32.88C355.453 33.42 358.081 38.316 358.981 39.936L364.453 36.624C362.581 33.852 353.365 18.228 349.513 12.288H349.261C346.849 16.104 336.697 34.428 335.257 36.948L340.513 39.972ZM345.409 29.244C346.093 27.84 348.541 22.764 349.261 21.36C349.801 22.476 352.429 27.372 353.185 28.884L345.409 29.244ZM377.897 39C377.825 38.28 377.645 31.836 377.645 26.652V18.3C379.229 18.3 385.889 18.48 386.573 18.588V13.584C384.809 13.8 376.961 13.944 376.277 13.944H373.145C372.749 13.944 364.217 13.8 362.597 13.584V18.588C363.713 18.48 368.825 18.3 371.525 18.3V26.076C371.525 30.72 371.489 38.064 371.381 39H377.897ZM389.591 39.972C390.383 38.46 392.291 34.14 392.615 33.42L404.135 32.88C404.531 33.42 407.159 38.316 408.059 39.936L413.531 36.624C411.659 33.852 402.443 18.228 398.591 12.288H398.339C395.927 16.104 385.775 34.428 384.335 36.948L389.591 39.972ZM394.487 29.244C395.171 27.84 397.619 22.764 398.339 21.36C398.879 22.476 401.507 27.372 402.263 28.884L394.487 29.244Z" fill="url(#paint0_linear_141_30)"/>
</g>
<mask id="mask0_141_30" style="mask-type:alpha" maskUnits="userSpaceOnUse" x="5" y="8" width="409" height="28">
<path d="M6.372 35.864C14.796 34.64 21.384 29.528 21.384 24.56C21.384 21.428 19.656 18.152 11.448 17.18L11.988 13.976L21.348 14.264L21.384 9.152C19.044 9.296 10.296 9.584 7.848 9.62L6.264 21.212C11.736 21.536 14.796 22.832 14.796 25.388C14.796 28.988 9.072 30.86 5.4 31.292L6.372 35.864ZM30.5438 30.068V35H35.7278V30.068H30.5438ZM52.5218 35.648C61.8098 34.244 65.7698 29.672 65.7698 25.892C65.7698 22.76 62.9978 21.356 60.8018 20.168C58.7858 19.088 57.0938 18.26 57.0938 17.036C57.0938 14.948 60.5858 13.796 64.1498 13.652L63.2858 8.936C55.8698 9.872 50.5058 13.904 50.5058 17.864C50.5058 20.744 52.9538 22.4 55.5458 23.876C58.3538 25.46 59.1098 26.072 59.1098 27.224C59.1098 29.348 55.0418 30.644 51.5498 30.86L52.5218 35.648ZM86.256 30.428C84.06 30.608 78.948 30.536 78.048 30.536V24.38C78.804 24.38 83.88 24.524 84.744 24.524L84.636 19.988C82.98 20.132 78.732 20.312 78.048 20.312V13.76C78.66 13.76 84.6 13.58 85.824 13.58L85.68 8.936C84.456 9.044 73.44 9.584 71.892 9.584C71.928 10.484 72 19.16 72 19.736V24.56C72 25.388 72 33.092 71.892 35C73.296 35 85.428 35.36 86.4 35.36L86.256 30.428ZM110.684 30.176C109.676 30.356 108.38 30.5 106.94 30.5C100.568 30.5 97.3643 27.476 97.3643 24.02C97.3643 19.556 101.972 15.596 109.82 14.408L108.668 9.008C96.1403 11.528 90.7043 18.872 90.7043 24.812C90.7043 29.024 94.5203 35.576 106.544 35.576C108.416 35.576 109.856 35.432 111.044 35.252L110.684 30.176ZM139.893 15.452C139.893 12.608 139.857 10.016 139.857 9.224H133.521C133.557 10.556 133.701 12.896 133.701 15.38V16.712C133.701 23.516 133.665 26.216 132.369 28.196C131.397 29.672 129.921 30.572 127.977 30.572C126.285 30.572 124.737 29.96 123.657 28.376C122.289 26.432 122.001 23.804 122.001 18.332V15.884C122.001 12.608 122.073 10.7 122.217 9.764H115.809C115.809 10.592 115.773 13.436 115.773 15.092V17.036C115.773 25.784 116.385 28.52 118.113 31.148C120.777 35.144 124.989 35.576 127.509 35.576C131.433 35.576 134.601 34.28 136.761 31.616C139.497 28.34 139.893 24.02 139.893 17.108V15.452ZM153.602 35C153.53 34.46 153.422 25.352 153.422 23.984V13.544C158.498 13.58 159.686 15.488 159.686 17.18C159.686 20.024 156.698 22.112 155.006 23.048C156.05 24.596 163.466 34.928 164.114 35.936L169.19 32.048C168.254 31.004 162.35 24.416 161.342 23.192C164.186 21.248 166.13 18.944 166.13 15.956C166.13 12.716 163.322 10.7 158.138 10.052C155.114 9.656 150.902 9.584 147.266 9.584C147.374 10.268 147.446 17.936 147.446 19.016V21.968C147.446 22.724 147.518 34.136 147.374 35H153.602ZM180.393 35C180.357 34.172 180.249 27.728 180.249 24.128V20.24C180.249 15.92 180.357 10.232 180.393 9.584H173.985C174.021 10.448 174.129 19.556 174.129 20.168V24.056C174.129 24.992 174.093 33.416 174.021 35H180.393ZM199.866 35C199.794 34.28 199.614 27.836 199.614 22.652V14.3C201.198 14.3 207.858 14.48 208.542 14.588V9.584C206.778 9.8 198.93 9.944 198.246 9.944H195.114C194.718 9.944 186.186 9.8 184.566 9.584V14.588C185.682 14.48 190.794 14.3 193.494 14.3V22.076C193.494 26.72 193.458 34.064 193.35 35H199.866ZM225.278 35C225.206 34.28 225.098 31.076 225.098 30.572V27.8C225.098 23.624 226.934 20.204 229.202 18.008C231.002 16.244 233.342 14.984 235.25 14.516L233.27 9.008C230.894 9.764 228.302 11.492 226.646 13.184C224.81 15.056 223.406 17.036 222.506 19.592H222.29C221.462 16.82 219.806 14.552 218.33 12.968C216.854 11.456 214.406 9.98 212.21 9.008L209.798 14.516C211.274 15.02 212.93 15.992 214.37 17.252C216.89 19.448 219.014 23.156 219.014 27.836V29.888C219.014 30.356 218.87 34.172 218.834 35H225.278ZM247.119 23.156C247.119 30.14 252.051 35.54 260.151 35.576C271.347 35.576 275.127 26.972 275.127 21.824C275.127 13.616 269.691 9.008 261.915 9.008C252.447 9.008 247.119 16.136 247.119 23.156ZM253.851 22.796C253.851 17.216 257.199 13.652 261.411 13.652C265.227 13.652 268.395 16.496 268.359 22.004C268.323 28.304 264.219 30.932 260.835 30.932C256.767 30.932 253.851 27.872 253.851 22.796ZM287.3 35C287.228 34.496 287.228 28.736 287.228 28.16V24.956L294.572 25.064L294.464 20.564C291.404 20.672 287.876 20.888 287.228 20.888V13.868L295.148 13.688L295.004 9.044C292.196 9.188 283.16 9.584 281.036 9.584C281.108 10.484 281.18 19.16 281.18 19.736V24.524C281.18 25.388 281.18 33.092 281 35H287.3ZM311.555 23.624C311.555 24.596 311.483 33.524 311.339 35.18C321.563 35.18 335.315 30.536 335.315 19.268C335.315 16.532 333.695 11.492 323.291 10.124C320.051 9.692 316.127 9.584 311.375 9.584C311.519 10.592 311.555 18.404 311.555 19.16V23.624ZM317.603 14.12C323.687 14.084 328.655 15.668 328.655 20.384C328.655 25.388 323.579 29.204 317.603 29.924V14.12ZM340.513 35.972C341.305 34.46 343.213 30.14 343.537 29.42L355.057 28.88C355.453 29.42 358.081 34.316 358.981 35.936L364.453 32.624C362.581 29.852 353.365 14.228 349.513 8.288H349.261C346.849 12.104 336.697 30.428 335.257 32.948L340.513 35.972ZM345.409 25.244C346.093 23.84 348.541 18.764 349.261 17.36C349.801 18.476 352.429 23.372 353.185 24.884L345.409 25.244ZM377.897 35C377.825 34.28 377.645 27.836 377.645 22.652V14.3C379.229 14.3 385.889 14.48 386.573 14.588V9.584C384.809 9.8 376.961 9.944 376.277 9.944H373.145C372.749 9.944 364.217 9.8 362.597 9.584V14.588C363.713 14.48 368.825 14.3 371.525 14.3V22.076C371.525 26.72 371.489 34.064 371.381 35H377.897ZM389.591 35.972C390.383 34.46 392.291 30.14 392.615 29.42L404.135 28.88C404.531 29.42 407.159 34.316 408.059 35.936L413.531 32.624C411.659 29.852 402.443 14.228 398.591 8.288H398.339C395.927 12.104 385.775 30.428 384.335 32.948L389.591 35.972ZM394.487 25.244C395.171 23.84 397.619 18.764 398.339 17.36C398.879 18.476 401.507 23.372 402.263 24.884L394.487 25.244Z" fill="url(#paint1_linear_141_30)"/>
</mask>
<g mask="url(#mask0_141_30)">
<g filter="url(#filter1_i_141_30)">
<path d="M6.372 35.864C14.796 34.64 21.384 29.528 21.384 24.56C21.384 21.428 19.656 18.152 11.448 17.18L11.988 13.976L21.348 14.264L21.384 9.152C19.044 9.296 10.296 9.584 7.848 9.62L6.264 21.212C11.736 21.536 14.796 22.832 14.796 25.388C14.796 28.988 9.072 30.86 5.4 31.292L6.372 35.864ZM30.5438 30.068V35H35.7278V30.068H30.5438ZM52.5218 35.648C61.8098 34.244 65.7698 29.672 65.7698 25.892C65.7698 22.76 62.9978 21.356 60.8018 20.168C58.7858 19.088 57.0938 18.26 57.0938 17.036C57.0938 14.948 60.5858 13.796 64.1498 13.652L63.2858 8.936C55.8698 9.872 50.5058 13.904 50.5058 17.864C50.5058 20.744 52.9538 22.4 55.5458 23.876C58.3538 25.46 59.1098 26.072 59.1098 27.224C59.1098 29.348 55.0418 30.644 51.5498 30.86L52.5218 35.648ZM86.256 30.428C84.06 30.608 78.948 30.536 78.048 30.536V24.38C78.804 24.38 83.88 24.524 84.744 24.524L84.636 19.988C82.98 20.132 78.732 20.312 78.048 20.312V13.76C78.66 13.76 84.6 13.58 85.824 13.58L85.68 8.936C84.456 9.044 73.44 9.584 71.892 9.584C71.928 10.484 72 19.16 72 19.736V24.56C72 25.388 72 33.092 71.892 35C73.296 35 85.428 35.36 86.4 35.36L86.256 30.428ZM110.684 30.176C109.676 30.356 108.38 30.5 106.94 30.5C100.568 30.5 97.3643 27.476 97.3643 24.02C97.3643 19.556 101.972 15.596 109.82 14.408L108.668 9.008C96.1403 11.528 90.7043 18.872 90.7043 24.812C90.7043 29.024 94.5203 35.576 106.544 35.576C108.416 35.576 109.856 35.432 111.044 35.252L110.684 30.176ZM139.893 15.452C139.893 12.608 139.857 10.016 139.857 9.224H133.521C133.557 10.556 133.701 12.896 133.701 15.38V16.712C133.701 23.516 133.665 26.216 132.369 28.196C131.397 29.672 129.921 30.572 127.977 30.572C126.285 30.572 124.737 29.96 123.657 28.376C122.289 26.432 122.001 23.804 122.001 18.332V15.884C122.001 12.608 122.073 10.7 122.217 9.764H115.809C115.809 10.592 115.773 13.436 115.773 15.092V17.036C115.773 25.784 116.385 28.52 118.113 31.148C120.777 35.144 124.989 35.576 127.509 35.576C131.433 35.576 134.601 34.28 136.761 31.616C139.497 28.34 139.893 24.02 139.893 17.108V15.452ZM153.602 35C153.53 34.46 153.422 25.352 153.422 23.984V13.544C158.498 13.58 159.686 15.488 159.686 17.18C159.686 20.024 156.698 22.112 155.006 23.048C156.05 24.596 163.466 34.928 164.114 35.936L169.19 32.048C168.254 31.004 162.35 24.416 161.342 23.192C164.186 21.248 166.13 18.944 166.13 15.956C166.13 12.716 163.322 10.7 158.138 10.052C155.114 9.656 150.902 9.584 147.266 9.584C147.374 10.268 147.446 17.936 147.446 19.016V21.968C147.446 22.724 147.518 34.136 147.374 35H153.602ZM180.393 35C180.357 34.172 180.249 27.728 180.249 24.128V20.24C180.249 15.92 180.357 10.232 180.393 9.584H173.985C174.021 10.448 174.129 19.556 174.129 20.168V24.056C174.129 24.992 174.093 33.416 174.021 35H180.393ZM199.866 35C199.794 34.28 199.614 27.836 199.614 22.652V14.3C201.198 14.3 207.858 14.48 208.542 14.588V9.584C206.778 9.8 198.93 9.944 198.246 9.944H195.114C194.718 9.944 186.186 9.8 184.566 9.584V14.588C185.682 14.48 190.794 14.3 193.494 14.3V22.076C193.494 26.72 193.458 34.064 193.35 35H199.866ZM225.278 35C225.206 34.28 225.098 31.076 225.098 30.572V27.8C225.098 23.624 226.934 20.204 229.202 18.008C231.002 16.244 233.342 14.984 235.25 14.516L233.27 9.008C230.894 9.764 228.302 11.492 226.646 13.184C224.81 15.056 223.406 17.036 222.506 19.592H222.29C221.462 16.82 219.806 14.552 218.33 12.968C216.854 11.456 214.406 9.98 212.21 9.008L209.798 14.516C211.274 15.02 212.93 15.992 214.37 17.252C216.89 19.448 219.014 23.156 219.014 27.836V29.888C219.014 30.356 218.87 34.172 218.834 35H225.278ZM247.119 23.156C247.119 30.14 252.051 35.54 260.151 35.576C271.347 35.576 275.127 26.972 275.127 21.824C275.127 13.616 269.691 9.008 261.915 9.008C252.447 9.008 247.119 16.136 247.119 23.156ZM253.851 22.796C253.851 17.216 257.199 13.652 261.411 13.652C265.227 13.652 268.395 16.496 268.359 22.004C268.323 28.304 264.219 30.932 260.835 30.932C256.767 30.932 253.851 27.872 253.851 22.796ZM287.3 35C287.228 34.496 287.228 28.736 287.228 28.16V24.956L294.572 25.064L294.464 20.564C291.404 20.672 287.876 20.888 287.228 20.888V13.868L295.148 13.688L295.004 9.044C292.196 9.188 283.16 9.584 281.036 9.584C281.108 10.484 281.18 19.16 281.18 19.736V24.524C281.18 25.388 281.18 33.092 281 35H287.3ZM311.555 23.624C311.555 24.596 311.483 33.524 311.339 35.18C321.563 35.18 335.315 30.536 335.315 19.268C335.315 16.532 333.695 11.492 323.291 10.124C320.051 9.692 316.127 9.584 311.375 9.584C311.519 10.592 311.555 18.404 311.555 19.16V23.624ZM317.603 14.12C323.687 14.084 328.655 15.668 328.655 20.384C328.655 25.388 323.579 29.204 317.603 29.924V14.12ZM340.513 35.972C341.305 34.46 343.213 30.14 343.537 29.42L355.057 28.88C355.453 29.42 358.081 34.316 358.981 35.936L364.453 32.624C362.581 29.852 353.365 14.228 349.513 8.288H349.261C346.849 12.104 336.697 30.428 335.257 32.948L340.513 35.972ZM345.409 25.244C346.093 23.84 348.541 18.764 349.261 17.36C349.801 18.476 352.429 23.372 353.185 24.884L345.409 25.244ZM377.897 35C377.825 34.28 377.645 27.836 377.645 22.652V14.3C379.229 14.3 385.889 14.48 386.573 14.588V9.584C384.809 9.8 376.961 9.944 376.277 9.944H373.145C372.749 9.944 364.217 9.8 362.597 9.584V14.588C363.713 14.48 368.825 14.3 371.525 14.3V22.076C371.525 26.72 371.489 34.064 371.381 35H377.897ZM389.591 35.972C390.383 34.46 392.291 30.14 392.615 29.42L404.135 28.88C404.531 29.42 407.159 34.316 408.059 35.936L413.531 32.624C411.659 29.852 402.443 14.228 398.591 8.288H398.339C395.927 12.104 385.775 30.428 384.335 32.948L389.591 35.972ZM394.487 25.244C395.171 23.84 397.619 18.764 398.339 17.36C398.879 18.476 401.507 23.372 402.263 24.884L394.487 25.244Z" fill="url(#paint2_linear_141_30)"/>
</g>
<g style="mix-blend-mode:color-dodge" filter="url(#filter2_f_141_30)">
<circle cx="343.018" cy="-0.757458" r="41.0164" fill="#0094FF"/>
</g>
<g style="mix-blend-mode:color-dodge" filter="url(#filter3_f_141_30)">
<circle cx="225.438" cy="-10.328" r="41.0164" fill="#0094FF"/>
</g>
<g style="mix-blend-mode:color-dodge" filter="url(#filter4_f_141_30)">
<circle cx="87.3494" cy="-6.22645" r="41.0164" fill="#0094FF"/>
</g>
</g>
<defs>
<filter id="filter0_i_141_30" x="5.3999" y="12.288" width="408.131" height="27.684" filterUnits="userSpaceOnUse" color-interpolation-filters="sRGB">
<feFlood flood-opacity="0" result="BackgroundImageFix"/>
<feBlend mode="normal" in="SourceGraphic" in2="BackgroundImageFix" result="shape"/>
<feColorMatrix in="SourceAlpha" type="matrix" values="0 0 0 0 0 0 0 0 0 0 0 0 0 0 0 0 0 0 127 0" result="hardAlpha"/>
<feOffset dy="-1.36721"/>
<feComposite in2="hardAlpha" operator="arithmetic" k2="-1" k3="1"/>
<feColorMatrix type="matrix" values="0 0 0 0 1 0 0 0 0 1 0 0 0 0 1 0 0 0 1 0"/>
<feBlend mode="normal" in2="shape" result="effect1_innerShadow_141_30"/>
</filter>
<filter id="filter1_i_141_30" x="5.3999" y="8.28802" width="408.131" height="27.684" filterUnits="userSpaceOnUse" color-interpolation-filters="sRGB">
<feFlood flood-opacity="0" result="BackgroundImageFix"/>
<feBlend mode="normal" in="SourceGraphic" in2="BackgroundImageFix" result="shape"/>
<feColorMatrix in="SourceAlpha" type="matrix" values="0 0 0 0 0 0 0 0 0 0 0 0 0 0 0 0 0 0 127 0" result="hardAlpha"/>
<feOffset dy="-1.36721"/>
<feComposite in2="hardAlpha" operator="arithmetic" k2="-1" k3="1"/>
<feColorMatrix type="matrix" values="0 0 0 0 1 0 0 0 0 1 0 0 0 0 1 0 0 0 1 0"/>
<feBlend mode="normal" in2="shape" result="effect1_innerShadow_141_30"/>
</filter>
<filter id="filter2_f_141_30" x="261.669" y="-82.1067" width="162.698" height="162.698" filterUnits="userSpaceOnUse" color-interpolation-filters="sRGB">
<feFlood flood-opacity="0" result="BackgroundImageFix"/>
<feBlend mode="normal" in="SourceGraphic" in2="BackgroundImageFix" result="shape"/>
<feGaussianBlur stdDeviation="20.1664" result="effect1_foregroundBlur_141_30"/>
</filter>
<filter id="filter3_f_141_30" x="144.089" y="-91.6772" width="162.698" height="162.698" filterUnits="userSpaceOnUse" color-interpolation-filters="sRGB">
<feFlood flood-opacity="0" result="BackgroundImageFix"/>
<feBlend mode="normal" in="SourceGraphic" in2="BackgroundImageFix" result="shape"/>
<feGaussianBlur stdDeviation="20.1664" result="effect1_foregroundBlur_141_30"/>
</filter>
<filter id="filter4_f_141_30" x="6.00021" y="-87.5757" width="162.698" height="162.698" filterUnits="userSpaceOnUse" color-interpolation-filters="sRGB">
<feFlood flood-opacity="0" result="BackgroundImageFix"/>
<feBlend mode="normal" in="SourceGraphic" in2="BackgroundImageFix" result="shape"/>
<feGaussianBlur stdDeviation="20.1664" result="effect1_foregroundBlur_141_30"/>
</filter>
<linearGradient id="paint0_linear_141_30" x1="7.55151" y1="3.99997" x2="410.345" y2="114.027" gradientUnits="userSpaceOnUse">
<stop stop-color="#00538F"/>
<stop offset="1" stop-color="#005FA4"/>
</linearGradient>
<linearGradient id="paint1_linear_141_30" x1="7.55151" y1="-3.3335e-05" x2="410.345" y2="110.027" gradientUnits="userSpaceOnUse">
<stop stop-color="#3AACFF"/>
<stop offset="1" stop-color="#0094FF"/>
</linearGradient>
<linearGradient id="paint2_linear_141_30" x1="7.55151" y1="-3.3335e-05" x2="410.345" y2="110.027" gradientUnits="userSpaceOnUse">
<stop stop-color="#3AACFF"/>
<stop offset="1" stop-color="#0094FF"/>
</linearGradient>
</defs>
</svg>
