<svg width="916" height="155" viewBox="0 0 916 155" fill="none" xmlns="http://www.w3.org/2000/svg">
<g filter="url(#filter0_i_124_2263)">
<path d="M32.6046 104C32.4058 101.913 32.4058 91.0774 32.4058 89.0894V86.4054C56.4616 82.4293 68.4895 68.4133 68.4895 55.4907C68.4895 44.258 59.742 38.3932 49.8015 35.9081C41.551 33.92 29.4237 33.423 10.4374 33.423C10.4374 34.914 10.7357 55.4907 10.7357 57.777V68.7115C10.7357 75.7692 10.5369 99.7256 10.4374 104H32.6046ZM32.4058 47.3396C43.042 48.1348 45.9248 52.7074 45.9248 58.274C45.9248 66.5246 38.1712 71.4948 32.4058 72.3894V47.3396ZM103.464 47.1408C114.2 47.2402 117.48 51.7134 117.48 56.3854C117.48 63.0454 110.423 68.5127 106.049 71.0972C108.733 75.471 128.017 103.404 130.303 107.181L148.494 93.4631C145.91 90.2822 130.701 74.8746 127.719 71.4948C135.472 66.0276 140.542 59.7651 140.542 51.614C140.542 42.4688 132.59 36.7033 117.878 34.8146C108.932 33.6218 95.1143 33.423 81.496 33.423C81.7942 35.3117 81.993 56.8824 81.993 59.8645V68.0157C81.993 70.1031 82.1918 101.614 81.7942 104H103.961C103.763 102.509 103.464 77.3597 103.464 73.5823V47.1408ZM181.237 63.2443C181.237 51.3157 181.535 35.2122 181.635 33.423H158.573C158.573 35.8087 158.871 61.3556 158.871 63.0454V73.7811C158.871 76.3656 158.772 99.6262 158.573 104H181.635C181.535 101.714 181.237 83.9203 181.237 73.9799V63.2443ZM252.749 31.3355C251.358 34.5164 235.851 65.7294 232.868 72.4888C229.787 65.8288 215.572 35.8087 213.485 31.3355L192.113 42.9658C195.393 48.2342 220.741 92.2703 231.079 108.175H232.073C239.628 96.7435 269.946 47.6378 273.724 42.1705L252.749 31.3355ZM283.124 107.181C285.31 102.509 288.889 94.7554 289.684 93.3637L319.605 91.6739C320.599 93.3637 325.669 102.211 328.551 107.082L348.233 95.4512C344.058 89.7852 317.319 47.7372 305.39 29.745H304.396C294.754 44.9539 267.219 91.5745 264.237 96.6441L283.124 107.181ZM296.046 78.6519C298.631 73.0853 302.11 65.7294 304.495 60.958C306.285 65.0335 310.062 72.0912 312.845 77.7573L296.046 78.6519ZM407.053 86.6043C404.668 86.8031 401.487 87.1013 397.511 87.1013C384.29 87.1013 375.94 80.8388 375.94 73.1847C375.94 63.8407 384.389 54.6955 405.364 50.9181L400.99 31.8325C366.695 39.1884 351.685 59.1687 351.685 75.6698C351.685 88.99 363.713 105.59 396.318 105.59C400.99 105.59 404.568 105.193 408.047 104.795L407.053 86.6043ZM459.937 104C459.738 102.012 459.44 93.1649 459.44 91.7733V85.312C459.44 73.9799 464.609 64.6359 470.573 59.7651C475.145 55.8883 481.209 53.2044 485.583 52.3098L479.32 31.8325C471.666 34.0194 465.404 37.7968 460.632 42.3694C455.861 46.942 451.885 52.2104 449.698 58.8705H448.903C446.517 51.1169 442.938 45.9479 439.26 42.27C434.191 37.2003 427.233 34.0194 420.572 31.8325L412.918 52.3098C416.099 53.2044 420.175 54.7949 424.151 57.4788C431.507 62.3496 437.074 72.6877 437.074 85.5108V89.8846C437.074 91.1768 436.676 101.714 436.577 104H459.937ZM545.837 104C545.639 101.913 545.639 91.0774 545.639 89.0894V86.4054C569.694 82.4293 581.722 68.4133 581.722 55.4907C581.722 44.258 572.975 38.3932 563.034 35.9081C554.784 33.92 542.656 33.423 523.67 33.423C523.67 34.914 523.968 55.4907 523.968 57.777V68.7115C523.968 75.7692 523.77 99.7256 523.67 104H545.837ZM545.639 47.3396C556.275 48.1348 559.157 52.7074 559.157 58.274C559.157 66.5246 551.404 71.4948 545.639 72.3894V47.3396ZM626.637 105.59C659.938 105.69 669.978 81.8328 669.978 66.8228C669.978 44.9539 655.167 31.8325 631.508 31.8325C602.184 31.8325 588.267 52.4092 588.267 71.5942C588.267 87.4989 600.097 105.59 626.637 105.59ZM627.731 90.1828C619.58 90.1828 612.522 83.4233 612.522 70.1031C612.522 57.9758 618.884 47.2402 630.216 47.2402C639.759 47.2402 645.723 54.6955 645.624 67.5186C645.524 82.3299 638.467 90.1828 627.731 90.1828ZM683.841 33.423C684.04 35.3117 684.238 60.2621 684.238 61.8526V75.0734C684.238 77.4591 684.238 98.7316 683.94 104C691.892 104 726.386 104.994 728.771 104.994L728.672 86.5048C720.72 86.9025 708.99 86.9025 706.604 86.9025V68.7115C706.604 56.1865 707.002 35.7093 707.101 33.423H683.841ZM764.752 63.2443C764.752 51.3157 765.05 35.2122 765.15 33.423H742.088C742.088 35.8087 742.386 61.3556 742.386 63.0454V73.7811C742.386 76.3656 742.287 99.6262 742.088 104H765.15C765.05 101.714 764.752 83.9203 764.752 73.9799V63.2443ZM833.89 86.6043C831.504 86.8031 828.323 87.1013 824.347 87.1013C811.126 87.1013 802.776 80.8388 802.776 73.1847C802.776 63.8407 811.226 54.6955 832.2 50.9181L827.826 31.8325C793.532 39.1884 778.522 59.1687 778.522 75.6698C778.522 88.99 790.55 105.59 823.154 105.59C827.826 105.59 831.405 105.193 834.884 104.795L833.89 86.6043ZM886.773 104C886.574 102.012 886.276 93.1649 886.276 91.7733V85.312C886.276 73.9799 891.445 64.6359 897.409 59.7651C901.982 55.8883 908.045 53.2044 912.419 52.3098L906.157 31.8325C898.503 34.0194 892.24 37.7968 887.469 42.3694C882.697 46.942 878.721 52.2104 876.534 58.8705H875.739C873.353 51.1169 869.775 45.9479 866.097 42.27C861.027 37.2003 854.069 34.0194 847.409 31.8325L839.755 52.3098C842.936 53.2044 847.011 54.7949 850.987 57.4788C858.343 62.3496 863.91 72.6877 863.91 85.5108V89.8846C863.91 91.1768 863.512 101.714 863.413 104H886.773Z" fill="url(#paint0_linear_124_2263)"/>
</g>
<mask id="mask0_124_2263" style="mask-type:alpha" maskUnits="userSpaceOnUse" x="10" y="21" width="903" height="80">
<path d="M32.6046 96C32.4058 93.9125 32.4058 83.0774 32.4058 81.0894V78.4054C56.4616 74.4293 68.4895 60.4133 68.4895 47.4907C68.4895 36.258 59.742 30.3932 49.8015 27.9081C41.551 25.92 29.4237 25.423 10.4374 25.423C10.4374 26.914 10.7357 47.4907 10.7357 49.777V60.7115C10.7357 67.7692 10.5369 91.7256 10.4374 96H32.6046ZM32.4058 39.3396C43.042 40.1348 45.9248 44.7074 45.9248 50.274C45.9248 58.5246 38.1712 63.4948 32.4058 64.3894V39.3396ZM103.464 39.1408C114.2 39.2402 117.48 43.7134 117.48 48.3854C117.48 55.0454 110.423 60.5127 106.049 63.0972C108.733 67.471 128.017 95.4036 130.303 99.1809L148.494 85.4631C145.91 82.2822 130.701 66.8746 127.719 63.4948C135.472 58.0276 140.542 51.7651 140.542 43.614C140.542 34.4688 132.59 28.7033 117.878 26.8146C108.932 25.6218 95.1143 25.423 81.496 25.423C81.7942 27.3117 81.993 48.8824 81.993 51.8645V60.0157C81.993 62.1031 82.1918 93.6143 81.7942 96H103.961C103.763 94.5089 103.464 69.3597 103.464 65.5823V39.1408ZM181.237 55.2443C181.237 43.3157 181.535 27.2122 181.635 25.423H158.573C158.573 27.8087 158.871 53.3556 158.871 55.0454V65.7811C158.871 68.3656 158.772 91.6262 158.573 96H181.635C181.535 93.7137 181.237 75.9203 181.237 65.9799V55.2443ZM252.749 23.3355C251.358 26.5164 235.851 57.7294 232.868 64.4888C229.787 57.8288 215.572 27.8087 213.485 23.3355L192.113 34.9658C195.393 40.2342 220.741 84.2703 231.079 100.175H232.073C239.628 88.7435 269.946 39.6378 273.724 34.1705L252.749 23.3355ZM283.124 99.1809C285.31 94.5089 288.889 86.7554 289.684 85.3637L319.605 83.6739C320.599 85.3637 325.669 94.2107 328.551 99.0815L348.233 87.4512C344.058 81.7852 317.319 39.7372 305.39 21.745H304.396C294.754 36.9539 267.219 83.5745 264.237 88.6441L283.124 99.1809ZM296.046 70.6519C298.631 65.0853 302.11 57.7294 304.495 52.958C306.285 57.0335 310.062 64.0912 312.845 69.7573L296.046 70.6519ZM407.053 78.6043C404.668 78.8031 401.487 79.1013 397.511 79.1013C384.29 79.1013 375.94 72.8388 375.94 65.1847C375.94 55.8407 384.389 46.6955 405.364 42.9181L400.99 23.8325C366.695 31.1884 351.685 51.1687 351.685 67.6698C351.685 80.99 363.713 97.5905 396.318 97.5905C400.99 97.5905 404.568 97.1929 408.047 96.7952L407.053 78.6043ZM459.937 96C459.738 94.0119 459.44 85.1649 459.44 83.7733V77.312C459.44 65.9799 464.609 56.6359 470.573 51.7651C475.145 47.8883 481.209 45.2044 485.583 44.3098L479.32 23.8325C471.666 26.0194 465.404 29.7968 460.632 34.3694C455.861 38.942 451.885 44.2104 449.698 50.8705H448.903C446.517 43.1169 442.938 37.9479 439.26 34.27C434.191 29.2003 427.233 26.0194 420.572 23.8325L412.918 44.3098C416.099 45.2044 420.175 46.7949 424.151 49.4788C431.507 54.3496 437.074 64.6877 437.074 77.5108V81.8846C437.074 83.1768 436.676 93.7137 436.577 96H459.937ZM545.837 96C545.639 93.9125 545.639 83.0774 545.639 81.0894V78.4054C569.694 74.4293 581.722 60.4133 581.722 47.4907C581.722 36.258 572.975 30.3932 563.034 27.9081C554.784 25.92 542.656 25.423 523.67 25.423C523.67 26.914 523.968 47.4907 523.968 49.777V60.7115C523.968 67.7692 523.77 91.7256 523.67 96H545.837ZM545.639 39.3396C556.275 40.1348 559.157 44.7074 559.157 50.274C559.157 58.5246 551.404 63.4948 545.639 64.3894V39.3396ZM626.637 97.5905C659.938 97.6899 669.978 73.8328 669.978 58.8228C669.978 36.9539 655.167 23.8325 631.508 23.8325C602.184 23.8325 588.267 44.4092 588.267 63.5942C588.267 79.4989 600.097 97.5905 626.637 97.5905ZM627.731 82.1828C619.58 82.1828 612.522 75.4233 612.522 62.1031C612.522 49.9758 618.884 39.2402 630.216 39.2402C639.759 39.2402 645.723 46.6955 645.624 59.5186C645.524 74.3299 638.467 82.1828 627.731 82.1828ZM683.841 25.423C684.04 27.3117 684.238 52.2621 684.238 53.8526V67.0734C684.238 69.4591 684.238 90.7316 683.94 96C691.892 96 726.386 96.994 728.771 96.994L728.672 78.5048C720.72 78.9025 708.99 78.9025 706.604 78.9025V60.7115C706.604 48.1865 707.002 27.7093 707.101 25.423H683.841ZM764.752 55.2443C764.752 43.3157 765.05 27.2122 765.15 25.423H742.088C742.088 27.8087 742.386 53.3556 742.386 55.0454V65.7811C742.386 68.3656 742.287 91.6262 742.088 96H765.15C765.05 93.7137 764.752 75.9203 764.752 65.9799V55.2443ZM833.89 78.6043C831.504 78.8031 828.323 79.1013 824.347 79.1013C811.126 79.1013 802.776 72.8388 802.776 65.1847C802.776 55.8407 811.226 46.6955 832.2 42.9181L827.826 23.8325C793.532 31.1884 778.522 51.1687 778.522 67.6698C778.522 80.99 790.55 97.5905 823.154 97.5905C827.826 97.5905 831.405 97.1929 834.884 96.7952L833.89 78.6043ZM886.773 96C886.574 94.0119 886.276 85.1649 886.276 83.7733V77.312C886.276 65.9799 891.445 56.6359 897.409 51.7651C901.982 47.8883 908.045 45.2044 912.419 44.3098L906.157 23.8325C898.503 26.0194 892.24 29.7968 887.469 34.3694C882.697 38.942 878.721 44.2104 876.534 50.8705H875.739C873.353 43.1169 869.775 37.9479 866.097 34.27C861.027 29.2003 854.069 26.0194 847.409 23.8325L839.755 44.3098C842.936 45.2044 847.011 46.7949 850.987 49.4788C858.343 54.3496 863.91 64.6877 863.91 77.5108V81.8846C863.91 83.1768 863.512 93.7137 863.413 96H886.773Z" fill="url(#paint1_linear_124_2263)"/>
</mask>
<g mask="url(#mask0_124_2263)">
<g filter="url(#filter1_i_124_2263)">
<path d="M32.6046 96C32.4058 93.9125 32.4058 83.0774 32.4058 81.0894V78.4054C56.4616 74.4293 68.4895 60.4133 68.4895 47.4907C68.4895 36.258 59.742 30.3932 49.8015 27.9081C41.551 25.92 29.4237 25.423 10.4374 25.423C10.4374 26.914 10.7357 47.4907 10.7357 49.777V60.7115C10.7357 67.7692 10.5369 91.7256 10.4374 96H32.6046ZM32.4058 39.3396C43.042 40.1348 45.9248 44.7074 45.9248 50.274C45.9248 58.5246 38.1712 63.4948 32.4058 64.3894V39.3396ZM103.464 39.1408C114.2 39.2402 117.48 43.7134 117.48 48.3854C117.48 55.0454 110.423 60.5127 106.049 63.0972C108.733 67.471 128.017 95.4036 130.303 99.1809L148.494 85.4631C145.91 82.2822 130.701 66.8746 127.719 63.4948C135.472 58.0276 140.542 51.7651 140.542 43.614C140.542 34.4688 132.59 28.7033 117.878 26.8146C108.932 25.6218 95.1143 25.423 81.496 25.423C81.7942 27.3117 81.993 48.8824 81.993 51.8645V60.0157C81.993 62.1031 82.1918 93.6143 81.7942 96H103.961C103.763 94.5089 103.464 69.3597 103.464 65.5823V39.1408ZM181.237 55.2443C181.237 43.3157 181.535 27.2122 181.635 25.423H158.573C158.573 27.8087 158.871 53.3556 158.871 55.0454V65.7811C158.871 68.3656 158.772 91.6262 158.573 96H181.635C181.535 93.7137 181.237 75.9203 181.237 65.9799V55.2443ZM252.749 23.3355C251.358 26.5164 235.851 57.7294 232.868 64.4888C229.787 57.8288 215.572 27.8087 213.485 23.3355L192.113 34.9658C195.393 40.2342 220.741 84.2703 231.079 100.175H232.073C239.628 88.7435 269.946 39.6378 273.724 34.1705L252.749 23.3355ZM283.124 99.1809C285.31 94.5089 288.889 86.7554 289.684 85.3637L319.605 83.6739C320.599 85.3637 325.669 94.2107 328.551 99.0815L348.233 87.4512C344.058 81.7852 317.319 39.7372 305.39 21.745H304.396C294.754 36.9539 267.219 83.5745 264.237 88.6441L283.124 99.1809ZM296.046 70.6519C298.631 65.0853 302.11 57.7294 304.495 52.958C306.285 57.0335 310.062 64.0912 312.845 69.7573L296.046 70.6519ZM407.053 78.6043C404.668 78.8031 401.487 79.1013 397.511 79.1013C384.29 79.1013 375.94 72.8388 375.94 65.1847C375.94 55.8407 384.389 46.6955 405.364 42.9181L400.99 23.8325C366.695 31.1884 351.685 51.1687 351.685 67.6698C351.685 80.99 363.713 97.5905 396.318 97.5905C400.99 97.5905 404.568 97.1929 408.047 96.7952L407.053 78.6043ZM459.937 96C459.738 94.0119 459.44 85.1649 459.44 83.7733V77.312C459.44 65.9799 464.609 56.6359 470.573 51.7651C475.145 47.8883 481.209 45.2044 485.583 44.3098L479.32 23.8325C471.666 26.0194 465.404 29.7968 460.632 34.3694C455.861 38.942 451.885 44.2104 449.698 50.8705H448.903C446.517 43.1169 442.938 37.9479 439.26 34.27C434.191 29.2003 427.233 26.0194 420.572 23.8325L412.918 44.3098C416.099 45.2044 420.175 46.7949 424.151 49.4788C431.507 54.3496 437.074 64.6877 437.074 77.5108V81.8846C437.074 83.1768 436.676 93.7137 436.577 96H459.937ZM545.837 96C545.639 93.9125 545.639 83.0774 545.639 81.0894V78.4054C569.694 74.4293 581.722 60.4133 581.722 47.4907C581.722 36.258 572.975 30.3932 563.034 27.9081C554.784 25.92 542.656 25.423 523.67 25.423C523.67 26.914 523.968 47.4907 523.968 49.777V60.7115C523.968 67.7692 523.77 91.7256 523.67 96H545.837ZM545.639 39.3396C556.275 40.1348 559.157 44.7074 559.157 50.274C559.157 58.5246 551.404 63.4948 545.639 64.3894V39.3396ZM626.637 97.5905C659.938 97.6899 669.978 73.8328 669.978 58.8228C669.978 36.9539 655.167 23.8325 631.508 23.8325C602.184 23.8325 588.267 44.4092 588.267 63.5942C588.267 79.4989 600.097 97.5905 626.637 97.5905ZM627.731 82.1828C619.58 82.1828 612.522 75.4233 612.522 62.1031C612.522 49.9758 618.884 39.2402 630.216 39.2402C639.759 39.2402 645.723 46.6955 645.624 59.5186C645.524 74.3299 638.467 82.1828 627.731 82.1828ZM683.841 25.423C684.04 27.3117 684.238 52.2621 684.238 53.8526V67.0734C684.238 69.4591 684.238 90.7316 683.94 96C691.892 96 726.386 96.994 728.771 96.994L728.672 78.5048C720.72 78.9025 708.99 78.9025 706.604 78.9025V60.7115C706.604 48.1865 707.002 27.7093 707.101 25.423H683.841ZM764.752 55.2443C764.752 43.3157 765.05 27.2122 765.15 25.423H742.088C742.088 27.8087 742.386 53.3556 742.386 55.0454V65.7811C742.386 68.3656 742.287 91.6262 742.088 96H765.15C765.05 93.7137 764.752 75.9203 764.752 65.9799V55.2443ZM833.89 78.6043C831.504 78.8031 828.323 79.1013 824.347 79.1013C811.126 79.1013 802.776 72.8388 802.776 65.1847C802.776 55.8407 811.226 46.6955 832.2 42.9181L827.826 23.8325C793.532 31.1884 778.522 51.1687 778.522 67.6698C778.522 80.99 790.55 97.5905 823.154 97.5905C827.826 97.5905 831.405 97.1929 834.884 96.7952L833.89 78.6043ZM886.773 96C886.574 94.0119 886.276 85.1649 886.276 83.7733V77.312C886.276 65.9799 891.445 56.6359 897.409 51.7651C901.982 47.8883 908.045 45.2044 912.419 44.3098L906.157 23.8325C898.503 26.0194 892.24 29.7968 887.469 34.3694C882.697 38.942 878.721 44.2104 876.534 50.8705H875.739C873.353 43.1169 869.775 37.9479 866.097 34.27C861.027 29.2003 854.069 26.0194 847.409 23.8325L839.755 44.3098C842.936 45.2044 847.011 46.7949 850.987 49.4788C858.343 54.3496 863.91 64.6877 863.91 77.5108V81.8846C863.91 83.1768 863.512 93.7137 863.413 96H886.773Z" fill="url(#paint2_linear_124_2263)"/>
</g>
<g style="mix-blend-mode:color-dodge" filter="url(#filter2_f_124_2263)">
<circle cx="763" cy="20" r="60" fill="#0094FF"/>
</g>
<g style="mix-blend-mode:color-dodge" filter="url(#filter3_f_124_2263)">
<circle cx="493" cy="34" r="60" fill="#0094FF"/>
</g>
<g style="mix-blend-mode:color-dodge" filter="url(#filter4_f_124_2263)">
<circle cx="321" cy="20" r="60" fill="#0094FF"/>
</g>
<g style="mix-blend-mode:color-dodge" filter="url(#filter5_f_124_2263)">
<circle cx="119" cy="26" r="60" fill="#0094FF"/>
</g>
</g>
<defs>
<filter id="filter0_i_124_2263" x="10.4375" y="29.745" width="901.982" height="78.4299" filterUnits="userSpaceOnUse" color-interpolation-filters="sRGB">
<feFlood flood-opacity="0" result="BackgroundImageFix"/>
<feBlend mode="normal" in="SourceGraphic" in2="BackgroundImageFix" result="shape"/>
<feColorMatrix in="SourceAlpha" type="matrix" values="0 0 0 0 0 0 0 0 0 0 0 0 0 0 0 0 0 0 127 0" result="hardAlpha"/>
<feOffset dy="-2"/>
<feComposite in2="hardAlpha" operator="arithmetic" k2="-1" k3="1"/>
<feColorMatrix type="matrix" values="0 0 0 0 1 0 0 0 0 1 0 0 0 0 1 0 0 0 1 0"/>
<feBlend mode="normal" in2="shape" result="effect1_innerShadow_124_2263"/>
</filter>
<filter id="filter1_i_124_2263" x="10.4375" y="21.7451" width="901.982" height="78.4298" filterUnits="userSpaceOnUse" color-interpolation-filters="sRGB">
<feFlood flood-opacity="0" result="BackgroundImageFix"/>
<feBlend mode="normal" in="SourceGraphic" in2="BackgroundImageFix" result="shape"/>
<feColorMatrix in="SourceAlpha" type="matrix" values="0 0 0 0 0 0 0 0 0 0 0 0 0 0 0 0 0 0 127 0" result="hardAlpha"/>
<feOffset dy="-2"/>
<feComposite in2="hardAlpha" operator="arithmetic" k2="-1" k3="1"/>
<feColorMatrix type="matrix" values="0 0 0 0 1 0 0 0 0 1 0 0 0 0 1 0 0 0 1 0"/>
<feBlend mode="normal" in2="shape" result="effect1_innerShadow_124_2263"/>
</filter>
<filter id="filter2_f_124_2263" x="644" y="-99" width="238" height="238" filterUnits="userSpaceOnUse" color-interpolation-filters="sRGB">
<feFlood flood-opacity="0" result="BackgroundImageFix"/>
<feBlend mode="normal" in="SourceGraphic" in2="BackgroundImageFix" result="shape"/>
<feGaussianBlur stdDeviation="29.5" result="effect1_foregroundBlur_124_2263"/>
</filter>
<filter id="filter3_f_124_2263" x="374" y="-85" width="238" height="238" filterUnits="userSpaceOnUse" color-interpolation-filters="sRGB">
<feFlood flood-opacity="0" result="BackgroundImageFix"/>
<feBlend mode="normal" in="SourceGraphic" in2="BackgroundImageFix" result="shape"/>
<feGaussianBlur stdDeviation="29.5" result="effect1_foregroundBlur_124_2263"/>
</filter>
<filter id="filter4_f_124_2263" x="202" y="-99" width="238" height="238" filterUnits="userSpaceOnUse" color-interpolation-filters="sRGB">
<feFlood flood-opacity="0" result="BackgroundImageFix"/>
<feBlend mode="normal" in="SourceGraphic" in2="BackgroundImageFix" result="shape"/>
<feGaussianBlur stdDeviation="29.5" result="effect1_foregroundBlur_124_2263"/>
</filter>
<filter id="filter5_f_124_2263" x="0" y="-93" width="238" height="238" filterUnits="userSpaceOnUse" color-interpolation-filters="sRGB">
<feFlood flood-opacity="0" result="BackgroundImageFix"/>
<feBlend mode="normal" in="SourceGraphic" in2="BackgroundImageFix" result="shape"/>
<feGaussianBlur stdDeviation="29.5" result="effect1_foregroundBlur_124_2263"/>
</filter>
<linearGradient id="paint0_linear_124_2263" x1="16.7082" y1="7.99991" x2="930.997" y2="207.231" gradientUnits="userSpaceOnUse">
<stop stop-color="#00538F"/>
<stop offset="1" stop-color="#005FA4"/>
</linearGradient>
<linearGradient id="paint1_linear_124_2263" x1="16.7082" y1="-9.24576e-05" x2="930.997" y2="199.231" gradientUnits="userSpaceOnUse">
<stop stop-color="#3AACFF"/>
<stop offset="1" stop-color="#0094FF"/>
</linearGradient>
<linearGradient id="paint2_linear_124_2263" x1="16.7082" y1="-9.24576e-05" x2="930.997" y2="199.231" gradientUnits="userSpaceOnUse">
<stop stop-color="#3AACFF"/>
<stop offset="1" stop-color="#0094FF"/>
</linearGradient>
</defs>
</svg>
