<svg width="482" height="57" viewBox="0 0 482 57" fill="none" xmlns="http://www.w3.org/2000/svg">
<g filter="url(#filter0_i_141_48)">
<path d="M13.104 39.9C13.968 37.38 22.068 16.968 23.292 13.98L23.04 13.584C18.252 13.62 7.668 13.332 4.536 13.26L4.68 18.336L16.308 18.372C15.84 19.524 8.208 36.012 7.416 37.416L13.104 39.9ZM30.5438 34.068V39H35.7278V34.068H30.5438ZM66.9218 34.14C63.8258 34.284 59.5778 34.284 58.7138 34.284V26.22C58.7138 21.684 58.8578 14.412 58.9298 13.584H52.4498C52.5218 14.268 52.5938 23.16 52.5938 23.736V28.524C52.5938 29.388 52.5938 37.092 52.4138 39C54.5018 39 66.2378 39.36 66.9578 39.36L66.9218 34.14ZM79.1781 39C79.1421 38.172 79.0341 31.728 79.0341 28.128V24.24C79.0341 19.92 79.1421 14.232 79.1781 13.584H72.7701C72.8061 14.448 72.9141 23.556 72.9141 24.168V28.056C72.9141 28.992 72.8781 37.416 72.8061 39H79.1781ZM92.5312 39.252C92.4953 38.064 92.6753 24.816 92.6753 23.592H92.7473C93.2153 24.24 108.371 37.668 111.251 39.72L111.539 39.612C111.647 36.372 111.863 30.936 112.151 25.752C112.403 20.568 112.691 15.672 112.835 13.584L107.147 13.404C107.111 14.808 107.003 27.408 107.003 28.884C105.851 27.768 91.8833 15.456 88.4993 12.756L88.2113 12.864C88.0673 15.024 87.7793 20.928 87.4913 26.58C87.2033 32.232 86.9153 37.668 86.8073 39L92.5312 39.252ZM126.779 39.36C126.707 38.676 126.599 30.612 126.599 27.84V26.652H126.779C129.083 29.676 137.147 38.928 137.651 39.576L142.295 35.328C140.855 33.816 134.195 27.156 132.971 25.752C134.879 23.772 140.207 18.804 141.575 17.364L137.291 13.332C136.463 14.304 128.795 22.8 126.779 25.176H126.599V23.952C126.599 20.82 126.743 13.8 126.779 13.224H120.407C120.407 14.052 120.551 21.18 120.551 24.312V28.128C120.551 32.232 120.443 38.316 120.407 39.36H126.779ZM148.006 39.648C157.294 38.244 161.254 33.672 161.254 29.892C161.254 26.76 158.482 25.356 156.286 24.168C154.27 23.088 152.578 22.26 152.578 21.036C152.578 18.948 156.07 17.796 159.634 17.652L158.77 12.936C151.354 13.872 145.99 17.904 145.99 21.864C145.99 24.744 148.438 26.4 151.03 27.876C153.838 29.46 154.594 30.072 154.594 31.224C154.594 33.348 150.526 34.644 147.034 34.86L148.006 39.648ZM187.808 39C187.736 38.28 187.556 31.836 187.556 26.652V18.3C189.14 18.3 195.8 18.48 196.484 18.588V13.584C194.72 13.8 186.872 13.944 186.188 13.944H183.056C182.66 13.944 174.128 13.8 172.507 13.584V18.588C173.624 18.48 178.736 18.3 181.436 18.3V26.076C181.436 30.72 181.4 38.064 181.292 39H187.808ZM196.775 27.156C196.775 34.14 201.707 39.54 209.807 39.576C221.003 39.576 224.783 30.972 224.783 25.824C224.783 17.616 219.347 13.008 211.571 13.008C202.103 13.008 196.775 20.136 196.775 27.156ZM203.507 26.796C203.507 21.216 206.855 17.652 211.067 17.652C214.883 17.652 218.051 20.496 218.015 26.004C217.979 32.304 213.875 34.932 210.491 34.932C206.423 34.932 203.507 31.872 203.507 26.796ZM237.943 27.156C237.943 34.14 242.875 39.54 250.975 39.576C262.171 39.576 265.951 30.972 265.951 25.824C265.951 17.616 260.515 13.008 252.739 13.008C243.271 13.008 237.943 20.136 237.943 27.156ZM244.675 26.796C244.675 21.216 248.023 17.652 252.235 17.652C256.051 17.652 259.219 20.496 259.183 26.004C259.147 32.304 255.043 34.932 251.659 34.932C247.591 34.932 244.675 31.872 244.675 26.796ZM282.8 39C282.728 38.28 282.548 31.836 282.548 26.652V18.3C284.132 18.3 290.792 18.48 291.476 18.588V13.584C289.712 13.8 281.864 13.944 281.18 13.944H278.048C277.652 13.944 269.12 13.8 267.5 13.584V18.588C268.616 18.48 273.728 18.3 276.428 18.3V26.076C276.428 30.72 276.392 38.064 276.284 39H282.8ZM302.069 39C302.033 38.172 301.925 31.872 301.925 30.252V28.56L314.021 27.876V31.008C314.021 31.692 313.913 37.776 313.841 39H320.285C320.213 38.316 320.141 29.316 320.141 28.848V25.248C320.141 24.384 320.249 14.448 320.321 13.584H313.877C313.949 14.376 314.021 20.64 314.021 21.252V23.304L301.925 23.988V22.008C301.925 21.36 302.033 14.232 302.105 13.584H295.625C295.697 14.448 295.805 23.556 295.805 24.168V28.056C295.805 28.992 295.769 37.416 295.697 39H302.069ZM343.389 34.428C341.193 34.608 336.081 34.536 335.181 34.536V28.38C335.937 28.38 341.013 28.524 341.877 28.524L341.769 23.988C340.113 24.132 335.865 24.312 335.181 24.312V17.76C335.793 17.76 341.733 17.58 342.957 17.58L342.813 12.936C341.589 13.044 330.573 13.584 329.025 13.584C329.061 14.484 329.133 23.16 329.133 23.736V28.56C329.133 29.388 329.133 37.092 329.025 39C330.429 39 342.561 39.36 343.533 39.36L343.389 34.428ZM356.981 39C356.909 38.46 356.801 29.352 356.801 27.984V17.544C361.877 17.58 363.065 19.488 363.065 21.18C363.065 24.024 360.077 26.112 358.385 27.048C359.429 28.596 366.845 38.928 367.493 39.936L372.569 36.048C371.633 35.004 365.729 28.416 364.721 27.192C367.565 25.248 369.509 22.944 369.509 19.956C369.509 16.716 366.701 14.7 361.517 14.052C358.493 13.656 354.281 13.584 350.645 13.584C350.753 14.268 350.825 21.936 350.825 23.016V25.968C350.825 26.724 350.897 38.136 350.753 39H356.981ZM387.139 39.648C396.427 38.244 400.387 33.672 400.387 29.892C400.387 26.76 397.615 25.356 395.419 24.168C393.403 23.088 391.711 22.26 391.711 21.036C391.711 18.948 395.203 17.796 398.767 17.652L397.903 12.936C390.487 13.872 385.123 17.904 385.123 21.864C385.123 24.744 387.571 26.4 390.163 27.876C392.971 29.46 393.727 30.072 393.727 31.224C393.727 33.348 389.659 34.644 386.167 34.86L387.139 39.648ZM412.881 39C412.845 38.172 412.737 31.728 412.737 28.128V24.24C412.737 19.92 412.845 14.232 412.881 13.584H406.473C406.509 14.448 406.617 23.556 406.617 24.168V28.056C406.617 28.992 406.581 37.416 406.509 39H412.881ZM432.354 39C432.282 38.28 432.102 31.836 432.102 26.652V18.3C433.686 18.3 440.346 18.48 441.03 18.588V13.584C439.266 13.8 431.418 13.944 430.734 13.944H427.602C427.206 13.944 418.674 13.8 417.054 13.584V18.588C418.17 18.48 423.282 18.3 425.982 18.3V26.076C425.982 30.72 425.946 38.064 425.838 39H432.354ZM459.615 34.428C457.419 34.608 452.307 34.536 451.407 34.536V28.38C452.163 28.38 457.239 28.524 458.103 28.524L457.995 23.988C456.339 24.132 452.091 24.312 451.407 24.312V17.76C452.019 17.76 457.959 17.58 459.183 17.58L459.039 12.936C457.815 13.044 446.799 13.584 445.251 13.584C445.287 14.484 445.359 23.16 445.359 23.736V28.56C445.359 29.388 445.359 37.092 445.251 39C446.655 39 458.787 39.36 459.759 39.36L459.615 34.428ZM466.944 39.648C476.232 38.244 480.192 33.672 480.192 29.892C480.192 26.76 477.42 25.356 475.224 24.168C473.208 23.088 471.516 22.26 471.516 21.036C471.516 18.948 475.008 17.796 478.572 17.652L477.708 12.936C470.292 13.872 464.928 17.904 464.928 21.864C464.928 24.744 467.376 26.4 469.968 27.876C472.776 29.46 473.532 30.072 473.532 31.224C473.532 33.348 469.464 34.644 465.972 34.86L466.944 39.648Z" fill="url(#paint0_linear_141_48)"/>
</g>
<mask id="mask0_141_48" style="mask-type:alpha" maskUnits="userSpaceOnUse" x="4" y="8" width="477" height="28">
<path d="M13.104 35.9C13.968 33.38 22.068 12.968 23.292 9.98L23.04 9.584C18.252 9.62 7.668 9.332 4.536 9.26L4.68 14.336L16.308 14.372C15.84 15.524 8.208 32.012 7.416 33.416L13.104 35.9ZM30.5438 30.068V35H35.7278V30.068H30.5438ZM66.9218 30.14C63.8258 30.284 59.5778 30.284 58.7138 30.284V22.22C58.7138 17.684 58.8578 10.412 58.9298 9.584H52.4498C52.5218 10.268 52.5938 19.16 52.5938 19.736V24.524C52.5938 25.388 52.5938 33.092 52.4138 35C54.5018 35 66.2378 35.36 66.9578 35.36L66.9218 30.14ZM79.1781 35C79.1421 34.172 79.0341 27.728 79.0341 24.128V20.24C79.0341 15.92 79.1421 10.232 79.1781 9.584H72.7701C72.8061 10.448 72.9141 19.556 72.9141 20.168V24.056C72.9141 24.992 72.8781 33.416 72.8061 35H79.1781ZM92.5312 35.252C92.4953 34.064 92.6753 20.816 92.6753 19.592H92.7473C93.2153 20.24 108.371 33.668 111.251 35.72L111.539 35.612C111.647 32.372 111.863 26.936 112.151 21.752C112.403 16.568 112.691 11.672 112.835 9.584L107.147 9.404C107.111 10.808 107.003 23.408 107.003 24.884C105.851 23.768 91.8833 11.456 88.4993 8.756L88.2113 8.864C88.0673 11.024 87.7793 16.928 87.4913 22.58C87.2033 28.232 86.9153 33.668 86.8073 35L92.5312 35.252ZM126.779 35.36C126.707 34.676 126.599 26.612 126.599 23.84V22.652H126.779C129.083 25.676 137.147 34.928 137.651 35.576L142.295 31.328C140.855 29.816 134.195 23.156 132.971 21.752C134.879 19.772 140.207 14.804 141.575 13.364L137.291 9.332C136.463 10.304 128.795 18.8 126.779 21.176H126.599V19.952C126.599 16.82 126.743 9.8 126.779 9.224H120.407C120.407 10.052 120.551 17.18 120.551 20.312V24.128C120.551 28.232 120.443 34.316 120.407 35.36H126.779ZM148.006 35.648C157.294 34.244 161.254 29.672 161.254 25.892C161.254 22.76 158.482 21.356 156.286 20.168C154.27 19.088 152.578 18.26 152.578 17.036C152.578 14.948 156.07 13.796 159.634 13.652L158.77 8.936C151.354 9.872 145.99 13.904 145.99 17.864C145.99 20.744 148.438 22.4 151.03 23.876C153.838 25.46 154.594 26.072 154.594 27.224C154.594 29.348 150.526 30.644 147.034 30.86L148.006 35.648ZM187.808 35C187.736 34.28 187.556 27.836 187.556 22.652V14.3C189.14 14.3 195.8 14.48 196.484 14.588V9.584C194.72 9.8 186.872 9.944 186.188 9.944H183.056C182.66 9.944 174.128 9.8 172.507 9.584V14.588C173.624 14.48 178.736 14.3 181.436 14.3V22.076C181.436 26.72 181.4 34.064 181.292 35H187.808ZM196.775 23.156C196.775 30.14 201.707 35.54 209.807 35.576C221.003 35.576 224.783 26.972 224.783 21.824C224.783 13.616 219.347 9.008 211.571 9.008C202.103 9.008 196.775 16.136 196.775 23.156ZM203.507 22.796C203.507 17.216 206.855 13.652 211.067 13.652C214.883 13.652 218.051 16.496 218.015 22.004C217.979 28.304 213.875 30.932 210.491 30.932C206.423 30.932 203.507 27.872 203.507 22.796ZM237.943 23.156C237.943 30.14 242.875 35.54 250.975 35.576C262.171 35.576 265.951 26.972 265.951 21.824C265.951 13.616 260.515 9.008 252.739 9.008C243.271 9.008 237.943 16.136 237.943 23.156ZM244.675 22.796C244.675 17.216 248.023 13.652 252.235 13.652C256.051 13.652 259.219 16.496 259.183 22.004C259.147 28.304 255.043 30.932 251.659 30.932C247.591 30.932 244.675 27.872 244.675 22.796ZM282.8 35C282.728 34.28 282.548 27.836 282.548 22.652V14.3C284.132 14.3 290.792 14.48 291.476 14.588V9.584C289.712 9.8 281.864 9.944 281.18 9.944H278.048C277.652 9.944 269.12 9.8 267.5 9.584V14.588C268.616 14.48 273.728 14.3 276.428 14.3V22.076C276.428 26.72 276.392 34.064 276.284 35H282.8ZM302.069 35C302.033 34.172 301.925 27.872 301.925 26.252V24.56L314.021 23.876V27.008C314.021 27.692 313.913 33.776 313.841 35H320.285C320.213 34.316 320.141 25.316 320.141 24.848V21.248C320.141 20.384 320.249 10.448 320.321 9.584H313.877C313.949 10.376 314.021 16.64 314.021 17.252V19.304L301.925 19.988V18.008C301.925 17.36 302.033 10.232 302.105 9.584H295.625C295.697 10.448 295.805 19.556 295.805 20.168V24.056C295.805 24.992 295.769 33.416 295.697 35H302.069ZM343.389 30.428C341.193 30.608 336.081 30.536 335.181 30.536V24.38C335.937 24.38 341.013 24.524 341.877 24.524L341.769 19.988C340.113 20.132 335.865 20.312 335.181 20.312V13.76C335.793 13.76 341.733 13.58 342.957 13.58L342.813 8.936C341.589 9.044 330.573 9.584 329.025 9.584C329.061 10.484 329.133 19.16 329.133 19.736V24.56C329.133 25.388 329.133 33.092 329.025 35C330.429 35 342.561 35.36 343.533 35.36L343.389 30.428ZM356.981 35C356.909 34.46 356.801 25.352 356.801 23.984V13.544C361.877 13.58 363.065 15.488 363.065 17.18C363.065 20.024 360.077 22.112 358.385 23.048C359.429 24.596 366.845 34.928 367.493 35.936L372.569 32.048C371.633 31.004 365.729 24.416 364.721 23.192C367.565 21.248 369.509 18.944 369.509 15.956C369.509 12.716 366.701 10.7 361.517 10.052C358.493 9.656 354.281 9.584 350.645 9.584C350.753 10.268 350.825 17.936 350.825 19.016V21.968C350.825 22.724 350.897 34.136 350.753 35H356.981ZM387.139 35.648C396.427 34.244 400.387 29.672 400.387 25.892C400.387 22.76 397.615 21.356 395.419 20.168C393.403 19.088 391.711 18.26 391.711 17.036C391.711 14.948 395.203 13.796 398.767 13.652L397.903 8.936C390.487 9.872 385.123 13.904 385.123 17.864C385.123 20.744 387.571 22.4 390.163 23.876C392.971 25.46 393.727 26.072 393.727 27.224C393.727 29.348 389.659 30.644 386.167 30.86L387.139 35.648ZM412.881 35C412.845 34.172 412.737 27.728 412.737 24.128V20.24C412.737 15.92 412.845 10.232 412.881 9.584H406.473C406.509 10.448 406.617 19.556 406.617 20.168V24.056C406.617 24.992 406.581 33.416 406.509 35H412.881ZM432.354 35C432.282 34.28 432.102 27.836 432.102 22.652V14.3C433.686 14.3 440.346 14.48 441.03 14.588V9.584C439.266 9.8 431.418 9.944 430.734 9.944H427.602C427.206 9.944 418.674 9.8 417.054 9.584V14.588C418.17 14.48 423.282 14.3 425.982 14.3V22.076C425.982 26.72 425.946 34.064 425.838 35H432.354ZM459.615 30.428C457.419 30.608 452.307 30.536 451.407 30.536V24.38C452.163 24.38 457.239 24.524 458.103 24.524L457.995 19.988C456.339 20.132 452.091 20.312 451.407 20.312V13.76C452.019 13.76 457.959 13.58 459.183 13.58L459.039 8.936C457.815 9.044 446.799 9.584 445.251 9.584C445.287 10.484 445.359 19.16 445.359 19.736V24.56C445.359 25.388 445.359 33.092 445.251 35C446.655 35 458.787 35.36 459.759 35.36L459.615 30.428ZM466.944 35.648C476.232 34.244 480.192 29.672 480.192 25.892C480.192 22.76 477.42 21.356 475.224 20.168C473.208 19.088 471.516 18.26 471.516 17.036C471.516 14.948 475.008 13.796 478.572 13.652L477.708 8.936C470.292 9.872 464.928 13.904 464.928 17.864C464.928 20.744 467.376 22.4 469.968 23.876C472.776 25.46 473.532 26.072 473.532 27.224C473.532 29.348 469.464 30.644 465.972 30.86L466.944 35.648Z" fill="url(#paint1_linear_141_48)"/>
</mask>
<g mask="url(#mask0_141_48)">
<g filter="url(#filter1_i_141_48)">
<path d="M13.104 35.9C13.968 33.38 22.068 12.968 23.292 9.98L23.04 9.584C18.252 9.62 7.668 9.332 4.536 9.26L4.68 14.336L16.308 14.372C15.84 15.524 8.208 32.012 7.416 33.416L13.104 35.9ZM30.5438 30.068V35H35.7278V30.068H30.5438ZM66.9218 30.14C63.8258 30.284 59.5778 30.284 58.7138 30.284V22.22C58.7138 17.684 58.8578 10.412 58.9298 9.584H52.4498C52.5218 10.268 52.5938 19.16 52.5938 19.736V24.524C52.5938 25.388 52.5938 33.092 52.4138 35C54.5018 35 66.2378 35.36 66.9578 35.36L66.9218 30.14ZM79.1781 35C79.1421 34.172 79.0341 27.728 79.0341 24.128V20.24C79.0341 15.92 79.1421 10.232 79.1781 9.584H72.7701C72.8061 10.448 72.9141 19.556 72.9141 20.168V24.056C72.9141 24.992 72.8781 33.416 72.8061 35H79.1781ZM92.5312 35.252C92.4953 34.064 92.6753 20.816 92.6753 19.592H92.7473C93.2153 20.24 108.371 33.668 111.251 35.72L111.539 35.612C111.647 32.372 111.863 26.936 112.151 21.752C112.403 16.568 112.691 11.672 112.835 9.584L107.147 9.404C107.111 10.808 107.003 23.408 107.003 24.884C105.851 23.768 91.8833 11.456 88.4993 8.756L88.2113 8.864C88.0673 11.024 87.7793 16.928 87.4913 22.58C87.2033 28.232 86.9153 33.668 86.8073 35L92.5312 35.252ZM126.779 35.36C126.707 34.676 126.599 26.612 126.599 23.84V22.652H126.779C129.083 25.676 137.147 34.928 137.651 35.576L142.295 31.328C140.855 29.816 134.195 23.156 132.971 21.752C134.879 19.772 140.207 14.804 141.575 13.364L137.291 9.332C136.463 10.304 128.795 18.8 126.779 21.176H126.599V19.952C126.599 16.82 126.743 9.8 126.779 9.224H120.407C120.407 10.052 120.551 17.18 120.551 20.312V24.128C120.551 28.232 120.443 34.316 120.407 35.36H126.779ZM148.006 35.648C157.294 34.244 161.254 29.672 161.254 25.892C161.254 22.76 158.482 21.356 156.286 20.168C154.27 19.088 152.578 18.26 152.578 17.036C152.578 14.948 156.07 13.796 159.634 13.652L158.77 8.936C151.354 9.872 145.99 13.904 145.99 17.864C145.99 20.744 148.438 22.4 151.03 23.876C153.838 25.46 154.594 26.072 154.594 27.224C154.594 29.348 150.526 30.644 147.034 30.86L148.006 35.648ZM187.808 35C187.736 34.28 187.556 27.836 187.556 22.652V14.3C189.14 14.3 195.8 14.48 196.484 14.588V9.584C194.72 9.8 186.872 9.944 186.188 9.944H183.056C182.66 9.944 174.128 9.8 172.507 9.584V14.588C173.624 14.48 178.736 14.3 181.436 14.3V22.076C181.436 26.72 181.4 34.064 181.292 35H187.808ZM196.775 23.156C196.775 30.14 201.707 35.54 209.807 35.576C221.003 35.576 224.783 26.972 224.783 21.824C224.783 13.616 219.347 9.008 211.571 9.008C202.103 9.008 196.775 16.136 196.775 23.156ZM203.507 22.796C203.507 17.216 206.855 13.652 211.067 13.652C214.883 13.652 218.051 16.496 218.015 22.004C217.979 28.304 213.875 30.932 210.491 30.932C206.423 30.932 203.507 27.872 203.507 22.796ZM237.943 23.156C237.943 30.14 242.875 35.54 250.975 35.576C262.171 35.576 265.951 26.972 265.951 21.824C265.951 13.616 260.515 9.008 252.739 9.008C243.271 9.008 237.943 16.136 237.943 23.156ZM244.675 22.796C244.675 17.216 248.023 13.652 252.235 13.652C256.051 13.652 259.219 16.496 259.183 22.004C259.147 28.304 255.043 30.932 251.659 30.932C247.591 30.932 244.675 27.872 244.675 22.796ZM282.8 35C282.728 34.28 282.548 27.836 282.548 22.652V14.3C284.132 14.3 290.792 14.48 291.476 14.588V9.584C289.712 9.8 281.864 9.944 281.18 9.944H278.048C277.652 9.944 269.12 9.8 267.5 9.584V14.588C268.616 14.48 273.728 14.3 276.428 14.3V22.076C276.428 26.72 276.392 34.064 276.284 35H282.8ZM302.069 35C302.033 34.172 301.925 27.872 301.925 26.252V24.56L314.021 23.876V27.008C314.021 27.692 313.913 33.776 313.841 35H320.285C320.213 34.316 320.141 25.316 320.141 24.848V21.248C320.141 20.384 320.249 10.448 320.321 9.584H313.877C313.949 10.376 314.021 16.64 314.021 17.252V19.304L301.925 19.988V18.008C301.925 17.36 302.033 10.232 302.105 9.584H295.625C295.697 10.448 295.805 19.556 295.805 20.168V24.056C295.805 24.992 295.769 33.416 295.697 35H302.069ZM343.389 30.428C341.193 30.608 336.081 30.536 335.181 30.536V24.38C335.937 24.38 341.013 24.524 341.877 24.524L341.769 19.988C340.113 20.132 335.865 20.312 335.181 20.312V13.76C335.793 13.76 341.733 13.58 342.957 13.58L342.813 8.936C341.589 9.044 330.573 9.584 329.025 9.584C329.061 10.484 329.133 19.16 329.133 19.736V24.56C329.133 25.388 329.133 33.092 329.025 35C330.429 35 342.561 35.36 343.533 35.36L343.389 30.428ZM356.981 35C356.909 34.46 356.801 25.352 356.801 23.984V13.544C361.877 13.58 363.065 15.488 363.065 17.18C363.065 20.024 360.077 22.112 358.385 23.048C359.429 24.596 366.845 34.928 367.493 35.936L372.569 32.048C371.633 31.004 365.729 24.416 364.721 23.192C367.565 21.248 369.509 18.944 369.509 15.956C369.509 12.716 366.701 10.7 361.517 10.052C358.493 9.656 354.281 9.584 350.645 9.584C350.753 10.268 350.825 17.936 350.825 19.016V21.968C350.825 22.724 350.897 34.136 350.753 35H356.981ZM387.139 35.648C396.427 34.244 400.387 29.672 400.387 25.892C400.387 22.76 397.615 21.356 395.419 20.168C393.403 19.088 391.711 18.26 391.711 17.036C391.711 14.948 395.203 13.796 398.767 13.652L397.903 8.936C390.487 9.872 385.123 13.904 385.123 17.864C385.123 20.744 387.571 22.4 390.163 23.876C392.971 25.46 393.727 26.072 393.727 27.224C393.727 29.348 389.659 30.644 386.167 30.86L387.139 35.648ZM412.881 35C412.845 34.172 412.737 27.728 412.737 24.128V20.24C412.737 15.92 412.845 10.232 412.881 9.584H406.473C406.509 10.448 406.617 19.556 406.617 20.168V24.056C406.617 24.992 406.581 33.416 406.509 35H412.881ZM432.354 35C432.282 34.28 432.102 27.836 432.102 22.652V14.3C433.686 14.3 440.346 14.48 441.03 14.588V9.584C439.266 9.8 431.418 9.944 430.734 9.944H427.602C427.206 9.944 418.674 9.8 417.054 9.584V14.588C418.17 14.48 423.282 14.3 425.982 14.3V22.076C425.982 26.72 425.946 34.064 425.838 35H432.354ZM459.615 30.428C457.419 30.608 452.307 30.536 451.407 30.536V24.38C452.163 24.38 457.239 24.524 458.103 24.524L457.995 19.988C456.339 20.132 452.091 20.312 451.407 20.312V13.76C452.019 13.76 457.959 13.58 459.183 13.58L459.039 8.936C457.815 9.044 446.799 9.584 445.251 9.584C445.287 10.484 445.359 19.16 445.359 19.736V24.56C445.359 25.388 445.359 33.092 445.251 35C446.655 35 458.787 35.36 459.759 35.36L459.615 30.428ZM466.944 35.648C476.232 34.244 480.192 29.672 480.192 25.892C480.192 22.76 477.42 21.356 475.224 20.168C473.208 19.088 471.516 18.26 471.516 17.036C471.516 14.948 475.008 13.796 478.572 13.652L477.708 8.936C470.292 9.872 464.928 13.904 464.928 17.864C464.928 20.744 467.376 22.4 469.968 23.876C472.776 25.46 473.532 26.072 473.532 27.224C473.532 29.348 469.464 30.644 465.972 30.86L466.944 35.648Z" fill="url(#paint2_linear_141_48)"/>
</g>
<g style="mix-blend-mode:color-dodge" filter="url(#filter2_f_141_48)">
<circle cx="527.592" cy="-10.328" r="41.0164" fill="#0094FF"/>
</g>
<g style="mix-blend-mode:color-dodge" filter="url(#filter3_f_141_48)">
<circle cx="343.018" cy="-0.757397" r="41.0164" fill="#0094FF"/>
</g>
<g style="mix-blend-mode:color-dodge" filter="url(#filter4_f_141_48)">
<circle cx="225.438" cy="-10.328" r="41.0164" fill="#0094FF"/>
</g>
<g style="mix-blend-mode:color-dodge" filter="url(#filter5_f_141_48)">
<circle cx="87.3494" cy="-6.22651" r="41.0164" fill="#0094FF"/>
</g>
</g>
<defs>
<filter id="filter0_i_141_48" x="4.53613" y="12.756" width="475.655" height="27.1801" filterUnits="userSpaceOnUse" color-interpolation-filters="sRGB">
<feFlood flood-opacity="0" result="BackgroundImageFix"/>
<feBlend mode="normal" in="SourceGraphic" in2="BackgroundImageFix" result="shape"/>
<feColorMatrix in="SourceAlpha" type="matrix" values="0 0 0 0 0 0 0 0 0 0 0 0 0 0 0 0 0 0 127 0" result="hardAlpha"/>
<feOffset dy="-1.36721"/>
<feComposite in2="hardAlpha" operator="arithmetic" k2="-1" k3="1"/>
<feColorMatrix type="matrix" values="0 0 0 0 1 0 0 0 0 1 0 0 0 0 1 0 0 0 1 0"/>
<feBlend mode="normal" in2="shape" result="effect1_innerShadow_141_48"/>
</filter>
<filter id="filter1_i_141_48" x="4.53613" y="8.75598" width="475.655" height="27.1801" filterUnits="userSpaceOnUse" color-interpolation-filters="sRGB">
<feFlood flood-opacity="0" result="BackgroundImageFix"/>
<feBlend mode="normal" in="SourceGraphic" in2="BackgroundImageFix" result="shape"/>
<feColorMatrix in="SourceAlpha" type="matrix" values="0 0 0 0 0 0 0 0 0 0 0 0 0 0 0 0 0 0 127 0" result="hardAlpha"/>
<feOffset dy="-1.36721"/>
<feComposite in2="hardAlpha" operator="arithmetic" k2="-1" k3="1"/>
<feColorMatrix type="matrix" values="0 0 0 0 1 0 0 0 0 1 0 0 0 0 1 0 0 0 1 0"/>
<feBlend mode="normal" in2="shape" result="effect1_innerShadow_141_48"/>
</filter>
<filter id="filter2_f_141_48" x="446.243" y="-91.6772" width="162.698" height="162.698" filterUnits="userSpaceOnUse" color-interpolation-filters="sRGB">
<feFlood flood-opacity="0" result="BackgroundImageFix"/>
<feBlend mode="normal" in="SourceGraphic" in2="BackgroundImageFix" result="shape"/>
<feGaussianBlur stdDeviation="20.1664" result="effect1_foregroundBlur_141_48"/>
</filter>
<filter id="filter3_f_141_48" x="261.669" y="-82.1066" width="162.698" height="162.698" filterUnits="userSpaceOnUse" color-interpolation-filters="sRGB">
<feFlood flood-opacity="0" result="BackgroundImageFix"/>
<feBlend mode="normal" in="SourceGraphic" in2="BackgroundImageFix" result="shape"/>
<feGaussianBlur stdDeviation="20.1664" result="effect1_foregroundBlur_141_48"/>
</filter>
<filter id="filter4_f_141_48" x="144.089" y="-91.6772" width="162.698" height="162.698" filterUnits="userSpaceOnUse" color-interpolation-filters="sRGB">
<feFlood flood-opacity="0" result="BackgroundImageFix"/>
<feBlend mode="normal" in="SourceGraphic" in2="BackgroundImageFix" result="shape"/>
<feGaussianBlur stdDeviation="20.1664" result="effect1_foregroundBlur_141_48"/>
</filter>
<filter id="filter5_f_141_48" x="6.00021" y="-87.5757" width="162.698" height="162.698" filterUnits="userSpaceOnUse" color-interpolation-filters="sRGB">
<feFlood flood-opacity="0" result="BackgroundImageFix"/>
<feBlend mode="normal" in="SourceGraphic" in2="BackgroundImageFix" result="shape"/>
<feGaussianBlur stdDeviation="20.1664" result="effect1_foregroundBlur_141_48"/>
</filter>
<linearGradient id="paint0_linear_141_48" x1="8.79186" y1="3.99997" x2="466.448" y2="149.547" gradientUnits="userSpaceOnUse">
<stop stop-color="#00538F"/>
<stop offset="1" stop-color="#005FA4"/>
</linearGradient>
<linearGradient id="paint1_linear_141_48" x1="8.79186" y1="-3.3335e-05" x2="466.448" y2="145.547" gradientUnits="userSpaceOnUse">
<stop stop-color="#3AACFF"/>
<stop offset="1" stop-color="#0094FF"/>
</linearGradient>
<linearGradient id="paint2_linear_141_48" x1="8.79186" y1="-3.3335e-05" x2="466.448" y2="145.547" gradientUnits="userSpaceOnUse">
<stop stop-color="#3AACFF"/>
<stop offset="1" stop-color="#0094FF"/>
</linearGradient>
</defs>
</svg>
