<svg width="730" height="57" viewBox="0 0 730 57" fill="none" xmlns="http://www.w3.org/2000/svg">
<g filter="url(#filter0_i_141_57)">
<path d="M13.644 39.576C21.168 39.576 23.724 35.22 23.724 32.052C23.724 29.1 22.104 26.796 19.08 25.608C22.14 24.204 23.364 21.504 23.364 19.416C23.364 15.564 20.16 13.008 14.256 13.008C7.416 12.972 4.392 16.788 4.392 20.1C4.392 22.548 5.94 24.852 8.46 25.932C5.904 27.264 4.104 29.892 4.104 32.664C4.104 36.408 6.66 39.576 13.644 39.576ZM13.824 36.228C11.772 36.228 9.972 34.644 9.972 32.16C9.972 29.676 11.412 27.66 13.932 27.66C15.876 27.66 17.748 29.136 17.748 31.98C17.748 34.896 15.84 36.228 13.824 36.228ZM14.004 16.356C15.696 16.356 17.496 17.328 17.496 20.136C17.496 22.836 15.66 24.168 13.752 24.168C11.808 24.168 10.224 22.44 10.224 20.316C10.224 18.084 11.556 16.356 14.004 16.356ZM30.5438 34.068V39H35.7278V34.068H30.5438ZM69.6218 34.176C68.6138 34.356 67.3178 34.5 65.8778 34.5C59.5058 34.5 56.3018 31.476 56.3018 28.02C56.3018 23.556 60.9098 19.596 68.7578 18.408L67.6058 13.008C55.0778 15.528 49.6418 22.872 49.6418 28.812C49.6418 33.024 53.4578 39.576 65.4818 39.576C67.3538 39.576 68.7938 39.432 69.9818 39.252L69.6218 34.176ZM82.307 39C82.271 38.172 82.163 31.872 82.163 30.252V28.56L94.259 27.876V31.008C94.259 31.692 94.151 37.776 94.079 39H100.523C100.451 38.316 100.379 29.316 100.379 28.848V25.248C100.379 24.384 100.487 14.448 100.559 13.584H94.115C94.187 14.376 94.259 20.64 94.259 21.252V23.304L82.163 23.988V22.008C82.163 21.36 82.271 14.232 82.343 13.584H75.863C75.935 14.448 76.043 23.556 76.043 24.168V28.056C76.043 28.992 76.007 37.416 75.935 39H82.307ZM110.415 39.972C111.207 38.46 113.115 34.14 113.439 33.42L124.959 32.88C125.355 33.42 127.983 38.316 128.883 39.936L134.355 36.624C132.483 33.852 123.267 18.228 119.415 12.288H119.163C116.751 16.104 106.599 34.428 105.159 36.948L110.415 39.972ZM115.311 29.244C115.995 27.84 118.443 22.764 119.163 21.36C119.703 22.476 122.331 27.372 123.087 28.884L115.311 29.244ZM143.648 39.252C143.612 38.064 143.792 24.816 143.792 23.592H143.864C144.332 24.24 159.488 37.668 162.368 39.72L162.656 39.612C162.764 36.372 162.98 30.936 163.268 25.752C163.52 20.568 163.808 15.672 163.952 13.584L158.264 13.404C158.228 14.808 158.12 27.408 158.12 28.884C156.968 27.768 143 15.456 139.616 12.756L139.328 12.864C139.184 15.024 138.896 20.928 138.608 26.58C138.32 32.232 138.032 37.668 137.924 39L143.648 39.252ZM190.68 30.792C190.68 29.712 190.68 28.884 190.716 27.696H184.632C184.668 28.38 184.704 29.46 184.704 30.504V34.644C184.056 34.752 183.084 34.752 182.076 34.752C177.792 34.752 175.02 31.8 175.02 28.74C175.02 23.484 181.86 19.416 188.088 18.372L186.792 12.936C172.536 16.356 168.54 24.708 168.54 28.956C168.54 34.752 173.256 39.504 182.796 39.576C186.18 39.612 189.564 39.036 190.752 38.64C190.752 37.992 190.68 34.788 190.68 33.42V30.792ZM212.361 34.428C210.165 34.608 205.053 34.536 204.153 34.536V28.38C204.909 28.38 209.985 28.524 210.849 28.524L210.741 23.988C209.085 24.132 204.837 24.312 204.153 24.312V17.76C204.765 17.76 210.705 17.58 211.929 17.58L211.785 12.936C210.561 13.044 199.545 13.584 197.997 13.584C198.033 14.484 198.105 23.16 198.105 23.736V28.56C198.105 29.388 198.105 37.092 197.997 39C199.401 39 211.533 39.36 212.505 39.36L212.361 34.428ZM219.69 39.648C228.978 38.244 232.938 33.672 232.938 29.892C232.938 26.76 230.166 25.356 227.97 24.168C225.954 23.088 224.262 22.26 224.262 21.036C224.262 18.948 227.754 17.796 231.318 17.652L230.454 12.936C223.038 13.872 217.674 17.904 217.674 21.864C217.674 24.744 220.122 26.4 222.714 27.876C225.522 29.46 226.278 30.072 226.278 31.224C226.278 33.348 222.21 34.644 218.718 34.86L219.69 39.648ZM259.491 39C259.419 38.28 259.239 31.836 259.239 26.652V18.3C260.823 18.3 267.483 18.48 268.167 18.588V13.584C266.403 13.8 258.555 13.944 257.871 13.944H254.739C254.343 13.944 245.811 13.8 244.191 13.584V18.588C245.307 18.48 250.419 18.3 253.119 18.3V26.076C253.119 30.72 253.083 38.064 252.975 39H259.491ZM268.458 27.156C268.458 34.14 273.39 39.54 281.49 39.576C292.686 39.576 296.466 30.972 296.466 25.824C296.466 17.616 291.03 13.008 283.254 13.008C273.786 13.008 268.458 20.136 268.458 27.156ZM275.19 26.796C275.19 21.216 278.538 17.652 282.75 17.652C286.566 17.652 289.734 20.496 289.698 26.004C289.662 32.304 285.558 34.932 282.174 34.932C278.106 34.932 275.19 31.872 275.19 26.796ZM323.018 39C322.946 38.28 322.766 31.836 322.766 26.652V18.3C324.35 18.3 331.01 18.48 331.694 18.588V13.584C329.93 13.8 322.082 13.944 321.398 13.944H318.266C317.87 13.944 309.338 13.8 307.718 13.584V18.588C308.834 18.48 313.946 18.3 316.646 18.3V26.076C316.646 30.72 316.61 38.064 316.502 39H323.018ZM342.287 39C342.251 38.172 342.143 31.872 342.143 30.252V28.56L354.239 27.876V31.008C354.239 31.692 354.131 37.776 354.059 39H360.503C360.431 38.316 360.359 29.316 360.359 28.848V25.248C360.359 24.384 360.467 14.448 360.539 13.584H354.095C354.167 14.376 354.239 20.64 354.239 21.252V23.304L342.143 23.988V22.008C342.143 21.36 342.251 14.232 342.323 13.584H335.843C335.915 14.448 336.023 23.556 336.023 24.168V28.056C336.023 28.992 335.987 37.416 335.915 39H342.287ZM375.616 39C375.58 38.172 375.472 31.728 375.472 28.128V24.24C375.472 19.92 375.58 14.232 375.616 13.584H369.208C369.244 14.448 369.352 23.556 369.352 24.168V28.056C369.352 28.992 369.316 37.416 369.244 39H375.616ZM384.397 39.648C393.685 38.244 397.645 33.672 397.645 29.892C397.645 26.76 394.873 25.356 392.677 24.168C390.661 23.088 388.969 22.26 388.969 21.036C388.969 18.948 392.461 17.796 396.025 17.652L395.161 12.936C387.745 13.872 382.381 17.904 382.381 21.864C382.381 24.744 384.829 26.4 387.421 27.876C390.229 29.46 390.985 30.072 390.985 31.224C390.985 33.348 386.917 34.644 383.425 34.86L384.397 39.648ZM419.59 39C419.518 38.244 419.518 34.32 419.518 33.6V32.16C427.438 30.756 431.866 26.112 431.866 21.324C431.866 17.364 428.77 15.168 424.666 14.304C422.002 13.728 418.15 13.584 413.47 13.584C413.47 14.124 413.578 21.432 413.578 22.26V26.22C413.578 28.776 413.506 37.452 413.47 39H419.59ZM419.518 17.652C424.774 17.868 425.638 20.496 425.638 22.152C425.638 25.536 422.614 27.552 419.518 28.128V17.652ZM443.817 39C443.745 38.46 443.637 29.352 443.637 27.984V17.544C448.713 17.58 449.901 19.488 449.901 21.18C449.901 24.024 446.913 26.112 445.221 27.048C446.265 28.596 453.681 38.928 454.329 39.936L459.405 36.048C458.469 35.004 452.565 28.416 451.557 27.192C454.401 25.248 456.345 22.944 456.345 19.956C456.345 16.716 453.537 14.7 448.353 14.052C445.329 13.656 441.117 13.584 437.481 13.584C437.589 14.268 437.661 21.936 437.661 23.016V25.968C437.661 26.724 437.733 38.136 437.589 39H443.817ZM470.608 39C470.572 38.172 470.464 31.728 470.464 28.128V24.24C470.464 19.92 470.572 14.232 470.608 13.584H464.2C464.236 14.448 464.344 23.556 464.344 24.168V28.056C464.344 28.992 464.308 37.416 464.236 39H470.608ZM475.213 16.104C476.365 17.904 486.085 36.516 488.605 40.368H488.857C491.017 36.912 501.997 17.868 503.293 15.924L497.605 12.9C497.137 14.052 490.045 28.2 489.109 30.144C488.173 28.164 481.693 14.52 481.009 12.9L475.213 16.104ZM505.817 39.972C506.609 38.46 508.517 34.14 508.841 33.42L520.361 32.88C520.757 33.42 523.385 38.316 524.285 39.936L529.757 36.624C527.885 33.852 518.669 18.228 514.817 12.288H514.565C512.153 16.104 502.001 34.428 500.561 36.948L505.817 39.972ZM510.713 29.244C511.397 27.84 513.845 22.764 514.565 21.36C515.105 22.476 517.733 27.372 518.489 28.884L510.713 29.244ZM551.579 34.176C550.571 34.356 549.275 34.5 547.835 34.5C541.463 34.5 538.259 31.476 538.259 28.02C538.259 23.556 542.867 19.596 550.715 18.408L549.563 13.008C537.035 15.528 531.599 22.872 531.599 28.812C531.599 33.024 535.415 39.576 547.439 39.576C549.311 39.576 550.751 39.432 551.939 39.252L551.579 34.176ZM569.177 39C569.105 38.28 568.997 35.076 568.997 34.572V31.8C568.997 27.624 570.833 24.204 573.101 22.008C574.901 20.244 577.241 18.984 579.149 18.516L577.169 13.008C574.793 13.764 572.201 15.492 570.545 17.184C568.709 19.056 567.305 21.036 566.405 23.592H566.189C565.361 20.82 563.705 18.552 562.229 16.968C560.753 15.456 558.305 13.98 556.109 13.008L553.697 18.516C555.173 19.02 556.829 19.992 558.269 21.252C560.789 23.448 562.913 27.156 562.913 31.836V33.888C562.913 34.356 562.769 38.172 562.733 39H569.177ZM599.801 39C599.729 38.244 599.729 34.32 599.729 33.6V32.16C607.649 30.756 612.077 26.112 612.077 21.324C612.077 17.364 608.981 15.168 604.877 14.304C602.213 13.728 598.361 13.584 593.681 13.584C593.681 14.124 593.789 21.432 593.789 22.26V26.22C593.789 28.776 593.717 37.452 593.681 39H599.801ZM599.729 17.652C604.985 17.868 605.849 20.496 605.849 22.152C605.849 25.536 602.825 27.552 599.729 28.128V17.652ZM615.24 27.156C615.24 34.14 620.172 39.54 628.272 39.576C639.468 39.576 643.248 30.972 643.248 25.824C643.248 17.616 637.812 13.008 630.036 13.008C620.568 13.008 615.24 20.136 615.24 27.156ZM621.972 26.796C621.972 21.216 625.32 17.652 629.532 17.652C633.348 17.652 636.516 20.496 636.48 26.004C636.444 32.304 632.34 34.932 628.956 34.932C624.888 34.932 621.972 31.872 621.972 26.796ZM663.629 34.14C660.533 34.284 656.285 34.284 655.421 34.284V26.22C655.421 21.684 655.565 14.412 655.637 13.584H649.157C649.229 14.268 649.301 23.16 649.301 23.736V28.524C649.301 29.388 649.301 37.092 649.121 39C651.209 39 662.945 39.36 663.665 39.36L663.629 34.14ZM675.885 39C675.849 38.172 675.741 31.728 675.741 28.128V24.24C675.741 19.92 675.849 14.232 675.885 13.584H669.477C669.513 14.448 669.621 23.556 669.621 24.168V28.056C669.621 28.992 669.585 37.416 669.513 39H675.885ZM701.591 34.176C700.583 34.356 699.287 34.5 697.847 34.5C691.475 34.5 688.271 31.476 688.271 28.02C688.271 23.556 692.879 19.596 700.727 18.408L699.575 13.008C687.047 15.528 681.611 22.872 681.611 28.812C681.611 33.024 685.427 39.576 697.451 39.576C699.323 39.576 700.763 39.432 701.951 39.252L701.591 34.176ZM719.189 39C719.117 38.28 719.009 35.076 719.009 34.572V31.8C719.009 27.624 720.845 24.204 723.113 22.008C724.913 20.244 727.253 18.984 729.161 18.516L727.181 13.008C724.805 13.764 722.213 15.492 720.557 17.184C718.721 19.056 717.317 21.036 716.417 23.592H716.201C715.373 20.82 713.717 18.552 712.241 16.968C710.765 15.456 708.317 13.98 706.121 13.008L703.709 18.516C705.185 19.02 706.841 19.992 708.281 21.252C710.801 23.448 712.925 27.156 712.925 31.836V33.888C712.925 34.356 712.781 38.172 712.745 39H719.189Z" fill="url(#paint0_linear_141_57)"/>
</g>
<mask id="mask0_141_57" style="mask-type:alpha" maskUnits="userSpaceOnUse" x="4" y="8" width="726" height="29">
<path d="M13.644 35.576C21.168 35.576 23.724 31.22 23.724 28.052C23.724 25.1 22.104 22.796 19.08 21.608C22.14 20.204 23.364 17.504 23.364 15.416C23.364 11.564 20.16 9.008 14.256 9.008C7.416 8.972 4.392 12.788 4.392 16.1C4.392 18.548 5.94 20.852 8.46 21.932C5.904 23.264 4.104 25.892 4.104 28.664C4.104 32.408 6.66 35.576 13.644 35.576ZM13.824 32.228C11.772 32.228 9.972 30.644 9.972 28.16C9.972 25.676 11.412 23.66 13.932 23.66C15.876 23.66 17.748 25.136 17.748 27.98C17.748 30.896 15.84 32.228 13.824 32.228ZM14.004 12.356C15.696 12.356 17.496 13.328 17.496 16.136C17.496 18.836 15.66 20.168 13.752 20.168C11.808 20.168 10.224 18.44 10.224 16.316C10.224 14.084 11.556 12.356 14.004 12.356ZM30.5438 30.068V35H35.7278V30.068H30.5438ZM69.6218 30.176C68.6138 30.356 67.3178 30.5 65.8778 30.5C59.5058 30.5 56.3018 27.476 56.3018 24.02C56.3018 19.556 60.9098 15.596 68.7578 14.408L67.6058 9.008C55.0778 11.528 49.6418 18.872 49.6418 24.812C49.6418 29.024 53.4578 35.576 65.4818 35.576C67.3538 35.576 68.7938 35.432 69.9818 35.252L69.6218 30.176ZM82.307 35C82.271 34.172 82.163 27.872 82.163 26.252V24.56L94.259 23.876V27.008C94.259 27.692 94.151 33.776 94.079 35H100.523C100.451 34.316 100.379 25.316 100.379 24.848V21.248C100.379 20.384 100.487 10.448 100.559 9.584H94.115C94.187 10.376 94.259 16.64 94.259 17.252V19.304L82.163 19.988V18.008C82.163 17.36 82.271 10.232 82.343 9.584H75.863C75.935 10.448 76.043 19.556 76.043 20.168V24.056C76.043 24.992 76.007 33.416 75.935 35H82.307ZM110.415 35.972C111.207 34.46 113.115 30.14 113.439 29.42L124.959 28.88C125.355 29.42 127.983 34.316 128.883 35.936L134.355 32.624C132.483 29.852 123.267 14.228 119.415 8.288H119.163C116.751 12.104 106.599 30.428 105.159 32.948L110.415 35.972ZM115.311 25.244C115.995 23.84 118.443 18.764 119.163 17.36C119.703 18.476 122.331 23.372 123.087 24.884L115.311 25.244ZM143.648 35.252C143.612 34.064 143.792 20.816 143.792 19.592H143.864C144.332 20.24 159.488 33.668 162.368 35.72L162.656 35.612C162.764 32.372 162.98 26.936 163.268 21.752C163.52 16.568 163.808 11.672 163.952 9.584L158.264 9.404C158.228 10.808 158.12 23.408 158.12 24.884C156.968 23.768 143 11.456 139.616 8.756L139.328 8.864C139.184 11.024 138.896 16.928 138.608 22.58C138.32 28.232 138.032 33.668 137.924 35L143.648 35.252ZM190.68 26.792C190.68 25.712 190.68 24.884 190.716 23.696H184.632C184.668 24.38 184.704 25.46 184.704 26.504V30.644C184.056 30.752 183.084 30.752 182.076 30.752C177.792 30.752 175.02 27.8 175.02 24.74C175.02 19.484 181.86 15.416 188.088 14.372L186.792 8.936C172.536 12.356 168.54 20.708 168.54 24.956C168.54 30.752 173.256 35.504 182.796 35.576C186.18 35.612 189.564 35.036 190.752 34.64C190.752 33.992 190.68 30.788 190.68 29.42V26.792ZM212.361 30.428C210.165 30.608 205.053 30.536 204.153 30.536V24.38C204.909 24.38 209.985 24.524 210.849 24.524L210.741 19.988C209.085 20.132 204.837 20.312 204.153 20.312V13.76C204.765 13.76 210.705 13.58 211.929 13.58L211.785 8.936C210.561 9.044 199.545 9.584 197.997 9.584C198.033 10.484 198.105 19.16 198.105 19.736V24.56C198.105 25.388 198.105 33.092 197.997 35C199.401 35 211.533 35.36 212.505 35.36L212.361 30.428ZM219.69 35.648C228.978 34.244 232.938 29.672 232.938 25.892C232.938 22.76 230.166 21.356 227.97 20.168C225.954 19.088 224.262 18.26 224.262 17.036C224.262 14.948 227.754 13.796 231.318 13.652L230.454 8.936C223.038 9.872 217.674 13.904 217.674 17.864C217.674 20.744 220.122 22.4 222.714 23.876C225.522 25.46 226.278 26.072 226.278 27.224C226.278 29.348 222.21 30.644 218.718 30.86L219.69 35.648ZM259.491 35C259.419 34.28 259.239 27.836 259.239 22.652V14.3C260.823 14.3 267.483 14.48 268.167 14.588V9.584C266.403 9.8 258.555 9.944 257.871 9.944H254.739C254.343 9.944 245.811 9.8 244.191 9.584V14.588C245.307 14.48 250.419 14.3 253.119 14.3V22.076C253.119 26.72 253.083 34.064 252.975 35H259.491ZM268.458 23.156C268.458 30.14 273.39 35.54 281.49 35.576C292.686 35.576 296.466 26.972 296.466 21.824C296.466 13.616 291.03 9.008 283.254 9.008C273.786 9.008 268.458 16.136 268.458 23.156ZM275.19 22.796C275.19 17.216 278.538 13.652 282.75 13.652C286.566 13.652 289.734 16.496 289.698 22.004C289.662 28.304 285.558 30.932 282.174 30.932C278.106 30.932 275.19 27.872 275.19 22.796ZM323.018 35C322.946 34.28 322.766 27.836 322.766 22.652V14.3C324.35 14.3 331.01 14.48 331.694 14.588V9.584C329.93 9.8 322.082 9.944 321.398 9.944H318.266C317.87 9.944 309.338 9.8 307.718 9.584V14.588C308.834 14.48 313.946 14.3 316.646 14.3V22.076C316.646 26.72 316.61 34.064 316.502 35H323.018ZM342.287 35C342.251 34.172 342.143 27.872 342.143 26.252V24.56L354.239 23.876V27.008C354.239 27.692 354.131 33.776 354.059 35H360.503C360.431 34.316 360.359 25.316 360.359 24.848V21.248C360.359 20.384 360.467 10.448 360.539 9.584H354.095C354.167 10.376 354.239 16.64 354.239 17.252V19.304L342.143 19.988V18.008C342.143 17.36 342.251 10.232 342.323 9.584H335.843C335.915 10.448 336.023 19.556 336.023 20.168V24.056C336.023 24.992 335.987 33.416 335.915 35H342.287ZM375.616 35C375.58 34.172 375.472 27.728 375.472 24.128V20.24C375.472 15.92 375.58 10.232 375.616 9.584H369.208C369.244 10.448 369.352 19.556 369.352 20.168V24.056C369.352 24.992 369.316 33.416 369.244 35H375.616ZM384.397 35.648C393.685 34.244 397.645 29.672 397.645 25.892C397.645 22.76 394.873 21.356 392.677 20.168C390.661 19.088 388.969 18.26 388.969 17.036C388.969 14.948 392.461 13.796 396.025 13.652L395.161 8.936C387.745 9.872 382.381 13.904 382.381 17.864C382.381 20.744 384.829 22.4 387.421 23.876C390.229 25.46 390.985 26.072 390.985 27.224C390.985 29.348 386.917 30.644 383.425 30.86L384.397 35.648ZM419.59 35C419.518 34.244 419.518 30.32 419.518 29.6V28.16C427.438 26.756 431.866 22.112 431.866 17.324C431.866 13.364 428.77 11.168 424.666 10.304C422.002 9.728 418.15 9.584 413.47 9.584C413.47 10.124 413.578 17.432 413.578 18.26V22.22C413.578 24.776 413.506 33.452 413.47 35H419.59ZM419.518 13.652C424.774 13.868 425.638 16.496 425.638 18.152C425.638 21.536 422.614 23.552 419.518 24.128V13.652ZM443.817 35C443.745 34.46 443.637 25.352 443.637 23.984V13.544C448.713 13.58 449.901 15.488 449.901 17.18C449.901 20.024 446.913 22.112 445.221 23.048C446.265 24.596 453.681 34.928 454.329 35.936L459.405 32.048C458.469 31.004 452.565 24.416 451.557 23.192C454.401 21.248 456.345 18.944 456.345 15.956C456.345 12.716 453.537 10.7 448.353 10.052C445.329 9.656 441.117 9.584 437.481 9.584C437.589 10.268 437.661 17.936 437.661 19.016V21.968C437.661 22.724 437.733 34.136 437.589 35H443.817ZM470.608 35C470.572 34.172 470.464 27.728 470.464 24.128V20.24C470.464 15.92 470.572 10.232 470.608 9.584H464.2C464.236 10.448 464.344 19.556 464.344 20.168V24.056C464.344 24.992 464.308 33.416 464.236 35H470.608ZM475.213 12.104C476.365 13.904 486.085 32.516 488.605 36.368H488.857C491.017 32.912 501.997 13.868 503.293 11.924L497.605 8.9C497.137 10.052 490.045 24.2 489.109 26.144C488.173 24.164 481.693 10.52 481.009 8.9L475.213 12.104ZM505.817 35.972C506.609 34.46 508.517 30.14 508.841 29.42L520.361 28.88C520.757 29.42 523.385 34.316 524.285 35.936L529.757 32.624C527.885 29.852 518.669 14.228 514.817 8.288H514.565C512.153 12.104 502.001 30.428 500.561 32.948L505.817 35.972ZM510.713 25.244C511.397 23.84 513.845 18.764 514.565 17.36C515.105 18.476 517.733 23.372 518.489 24.884L510.713 25.244ZM551.579 30.176C550.571 30.356 549.275 30.5 547.835 30.5C541.463 30.5 538.259 27.476 538.259 24.02C538.259 19.556 542.867 15.596 550.715 14.408L549.563 9.008C537.035 11.528 531.599 18.872 531.599 24.812C531.599 29.024 535.415 35.576 547.439 35.576C549.311 35.576 550.751 35.432 551.939 35.252L551.579 30.176ZM569.177 35C569.105 34.28 568.997 31.076 568.997 30.572V27.8C568.997 23.624 570.833 20.204 573.101 18.008C574.901 16.244 577.241 14.984 579.149 14.516L577.169 9.008C574.793 9.764 572.201 11.492 570.545 13.184C568.709 15.056 567.305 17.036 566.405 19.592H566.189C565.361 16.82 563.705 14.552 562.229 12.968C560.753 11.456 558.305 9.98 556.109 9.008L553.697 14.516C555.173 15.02 556.829 15.992 558.269 17.252C560.789 19.448 562.913 23.156 562.913 27.836V29.888C562.913 30.356 562.769 34.172 562.733 35H569.177ZM599.801 35C599.729 34.244 599.729 30.32 599.729 29.6V28.16C607.649 26.756 612.077 22.112 612.077 17.324C612.077 13.364 608.981 11.168 604.877 10.304C602.213 9.728 598.361 9.584 593.681 9.584C593.681 10.124 593.789 17.432 593.789 18.26V22.22C593.789 24.776 593.717 33.452 593.681 35H599.801ZM599.729 13.652C604.985 13.868 605.849 16.496 605.849 18.152C605.849 21.536 602.825 23.552 599.729 24.128V13.652ZM615.24 23.156C615.24 30.14 620.172 35.54 628.272 35.576C639.468 35.576 643.248 26.972 643.248 21.824C643.248 13.616 637.812 9.008 630.036 9.008C620.568 9.008 615.24 16.136 615.24 23.156ZM621.972 22.796C621.972 17.216 625.32 13.652 629.532 13.652C633.348 13.652 636.516 16.496 636.48 22.004C636.444 28.304 632.34 30.932 628.956 30.932C624.888 30.932 621.972 27.872 621.972 22.796ZM663.629 30.14C660.533 30.284 656.285 30.284 655.421 30.284V22.22C655.421 17.684 655.565 10.412 655.637 9.584H649.157C649.229 10.268 649.301 19.16 649.301 19.736V24.524C649.301 25.388 649.301 33.092 649.121 35C651.209 35 662.945 35.36 663.665 35.36L663.629 30.14ZM675.885 35C675.849 34.172 675.741 27.728 675.741 24.128V20.24C675.741 15.92 675.849 10.232 675.885 9.584H669.477C669.513 10.448 669.621 19.556 669.621 20.168V24.056C669.621 24.992 669.585 33.416 669.513 35H675.885ZM701.591 30.176C700.583 30.356 699.287 30.5 697.847 30.5C691.475 30.5 688.271 27.476 688.271 24.02C688.271 19.556 692.879 15.596 700.727 14.408L699.575 9.008C687.047 11.528 681.611 18.872 681.611 24.812C681.611 29.024 685.427 35.576 697.451 35.576C699.323 35.576 700.763 35.432 701.951 35.252L701.591 30.176ZM719.189 35C719.117 34.28 719.009 31.076 719.009 30.572V27.8C719.009 23.624 720.845 20.204 723.113 18.008C724.913 16.244 727.253 14.984 729.161 14.516L727.181 9.008C724.805 9.764 722.213 11.492 720.557 13.184C718.721 15.056 717.317 17.036 716.417 19.592H716.201C715.373 16.82 713.717 14.552 712.241 12.968C710.765 11.456 708.317 9.98 706.121 9.008L703.709 14.516C705.185 15.02 706.841 15.992 708.281 17.252C710.801 19.448 712.925 23.156 712.925 27.836V29.888C712.925 30.356 712.781 34.172 712.745 35H719.189Z" fill="url(#paint1_linear_141_57)"/>
</mask>
<g mask="url(#mask0_141_57)">
<g filter="url(#filter1_i_141_57)">
<path d="M13.644 35.576C21.168 35.576 23.724 31.22 23.724 28.052C23.724 25.1 22.104 22.796 19.08 21.608C22.14 20.204 23.364 17.504 23.364 15.416C23.364 11.564 20.16 9.008 14.256 9.008C7.416 8.972 4.392 12.788 4.392 16.1C4.392 18.548 5.94 20.852 8.46 21.932C5.904 23.264 4.104 25.892 4.104 28.664C4.104 32.408 6.66 35.576 13.644 35.576ZM13.824 32.228C11.772 32.228 9.972 30.644 9.972 28.16C9.972 25.676 11.412 23.66 13.932 23.66C15.876 23.66 17.748 25.136 17.748 27.98C17.748 30.896 15.84 32.228 13.824 32.228ZM14.004 12.356C15.696 12.356 17.496 13.328 17.496 16.136C17.496 18.836 15.66 20.168 13.752 20.168C11.808 20.168 10.224 18.44 10.224 16.316C10.224 14.084 11.556 12.356 14.004 12.356ZM30.5438 30.068V35H35.7278V30.068H30.5438ZM69.6218 30.176C68.6138 30.356 67.3178 30.5 65.8778 30.5C59.5058 30.5 56.3018 27.476 56.3018 24.02C56.3018 19.556 60.9098 15.596 68.7578 14.408L67.6058 9.008C55.0778 11.528 49.6418 18.872 49.6418 24.812C49.6418 29.024 53.4578 35.576 65.4818 35.576C67.3538 35.576 68.7938 35.432 69.9818 35.252L69.6218 30.176ZM82.307 35C82.271 34.172 82.163 27.872 82.163 26.252V24.56L94.259 23.876V27.008C94.259 27.692 94.151 33.776 94.079 35H100.523C100.451 34.316 100.379 25.316 100.379 24.848V21.248C100.379 20.384 100.487 10.448 100.559 9.584H94.115C94.187 10.376 94.259 16.64 94.259 17.252V19.304L82.163 19.988V18.008C82.163 17.36 82.271 10.232 82.343 9.584H75.863C75.935 10.448 76.043 19.556 76.043 20.168V24.056C76.043 24.992 76.007 33.416 75.935 35H82.307ZM110.415 35.972C111.207 34.46 113.115 30.14 113.439 29.42L124.959 28.88C125.355 29.42 127.983 34.316 128.883 35.936L134.355 32.624C132.483 29.852 123.267 14.228 119.415 8.288H119.163C116.751 12.104 106.599 30.428 105.159 32.948L110.415 35.972ZM115.311 25.244C115.995 23.84 118.443 18.764 119.163 17.36C119.703 18.476 122.331 23.372 123.087 24.884L115.311 25.244ZM143.648 35.252C143.612 34.064 143.792 20.816 143.792 19.592H143.864C144.332 20.24 159.488 33.668 162.368 35.72L162.656 35.612C162.764 32.372 162.98 26.936 163.268 21.752C163.52 16.568 163.808 11.672 163.952 9.584L158.264 9.404C158.228 10.808 158.12 23.408 158.12 24.884C156.968 23.768 143 11.456 139.616 8.756L139.328 8.864C139.184 11.024 138.896 16.928 138.608 22.58C138.32 28.232 138.032 33.668 137.924 35L143.648 35.252ZM190.68 26.792C190.68 25.712 190.68 24.884 190.716 23.696H184.632C184.668 24.38 184.704 25.46 184.704 26.504V30.644C184.056 30.752 183.084 30.752 182.076 30.752C177.792 30.752 175.02 27.8 175.02 24.74C175.02 19.484 181.86 15.416 188.088 14.372L186.792 8.936C172.536 12.356 168.54 20.708 168.54 24.956C168.54 30.752 173.256 35.504 182.796 35.576C186.18 35.612 189.564 35.036 190.752 34.64C190.752 33.992 190.68 30.788 190.68 29.42V26.792ZM212.361 30.428C210.165 30.608 205.053 30.536 204.153 30.536V24.38C204.909 24.38 209.985 24.524 210.849 24.524L210.741 19.988C209.085 20.132 204.837 20.312 204.153 20.312V13.76C204.765 13.76 210.705 13.58 211.929 13.58L211.785 8.936C210.561 9.044 199.545 9.584 197.997 9.584C198.033 10.484 198.105 19.16 198.105 19.736V24.56C198.105 25.388 198.105 33.092 197.997 35C199.401 35 211.533 35.36 212.505 35.36L212.361 30.428ZM219.69 35.648C228.978 34.244 232.938 29.672 232.938 25.892C232.938 22.76 230.166 21.356 227.97 20.168C225.954 19.088 224.262 18.26 224.262 17.036C224.262 14.948 227.754 13.796 231.318 13.652L230.454 8.936C223.038 9.872 217.674 13.904 217.674 17.864C217.674 20.744 220.122 22.4 222.714 23.876C225.522 25.46 226.278 26.072 226.278 27.224C226.278 29.348 222.21 30.644 218.718 30.86L219.69 35.648ZM259.491 35C259.419 34.28 259.239 27.836 259.239 22.652V14.3C260.823 14.3 267.483 14.48 268.167 14.588V9.584C266.403 9.8 258.555 9.944 257.871 9.944H254.739C254.343 9.944 245.811 9.8 244.191 9.584V14.588C245.307 14.48 250.419 14.3 253.119 14.3V22.076C253.119 26.72 253.083 34.064 252.975 35H259.491ZM268.458 23.156C268.458 30.14 273.39 35.54 281.49 35.576C292.686 35.576 296.466 26.972 296.466 21.824C296.466 13.616 291.03 9.008 283.254 9.008C273.786 9.008 268.458 16.136 268.458 23.156ZM275.19 22.796C275.19 17.216 278.538 13.652 282.75 13.652C286.566 13.652 289.734 16.496 289.698 22.004C289.662 28.304 285.558 30.932 282.174 30.932C278.106 30.932 275.19 27.872 275.19 22.796ZM323.018 35C322.946 34.28 322.766 27.836 322.766 22.652V14.3C324.35 14.3 331.01 14.48 331.694 14.588V9.584C329.93 9.8 322.082 9.944 321.398 9.944H318.266C317.87 9.944 309.338 9.8 307.718 9.584V14.588C308.834 14.48 313.946 14.3 316.646 14.3V22.076C316.646 26.72 316.61 34.064 316.502 35H323.018ZM342.287 35C342.251 34.172 342.143 27.872 342.143 26.252V24.56L354.239 23.876V27.008C354.239 27.692 354.131 33.776 354.059 35H360.503C360.431 34.316 360.359 25.316 360.359 24.848V21.248C360.359 20.384 360.467 10.448 360.539 9.584H354.095C354.167 10.376 354.239 16.64 354.239 17.252V19.304L342.143 19.988V18.008C342.143 17.36 342.251 10.232 342.323 9.584H335.843C335.915 10.448 336.023 19.556 336.023 20.168V24.056C336.023 24.992 335.987 33.416 335.915 35H342.287ZM375.616 35C375.58 34.172 375.472 27.728 375.472 24.128V20.24C375.472 15.92 375.58 10.232 375.616 9.584H369.208C369.244 10.448 369.352 19.556 369.352 20.168V24.056C369.352 24.992 369.316 33.416 369.244 35H375.616ZM384.397 35.648C393.685 34.244 397.645 29.672 397.645 25.892C397.645 22.76 394.873 21.356 392.677 20.168C390.661 19.088 388.969 18.26 388.969 17.036C388.969 14.948 392.461 13.796 396.025 13.652L395.161 8.936C387.745 9.872 382.381 13.904 382.381 17.864C382.381 20.744 384.829 22.4 387.421 23.876C390.229 25.46 390.985 26.072 390.985 27.224C390.985 29.348 386.917 30.644 383.425 30.86L384.397 35.648ZM419.59 35C419.518 34.244 419.518 30.32 419.518 29.6V28.16C427.438 26.756 431.866 22.112 431.866 17.324C431.866 13.364 428.77 11.168 424.666 10.304C422.002 9.728 418.15 9.584 413.47 9.584C413.47 10.124 413.578 17.432 413.578 18.26V22.22C413.578 24.776 413.506 33.452 413.47 35H419.59ZM419.518 13.652C424.774 13.868 425.638 16.496 425.638 18.152C425.638 21.536 422.614 23.552 419.518 24.128V13.652ZM443.817 35C443.745 34.46 443.637 25.352 443.637 23.984V13.544C448.713 13.58 449.901 15.488 449.901 17.18C449.901 20.024 446.913 22.112 445.221 23.048C446.265 24.596 453.681 34.928 454.329 35.936L459.405 32.048C458.469 31.004 452.565 24.416 451.557 23.192C454.401 21.248 456.345 18.944 456.345 15.956C456.345 12.716 453.537 10.7 448.353 10.052C445.329 9.656 441.117 9.584 437.481 9.584C437.589 10.268 437.661 17.936 437.661 19.016V21.968C437.661 22.724 437.733 34.136 437.589 35H443.817ZM470.608 35C470.572 34.172 470.464 27.728 470.464 24.128V20.24C470.464 15.92 470.572 10.232 470.608 9.584H464.2C464.236 10.448 464.344 19.556 464.344 20.168V24.056C464.344 24.992 464.308 33.416 464.236 35H470.608ZM475.213 12.104C476.365 13.904 486.085 32.516 488.605 36.368H488.857C491.017 32.912 501.997 13.868 503.293 11.924L497.605 8.9C497.137 10.052 490.045 24.2 489.109 26.144C488.173 24.164 481.693 10.52 481.009 8.9L475.213 12.104ZM505.817 35.972C506.609 34.46 508.517 30.14 508.841 29.42L520.361 28.88C520.757 29.42 523.385 34.316 524.285 35.936L529.757 32.624C527.885 29.852 518.669 14.228 514.817 8.288H514.565C512.153 12.104 502.001 30.428 500.561 32.948L505.817 35.972ZM510.713 25.244C511.397 23.84 513.845 18.764 514.565 17.36C515.105 18.476 517.733 23.372 518.489 24.884L510.713 25.244ZM551.579 30.176C550.571 30.356 549.275 30.5 547.835 30.5C541.463 30.5 538.259 27.476 538.259 24.02C538.259 19.556 542.867 15.596 550.715 14.408L549.563 9.008C537.035 11.528 531.599 18.872 531.599 24.812C531.599 29.024 535.415 35.576 547.439 35.576C549.311 35.576 550.751 35.432 551.939 35.252L551.579 30.176ZM569.177 35C569.105 34.28 568.997 31.076 568.997 30.572V27.8C568.997 23.624 570.833 20.204 573.101 18.008C574.901 16.244 577.241 14.984 579.149 14.516L577.169 9.008C574.793 9.764 572.201 11.492 570.545 13.184C568.709 15.056 567.305 17.036 566.405 19.592H566.189C565.361 16.82 563.705 14.552 562.229 12.968C560.753 11.456 558.305 9.98 556.109 9.008L553.697 14.516C555.173 15.02 556.829 15.992 558.269 17.252C560.789 19.448 562.913 23.156 562.913 27.836V29.888C562.913 30.356 562.769 34.172 562.733 35H569.177ZM599.801 35C599.729 34.244 599.729 30.32 599.729 29.6V28.16C607.649 26.756 612.077 22.112 612.077 17.324C612.077 13.364 608.981 11.168 604.877 10.304C602.213 9.728 598.361 9.584 593.681 9.584C593.681 10.124 593.789 17.432 593.789 18.26V22.22C593.789 24.776 593.717 33.452 593.681 35H599.801ZM599.729 13.652C604.985 13.868 605.849 16.496 605.849 18.152C605.849 21.536 602.825 23.552 599.729 24.128V13.652ZM615.24 23.156C615.24 30.14 620.172 35.54 628.272 35.576C639.468 35.576 643.248 26.972 643.248 21.824C643.248 13.616 637.812 9.008 630.036 9.008C620.568 9.008 615.24 16.136 615.24 23.156ZM621.972 22.796C621.972 17.216 625.32 13.652 629.532 13.652C633.348 13.652 636.516 16.496 636.48 22.004C636.444 28.304 632.34 30.932 628.956 30.932C624.888 30.932 621.972 27.872 621.972 22.796ZM663.629 30.14C660.533 30.284 656.285 30.284 655.421 30.284V22.22C655.421 17.684 655.565 10.412 655.637 9.584H649.157C649.229 10.268 649.301 19.16 649.301 19.736V24.524C649.301 25.388 649.301 33.092 649.121 35C651.209 35 662.945 35.36 663.665 35.36L663.629 30.14ZM675.885 35C675.849 34.172 675.741 27.728 675.741 24.128V20.24C675.741 15.92 675.849 10.232 675.885 9.584H669.477C669.513 10.448 669.621 19.556 669.621 20.168V24.056C669.621 24.992 669.585 33.416 669.513 35H675.885ZM701.591 30.176C700.583 30.356 699.287 30.5 697.847 30.5C691.475 30.5 688.271 27.476 688.271 24.02C688.271 19.556 692.879 15.596 700.727 14.408L699.575 9.008C687.047 11.528 681.611 18.872 681.611 24.812C681.611 29.024 685.427 35.576 697.451 35.576C699.323 35.576 700.763 35.432 701.951 35.252L701.591 30.176ZM719.189 35C719.117 34.28 719.009 31.076 719.009 30.572V27.8C719.009 23.624 720.845 20.204 723.113 18.008C724.913 16.244 727.253 14.984 729.161 14.516L727.181 9.008C724.805 9.764 722.213 11.492 720.557 13.184C718.721 15.056 717.317 17.036 716.417 19.592H716.201C715.373 16.82 713.717 14.552 712.241 12.968C710.765 11.456 708.317 9.98 706.121 9.008L703.709 14.516C705.185 15.02 706.841 15.992 708.281 17.252C710.801 19.448 712.925 23.156 712.925 27.836V29.888C712.925 30.356 712.781 34.172 712.745 35H719.189Z" fill="url(#paint2_linear_141_57)"/>
</g>
<g style="mix-blend-mode:color-dodge" filter="url(#filter2_f_141_57)">
<circle cx="527.592" cy="-10.328" r="41.0164" fill="#0094FF"/>
</g>
<g style="mix-blend-mode:color-dodge" filter="url(#filter3_f_141_57)">
<circle cx="343.018" cy="-0.757397" r="41.0164" fill="#0094FF"/>
</g>
<g style="mix-blend-mode:color-dodge" filter="url(#filter4_f_141_57)">
<circle cx="225.438" cy="-10.328" r="41.0164" fill="#0094FF"/>
</g>
<g style="mix-blend-mode:color-dodge" filter="url(#filter5_f_141_57)">
<circle cx="87.3494" cy="-6.22651" r="41.0164" fill="#0094FF"/>
</g>
</g>
<defs>
<filter id="filter0_i_141_57" x="4.104" y="12.288" width="725.057" height="28.0801" filterUnits="userSpaceOnUse" color-interpolation-filters="sRGB">
<feFlood flood-opacity="0" result="BackgroundImageFix"/>
<feBlend mode="normal" in="SourceGraphic" in2="BackgroundImageFix" result="shape"/>
<feColorMatrix in="SourceAlpha" type="matrix" values="0 0 0 0 0 0 0 0 0 0 0 0 0 0 0 0 0 0 127 0" result="hardAlpha"/>
<feOffset dy="-1.36721"/>
<feComposite in2="hardAlpha" operator="arithmetic" k2="-1" k3="1"/>
<feColorMatrix type="matrix" values="0 0 0 0 1 0 0 0 0 1 0 0 0 0 1 0 0 0 1 0"/>
<feBlend mode="normal" in2="shape" result="effect1_innerShadow_141_57"/>
</filter>
<filter id="filter1_i_141_57" x="4.104" y="8.28796" width="725.057" height="28.0801" filterUnits="userSpaceOnUse" color-interpolation-filters="sRGB">
<feFlood flood-opacity="0" result="BackgroundImageFix"/>
<feBlend mode="normal" in="SourceGraphic" in2="BackgroundImageFix" result="shape"/>
<feColorMatrix in="SourceAlpha" type="matrix" values="0 0 0 0 0 0 0 0 0 0 0 0 0 0 0 0 0 0 127 0" result="hardAlpha"/>
<feOffset dy="-1.36721"/>
<feComposite in2="hardAlpha" operator="arithmetic" k2="-1" k3="1"/>
<feColorMatrix type="matrix" values="0 0 0 0 1 0 0 0 0 1 0 0 0 0 1 0 0 0 1 0"/>
<feBlend mode="normal" in2="shape" result="effect1_innerShadow_141_57"/>
</filter>
<filter id="filter2_f_141_57" x="446.243" y="-91.6772" width="162.698" height="162.698" filterUnits="userSpaceOnUse" color-interpolation-filters="sRGB">
<feFlood flood-opacity="0" result="BackgroundImageFix"/>
<feBlend mode="normal" in="SourceGraphic" in2="BackgroundImageFix" result="shape"/>
<feGaussianBlur stdDeviation="20.1664" result="effect1_foregroundBlur_141_57"/>
</filter>
<filter id="filter3_f_141_57" x="261.669" y="-82.1066" width="162.698" height="162.698" filterUnits="userSpaceOnUse" color-interpolation-filters="sRGB">
<feFlood flood-opacity="0" result="BackgroundImageFix"/>
<feBlend mode="normal" in="SourceGraphic" in2="BackgroundImageFix" result="shape"/>
<feGaussianBlur stdDeviation="20.1664" result="effect1_foregroundBlur_141_57"/>
</filter>
<filter id="filter4_f_141_57" x="144.089" y="-91.6772" width="162.698" height="162.698" filterUnits="userSpaceOnUse" color-interpolation-filters="sRGB">
<feFlood flood-opacity="0" result="BackgroundImageFix"/>
<feBlend mode="normal" in="SourceGraphic" in2="BackgroundImageFix" result="shape"/>
<feGaussianBlur stdDeviation="20.1664" result="effect1_foregroundBlur_141_57"/>
</filter>
<filter id="filter5_f_141_57" x="6.00021" y="-87.5757" width="162.698" height="162.698" filterUnits="userSpaceOnUse" color-interpolation-filters="sRGB">
<feFlood flood-opacity="0" result="BackgroundImageFix"/>
<feBlend mode="normal" in="SourceGraphic" in2="BackgroundImageFix" result="shape"/>
<feGaussianBlur stdDeviation="20.1664" result="effect1_foregroundBlur_141_57"/>
</filter>
<linearGradient id="paint0_linear_141_57" x1="13.3155" y1="3.99997" x2="632.826" y2="302.394" gradientUnits="userSpaceOnUse">
<stop stop-color="#00538F"/>
<stop offset="1" stop-color="#005FA4"/>
</linearGradient>
<linearGradient id="paint1_linear_141_57" x1="13.3155" y1="-3.3335e-05" x2="632.826" y2="298.394" gradientUnits="userSpaceOnUse">
<stop stop-color="#3AACFF"/>
<stop offset="1" stop-color="#0094FF"/>
</linearGradient>
<linearGradient id="paint2_linear_141_57" x1="13.3155" y1="-3.3335e-05" x2="632.826" y2="298.394" gradientUnits="userSpaceOnUse">
<stop stop-color="#3AACFF"/>
<stop offset="1" stop-color="#0094FF"/>
</linearGradient>
</defs>
</svg>
