<svg width="464" height="57" viewBox="0 0 464 57" fill="none" xmlns="http://www.w3.org/2000/svg">
<g filter="url(#filter0_i_141_21)">
<path d="M20.592 39C20.556 37.956 20.52 36.444 20.52 35.472V34.14L24.3 34.284L24.552 30.036L20.556 30.18L20.592 13.404L17.82 12.72L2.196 32.196L2.988 34.176H15.084V35.076C15.084 36.624 14.94 37.992 14.904 39H20.592ZM15.3 30.18H8.964C10.044 28.776 13.068 24.888 15.228 21.72H15.3V30.18ZM30.5438 34.068V39H35.7278V34.068H30.5438ZM52.5938 27.624C52.5938 28.596 52.5218 37.524 52.3778 39.18C62.6018 39.18 76.3538 34.536 76.3538 23.268C76.3538 20.532 74.7338 15.492 64.3298 14.124C61.0898 13.692 57.1658 13.584 52.4138 13.584C52.5578 14.592 52.5938 22.404 52.5938 23.16V27.624ZM58.6418 18.12C64.7258 18.084 69.6938 19.668 69.6938 24.384C69.6938 29.388 64.6178 33.204 58.6418 33.924V18.12ZM88.5648 39C88.5288 38.172 88.4208 31.728 88.4208 28.128V24.24C88.4208 19.92 88.5288 14.232 88.5648 13.584H82.1568C82.1928 14.448 82.3008 23.556 82.3008 24.168V28.056C82.3008 28.992 82.2648 37.416 82.1928 39H88.5648ZM97.346 39.648C106.634 38.244 110.594 33.672 110.594 29.892C110.594 26.76 107.822 25.356 105.626 24.168C103.61 23.088 101.918 22.26 101.918 21.036C101.918 18.948 105.41 17.796 108.974 17.652L108.11 12.936C100.694 13.872 95.33 17.904 95.33 21.864C95.33 24.744 97.778 26.4 100.37 27.876C103.178 29.46 103.934 30.072 103.934 31.224C103.934 33.348 99.866 34.644 96.374 34.86L97.346 39.648ZM133.852 34.176C132.844 34.356 131.548 34.5 130.108 34.5C123.736 34.5 120.532 31.476 120.532 28.02C120.532 23.556 125.14 19.596 132.988 18.408L131.836 13.008C119.308 15.528 113.872 22.872 113.872 28.812C113.872 33.024 117.688 39.576 129.712 39.576C131.584 39.576 133.024 39.432 134.212 39.252L133.852 34.176ZM154.601 34.14C151.505 34.284 147.257 34.284 146.393 34.284V26.22C146.393 21.684 146.537 14.412 146.609 13.584H140.129C140.201 14.268 140.273 23.16 140.273 23.736V28.524C140.273 29.388 140.273 37.092 140.093 39C142.181 39 153.917 39.36 154.637 39.36L154.601 34.14ZM157.646 27.156C157.646 34.14 162.578 39.54 170.678 39.576C181.874 39.576 185.654 30.972 185.654 25.824C185.654 17.616 180.218 13.008 172.442 13.008C162.974 13.008 157.646 20.136 157.646 27.156ZM164.378 26.796C164.378 21.216 167.726 17.652 171.938 17.652C175.754 17.652 178.922 20.496 178.886 26.004C178.85 32.304 174.746 34.932 171.362 34.932C167.294 34.932 164.378 31.872 164.378 26.796ZM191.811 39.648C201.099 38.244 205.059 33.672 205.059 29.892C205.059 26.76 202.287 25.356 200.091 24.168C198.075 23.088 196.383 22.26 196.383 21.036C196.383 18.948 199.875 17.796 203.439 17.652L202.575 12.936C195.159 13.872 189.795 17.904 189.795 21.864C189.795 24.744 192.243 26.4 194.835 27.876C197.643 29.46 198.399 30.072 198.399 31.224C198.399 33.348 194.331 34.644 190.839 34.86L191.811 39.648ZM234.077 19.452C234.077 16.608 234.041 14.016 234.041 13.224H227.705C227.741 14.556 227.885 16.896 227.885 19.38V20.712C227.885 27.516 227.849 30.216 226.553 32.196C225.581 33.672 224.105 34.572 222.161 34.572C220.469 34.572 218.921 33.96 217.841 32.376C216.473 30.432 216.185 27.804 216.185 22.332V19.884C216.185 16.608 216.257 14.7 216.401 13.764H209.993C209.993 14.592 209.957 17.436 209.957 19.092V21.036C209.957 29.784 210.569 32.52 212.297 35.148C214.961 39.144 219.173 39.576 221.693 39.576C225.617 39.576 228.785 38.28 230.945 35.616C233.681 32.34 234.077 28.02 234.077 21.108V19.452ZM247.786 39C247.714 38.46 247.606 29.352 247.606 27.984V17.544C252.682 17.58 253.87 19.488 253.87 21.18C253.87 24.024 250.882 26.112 249.19 27.048C250.234 28.596 257.65 38.928 258.298 39.936L263.374 36.048C262.438 35.004 256.534 28.416 255.526 27.192C258.37 25.248 260.314 22.944 260.314 19.956C260.314 16.716 257.506 14.7 252.322 14.052C249.298 13.656 245.086 13.584 241.45 13.584C241.558 14.268 241.63 21.936 241.63 23.016V25.968C241.63 26.724 241.702 38.136 241.558 39H247.786ZM282.569 34.428C280.373 34.608 275.261 34.536 274.361 34.536V28.38C275.117 28.38 280.193 28.524 281.057 28.524L280.949 23.988C279.293 24.132 275.045 24.312 274.361 24.312V17.76C274.973 17.76 280.913 17.58 282.137 17.58L281.992 12.936C280.769 13.044 269.753 13.584 268.205 13.584C268.241 14.484 268.312 23.16 268.312 23.736V28.56C268.312 29.388 268.312 37.092 268.205 39C269.609 39 281.741 39.36 282.713 39.36L282.569 34.428ZM296.9 27.156C296.9 34.14 301.832 39.54 309.932 39.576C321.128 39.576 324.908 30.972 324.908 25.824C324.908 17.616 319.472 13.008 311.696 13.008C302.228 13.008 296.9 20.136 296.9 27.156ZM303.632 26.796C303.632 21.216 306.98 17.652 311.192 17.652C315.008 17.652 318.176 20.496 318.14 26.004C318.104 32.304 314 34.932 310.616 34.932C306.548 34.932 303.632 31.872 303.632 26.796ZM337.081 39C337.009 38.496 337.009 32.736 337.009 32.16V28.956L344.353 29.064L344.245 24.564C341.185 24.672 337.657 24.888 337.009 24.888V17.868L344.929 17.688L344.785 13.044C341.977 13.188 332.941 13.584 330.817 13.584C330.889 14.484 330.961 23.16 330.961 23.736V28.524C330.961 29.388 330.961 37.092 330.781 39H337.081ZM361.336 27.624C361.336 28.596 361.264 37.524 361.12 39.18C371.344 39.18 385.096 34.536 385.096 23.268C385.096 20.532 383.476 15.492 373.072 14.124C369.832 13.692 365.908 13.584 361.156 13.584C361.3 14.592 361.336 22.404 361.336 23.16V27.624ZM367.384 18.12C373.468 18.084 378.436 19.668 378.436 24.384C378.436 29.388 373.36 33.204 367.384 33.924V18.12ZM390.294 39.972C391.086 38.46 392.994 34.14 393.318 33.42L404.838 32.88C405.234 33.42 407.862 38.316 408.762 39.936L414.234 36.624C412.362 33.852 403.146 18.228 399.294 12.288H399.042C396.63 16.104 386.478 34.428 385.038 36.948L390.294 39.972ZM395.19 29.244C395.874 27.84 398.322 22.764 399.042 21.36C399.582 22.476 402.21 27.372 402.966 28.884L395.19 29.244ZM427.679 39C427.607 38.28 427.427 31.836 427.427 26.652V18.3C429.011 18.3 435.671 18.48 436.355 18.588V13.584C434.591 13.8 426.743 13.944 426.059 13.944H422.927C422.531 13.944 413.999 13.8 412.379 13.584V18.588C413.495 18.48 418.607 18.3 421.307 18.3V26.076C421.307 30.72 421.271 38.064 421.163 39H427.679ZM439.372 39.972C440.164 38.46 442.072 34.14 442.396 33.42L453.916 32.88C454.312 33.42 456.94 38.316 457.84 39.936L463.312 36.624C461.44 33.852 452.224 18.228 448.372 12.288H448.12C445.708 16.104 435.556 34.428 434.116 36.948L439.372 39.972ZM444.268 29.244C444.952 27.84 447.4 22.764 448.12 21.36C448.66 22.476 451.288 27.372 452.044 28.884L444.268 29.244Z" fill="url(#paint0_linear_141_21)"/>
</g>
<mask id="mask0_141_21" style="mask-type:alpha" maskUnits="userSpaceOnUse" x="2" y="8" width="462" height="28">
<path d="M20.592 35C20.556 33.956 20.52 32.444 20.52 31.472V30.14L24.3 30.284L24.552 26.036L20.556 26.18L20.592 9.404L17.82 8.72L2.196 28.196L2.988 30.176H15.084V31.076C15.084 32.624 14.94 33.992 14.904 35H20.592ZM15.3 26.18H8.964C10.044 24.776 13.068 20.888 15.228 17.72H15.3V26.18ZM30.5438 30.068V35H35.7278V30.068H30.5438ZM52.5938 23.624C52.5938 24.596 52.5218 33.524 52.3778 35.18C62.6018 35.18 76.3538 30.536 76.3538 19.268C76.3538 16.532 74.7338 11.492 64.3298 10.124C61.0898 9.692 57.1658 9.584 52.4138 9.584C52.5578 10.592 52.5938 18.404 52.5938 19.16V23.624ZM58.6418 14.12C64.7258 14.084 69.6938 15.668 69.6938 20.384C69.6938 25.388 64.6178 29.204 58.6418 29.924V14.12ZM88.5648 35C88.5288 34.172 88.4208 27.728 88.4208 24.128V20.24C88.4208 15.92 88.5288 10.232 88.5648 9.584H82.1568C82.1928 10.448 82.3008 19.556 82.3008 20.168V24.056C82.3008 24.992 82.2648 33.416 82.1928 35H88.5648ZM97.346 35.648C106.634 34.244 110.594 29.672 110.594 25.892C110.594 22.76 107.822 21.356 105.626 20.168C103.61 19.088 101.918 18.26 101.918 17.036C101.918 14.948 105.41 13.796 108.974 13.652L108.11 8.936C100.694 9.872 95.33 13.904 95.33 17.864C95.33 20.744 97.778 22.4 100.37 23.876C103.178 25.46 103.934 26.072 103.934 27.224C103.934 29.348 99.866 30.644 96.374 30.86L97.346 35.648ZM133.852 30.176C132.844 30.356 131.548 30.5 130.108 30.5C123.736 30.5 120.532 27.476 120.532 24.02C120.532 19.556 125.14 15.596 132.988 14.408L131.836 9.008C119.308 11.528 113.872 18.872 113.872 24.812C113.872 29.024 117.688 35.576 129.712 35.576C131.584 35.576 133.024 35.432 134.212 35.252L133.852 30.176ZM154.601 30.14C151.505 30.284 147.257 30.284 146.393 30.284V22.22C146.393 17.684 146.537 10.412 146.609 9.584H140.129C140.201 10.268 140.273 19.16 140.273 19.736V24.524C140.273 25.388 140.273 33.092 140.093 35C142.181 35 153.917 35.36 154.637 35.36L154.601 30.14ZM157.646 23.156C157.646 30.14 162.578 35.54 170.678 35.576C181.874 35.576 185.654 26.972 185.654 21.824C185.654 13.616 180.218 9.008 172.442 9.008C162.974 9.008 157.646 16.136 157.646 23.156ZM164.378 22.796C164.378 17.216 167.726 13.652 171.938 13.652C175.754 13.652 178.922 16.496 178.886 22.004C178.85 28.304 174.746 30.932 171.362 30.932C167.294 30.932 164.378 27.872 164.378 22.796ZM191.811 35.648C201.099 34.244 205.059 29.672 205.059 25.892C205.059 22.76 202.287 21.356 200.091 20.168C198.075 19.088 196.383 18.26 196.383 17.036C196.383 14.948 199.875 13.796 203.439 13.652L202.575 8.936C195.159 9.872 189.795 13.904 189.795 17.864C189.795 20.744 192.243 22.4 194.835 23.876C197.643 25.46 198.399 26.072 198.399 27.224C198.399 29.348 194.331 30.644 190.839 30.86L191.811 35.648ZM234.077 15.452C234.077 12.608 234.041 10.016 234.041 9.224H227.705C227.741 10.556 227.885 12.896 227.885 15.38V16.712C227.885 23.516 227.849 26.216 226.553 28.196C225.581 29.672 224.105 30.572 222.161 30.572C220.469 30.572 218.921 29.96 217.841 28.376C216.473 26.432 216.185 23.804 216.185 18.332V15.884C216.185 12.608 216.257 10.7 216.401 9.764H209.993C209.993 10.592 209.957 13.436 209.957 15.092V17.036C209.957 25.784 210.569 28.52 212.297 31.148C214.961 35.144 219.173 35.576 221.693 35.576C225.617 35.576 228.785 34.28 230.945 31.616C233.681 28.34 234.077 24.02 234.077 17.108V15.452ZM247.786 35C247.714 34.46 247.606 25.352 247.606 23.984V13.544C252.682 13.58 253.87 15.488 253.87 17.18C253.87 20.024 250.882 22.112 249.19 23.048C250.234 24.596 257.65 34.928 258.298 35.936L263.374 32.048C262.438 31.004 256.534 24.416 255.526 23.192C258.37 21.248 260.314 18.944 260.314 15.956C260.314 12.716 257.506 10.7 252.322 10.052C249.298 9.656 245.086 9.584 241.45 9.584C241.558 10.268 241.63 17.936 241.63 19.016V21.968C241.63 22.724 241.702 34.136 241.558 35H247.786ZM282.569 30.428C280.373 30.608 275.261 30.536 274.361 30.536V24.38C275.117 24.38 280.193 24.524 281.057 24.524L280.949 19.988C279.293 20.132 275.045 20.312 274.361 20.312V13.76C274.973 13.76 280.913 13.58 282.137 13.58L281.992 8.936C280.769 9.044 269.753 9.584 268.205 9.584C268.241 10.484 268.312 19.16 268.312 19.736V24.56C268.312 25.388 268.312 33.092 268.205 35C269.609 35 281.741 35.36 282.713 35.36L282.569 30.428ZM296.9 23.156C296.9 30.14 301.832 35.54 309.932 35.576C321.128 35.576 324.908 26.972 324.908 21.824C324.908 13.616 319.472 9.008 311.696 9.008C302.228 9.008 296.9 16.136 296.9 23.156ZM303.632 22.796C303.632 17.216 306.98 13.652 311.192 13.652C315.008 13.652 318.176 16.496 318.14 22.004C318.104 28.304 314 30.932 310.616 30.932C306.548 30.932 303.632 27.872 303.632 22.796ZM337.081 35C337.009 34.496 337.009 28.736 337.009 28.16V24.956L344.353 25.064L344.245 20.564C341.185 20.672 337.657 20.888 337.009 20.888V13.868L344.929 13.688L344.785 9.044C341.977 9.188 332.941 9.584 330.817 9.584C330.889 10.484 330.961 19.16 330.961 19.736V24.524C330.961 25.388 330.961 33.092 330.781 35H337.081ZM361.336 23.624C361.336 24.596 361.264 33.524 361.12 35.18C371.344 35.18 385.096 30.536 385.096 19.268C385.096 16.532 383.476 11.492 373.072 10.124C369.832 9.692 365.908 9.584 361.156 9.584C361.3 10.592 361.336 18.404 361.336 19.16V23.624ZM367.384 14.12C373.468 14.084 378.436 15.668 378.436 20.384C378.436 25.388 373.36 29.204 367.384 29.924V14.12ZM390.294 35.972C391.086 34.46 392.994 30.14 393.318 29.42L404.838 28.88C405.234 29.42 407.862 34.316 408.762 35.936L414.234 32.624C412.362 29.852 403.146 14.228 399.294 8.288H399.042C396.63 12.104 386.478 30.428 385.038 32.948L390.294 35.972ZM395.19 25.244C395.874 23.84 398.322 18.764 399.042 17.36C399.582 18.476 402.21 23.372 402.966 24.884L395.19 25.244ZM427.679 35C427.607 34.28 427.427 27.836 427.427 22.652V14.3C429.011 14.3 435.671 14.48 436.355 14.588V9.584C434.591 9.8 426.743 9.944 426.059 9.944H422.927C422.531 9.944 413.999 9.8 412.379 9.584V14.588C413.495 14.48 418.607 14.3 421.307 14.3V22.076C421.307 26.72 421.271 34.064 421.163 35H427.679ZM439.372 35.972C440.164 34.46 442.072 30.14 442.396 29.42L453.916 28.88C454.312 29.42 456.94 34.316 457.84 35.936L463.312 32.624C461.44 29.852 452.224 14.228 448.372 8.288H448.12C445.708 12.104 435.556 30.428 434.116 32.948L439.372 35.972ZM444.268 25.244C444.952 23.84 447.4 18.764 448.12 17.36C448.66 18.476 451.288 23.372 452.044 24.884L444.268 25.244Z" fill="url(#paint1_linear_141_21)"/>
</mask>
<g mask="url(#mask0_141_21)">
<g filter="url(#filter1_i_141_21)">
<path d="M20.592 35C20.556 33.956 20.52 32.444 20.52 31.472V30.14L24.3 30.284L24.552 26.036L20.556 26.18L20.592 9.404L17.82 8.72L2.196 28.196L2.988 30.176H15.084V31.076C15.084 32.624 14.94 33.992 14.904 35H20.592ZM15.3 26.18H8.964C10.044 24.776 13.068 20.888 15.228 17.72H15.3V26.18ZM30.5438 30.068V35H35.7278V30.068H30.5438ZM52.5938 23.624C52.5938 24.596 52.5218 33.524 52.3778 35.18C62.6018 35.18 76.3538 30.536 76.3538 19.268C76.3538 16.532 74.7338 11.492 64.3298 10.124C61.0898 9.692 57.1658 9.584 52.4138 9.584C52.5578 10.592 52.5938 18.404 52.5938 19.16V23.624ZM58.6418 14.12C64.7258 14.084 69.6938 15.668 69.6938 20.384C69.6938 25.388 64.6178 29.204 58.6418 29.924V14.12ZM88.5648 35C88.5288 34.172 88.4208 27.728 88.4208 24.128V20.24C88.4208 15.92 88.5288 10.232 88.5648 9.584H82.1568C82.1928 10.448 82.3008 19.556 82.3008 20.168V24.056C82.3008 24.992 82.2648 33.416 82.1928 35H88.5648ZM97.346 35.648C106.634 34.244 110.594 29.672 110.594 25.892C110.594 22.76 107.822 21.356 105.626 20.168C103.61 19.088 101.918 18.26 101.918 17.036C101.918 14.948 105.41 13.796 108.974 13.652L108.11 8.936C100.694 9.872 95.33 13.904 95.33 17.864C95.33 20.744 97.778 22.4 100.37 23.876C103.178 25.46 103.934 26.072 103.934 27.224C103.934 29.348 99.866 30.644 96.374 30.86L97.346 35.648ZM133.852 30.176C132.844 30.356 131.548 30.5 130.108 30.5C123.736 30.5 120.532 27.476 120.532 24.02C120.532 19.556 125.14 15.596 132.988 14.408L131.836 9.008C119.308 11.528 113.872 18.872 113.872 24.812C113.872 29.024 117.688 35.576 129.712 35.576C131.584 35.576 133.024 35.432 134.212 35.252L133.852 30.176ZM154.601 30.14C151.505 30.284 147.257 30.284 146.393 30.284V22.22C146.393 17.684 146.537 10.412 146.609 9.584H140.129C140.201 10.268 140.273 19.16 140.273 19.736V24.524C140.273 25.388 140.273 33.092 140.093 35C142.181 35 153.917 35.36 154.637 35.36L154.601 30.14ZM157.646 23.156C157.646 30.14 162.578 35.54 170.678 35.576C181.874 35.576 185.654 26.972 185.654 21.824C185.654 13.616 180.218 9.008 172.442 9.008C162.974 9.008 157.646 16.136 157.646 23.156ZM164.378 22.796C164.378 17.216 167.726 13.652 171.938 13.652C175.754 13.652 178.922 16.496 178.886 22.004C178.85 28.304 174.746 30.932 171.362 30.932C167.294 30.932 164.378 27.872 164.378 22.796ZM191.811 35.648C201.099 34.244 205.059 29.672 205.059 25.892C205.059 22.76 202.287 21.356 200.091 20.168C198.075 19.088 196.383 18.26 196.383 17.036C196.383 14.948 199.875 13.796 203.439 13.652L202.575 8.936C195.159 9.872 189.795 13.904 189.795 17.864C189.795 20.744 192.243 22.4 194.835 23.876C197.643 25.46 198.399 26.072 198.399 27.224C198.399 29.348 194.331 30.644 190.839 30.86L191.811 35.648ZM234.077 15.452C234.077 12.608 234.041 10.016 234.041 9.224H227.705C227.741 10.556 227.885 12.896 227.885 15.38V16.712C227.885 23.516 227.849 26.216 226.553 28.196C225.581 29.672 224.105 30.572 222.161 30.572C220.469 30.572 218.921 29.96 217.841 28.376C216.473 26.432 216.185 23.804 216.185 18.332V15.884C216.185 12.608 216.257 10.7 216.401 9.764H209.993C209.993 10.592 209.957 13.436 209.957 15.092V17.036C209.957 25.784 210.569 28.52 212.297 31.148C214.961 35.144 219.173 35.576 221.693 35.576C225.617 35.576 228.785 34.28 230.945 31.616C233.681 28.34 234.077 24.02 234.077 17.108V15.452ZM247.786 35C247.714 34.46 247.606 25.352 247.606 23.984V13.544C252.682 13.58 253.87 15.488 253.87 17.18C253.87 20.024 250.882 22.112 249.19 23.048C250.234 24.596 257.65 34.928 258.298 35.936L263.374 32.048C262.438 31.004 256.534 24.416 255.526 23.192C258.37 21.248 260.314 18.944 260.314 15.956C260.314 12.716 257.506 10.7 252.322 10.052C249.298 9.656 245.086 9.584 241.45 9.584C241.558 10.268 241.63 17.936 241.63 19.016V21.968C241.63 22.724 241.702 34.136 241.558 35H247.786ZM282.569 30.428C280.373 30.608 275.261 30.536 274.361 30.536V24.38C275.117 24.38 280.193 24.524 281.057 24.524L280.949 19.988C279.293 20.132 275.045 20.312 274.361 20.312V13.76C274.973 13.76 280.913 13.58 282.137 13.58L281.992 8.936C280.769 9.044 269.753 9.584 268.205 9.584C268.241 10.484 268.312 19.16 268.312 19.736V24.56C268.312 25.388 268.312 33.092 268.205 35C269.609 35 281.741 35.36 282.713 35.36L282.569 30.428ZM296.9 23.156C296.9 30.14 301.832 35.54 309.932 35.576C321.128 35.576 324.908 26.972 324.908 21.824C324.908 13.616 319.472 9.008 311.696 9.008C302.228 9.008 296.9 16.136 296.9 23.156ZM303.632 22.796C303.632 17.216 306.98 13.652 311.192 13.652C315.008 13.652 318.176 16.496 318.14 22.004C318.104 28.304 314 30.932 310.616 30.932C306.548 30.932 303.632 27.872 303.632 22.796ZM337.081 35C337.009 34.496 337.009 28.736 337.009 28.16V24.956L344.353 25.064L344.245 20.564C341.185 20.672 337.657 20.888 337.009 20.888V13.868L344.929 13.688L344.785 9.044C341.977 9.188 332.941 9.584 330.817 9.584C330.889 10.484 330.961 19.16 330.961 19.736V24.524C330.961 25.388 330.961 33.092 330.781 35H337.081ZM361.336 23.624C361.336 24.596 361.264 33.524 361.12 35.18C371.344 35.18 385.096 30.536 385.096 19.268C385.096 16.532 383.476 11.492 373.072 10.124C369.832 9.692 365.908 9.584 361.156 9.584C361.3 10.592 361.336 18.404 361.336 19.16V23.624ZM367.384 14.12C373.468 14.084 378.436 15.668 378.436 20.384C378.436 25.388 373.36 29.204 367.384 29.924V14.12ZM390.294 35.972C391.086 34.46 392.994 30.14 393.318 29.42L404.838 28.88C405.234 29.42 407.862 34.316 408.762 35.936L414.234 32.624C412.362 29.852 403.146 14.228 399.294 8.288H399.042C396.63 12.104 386.478 30.428 385.038 32.948L390.294 35.972ZM395.19 25.244C395.874 23.84 398.322 18.764 399.042 17.36C399.582 18.476 402.21 23.372 402.966 24.884L395.19 25.244ZM427.679 35C427.607 34.28 427.427 27.836 427.427 22.652V14.3C429.011 14.3 435.671 14.48 436.355 14.588V9.584C434.591 9.8 426.743 9.944 426.059 9.944H422.927C422.531 9.944 413.999 9.8 412.379 9.584V14.588C413.495 14.48 418.607 14.3 421.307 14.3V22.076C421.307 26.72 421.271 34.064 421.163 35H427.679ZM439.372 35.972C440.164 34.46 442.072 30.14 442.396 29.42L453.916 28.88C454.312 29.42 456.94 34.316 457.84 35.936L463.312 32.624C461.44 29.852 452.224 14.228 448.372 8.288H448.12C445.708 12.104 435.556 30.428 434.116 32.948L439.372 35.972ZM444.268 25.244C444.952 23.84 447.4 18.764 448.12 17.36C448.66 18.476 451.288 23.372 452.044 24.884L444.268 25.244Z" fill="url(#paint2_linear_141_21)"/>
</g>
<g style="mix-blend-mode:color-dodge" filter="url(#filter2_f_141_21)">
<circle cx="527.592" cy="-10.328" r="41.0164" fill="#0094FF"/>
</g>
<g style="mix-blend-mode:color-dodge" filter="url(#filter3_f_141_21)">
<circle cx="343.018" cy="-0.757458" r="41.0164" fill="#0094FF"/>
</g>
<g style="mix-blend-mode:color-dodge" filter="url(#filter4_f_141_21)">
<circle cx="225.438" cy="-10.328" r="41.0164" fill="#0094FF"/>
</g>
<g style="mix-blend-mode:color-dodge" filter="url(#filter5_f_141_21)">
<circle cx="87.3494" cy="-6.22645" r="41.0164" fill="#0094FF"/>
</g>
</g>
<defs>
<filter id="filter0_i_141_21" x="2.1958" y="12.288" width="461.116" height="27.684" filterUnits="userSpaceOnUse" color-interpolation-filters="sRGB">
<feFlood flood-opacity="0" result="BackgroundImageFix"/>
<feBlend mode="normal" in="SourceGraphic" in2="BackgroundImageFix" result="shape"/>
<feColorMatrix in="SourceAlpha" type="matrix" values="0 0 0 0 0 0 0 0 0 0 0 0 0 0 0 0 0 0 127 0" result="hardAlpha"/>
<feOffset dy="-1.36721"/>
<feComposite in2="hardAlpha" operator="arithmetic" k2="-1" k3="1"/>
<feColorMatrix type="matrix" values="0 0 0 0 1 0 0 0 0 1 0 0 0 0 1 0 0 0 1 0"/>
<feBlend mode="normal" in2="shape" result="effect1_innerShadow_141_21"/>
</filter>
<filter id="filter1_i_141_21" x="2.1958" y="8.28799" width="461.116" height="27.684" filterUnits="userSpaceOnUse" color-interpolation-filters="sRGB">
<feFlood flood-opacity="0" result="BackgroundImageFix"/>
<feBlend mode="normal" in="SourceGraphic" in2="BackgroundImageFix" result="shape"/>
<feColorMatrix in="SourceAlpha" type="matrix" values="0 0 0 0 0 0 0 0 0 0 0 0 0 0 0 0 0 0 127 0" result="hardAlpha"/>
<feOffset dy="-1.36721"/>
<feComposite in2="hardAlpha" operator="arithmetic" k2="-1" k3="1"/>
<feColorMatrix type="matrix" values="0 0 0 0 1 0 0 0 0 1 0 0 0 0 1 0 0 0 1 0"/>
<feBlend mode="normal" in2="shape" result="effect1_innerShadow_141_21"/>
</filter>
<filter id="filter2_f_141_21" x="446.243" y="-91.6772" width="162.698" height="162.698" filterUnits="userSpaceOnUse" color-interpolation-filters="sRGB">
<feFlood flood-opacity="0" result="BackgroundImageFix"/>
<feBlend mode="normal" in="SourceGraphic" in2="BackgroundImageFix" result="shape"/>
<feGaussianBlur stdDeviation="20.1664" result="effect1_foregroundBlur_141_21"/>
</filter>
<filter id="filter3_f_141_21" x="261.669" y="-82.1067" width="162.698" height="162.698" filterUnits="userSpaceOnUse" color-interpolation-filters="sRGB">
<feFlood flood-opacity="0" result="BackgroundImageFix"/>
<feBlend mode="normal" in="SourceGraphic" in2="BackgroundImageFix" result="shape"/>
<feGaussianBlur stdDeviation="20.1664" result="effect1_foregroundBlur_141_21"/>
</filter>
<filter id="filter4_f_141_21" x="144.089" y="-91.6772" width="162.698" height="162.698" filterUnits="userSpaceOnUse" color-interpolation-filters="sRGB">
<feFlood flood-opacity="0" result="BackgroundImageFix"/>
<feBlend mode="normal" in="SourceGraphic" in2="BackgroundImageFix" result="shape"/>
<feGaussianBlur stdDeviation="20.1664" result="effect1_foregroundBlur_141_21"/>
</filter>
<filter id="filter5_f_141_21" x="6.00021" y="-87.5757" width="162.698" height="162.698" filterUnits="userSpaceOnUse" color-interpolation-filters="sRGB">
<feFlood flood-opacity="0" result="BackgroundImageFix"/>
<feBlend mode="normal" in="SourceGraphic" in2="BackgroundImageFix" result="shape"/>
<feGaussianBlur stdDeviation="20.1664" result="effect1_foregroundBlur_141_21"/>
</filter>
<linearGradient id="paint0_linear_141_21" x1="8.46353" y1="3.99997" x2="452.015" y2="139.794" gradientUnits="userSpaceOnUse">
<stop stop-color="#00538F"/>
<stop offset="1" stop-color="#005FA4"/>
</linearGradient>
<linearGradient id="paint1_linear_141_21" x1="8.46353" y1="-3.3335e-05" x2="452.015" y2="135.794" gradientUnits="userSpaceOnUse">
<stop stop-color="#3AACFF"/>
<stop offset="1" stop-color="#0094FF"/>
</linearGradient>
<linearGradient id="paint2_linear_141_21" x1="8.46353" y1="-3.3335e-05" x2="452.015" y2="135.794" gradientUnits="userSpaceOnUse">
<stop stop-color="#3AACFF"/>
<stop offset="1" stop-color="#0094FF"/>
</linearGradient>
</defs>
</svg>
