<svg width="437" height="57" viewBox="0 0 437 57" fill="none" xmlns="http://www.w3.org/2000/svg">
<g filter="url(#filter0_i_141_39)">
<path d="M16.236 12.36C10.296 15.924 4.248 23.808 4.248 30.936C4.248 33.492 5.04 35.904 7.02 37.56C8.82 39.072 11.052 39.576 13.428 39.576C18.9 39.576 23.508 35.796 23.58 30.684C23.616 26.256 19.08 22.764 12.636 22.836C14.328 19.92 17.316 17.688 19.224 16.68L16.236 12.36ZM10.296 31.152C10.296 29.064 10.584 27.66 11.124 26.472C14.796 26.4 17.496 28.308 17.496 31.476C17.496 33.852 15.984 35.58 13.932 35.58C11.7 35.58 10.296 33.672 10.296 31.152ZM30.5438 34.068V39H35.7278V34.068H30.5438ZM52.5218 39.648C61.8098 38.244 65.7698 33.672 65.7698 29.892C65.7698 26.76 62.9978 25.356 60.8018 24.168C58.7858 23.088 57.0938 22.26 57.0938 21.036C57.0938 18.948 60.5858 17.796 64.1498 17.652L63.2858 12.936C55.8698 13.872 50.5058 17.904 50.5058 21.864C50.5058 24.744 52.9538 26.4 55.5458 27.876C58.3538 29.46 59.1098 30.072 59.1098 31.224C59.1098 33.348 55.0418 34.644 51.5498 34.86L52.5218 39.648ZM86.256 34.428C84.06 34.608 78.948 34.536 78.048 34.536V28.38C78.804 28.38 83.88 28.524 84.744 28.524L84.636 23.988C82.98 24.132 78.732 24.312 78.048 24.312V17.76C78.66 17.76 84.6 17.58 85.824 17.58L85.68 12.936C84.456 13.044 73.44 13.584 71.892 13.584C71.928 14.484 72 23.16 72 23.736V28.56C72 29.388 72 37.092 71.892 39C73.296 39 85.428 39.36 86.4 39.36L86.256 34.428ZM99.8483 39C99.7763 38.46 99.6683 29.352 99.6683 27.984V17.544C104.744 17.58 105.932 19.488 105.932 21.18C105.932 24.024 102.944 26.112 101.252 27.048C102.296 28.596 109.712 38.928 110.36 39.936L115.436 36.048C114.5 35.004 108.596 28.416 107.588 27.192C110.432 25.248 112.376 22.944 112.376 19.956C112.376 16.716 109.568 14.7 104.384 14.052C101.36 13.656 97.1483 13.584 93.5123 13.584C93.6203 14.268 93.6923 21.936 93.6923 23.016V25.968C93.6923 26.724 93.7643 38.136 93.6203 39H99.8483ZM116.127 16.104C117.279 17.904 126.999 36.516 129.519 40.368H129.771C131.931 36.912 142.911 17.868 144.207 15.924L138.519 12.9C138.051 14.052 130.959 28.2 130.023 30.144C129.087 28.164 122.607 14.52 121.923 12.9L116.127 16.104ZM154.659 39C154.623 38.172 154.515 31.728 154.515 28.128V24.24C154.515 19.92 154.623 14.232 154.659 13.584H148.251C148.287 14.448 148.395 23.556 148.395 24.168V28.056C148.395 28.992 148.359 37.416 148.287 39H154.659ZM180.364 34.176C179.356 34.356 178.06 34.5 176.62 34.5C170.248 34.5 167.044 31.476 167.044 28.02C167.044 23.556 171.652 19.596 179.5 18.408L178.348 13.008C165.82 15.528 160.384 22.872 160.384 28.812C160.384 33.024 164.2 39.576 176.224 39.576C178.096 39.576 179.536 39.432 180.724 39.252L180.364 34.176ZM201.041 34.428C198.845 34.608 193.733 34.536 192.833 34.536V28.38C193.589 28.38 198.665 28.524 199.529 28.524L199.421 23.988C197.765 24.132 193.517 24.312 192.833 24.312V17.76C193.445 17.76 199.385 17.58 200.609 17.58L200.465 12.936C199.241 13.044 188.225 13.584 186.677 13.584C186.713 14.484 186.785 23.16 186.785 23.736V28.56C186.785 29.388 186.785 37.092 186.677 39C188.081 39 200.213 39.36 201.185 39.36L201.041 34.428ZM224.157 39C224.085 38.244 224.085 34.32 224.085 33.6V32.16C232.005 30.756 236.433 26.112 236.433 21.324C236.433 17.364 233.337 15.168 229.233 14.304C226.569 13.728 222.717 13.584 218.037 13.584C218.037 14.124 218.145 21.432 218.145 22.26V26.22C218.145 28.776 218.073 37.452 218.037 39H224.157ZM224.085 17.652C229.341 17.868 230.205 20.496 230.205 22.152C230.205 25.536 227.181 27.552 224.085 28.128V17.652ZM248.383 39C248.311 38.46 248.203 29.352 248.203 27.984V17.544C253.279 17.58 254.467 19.488 254.467 21.18C254.467 24.024 251.479 26.112 249.787 27.048C250.831 28.596 258.247 38.928 258.895 39.936L263.971 36.048C263.035 35.004 257.131 28.416 256.123 27.192C258.967 25.248 260.911 22.944 260.911 19.956C260.911 16.716 258.103 14.7 252.919 14.052C249.895 13.656 245.683 13.584 242.047 13.584C242.155 14.268 242.227 21.936 242.227 23.016V25.968C242.227 26.724 242.299 38.136 242.155 39H248.383ZM266.138 27.156C266.138 34.14 271.07 39.54 279.17 39.576C290.366 39.576 294.146 30.972 294.146 25.824C294.146 17.616 288.71 13.008 280.934 13.008C271.466 13.008 266.138 20.136 266.138 27.156ZM272.87 26.796C272.87 21.216 276.218 17.652 280.43 17.652C284.246 17.652 287.414 20.496 287.378 26.004C287.342 32.304 283.238 34.932 279.854 34.932C275.786 34.932 272.87 31.872 272.87 26.796ZM296.127 16.104C297.279 17.904 306.999 36.516 309.519 40.368H309.771C311.931 36.912 322.911 17.868 324.207 15.924L318.519 12.9C318.051 14.052 310.959 28.2 310.023 30.144C309.087 28.164 302.607 14.52 301.923 12.9L296.127 16.104ZM334.659 39C334.623 38.172 334.515 31.728 334.515 28.128V24.24C334.515 19.92 334.623 14.232 334.659 13.584H328.251C328.287 14.448 328.395 23.556 328.395 24.168V28.056C328.395 28.992 328.359 37.416 328.287 39H334.659ZM343.512 27.624C343.512 28.596 343.44 37.524 343.296 39.18C353.52 39.18 367.272 34.536 367.272 23.268C367.272 20.532 365.652 15.492 355.248 14.124C352.008 13.692 348.084 13.584 343.332 13.584C343.476 14.592 343.512 22.404 343.512 23.16V27.624ZM349.56 18.12C355.644 18.084 360.612 19.668 360.612 24.384C360.612 29.388 355.536 33.204 349.56 33.924V18.12ZM387.475 34.428C385.279 34.608 380.167 34.536 379.267 34.536V28.38C380.023 28.38 385.099 28.524 385.963 28.524L385.855 23.988C384.199 24.132 379.951 24.312 379.267 24.312V17.76C379.879 17.76 385.819 17.58 387.043 17.58L386.899 12.936C385.675 13.044 374.659 13.584 373.111 13.584C373.147 14.484 373.219 23.16 373.219 23.736V28.56C373.219 29.388 373.219 37.092 373.111 39C374.515 39 386.647 39.36 387.619 39.36L387.475 34.428ZM401.067 39C400.995 38.46 400.887 29.352 400.887 27.984V17.544C405.963 17.58 407.151 19.488 407.151 21.18C407.151 24.024 404.163 26.112 402.471 27.048C403.515 28.596 410.931 38.928 411.579 39.936L416.655 36.048C415.719 35.004 409.815 28.416 408.807 27.192C411.651 25.248 413.595 22.944 413.595 19.956C413.595 16.716 410.787 14.7 405.603 14.052C402.579 13.656 398.367 13.584 394.731 13.584C394.839 14.268 394.911 21.936 394.911 23.016V25.968C394.911 26.724 394.983 38.136 394.839 39H401.067ZM421.522 39.648C430.81 38.244 434.77 33.672 434.77 29.892C434.77 26.76 431.998 25.356 429.802 24.168C427.786 23.088 426.094 22.26 426.094 21.036C426.094 18.948 429.586 17.796 433.15 17.652L432.286 12.936C424.87 13.872 419.506 17.904 419.506 21.864C419.506 24.744 421.954 26.4 424.546 27.876C427.354 29.46 428.11 30.072 428.11 31.224C428.11 33.348 424.042 34.644 420.55 34.86L421.522 39.648Z" fill="url(#paint0_linear_141_39)"/>
</g>
<mask id="mask0_141_39" style="mask-type:alpha" maskUnits="userSpaceOnUse" x="4" y="8" width="431" height="29">
<path d="M16.236 8.36C10.296 11.924 4.248 19.808 4.248 26.936C4.248 29.492 5.04 31.904 7.02 33.56C8.82 35.072 11.052 35.576 13.428 35.576C18.9 35.576 23.508 31.796 23.58 26.684C23.616 22.256 19.08 18.764 12.636 18.836C14.328 15.92 17.316 13.688 19.224 12.68L16.236 8.36ZM10.296 27.152C10.296 25.064 10.584 23.66 11.124 22.472C14.796 22.4 17.496 24.308 17.496 27.476C17.496 29.852 15.984 31.58 13.932 31.58C11.7 31.58 10.296 29.672 10.296 27.152ZM30.5438 30.068V35H35.7278V30.068H30.5438ZM52.5218 35.648C61.8098 34.244 65.7698 29.672 65.7698 25.892C65.7698 22.76 62.9978 21.356 60.8018 20.168C58.7858 19.088 57.0938 18.26 57.0938 17.036C57.0938 14.948 60.5858 13.796 64.1498 13.652L63.2858 8.936C55.8698 9.872 50.5058 13.904 50.5058 17.864C50.5058 20.744 52.9538 22.4 55.5458 23.876C58.3538 25.46 59.1098 26.072 59.1098 27.224C59.1098 29.348 55.0418 30.644 51.5498 30.86L52.5218 35.648ZM86.256 30.428C84.06 30.608 78.948 30.536 78.048 30.536V24.38C78.804 24.38 83.88 24.524 84.744 24.524L84.636 19.988C82.98 20.132 78.732 20.312 78.048 20.312V13.76C78.66 13.76 84.6 13.58 85.824 13.58L85.68 8.936C84.456 9.044 73.44 9.584 71.892 9.584C71.928 10.484 72 19.16 72 19.736V24.56C72 25.388 72 33.092 71.892 35C73.296 35 85.428 35.36 86.4 35.36L86.256 30.428ZM99.8483 35C99.7763 34.46 99.6683 25.352 99.6683 23.984V13.544C104.744 13.58 105.932 15.488 105.932 17.18C105.932 20.024 102.944 22.112 101.252 23.048C102.296 24.596 109.712 34.928 110.36 35.936L115.436 32.048C114.5 31.004 108.596 24.416 107.588 23.192C110.432 21.248 112.376 18.944 112.376 15.956C112.376 12.716 109.568 10.7 104.384 10.052C101.36 9.656 97.1483 9.584 93.5123 9.584C93.6203 10.268 93.6923 17.936 93.6923 19.016V21.968C93.6923 22.724 93.7643 34.136 93.6203 35H99.8483ZM116.127 12.104C117.279 13.904 126.999 32.516 129.519 36.368H129.771C131.931 32.912 142.911 13.868 144.207 11.924L138.519 8.9C138.051 10.052 130.959 24.2 130.023 26.144C129.087 24.164 122.607 10.52 121.923 8.9L116.127 12.104ZM154.659 35C154.623 34.172 154.515 27.728 154.515 24.128V20.24C154.515 15.92 154.623 10.232 154.659 9.584H148.251C148.287 10.448 148.395 19.556 148.395 20.168V24.056C148.395 24.992 148.359 33.416 148.287 35H154.659ZM180.364 30.176C179.356 30.356 178.06 30.5 176.62 30.5C170.248 30.5 167.044 27.476 167.044 24.02C167.044 19.556 171.652 15.596 179.5 14.408L178.348 9.008C165.82 11.528 160.384 18.872 160.384 24.812C160.384 29.024 164.2 35.576 176.224 35.576C178.096 35.576 179.536 35.432 180.724 35.252L180.364 30.176ZM201.041 30.428C198.845 30.608 193.733 30.536 192.833 30.536V24.38C193.589 24.38 198.665 24.524 199.529 24.524L199.421 19.988C197.765 20.132 193.517 20.312 192.833 20.312V13.76C193.445 13.76 199.385 13.58 200.609 13.58L200.465 8.936C199.241 9.044 188.225 9.584 186.677 9.584C186.713 10.484 186.785 19.16 186.785 19.736V24.56C186.785 25.388 186.785 33.092 186.677 35C188.081 35 200.213 35.36 201.185 35.36L201.041 30.428ZM224.157 35C224.085 34.244 224.085 30.32 224.085 29.6V28.16C232.005 26.756 236.433 22.112 236.433 17.324C236.433 13.364 233.337 11.168 229.233 10.304C226.569 9.728 222.717 9.584 218.037 9.584C218.037 10.124 218.145 17.432 218.145 18.26V22.22C218.145 24.776 218.073 33.452 218.037 35H224.157ZM224.085 13.652C229.341 13.868 230.205 16.496 230.205 18.152C230.205 21.536 227.181 23.552 224.085 24.128V13.652ZM248.383 35C248.311 34.46 248.203 25.352 248.203 23.984V13.544C253.279 13.58 254.467 15.488 254.467 17.18C254.467 20.024 251.479 22.112 249.787 23.048C250.831 24.596 258.247 34.928 258.895 35.936L263.971 32.048C263.035 31.004 257.131 24.416 256.123 23.192C258.967 21.248 260.911 18.944 260.911 15.956C260.911 12.716 258.103 10.7 252.919 10.052C249.895 9.656 245.683 9.584 242.047 9.584C242.155 10.268 242.227 17.936 242.227 19.016V21.968C242.227 22.724 242.299 34.136 242.155 35H248.383ZM266.138 23.156C266.138 30.14 271.07 35.54 279.17 35.576C290.366 35.576 294.146 26.972 294.146 21.824C294.146 13.616 288.71 9.008 280.934 9.008C271.466 9.008 266.138 16.136 266.138 23.156ZM272.87 22.796C272.87 17.216 276.218 13.652 280.43 13.652C284.246 13.652 287.414 16.496 287.378 22.004C287.342 28.304 283.238 30.932 279.854 30.932C275.786 30.932 272.87 27.872 272.87 22.796ZM296.127 12.104C297.279 13.904 306.999 32.516 309.519 36.368H309.771C311.931 32.912 322.911 13.868 324.207 11.924L318.519 8.9C318.051 10.052 310.959 24.2 310.023 26.144C309.087 24.164 302.607 10.52 301.923 8.9L296.127 12.104ZM334.659 35C334.623 34.172 334.515 27.728 334.515 24.128V20.24C334.515 15.92 334.623 10.232 334.659 9.584H328.251C328.287 10.448 328.395 19.556 328.395 20.168V24.056C328.395 24.992 328.359 33.416 328.287 35H334.659ZM343.512 23.624C343.512 24.596 343.44 33.524 343.296 35.18C353.52 35.18 367.272 30.536 367.272 19.268C367.272 16.532 365.652 11.492 355.248 10.124C352.008 9.692 348.084 9.584 343.332 9.584C343.476 10.592 343.512 18.404 343.512 19.16V23.624ZM349.56 14.12C355.644 14.084 360.612 15.668 360.612 20.384C360.612 25.388 355.536 29.204 349.56 29.924V14.12ZM387.475 30.428C385.279 30.608 380.167 30.536 379.267 30.536V24.38C380.023 24.38 385.099 24.524 385.963 24.524L385.855 19.988C384.199 20.132 379.951 20.312 379.267 20.312V13.76C379.879 13.76 385.819 13.58 387.043 13.58L386.899 8.936C385.675 9.044 374.659 9.584 373.111 9.584C373.147 10.484 373.219 19.16 373.219 19.736V24.56C373.219 25.388 373.219 33.092 373.111 35C374.515 35 386.647 35.36 387.619 35.36L387.475 30.428ZM401.067 35C400.995 34.46 400.887 25.352 400.887 23.984V13.544C405.963 13.58 407.151 15.488 407.151 17.18C407.151 20.024 404.163 22.112 402.471 23.048C403.515 24.596 410.931 34.928 411.579 35.936L416.655 32.048C415.719 31.004 409.815 24.416 408.807 23.192C411.651 21.248 413.595 18.944 413.595 15.956C413.595 12.716 410.787 10.7 405.603 10.052C402.579 9.656 398.367 9.584 394.731 9.584C394.839 10.268 394.911 17.936 394.911 19.016V21.968C394.911 22.724 394.983 34.136 394.839 35H401.067ZM421.522 35.648C430.81 34.244 434.77 29.672 434.77 25.892C434.77 22.76 431.998 21.356 429.802 20.168C427.786 19.088 426.094 18.26 426.094 17.036C426.094 14.948 429.586 13.796 433.15 13.652L432.286 8.936C424.87 9.872 419.506 13.904 419.506 17.864C419.506 20.744 421.954 22.4 424.546 23.876C427.354 25.46 428.11 26.072 428.11 27.224C428.11 29.348 424.042 30.644 420.55 30.86L421.522 35.648Z" fill="url(#paint1_linear_141_39)"/>
</mask>
<g mask="url(#mask0_141_39)">
<g filter="url(#filter1_i_141_39)">
<path d="M16.236 8.36C10.296 11.924 4.248 19.808 4.248 26.936C4.248 29.492 5.04 31.904 7.02 33.56C8.82 35.072 11.052 35.576 13.428 35.576C18.9 35.576 23.508 31.796 23.58 26.684C23.616 22.256 19.08 18.764 12.636 18.836C14.328 15.92 17.316 13.688 19.224 12.68L16.236 8.36ZM10.296 27.152C10.296 25.064 10.584 23.66 11.124 22.472C14.796 22.4 17.496 24.308 17.496 27.476C17.496 29.852 15.984 31.58 13.932 31.58C11.7 31.58 10.296 29.672 10.296 27.152ZM30.5438 30.068V35H35.7278V30.068H30.5438ZM52.5218 35.648C61.8098 34.244 65.7698 29.672 65.7698 25.892C65.7698 22.76 62.9978 21.356 60.8018 20.168C58.7858 19.088 57.0938 18.26 57.0938 17.036C57.0938 14.948 60.5858 13.796 64.1498 13.652L63.2858 8.936C55.8698 9.872 50.5058 13.904 50.5058 17.864C50.5058 20.744 52.9538 22.4 55.5458 23.876C58.3538 25.46 59.1098 26.072 59.1098 27.224C59.1098 29.348 55.0418 30.644 51.5498 30.86L52.5218 35.648ZM86.256 30.428C84.06 30.608 78.948 30.536 78.048 30.536V24.38C78.804 24.38 83.88 24.524 84.744 24.524L84.636 19.988C82.98 20.132 78.732 20.312 78.048 20.312V13.76C78.66 13.76 84.6 13.58 85.824 13.58L85.68 8.936C84.456 9.044 73.44 9.584 71.892 9.584C71.928 10.484 72 19.16 72 19.736V24.56C72 25.388 72 33.092 71.892 35C73.296 35 85.428 35.36 86.4 35.36L86.256 30.428ZM99.8483 35C99.7763 34.46 99.6683 25.352 99.6683 23.984V13.544C104.744 13.58 105.932 15.488 105.932 17.18C105.932 20.024 102.944 22.112 101.252 23.048C102.296 24.596 109.712 34.928 110.36 35.936L115.436 32.048C114.5 31.004 108.596 24.416 107.588 23.192C110.432 21.248 112.376 18.944 112.376 15.956C112.376 12.716 109.568 10.7 104.384 10.052C101.36 9.656 97.1483 9.584 93.5123 9.584C93.6203 10.268 93.6923 17.936 93.6923 19.016V21.968C93.6923 22.724 93.7643 34.136 93.6203 35H99.8483ZM116.127 12.104C117.279 13.904 126.999 32.516 129.519 36.368H129.771C131.931 32.912 142.911 13.868 144.207 11.924L138.519 8.9C138.051 10.052 130.959 24.2 130.023 26.144C129.087 24.164 122.607 10.52 121.923 8.9L116.127 12.104ZM154.659 35C154.623 34.172 154.515 27.728 154.515 24.128V20.24C154.515 15.92 154.623 10.232 154.659 9.584H148.251C148.287 10.448 148.395 19.556 148.395 20.168V24.056C148.395 24.992 148.359 33.416 148.287 35H154.659ZM180.364 30.176C179.356 30.356 178.06 30.5 176.62 30.5C170.248 30.5 167.044 27.476 167.044 24.02C167.044 19.556 171.652 15.596 179.5 14.408L178.348 9.008C165.82 11.528 160.384 18.872 160.384 24.812C160.384 29.024 164.2 35.576 176.224 35.576C178.096 35.576 179.536 35.432 180.724 35.252L180.364 30.176ZM201.041 30.428C198.845 30.608 193.733 30.536 192.833 30.536V24.38C193.589 24.38 198.665 24.524 199.529 24.524L199.421 19.988C197.765 20.132 193.517 20.312 192.833 20.312V13.76C193.445 13.76 199.385 13.58 200.609 13.58L200.465 8.936C199.241 9.044 188.225 9.584 186.677 9.584C186.713 10.484 186.785 19.16 186.785 19.736V24.56C186.785 25.388 186.785 33.092 186.677 35C188.081 35 200.213 35.36 201.185 35.36L201.041 30.428ZM224.157 35C224.085 34.244 224.085 30.32 224.085 29.6V28.16C232.005 26.756 236.433 22.112 236.433 17.324C236.433 13.364 233.337 11.168 229.233 10.304C226.569 9.728 222.717 9.584 218.037 9.584C218.037 10.124 218.145 17.432 218.145 18.26V22.22C218.145 24.776 218.073 33.452 218.037 35H224.157ZM224.085 13.652C229.341 13.868 230.205 16.496 230.205 18.152C230.205 21.536 227.181 23.552 224.085 24.128V13.652ZM248.383 35C248.311 34.46 248.203 25.352 248.203 23.984V13.544C253.279 13.58 254.467 15.488 254.467 17.18C254.467 20.024 251.479 22.112 249.787 23.048C250.831 24.596 258.247 34.928 258.895 35.936L263.971 32.048C263.035 31.004 257.131 24.416 256.123 23.192C258.967 21.248 260.911 18.944 260.911 15.956C260.911 12.716 258.103 10.7 252.919 10.052C249.895 9.656 245.683 9.584 242.047 9.584C242.155 10.268 242.227 17.936 242.227 19.016V21.968C242.227 22.724 242.299 34.136 242.155 35H248.383ZM266.138 23.156C266.138 30.14 271.07 35.54 279.17 35.576C290.366 35.576 294.146 26.972 294.146 21.824C294.146 13.616 288.71 9.008 280.934 9.008C271.466 9.008 266.138 16.136 266.138 23.156ZM272.87 22.796C272.87 17.216 276.218 13.652 280.43 13.652C284.246 13.652 287.414 16.496 287.378 22.004C287.342 28.304 283.238 30.932 279.854 30.932C275.786 30.932 272.87 27.872 272.87 22.796ZM296.127 12.104C297.279 13.904 306.999 32.516 309.519 36.368H309.771C311.931 32.912 322.911 13.868 324.207 11.924L318.519 8.9C318.051 10.052 310.959 24.2 310.023 26.144C309.087 24.164 302.607 10.52 301.923 8.9L296.127 12.104ZM334.659 35C334.623 34.172 334.515 27.728 334.515 24.128V20.24C334.515 15.92 334.623 10.232 334.659 9.584H328.251C328.287 10.448 328.395 19.556 328.395 20.168V24.056C328.395 24.992 328.359 33.416 328.287 35H334.659ZM343.512 23.624C343.512 24.596 343.44 33.524 343.296 35.18C353.52 35.18 367.272 30.536 367.272 19.268C367.272 16.532 365.652 11.492 355.248 10.124C352.008 9.692 348.084 9.584 343.332 9.584C343.476 10.592 343.512 18.404 343.512 19.16V23.624ZM349.56 14.12C355.644 14.084 360.612 15.668 360.612 20.384C360.612 25.388 355.536 29.204 349.56 29.924V14.12ZM387.475 30.428C385.279 30.608 380.167 30.536 379.267 30.536V24.38C380.023 24.38 385.099 24.524 385.963 24.524L385.855 19.988C384.199 20.132 379.951 20.312 379.267 20.312V13.76C379.879 13.76 385.819 13.58 387.043 13.58L386.899 8.936C385.675 9.044 374.659 9.584 373.111 9.584C373.147 10.484 373.219 19.16 373.219 19.736V24.56C373.219 25.388 373.219 33.092 373.111 35C374.515 35 386.647 35.36 387.619 35.36L387.475 30.428ZM401.067 35C400.995 34.46 400.887 25.352 400.887 23.984V13.544C405.963 13.58 407.151 15.488 407.151 17.18C407.151 20.024 404.163 22.112 402.471 23.048C403.515 24.596 410.931 34.928 411.579 35.936L416.655 32.048C415.719 31.004 409.815 24.416 408.807 23.192C411.651 21.248 413.595 18.944 413.595 15.956C413.595 12.716 410.787 10.7 405.603 10.052C402.579 9.656 398.367 9.584 394.731 9.584C394.839 10.268 394.911 17.936 394.911 19.016V21.968C394.911 22.724 394.983 34.136 394.839 35H401.067ZM421.522 35.648C430.81 34.244 434.77 29.672 434.77 25.892C434.77 22.76 431.998 21.356 429.802 20.168C427.786 19.088 426.094 18.26 426.094 17.036C426.094 14.948 429.586 13.796 433.15 13.652L432.286 8.936C424.87 9.872 419.506 13.904 419.506 17.864C419.506 20.744 421.954 22.4 424.546 23.876C427.354 25.46 428.11 26.072 428.11 27.224C428.11 29.348 424.042 30.644 420.55 30.86L421.522 35.648Z" fill="url(#paint2_linear_141_39)"/>
</g>
<g style="mix-blend-mode:color-dodge" filter="url(#filter2_f_141_39)">
<circle cx="343.018" cy="-0.757458" r="41.0164" fill="#0094FF"/>
</g>
<g style="mix-blend-mode:color-dodge" filter="url(#filter3_f_141_39)">
<circle cx="225.438" cy="-10.328" r="41.0164" fill="#0094FF"/>
</g>
<g style="mix-blend-mode:color-dodge" filter="url(#filter4_f_141_39)">
<circle cx="87.3494" cy="-6.22645" r="41.0164" fill="#0094FF"/>
</g>
</g>
<defs>
<filter id="filter0_i_141_39" x="4.24805" y="12.36" width="430.521" height="28.008" filterUnits="userSpaceOnUse" color-interpolation-filters="sRGB">
<feFlood flood-opacity="0" result="BackgroundImageFix"/>
<feBlend mode="normal" in="SourceGraphic" in2="BackgroundImageFix" result="shape"/>
<feColorMatrix in="SourceAlpha" type="matrix" values="0 0 0 0 0 0 0 0 0 0 0 0 0 0 0 0 0 0 127 0" result="hardAlpha"/>
<feOffset dy="-1.36721"/>
<feComposite in2="hardAlpha" operator="arithmetic" k2="-1" k3="1"/>
<feColorMatrix type="matrix" values="0 0 0 0 1 0 0 0 0 1 0 0 0 0 1 0 0 0 1 0"/>
<feBlend mode="normal" in2="shape" result="effect1_innerShadow_141_39"/>
</filter>
<filter id="filter1_i_141_39" x="4.24805" y="8.35999" width="430.521" height="28.008" filterUnits="userSpaceOnUse" color-interpolation-filters="sRGB">
<feFlood flood-opacity="0" result="BackgroundImageFix"/>
<feBlend mode="normal" in="SourceGraphic" in2="BackgroundImageFix" result="shape"/>
<feColorMatrix in="SourceAlpha" type="matrix" values="0 0 0 0 0 0 0 0 0 0 0 0 0 0 0 0 0 0 127 0" result="hardAlpha"/>
<feOffset dy="-1.36721"/>
<feComposite in2="hardAlpha" operator="arithmetic" k2="-1" k3="1"/>
<feColorMatrix type="matrix" values="0 0 0 0 1 0 0 0 0 1 0 0 0 0 1 0 0 0 1 0"/>
<feBlend mode="normal" in2="shape" result="effect1_innerShadow_141_39"/>
</filter>
<filter id="filter2_f_141_39" x="261.669" y="-82.1067" width="162.698" height="162.698" filterUnits="userSpaceOnUse" color-interpolation-filters="sRGB">
<feFlood flood-opacity="0" result="BackgroundImageFix"/>
<feBlend mode="normal" in="SourceGraphic" in2="BackgroundImageFix" result="shape"/>
<feGaussianBlur stdDeviation="20.1664" result="effect1_foregroundBlur_141_39"/>
</filter>
<filter id="filter3_f_141_39" x="144.089" y="-91.6772" width="162.698" height="162.698" filterUnits="userSpaceOnUse" color-interpolation-filters="sRGB">
<feFlood flood-opacity="0" result="BackgroundImageFix"/>
<feBlend mode="normal" in="SourceGraphic" in2="BackgroundImageFix" result="shape"/>
<feGaussianBlur stdDeviation="20.1664" result="effect1_foregroundBlur_141_39"/>
</filter>
<filter id="filter4_f_141_39" x="6.00021" y="-87.5757" width="162.698" height="162.698" filterUnits="userSpaceOnUse" color-interpolation-filters="sRGB">
<feFlood flood-opacity="0" result="BackgroundImageFix"/>
<feBlend mode="normal" in="SourceGraphic" in2="BackgroundImageFix" result="shape"/>
<feGaussianBlur stdDeviation="20.1664" result="effect1_foregroundBlur_141_39"/>
</filter>
<linearGradient id="paint0_linear_141_39" x1="7.97104" y1="3.99997" x2="429.797" y2="125.628" gradientUnits="userSpaceOnUse">
<stop stop-color="#00538F"/>
<stop offset="1" stop-color="#005FA4"/>
</linearGradient>
<linearGradient id="paint1_linear_141_39" x1="7.97104" y1="-3.3335e-05" x2="429.797" y2="121.628" gradientUnits="userSpaceOnUse">
<stop stop-color="#3AACFF"/>
<stop offset="1" stop-color="#0094FF"/>
</linearGradient>
<linearGradient id="paint2_linear_141_39" x1="7.97104" y1="-3.3335e-05" x2="429.797" y2="121.628" gradientUnits="userSpaceOnUse">
<stop stop-color="#3AACFF"/>
<stop offset="1" stop-color="#0094FF"/>
</linearGradient>
</defs>
</svg>
