<svg width="428" height="57" viewBox="0 0 428 57" fill="none" xmlns="http://www.w3.org/2000/svg">
<g filter="url(#filter0_i_141_12)">
<path d="M5.364 39.864C13.824 39.72 20.916 35.976 20.916 30.972C20.916 28.092 18.396 26.364 15.372 25.644V25.5C17.46 24.636 20.124 22.26 20.124 19.632C20.124 15.204 13.32 13.08 6.768 12.9L6.3 17.328C9.432 17.328 13.716 18.3 13.716 20.82C13.716 23.628 9.432 24.816 7.344 24.888L7.488 27.336C9.396 27.372 14.292 28.056 14.292 30.9C14.292 34.356 8.28 35.616 5.112 35.364L5.364 39.864ZM30.5438 34.068V39H35.7278V34.068H30.5438ZM63.2138 39C63.1418 38.28 62.9618 31.836 62.9618 26.652V18.3C64.5458 18.3 71.2058 18.48 71.8898 18.588V13.584C70.1258 13.8 62.2778 13.944 61.5938 13.944H58.4618C58.0658 13.944 49.5338 13.8 47.9137 13.584V18.588C49.0298 18.48 54.1418 18.3 56.8418 18.3V26.076C56.8418 30.72 56.8058 38.064 56.6978 39H63.2138ZM82.4108 39C82.3388 38.46 82.2308 29.352 82.2308 27.984V17.544C87.3068 17.58 88.4948 19.488 88.4948 21.18C88.4948 24.024 85.5068 26.112 83.8148 27.048C84.8588 28.596 92.2748 38.928 92.9228 39.936L97.9988 36.048C97.0628 35.004 91.1588 28.416 90.1508 27.192C92.9948 25.248 94.9388 22.944 94.9388 19.956C94.9388 16.716 92.1308 14.7 86.9468 14.052C83.9228 13.656 79.7108 13.584 76.0748 13.584C76.1828 14.268 76.2548 21.936 76.2548 23.016V25.968C76.2548 26.724 76.3268 38.136 76.1828 39H82.4108ZM103.982 39.972C104.774 38.46 106.682 34.14 107.006 33.42L118.526 32.88C118.922 33.42 121.55 38.316 122.45 39.936L127.922 36.624C126.05 33.852 116.834 18.228 112.982 12.288H112.73C110.318 16.104 100.166 34.428 98.7255 36.948L103.982 39.972ZM108.878 29.244C109.562 27.84 112.01 22.764 112.73 21.36C113.27 22.476 115.898 27.372 116.654 28.884L108.878 29.244ZM137.215 39.252C137.179 38.064 137.359 24.816 137.359 23.592H137.431C137.899 24.24 153.055 37.668 155.935 39.72L156.223 39.612C156.331 36.372 156.547 30.936 156.835 25.752C157.087 20.568 157.375 15.672 157.519 13.584L151.831 13.404C151.795 14.808 151.687 27.408 151.687 28.884C150.535 27.768 136.567 15.456 133.183 12.756L132.895 12.864C132.751 15.024 132.463 20.928 132.175 26.58C131.887 32.232 131.599 37.668 131.491 39L137.215 39.252ZM165.162 39.648C174.45 38.244 178.41 33.672 178.41 29.892C178.41 26.76 175.638 25.356 173.442 24.168C171.426 23.088 169.734 22.26 169.734 21.036C169.734 18.948 173.226 17.796 176.79 17.652L175.926 12.936C168.51 13.872 163.146 17.904 163.146 21.864C163.146 24.744 165.594 26.4 168.186 27.876C170.994 29.46 171.75 30.072 171.75 31.224C171.75 33.348 167.682 34.644 164.19 34.86L165.162 39.648ZM190.761 39C190.689 38.496 190.689 32.736 190.689 32.16V28.956L198.033 29.064L197.925 24.564C194.865 24.672 191.337 24.888 190.689 24.888V17.868L198.609 17.688L198.465 13.044C195.657 13.188 186.621 13.584 184.497 13.584C184.569 14.484 184.641 23.16 184.641 23.736V28.524C184.641 29.388 184.641 37.092 184.461 39H190.761ZM219.569 34.428C217.373 34.608 212.261 34.536 211.361 34.536V28.38C212.117 28.38 217.193 28.524 218.057 28.524L217.949 23.988C216.293 24.132 212.045 24.312 211.361 24.312V17.76C211.973 17.76 217.913 17.58 219.137 17.58L218.992 12.936C217.769 13.044 206.753 13.584 205.205 13.584C205.241 14.484 205.312 23.16 205.312 23.736V28.56C205.312 29.388 205.312 37.092 205.205 39C206.609 39 218.741 39.36 219.713 39.36L219.569 34.428ZM233.161 39C233.089 38.46 232.981 29.352 232.981 27.984V17.544C238.057 17.58 239.245 19.488 239.245 21.18C239.245 24.024 236.257 26.112 234.565 27.048C235.609 28.596 243.025 38.928 243.673 39.936L248.749 36.048C247.813 35.004 241.909 28.416 240.901 27.192C243.745 25.248 245.689 22.944 245.689 19.956C245.689 16.716 242.881 14.7 237.697 14.052C234.673 13.656 230.461 13.584 226.825 13.584C226.933 14.268 227.005 21.936 227.005 23.016V25.968C227.005 26.724 227.077 38.136 226.933 39H233.161ZM260.619 27.156C260.619 34.14 265.551 39.54 273.651 39.576C284.847 39.576 288.627 30.972 288.627 25.824C288.627 17.616 283.191 13.008 275.415 13.008C265.947 13.008 260.619 20.136 260.619 27.156ZM267.351 26.796C267.351 21.216 270.699 17.652 274.911 17.652C278.727 17.652 281.895 20.496 281.859 26.004C281.823 32.304 277.719 34.932 274.335 34.932C270.267 34.932 267.351 31.872 267.351 26.796ZM300.8 39C300.728 38.496 300.728 32.736 300.728 32.16V28.956L308.072 29.064L307.964 24.564C304.904 24.672 301.376 24.888 300.728 24.888V17.868L308.648 17.688L308.504 13.044C305.696 13.188 296.66 13.584 294.536 13.584C294.608 14.484 294.68 23.16 294.68 23.736V28.524C294.68 29.388 294.68 37.092 294.5 39H300.8ZM325.055 27.624C325.055 28.596 324.983 37.524 324.839 39.18C335.063 39.18 348.815 34.536 348.815 23.268C348.815 20.532 347.195 15.492 336.791 14.124C333.551 13.692 329.627 13.584 324.875 13.584C325.019 14.592 325.055 22.404 325.055 23.16V27.624ZM331.103 18.12C337.187 18.084 342.155 19.668 342.155 24.384C342.155 29.388 337.079 33.204 331.103 33.924V18.12ZM354.013 39.972C354.805 38.46 356.713 34.14 357.037 33.42L368.557 32.88C368.953 33.42 371.581 38.316 372.481 39.936L377.953 36.624C376.081 33.852 366.865 18.228 363.013 12.288H362.761C360.349 16.104 350.197 34.428 348.757 36.948L354.013 39.972ZM358.909 29.244C359.593 27.84 362.041 22.764 362.761 21.36C363.301 22.476 365.929 27.372 366.685 28.884L358.909 29.244ZM391.397 39C391.325 38.28 391.145 31.836 391.145 26.652V18.3C392.729 18.3 399.389 18.48 400.073 18.588V13.584C398.309 13.8 390.461 13.944 389.777 13.944H386.645C386.249 13.944 377.717 13.8 376.097 13.584V18.588C377.213 18.48 382.325 18.3 385.025 18.3V26.076C385.025 30.72 384.989 38.064 384.881 39H391.397ZM403.091 39.972C403.883 38.46 405.791 34.14 406.115 33.42L417.635 32.88C418.031 33.42 420.659 38.316 421.559 39.936L427.031 36.624C425.159 33.852 415.943 18.228 412.091 12.288H411.839C409.427 16.104 399.275 34.428 397.835 36.948L403.091 39.972ZM407.987 29.244C408.671 27.84 411.119 22.764 411.839 21.36C412.379 22.476 415.007 27.372 415.763 28.884L407.987 29.244Z" fill="url(#paint0_linear_141_12)"/>
</g>
<mask id="mask0_141_12" style="mask-type:alpha" maskUnits="userSpaceOnUse" x="5" y="8" width="423" height="28">
<path d="M5.364 35.864C13.824 35.72 20.916 31.976 20.916 26.972C20.916 24.092 18.396 22.364 15.372 21.644V21.5C17.46 20.636 20.124 18.26 20.124 15.632C20.124 11.204 13.32 9.08 6.768 8.9L6.3 13.328C9.432 13.328 13.716 14.3 13.716 16.82C13.716 19.628 9.432 20.816 7.344 20.888L7.488 23.336C9.396 23.372 14.292 24.056 14.292 26.9C14.292 30.356 8.28 31.616 5.112 31.364L5.364 35.864ZM30.5438 30.068V35H35.7278V30.068H30.5438ZM63.2138 35C63.1418 34.28 62.9618 27.836 62.9618 22.652V14.3C64.5458 14.3 71.2058 14.48 71.8898 14.588V9.584C70.1258 9.8 62.2778 9.944 61.5938 9.944H58.4618C58.0658 9.944 49.5338 9.8 47.9137 9.584V14.588C49.0298 14.48 54.1418 14.3 56.8418 14.3V22.076C56.8418 26.72 56.8058 34.064 56.6978 35H63.2138ZM82.4108 35C82.3388 34.46 82.2308 25.352 82.2308 23.984V13.544C87.3068 13.58 88.4948 15.488 88.4948 17.18C88.4948 20.024 85.5068 22.112 83.8148 23.048C84.8588 24.596 92.2748 34.928 92.9228 35.936L97.9988 32.048C97.0628 31.004 91.1588 24.416 90.1508 23.192C92.9948 21.248 94.9388 18.944 94.9388 15.956C94.9388 12.716 92.1308 10.7 86.9468 10.052C83.9228 9.656 79.7108 9.584 76.0748 9.584C76.1828 10.268 76.2548 17.936 76.2548 19.016V21.968C76.2548 22.724 76.3268 34.136 76.1828 35H82.4108ZM103.982 35.972C104.774 34.46 106.682 30.14 107.006 29.42L118.526 28.88C118.922 29.42 121.55 34.316 122.45 35.936L127.922 32.624C126.05 29.852 116.834 14.228 112.982 8.288H112.73C110.318 12.104 100.166 30.428 98.7255 32.948L103.982 35.972ZM108.878 25.244C109.562 23.84 112.01 18.764 112.73 17.36C113.27 18.476 115.898 23.372 116.654 24.884L108.878 25.244ZM137.215 35.252C137.179 34.064 137.359 20.816 137.359 19.592H137.431C137.899 20.24 153.055 33.668 155.935 35.72L156.223 35.612C156.331 32.372 156.547 26.936 156.835 21.752C157.087 16.568 157.375 11.672 157.519 9.584L151.831 9.404C151.795 10.808 151.687 23.408 151.687 24.884C150.535 23.768 136.567 11.456 133.183 8.756L132.895 8.864C132.751 11.024 132.463 16.928 132.175 22.58C131.887 28.232 131.599 33.668 131.491 35L137.215 35.252ZM165.162 35.648C174.45 34.244 178.41 29.672 178.41 25.892C178.41 22.76 175.638 21.356 173.442 20.168C171.426 19.088 169.734 18.26 169.734 17.036C169.734 14.948 173.226 13.796 176.79 13.652L175.926 8.936C168.51 9.872 163.146 13.904 163.146 17.864C163.146 20.744 165.594 22.4 168.186 23.876C170.994 25.46 171.75 26.072 171.75 27.224C171.75 29.348 167.682 30.644 164.19 30.86L165.162 35.648ZM190.761 35C190.689 34.496 190.689 28.736 190.689 28.16V24.956L198.033 25.064L197.925 20.564C194.865 20.672 191.337 20.888 190.689 20.888V13.868L198.609 13.688L198.465 9.044C195.657 9.188 186.621 9.584 184.497 9.584C184.569 10.484 184.641 19.16 184.641 19.736V24.524C184.641 25.388 184.641 33.092 184.461 35H190.761ZM219.569 30.428C217.373 30.608 212.261 30.536 211.361 30.536V24.38C212.117 24.38 217.193 24.524 218.057 24.524L217.949 19.988C216.293 20.132 212.045 20.312 211.361 20.312V13.76C211.973 13.76 217.913 13.58 219.137 13.58L218.992 8.936C217.769 9.044 206.753 9.584 205.205 9.584C205.241 10.484 205.312 19.16 205.312 19.736V24.56C205.312 25.388 205.312 33.092 205.205 35C206.609 35 218.741 35.36 219.713 35.36L219.569 30.428ZM233.161 35C233.089 34.46 232.981 25.352 232.981 23.984V13.544C238.057 13.58 239.245 15.488 239.245 17.18C239.245 20.024 236.257 22.112 234.565 23.048C235.609 24.596 243.025 34.928 243.673 35.936L248.749 32.048C247.813 31.004 241.909 24.416 240.901 23.192C243.745 21.248 245.689 18.944 245.689 15.956C245.689 12.716 242.881 10.7 237.697 10.052C234.673 9.656 230.461 9.584 226.825 9.584C226.933 10.268 227.005 17.936 227.005 19.016V21.968C227.005 22.724 227.077 34.136 226.933 35H233.161ZM260.619 23.156C260.619 30.14 265.551 35.54 273.651 35.576C284.847 35.576 288.627 26.972 288.627 21.824C288.627 13.616 283.191 9.008 275.415 9.008C265.947 9.008 260.619 16.136 260.619 23.156ZM267.351 22.796C267.351 17.216 270.699 13.652 274.911 13.652C278.727 13.652 281.895 16.496 281.859 22.004C281.823 28.304 277.719 30.932 274.335 30.932C270.267 30.932 267.351 27.872 267.351 22.796ZM300.8 35C300.728 34.496 300.728 28.736 300.728 28.16V24.956L308.072 25.064L307.964 20.564C304.904 20.672 301.376 20.888 300.728 20.888V13.868L308.648 13.688L308.504 9.044C305.696 9.188 296.66 9.584 294.536 9.584C294.608 10.484 294.68 19.16 294.68 19.736V24.524C294.68 25.388 294.68 33.092 294.5 35H300.8ZM325.055 23.624C325.055 24.596 324.983 33.524 324.839 35.18C335.063 35.18 348.815 30.536 348.815 19.268C348.815 16.532 347.195 11.492 336.791 10.124C333.551 9.692 329.627 9.584 324.875 9.584C325.019 10.592 325.055 18.404 325.055 19.16V23.624ZM331.103 14.12C337.187 14.084 342.155 15.668 342.155 20.384C342.155 25.388 337.079 29.204 331.103 29.924V14.12ZM354.013 35.972C354.805 34.46 356.713 30.14 357.037 29.42L368.557 28.88C368.953 29.42 371.581 34.316 372.481 35.936L377.953 32.624C376.081 29.852 366.865 14.228 363.013 8.288H362.761C360.349 12.104 350.197 30.428 348.757 32.948L354.013 35.972ZM358.909 25.244C359.593 23.84 362.041 18.764 362.761 17.36C363.301 18.476 365.929 23.372 366.685 24.884L358.909 25.244ZM391.397 35C391.325 34.28 391.145 27.836 391.145 22.652V14.3C392.729 14.3 399.389 14.48 400.073 14.588V9.584C398.309 9.8 390.461 9.944 389.777 9.944H386.645C386.249 9.944 377.717 9.8 376.097 9.584V14.588C377.213 14.48 382.325 14.3 385.025 14.3V22.076C385.025 26.72 384.989 34.064 384.881 35H391.397ZM403.091 35.972C403.883 34.46 405.791 30.14 406.115 29.42L417.635 28.88C418.031 29.42 420.659 34.316 421.559 35.936L427.031 32.624C425.159 29.852 415.943 14.228 412.091 8.288H411.839C409.427 12.104 399.275 30.428 397.835 32.948L403.091 35.972ZM407.987 25.244C408.671 23.84 411.119 18.764 411.839 17.36C412.379 18.476 415.007 23.372 415.763 24.884L407.987 25.244Z" fill="url(#paint1_linear_141_12)"/>
</mask>
<g mask="url(#mask0_141_12)">
<g filter="url(#filter1_i_141_12)">
<path d="M5.364 35.864C13.824 35.72 20.916 31.976 20.916 26.972C20.916 24.092 18.396 22.364 15.372 21.644V21.5C17.46 20.636 20.124 18.26 20.124 15.632C20.124 11.204 13.32 9.08 6.768 8.9L6.3 13.328C9.432 13.328 13.716 14.3 13.716 16.82C13.716 19.628 9.432 20.816 7.344 20.888L7.488 23.336C9.396 23.372 14.292 24.056 14.292 26.9C14.292 30.356 8.28 31.616 5.112 31.364L5.364 35.864ZM30.5438 30.068V35H35.7278V30.068H30.5438ZM63.2138 35C63.1418 34.28 62.9618 27.836 62.9618 22.652V14.3C64.5458 14.3 71.2058 14.48 71.8898 14.588V9.584C70.1258 9.8 62.2778 9.944 61.5938 9.944H58.4618C58.0658 9.944 49.5338 9.8 47.9137 9.584V14.588C49.0298 14.48 54.1418 14.3 56.8418 14.3V22.076C56.8418 26.72 56.8058 34.064 56.6978 35H63.2138ZM82.4108 35C82.3388 34.46 82.2308 25.352 82.2308 23.984V13.544C87.3068 13.58 88.4948 15.488 88.4948 17.18C88.4948 20.024 85.5068 22.112 83.8148 23.048C84.8588 24.596 92.2748 34.928 92.9228 35.936L97.9988 32.048C97.0628 31.004 91.1588 24.416 90.1508 23.192C92.9948 21.248 94.9388 18.944 94.9388 15.956C94.9388 12.716 92.1308 10.7 86.9468 10.052C83.9228 9.656 79.7108 9.584 76.0748 9.584C76.1828 10.268 76.2548 17.936 76.2548 19.016V21.968C76.2548 22.724 76.3268 34.136 76.1828 35H82.4108ZM103.982 35.972C104.774 34.46 106.682 30.14 107.006 29.42L118.526 28.88C118.922 29.42 121.55 34.316 122.45 35.936L127.922 32.624C126.05 29.852 116.834 14.228 112.982 8.288H112.73C110.318 12.104 100.166 30.428 98.7255 32.948L103.982 35.972ZM108.878 25.244C109.562 23.84 112.01 18.764 112.73 17.36C113.27 18.476 115.898 23.372 116.654 24.884L108.878 25.244ZM137.215 35.252C137.179 34.064 137.359 20.816 137.359 19.592H137.431C137.899 20.24 153.055 33.668 155.935 35.72L156.223 35.612C156.331 32.372 156.547 26.936 156.835 21.752C157.087 16.568 157.375 11.672 157.519 9.584L151.831 9.404C151.795 10.808 151.687 23.408 151.687 24.884C150.535 23.768 136.567 11.456 133.183 8.756L132.895 8.864C132.751 11.024 132.463 16.928 132.175 22.58C131.887 28.232 131.599 33.668 131.491 35L137.215 35.252ZM165.162 35.648C174.45 34.244 178.41 29.672 178.41 25.892C178.41 22.76 175.638 21.356 173.442 20.168C171.426 19.088 169.734 18.26 169.734 17.036C169.734 14.948 173.226 13.796 176.79 13.652L175.926 8.936C168.51 9.872 163.146 13.904 163.146 17.864C163.146 20.744 165.594 22.4 168.186 23.876C170.994 25.46 171.75 26.072 171.75 27.224C171.75 29.348 167.682 30.644 164.19 30.86L165.162 35.648ZM190.761 35C190.689 34.496 190.689 28.736 190.689 28.16V24.956L198.033 25.064L197.925 20.564C194.865 20.672 191.337 20.888 190.689 20.888V13.868L198.609 13.688L198.465 9.044C195.657 9.188 186.621 9.584 184.497 9.584C184.569 10.484 184.641 19.16 184.641 19.736V24.524C184.641 25.388 184.641 33.092 184.461 35H190.761ZM219.569 30.428C217.373 30.608 212.261 30.536 211.361 30.536V24.38C212.117 24.38 217.193 24.524 218.057 24.524L217.949 19.988C216.293 20.132 212.045 20.312 211.361 20.312V13.76C211.973 13.76 217.913 13.58 219.137 13.58L218.992 8.936C217.769 9.044 206.753 9.584 205.205 9.584C205.241 10.484 205.312 19.16 205.312 19.736V24.56C205.312 25.388 205.312 33.092 205.205 35C206.609 35 218.741 35.36 219.713 35.36L219.569 30.428ZM233.161 35C233.089 34.46 232.981 25.352 232.981 23.984V13.544C238.057 13.58 239.245 15.488 239.245 17.18C239.245 20.024 236.257 22.112 234.565 23.048C235.609 24.596 243.025 34.928 243.673 35.936L248.749 32.048C247.813 31.004 241.909 24.416 240.901 23.192C243.745 21.248 245.689 18.944 245.689 15.956C245.689 12.716 242.881 10.7 237.697 10.052C234.673 9.656 230.461 9.584 226.825 9.584C226.933 10.268 227.005 17.936 227.005 19.016V21.968C227.005 22.724 227.077 34.136 226.933 35H233.161ZM260.619 23.156C260.619 30.14 265.551 35.54 273.651 35.576C284.847 35.576 288.627 26.972 288.627 21.824C288.627 13.616 283.191 9.008 275.415 9.008C265.947 9.008 260.619 16.136 260.619 23.156ZM267.351 22.796C267.351 17.216 270.699 13.652 274.911 13.652C278.727 13.652 281.895 16.496 281.859 22.004C281.823 28.304 277.719 30.932 274.335 30.932C270.267 30.932 267.351 27.872 267.351 22.796ZM300.8 35C300.728 34.496 300.728 28.736 300.728 28.16V24.956L308.072 25.064L307.964 20.564C304.904 20.672 301.376 20.888 300.728 20.888V13.868L308.648 13.688L308.504 9.044C305.696 9.188 296.66 9.584 294.536 9.584C294.608 10.484 294.68 19.16 294.68 19.736V24.524C294.68 25.388 294.68 33.092 294.5 35H300.8ZM325.055 23.624C325.055 24.596 324.983 33.524 324.839 35.18C335.063 35.18 348.815 30.536 348.815 19.268C348.815 16.532 347.195 11.492 336.791 10.124C333.551 9.692 329.627 9.584 324.875 9.584C325.019 10.592 325.055 18.404 325.055 19.16V23.624ZM331.103 14.12C337.187 14.084 342.155 15.668 342.155 20.384C342.155 25.388 337.079 29.204 331.103 29.924V14.12ZM354.013 35.972C354.805 34.46 356.713 30.14 357.037 29.42L368.557 28.88C368.953 29.42 371.581 34.316 372.481 35.936L377.953 32.624C376.081 29.852 366.865 14.228 363.013 8.288H362.761C360.349 12.104 350.197 30.428 348.757 32.948L354.013 35.972ZM358.909 25.244C359.593 23.84 362.041 18.764 362.761 17.36C363.301 18.476 365.929 23.372 366.685 24.884L358.909 25.244ZM391.397 35C391.325 34.28 391.145 27.836 391.145 22.652V14.3C392.729 14.3 399.389 14.48 400.073 14.588V9.584C398.309 9.8 390.461 9.944 389.777 9.944H386.645C386.249 9.944 377.717 9.8 376.097 9.584V14.588C377.213 14.48 382.325 14.3 385.025 14.3V22.076C385.025 26.72 384.989 34.064 384.881 35H391.397ZM403.091 35.972C403.883 34.46 405.791 30.14 406.115 29.42L417.635 28.88C418.031 29.42 420.659 34.316 421.559 35.936L427.031 32.624C425.159 29.852 415.943 14.228 412.091 8.288H411.839C409.427 12.104 399.275 30.428 397.835 32.948L403.091 35.972ZM407.987 25.244C408.671 23.84 411.119 18.764 411.839 17.36C412.379 18.476 415.007 23.372 415.763 24.884L407.987 25.244Z" fill="url(#paint2_linear_141_12)"/>
</g>
<g style="mix-blend-mode:color-dodge" filter="url(#filter2_f_141_12)">
<circle cx="343.018" cy="-0.757458" r="41.0164" fill="#0094FF"/>
</g>
<g style="mix-blend-mode:color-dodge" filter="url(#filter3_f_141_12)">
<circle cx="225.438" cy="-10.328" r="41.0164" fill="#0094FF"/>
</g>
<g style="mix-blend-mode:color-dodge" filter="url(#filter4_f_141_12)">
<circle cx="87.3494" cy="-6.22647" r="41.0164" fill="#0094FF"/>
</g>
</g>
<defs>
<filter id="filter0_i_141_12" x="5.11182" y="12.288" width="421.919" height="27.684" filterUnits="userSpaceOnUse" color-interpolation-filters="sRGB">
<feFlood flood-opacity="0" result="BackgroundImageFix"/>
<feBlend mode="normal" in="SourceGraphic" in2="BackgroundImageFix" result="shape"/>
<feColorMatrix in="SourceAlpha" type="matrix" values="0 0 0 0 0 0 0 0 0 0 0 0 0 0 0 0 0 0 127 0" result="hardAlpha"/>
<feOffset dy="-1.36721"/>
<feComposite in2="hardAlpha" operator="arithmetic" k2="-1" k3="1"/>
<feColorMatrix type="matrix" values="0 0 0 0 1 0 0 0 0 1 0 0 0 0 1 0 0 0 1 0"/>
<feBlend mode="normal" in2="shape" result="effect1_innerShadow_141_12"/>
</filter>
<filter id="filter1_i_141_12" x="5.11182" y="8.28799" width="421.919" height="27.684" filterUnits="userSpaceOnUse" color-interpolation-filters="sRGB">
<feFlood flood-opacity="0" result="BackgroundImageFix"/>
<feBlend mode="normal" in="SourceGraphic" in2="BackgroundImageFix" result="shape"/>
<feColorMatrix in="SourceAlpha" type="matrix" values="0 0 0 0 0 0 0 0 0 0 0 0 0 0 0 0 0 0 127 0" result="hardAlpha"/>
<feOffset dy="-1.36721"/>
<feComposite in2="hardAlpha" operator="arithmetic" k2="-1" k3="1"/>
<feColorMatrix type="matrix" values="0 0 0 0 1 0 0 0 0 1 0 0 0 0 1 0 0 0 1 0"/>
<feBlend mode="normal" in2="shape" result="effect1_innerShadow_141_12"/>
</filter>
<filter id="filter2_f_141_12" x="261.669" y="-82.1067" width="162.698" height="162.698" filterUnits="userSpaceOnUse" color-interpolation-filters="sRGB">
<feFlood flood-opacity="0" result="BackgroundImageFix"/>
<feBlend mode="normal" in="SourceGraphic" in2="BackgroundImageFix" result="shape"/>
<feGaussianBlur stdDeviation="20.1664" result="effect1_foregroundBlur_141_12"/>
</filter>
<filter id="filter3_f_141_12" x="144.089" y="-91.6772" width="162.698" height="162.698" filterUnits="userSpaceOnUse" color-interpolation-filters="sRGB">
<feFlood flood-opacity="0" result="BackgroundImageFix"/>
<feBlend mode="normal" in="SourceGraphic" in2="BackgroundImageFix" result="shape"/>
<feGaussianBlur stdDeviation="20.1664" result="effect1_foregroundBlur_141_12"/>
</filter>
<filter id="filter4_f_141_12" x="6.00021" y="-87.5757" width="162.698" height="162.698" filterUnits="userSpaceOnUse" color-interpolation-filters="sRGB">
<feFlood flood-opacity="0" result="BackgroundImageFix"/>
<feBlend mode="normal" in="SourceGraphic" in2="BackgroundImageFix" result="shape"/>
<feGaussianBlur stdDeviation="20.1664" result="effect1_foregroundBlur_141_12"/>
</filter>
<linearGradient id="paint0_linear_141_12" x1="7.80688" y1="3.99997" x2="422.242" y2="121.036" gradientUnits="userSpaceOnUse">
<stop stop-color="#00538F"/>
<stop offset="1" stop-color="#005FA4"/>
</linearGradient>
<linearGradient id="paint1_linear_141_12" x1="7.80688" y1="-3.3335e-05" x2="422.242" y2="117.036" gradientUnits="userSpaceOnUse">
<stop stop-color="#3AACFF"/>
<stop offset="1" stop-color="#0094FF"/>
</linearGradient>
<linearGradient id="paint2_linear_141_12" x1="7.80688" y1="-3.3335e-05" x2="422.242" y2="117.036" gradientUnits="userSpaceOnUse">
<stop stop-color="#3AACFF"/>
<stop offset="1" stop-color="#0094FF"/>
</linearGradient>
</defs>
</svg>
