<svg width="298" height="57" viewBox="0 0 298 57" fill="none" xmlns="http://www.w3.org/2000/svg">
<g filter="url(#filter0_i_124_2286)">
<path d="M22.464 34.14L13.32 34.572V34.248C15.408 32.52 21.024 28.56 21.024 22.908C21.024 18.228 16.416 13.944 6.228 12.972L5.292 17.616C8.964 17.796 14.724 19.164 14.724 23.808C14.724 29.1 6.66 35.4 3.204 38.1L3.564 39H6.012C12.96 39.036 21.384 39.18 22.464 39.288V34.14ZM30.5438 34.068V39H35.7278V34.068H30.5438ZM75.3818 19.452C75.3818 16.608 75.3458 14.016 75.3458 13.224H69.0098C69.0458 14.556 69.1898 16.896 69.1898 19.38V20.712C69.1898 27.516 69.1538 30.216 67.8578 32.196C66.8858 33.672 65.4098 34.572 63.4658 34.572C61.7738 34.572 60.2258 33.96 59.1458 32.376C57.7778 30.432 57.4898 27.804 57.4898 22.332V19.884C57.4898 16.608 57.5618 14.7 57.7058 13.764H51.2978C51.2978 14.592 51.2618 17.436 51.2618 19.092V21.036C51.2618 29.784 51.8738 32.52 53.6018 35.148C56.2658 39.144 60.4778 39.576 62.9978 39.576C66.9218 39.576 70.0898 38.28 72.2498 35.616C74.9858 32.34 75.3818 28.02 75.3818 21.108V19.452ZM82.8264 39.648C92.1144 38.244 96.0744 33.672 96.0744 29.892C96.0744 26.76 93.3024 25.356 91.1064 24.168C89.0904 23.088 87.3984 22.26 87.3984 21.036C87.3984 18.948 90.8904 17.796 94.4544 17.652L93.5904 12.936C86.1744 13.872 80.8104 17.904 80.8104 21.864C80.8104 24.744 83.2584 26.4 85.8504 27.876C88.6584 29.46 89.4144 30.072 89.4144 31.224C89.4144 33.348 85.3464 34.644 81.8544 34.86L82.8264 39.648ZM116.561 34.428C114.365 34.608 109.253 34.536 108.353 34.536V28.38C109.109 28.38 114.185 28.524 115.049 28.524L114.941 23.988C113.285 24.132 109.037 24.312 108.353 24.312V17.76C108.965 17.76 114.905 17.58 116.129 17.58L115.985 12.936C114.761 13.044 103.745 13.584 102.197 13.584C102.233 14.484 102.305 23.16 102.305 23.736V28.56C102.305 29.388 102.305 37.092 102.197 39C103.601 39 115.733 39.36 116.705 39.36L116.561 34.428ZM130.892 27.156C130.892 34.14 135.824 39.54 143.924 39.576C155.12 39.576 158.9 30.972 158.9 25.824C158.9 17.616 153.464 13.008 145.688 13.008C136.22 13.008 130.892 20.136 130.892 27.156ZM137.624 26.796C137.624 21.216 140.972 17.652 145.184 17.652C149 17.652 152.168 20.496 152.132 26.004C152.096 32.304 147.992 34.932 144.608 34.932C140.54 34.932 137.624 31.872 137.624 26.796ZM171.073 39C171.001 38.496 171.001 32.736 171.001 32.16V28.956L178.345 29.064L178.237 24.564C175.177 24.672 171.649 24.888 171.001 24.888V17.868L178.921 17.688L178.777 13.044C175.969 13.188 166.933 13.584 164.809 13.584C164.881 14.484 164.953 23.16 164.953 23.736V28.524C164.953 29.388 164.953 37.092 164.773 39H171.073ZM195.328 27.624C195.328 28.596 195.256 37.524 195.112 39.18C205.336 39.18 219.088 34.536 219.088 23.268C219.088 20.532 217.468 15.492 207.064 14.124C203.824 13.692 199.9 13.584 195.148 13.584C195.292 14.592 195.328 22.404 195.328 23.16V27.624ZM201.376 18.12C207.46 18.084 212.428 19.668 212.428 24.384C212.428 29.388 207.352 33.204 201.376 33.924V18.12ZM224.286 39.972C225.078 38.46 226.986 34.14 227.31 33.42L238.83 32.88C239.226 33.42 241.854 38.316 242.754 39.936L248.226 36.624C246.354 33.852 237.138 18.228 233.286 12.288H233.034C230.622 16.104 220.47 34.428 219.03 36.948L224.286 39.972ZM229.182 29.244C229.866 27.84 232.314 22.764 233.034 21.36C233.574 22.476 236.202 27.372 236.958 28.884L229.182 29.244ZM261.671 39C261.599 38.28 261.419 31.836 261.419 26.652V18.3C263.003 18.3 269.663 18.48 270.347 18.588V13.584C268.583 13.8 260.735 13.944 260.051 13.944H256.919C256.523 13.944 247.991 13.8 246.371 13.584V18.588C247.487 18.48 252.599 18.3 255.299 18.3V26.076C255.299 30.72 255.263 38.064 255.155 39H261.671ZM273.364 39.972C274.156 38.46 276.064 34.14 276.388 33.42L287.908 32.88C288.304 33.42 290.932 38.316 291.832 39.936L297.304 36.624C295.432 33.852 286.216 18.228 282.364 12.288H282.112C279.7 16.104 269.548 34.428 268.108 36.948L273.364 39.972ZM278.26 29.244C278.944 27.84 281.392 22.764 282.112 21.36C282.652 22.476 285.28 27.372 286.036 28.884L278.26 29.244Z" fill="url(#paint0_linear_124_2286)"/>
</g>
<mask id="mask0_124_2286" style="mask-type:alpha" maskUnits="userSpaceOnUse" x="3" y="8" width="295" height="28">
<path d="M22.464 30.14L13.32 30.572V30.248C15.408 28.52 21.024 24.56 21.024 18.908C21.024 14.228 16.416 9.944 6.228 8.972L5.292 13.616C8.964 13.796 14.724 15.164 14.724 19.808C14.724 25.1 6.66 31.4 3.204 34.1L3.564 35H6.012C12.96 35.036 21.384 35.18 22.464 35.288V30.14ZM30.5438 30.068V35H35.7278V30.068H30.5438ZM75.3818 15.452C75.3818 12.608 75.3458 10.016 75.3458 9.224H69.0098C69.0458 10.556 69.1898 12.896 69.1898 15.38V16.712C69.1898 23.516 69.1538 26.216 67.8578 28.196C66.8858 29.672 65.4098 30.572 63.4658 30.572C61.7738 30.572 60.2258 29.96 59.1458 28.376C57.7778 26.432 57.4898 23.804 57.4898 18.332V15.884C57.4898 12.608 57.5618 10.7 57.7058 9.764H51.2978C51.2978 10.592 51.2618 13.436 51.2618 15.092V17.036C51.2618 25.784 51.8738 28.52 53.6018 31.148C56.2658 35.144 60.4778 35.576 62.9978 35.576C66.9218 35.576 70.0898 34.28 72.2498 31.616C74.9858 28.34 75.3818 24.02 75.3818 17.108V15.452ZM82.8264 35.648C92.1144 34.244 96.0744 29.672 96.0744 25.892C96.0744 22.76 93.3024 21.356 91.1064 20.168C89.0904 19.088 87.3984 18.26 87.3984 17.036C87.3984 14.948 90.8904 13.796 94.4544 13.652L93.5904 8.936C86.1744 9.872 80.8104 13.904 80.8104 17.864C80.8104 20.744 83.2584 22.4 85.8504 23.876C88.6584 25.46 89.4144 26.072 89.4144 27.224C89.4144 29.348 85.3464 30.644 81.8544 30.86L82.8264 35.648ZM116.561 30.428C114.365 30.608 109.253 30.536 108.353 30.536V24.38C109.109 24.38 114.185 24.524 115.049 24.524L114.941 19.988C113.285 20.132 109.037 20.312 108.353 20.312V13.76C108.965 13.76 114.905 13.58 116.129 13.58L115.985 8.936C114.761 9.044 103.745 9.584 102.197 9.584C102.233 10.484 102.305 19.16 102.305 19.736V24.56C102.305 25.388 102.305 33.092 102.197 35C103.601 35 115.733 35.36 116.705 35.36L116.561 30.428ZM130.892 23.156C130.892 30.14 135.824 35.54 143.924 35.576C155.12 35.576 158.9 26.972 158.9 21.824C158.9 13.616 153.464 9.008 145.688 9.008C136.22 9.008 130.892 16.136 130.892 23.156ZM137.624 22.796C137.624 17.216 140.972 13.652 145.184 13.652C149 13.652 152.168 16.496 152.132 22.004C152.096 28.304 147.992 30.932 144.608 30.932C140.54 30.932 137.624 27.872 137.624 22.796ZM171.073 35C171.001 34.496 171.001 28.736 171.001 28.16V24.956L178.345 25.064L178.237 20.564C175.177 20.672 171.649 20.888 171.001 20.888V13.868L178.921 13.688L178.777 9.044C175.969 9.188 166.933 9.584 164.809 9.584C164.881 10.484 164.953 19.16 164.953 19.736V24.524C164.953 25.388 164.953 33.092 164.773 35H171.073ZM195.328 23.624C195.328 24.596 195.256 33.524 195.112 35.18C205.336 35.18 219.088 30.536 219.088 19.268C219.088 16.532 217.468 11.492 207.064 10.124C203.824 9.692 199.9 9.584 195.148 9.584C195.292 10.592 195.328 18.404 195.328 19.16V23.624ZM201.376 14.12C207.46 14.084 212.428 15.668 212.428 20.384C212.428 25.388 207.352 29.204 201.376 29.924V14.12ZM224.286 35.972C225.078 34.46 226.986 30.14 227.31 29.42L238.83 28.88C239.226 29.42 241.854 34.316 242.754 35.936L248.226 32.624C246.354 29.852 237.138 14.228 233.286 8.288H233.034C230.622 12.104 220.47 30.428 219.03 32.948L224.286 35.972ZM229.182 25.244C229.866 23.84 232.314 18.764 233.034 17.36C233.574 18.476 236.202 23.372 236.958 24.884L229.182 25.244ZM261.671 35C261.599 34.28 261.419 27.836 261.419 22.652V14.3C263.003 14.3 269.663 14.48 270.347 14.588V9.584C268.583 9.8 260.735 9.944 260.051 9.944H256.919C256.523 9.944 247.991 9.8 246.371 9.584V14.588C247.487 14.48 252.599 14.3 255.299 14.3V22.076C255.299 26.72 255.263 34.064 255.155 35H261.671ZM273.364 35.972C274.156 34.46 276.064 30.14 276.388 29.42L287.908 28.88C288.304 29.42 290.932 34.316 291.832 35.936L297.304 32.624C295.432 29.852 286.216 14.228 282.364 8.288H282.112C279.7 12.104 269.548 30.428 268.108 32.948L273.364 35.972ZM278.26 25.244C278.944 23.84 281.392 18.764 282.112 17.36C282.652 18.476 285.28 23.372 286.036 24.884L278.26 25.244Z" fill="url(#paint1_linear_124_2286)"/>
</mask>
<g mask="url(#mask0_124_2286)">
<g filter="url(#filter1_i_124_2286)">
<path d="M22.464 30.14L13.32 30.572V30.248C15.408 28.52 21.024 24.56 21.024 18.908C21.024 14.228 16.416 9.944 6.228 8.972L5.292 13.616C8.964 13.796 14.724 15.164 14.724 19.808C14.724 25.1 6.66 31.4 3.204 34.1L3.564 35H6.012C12.96 35.036 21.384 35.18 22.464 35.288V30.14ZM30.5438 30.068V35H35.7278V30.068H30.5438ZM75.3818 15.452C75.3818 12.608 75.3458 10.016 75.3458 9.224H69.0098C69.0458 10.556 69.1898 12.896 69.1898 15.38V16.712C69.1898 23.516 69.1538 26.216 67.8578 28.196C66.8858 29.672 65.4098 30.572 63.4658 30.572C61.7738 30.572 60.2258 29.96 59.1458 28.376C57.7778 26.432 57.4898 23.804 57.4898 18.332V15.884C57.4898 12.608 57.5618 10.7 57.7058 9.764H51.2978C51.2978 10.592 51.2618 13.436 51.2618 15.092V17.036C51.2618 25.784 51.8738 28.52 53.6018 31.148C56.2658 35.144 60.4778 35.576 62.9978 35.576C66.9218 35.576 70.0898 34.28 72.2498 31.616C74.9858 28.34 75.3818 24.02 75.3818 17.108V15.452ZM82.8264 35.648C92.1144 34.244 96.0744 29.672 96.0744 25.892C96.0744 22.76 93.3024 21.356 91.1064 20.168C89.0904 19.088 87.3984 18.26 87.3984 17.036C87.3984 14.948 90.8904 13.796 94.4544 13.652L93.5904 8.936C86.1744 9.872 80.8104 13.904 80.8104 17.864C80.8104 20.744 83.2584 22.4 85.8504 23.876C88.6584 25.46 89.4144 26.072 89.4144 27.224C89.4144 29.348 85.3464 30.644 81.8544 30.86L82.8264 35.648ZM116.561 30.428C114.365 30.608 109.253 30.536 108.353 30.536V24.38C109.109 24.38 114.185 24.524 115.049 24.524L114.941 19.988C113.285 20.132 109.037 20.312 108.353 20.312V13.76C108.965 13.76 114.905 13.58 116.129 13.58L115.985 8.936C114.761 9.044 103.745 9.584 102.197 9.584C102.233 10.484 102.305 19.16 102.305 19.736V24.56C102.305 25.388 102.305 33.092 102.197 35C103.601 35 115.733 35.36 116.705 35.36L116.561 30.428ZM130.892 23.156C130.892 30.14 135.824 35.54 143.924 35.576C155.12 35.576 158.9 26.972 158.9 21.824C158.9 13.616 153.464 9.008 145.688 9.008C136.22 9.008 130.892 16.136 130.892 23.156ZM137.624 22.796C137.624 17.216 140.972 13.652 145.184 13.652C149 13.652 152.168 16.496 152.132 22.004C152.096 28.304 147.992 30.932 144.608 30.932C140.54 30.932 137.624 27.872 137.624 22.796ZM171.073 35C171.001 34.496 171.001 28.736 171.001 28.16V24.956L178.345 25.064L178.237 20.564C175.177 20.672 171.649 20.888 171.001 20.888V13.868L178.921 13.688L178.777 9.044C175.969 9.188 166.933 9.584 164.809 9.584C164.881 10.484 164.953 19.16 164.953 19.736V24.524C164.953 25.388 164.953 33.092 164.773 35H171.073ZM195.328 23.624C195.328 24.596 195.256 33.524 195.112 35.18C205.336 35.18 219.088 30.536 219.088 19.268C219.088 16.532 217.468 11.492 207.064 10.124C203.824 9.692 199.9 9.584 195.148 9.584C195.292 10.592 195.328 18.404 195.328 19.16V23.624ZM201.376 14.12C207.46 14.084 212.428 15.668 212.428 20.384C212.428 25.388 207.352 29.204 201.376 29.924V14.12ZM224.286 35.972C225.078 34.46 226.986 30.14 227.31 29.42L238.83 28.88C239.226 29.42 241.854 34.316 242.754 35.936L248.226 32.624C246.354 29.852 237.138 14.228 233.286 8.288H233.034C230.622 12.104 220.47 30.428 219.03 32.948L224.286 35.972ZM229.182 25.244C229.866 23.84 232.314 18.764 233.034 17.36C233.574 18.476 236.202 23.372 236.958 24.884L229.182 25.244ZM261.671 35C261.599 34.28 261.419 27.836 261.419 22.652V14.3C263.003 14.3 269.663 14.48 270.347 14.588V9.584C268.583 9.8 260.735 9.944 260.051 9.944H256.919C256.523 9.944 247.991 9.8 246.371 9.584V14.588C247.487 14.48 252.599 14.3 255.299 14.3V22.076C255.299 26.72 255.263 34.064 255.155 35H261.671ZM273.364 35.972C274.156 34.46 276.064 30.14 276.388 29.42L287.908 28.88C288.304 29.42 290.932 34.316 291.832 35.936L297.304 32.624C295.432 29.852 286.216 14.228 282.364 8.288H282.112C279.7 12.104 269.548 30.428 268.108 32.948L273.364 35.972ZM278.26 25.244C278.944 23.84 281.392 18.764 282.112 17.36C282.652 18.476 285.28 23.372 286.036 24.884L278.26 25.244Z" fill="url(#paint2_linear_124_2286)"/>
</g>
<g style="mix-blend-mode:color-dodge" filter="url(#filter2_f_124_2286)">
<circle cx="343.018" cy="-0.757458" r="41.0164" fill="#0094FF"/>
</g>
<g style="mix-blend-mode:color-dodge" filter="url(#filter3_f_124_2286)">
<circle cx="225.438" cy="-10.328" r="41.0164" fill="#0094FF"/>
</g>
<g style="mix-blend-mode:color-dodge" filter="url(#filter4_f_124_2286)">
<circle cx="87.3494" cy="-6.22645" r="41.0164" fill="#0094FF"/>
</g>
</g>
<defs>
<filter id="filter0_i_124_2286" x="3.2041" y="12.288" width="294.1" height="27.684" filterUnits="userSpaceOnUse" color-interpolation-filters="sRGB">
<feFlood flood-opacity="0" result="BackgroundImageFix"/>
<feBlend mode="normal" in="SourceGraphic" in2="BackgroundImageFix" result="shape"/>
<feColorMatrix in="SourceAlpha" type="matrix" values="0 0 0 0 0 0 0 0 0 0 0 0 0 0 0 0 0 0 127 0" result="hardAlpha"/>
<feOffset dy="-1.36721"/>
<feComposite in2="hardAlpha" operator="arithmetic" k2="-1" k3="1"/>
<feColorMatrix type="matrix" values="0 0 0 0 1 0 0 0 0 1 0 0 0 0 1 0 0 0 1 0"/>
<feBlend mode="normal" in2="shape" result="effect1_innerShadow_124_2286"/>
</filter>
<filter id="filter1_i_124_2286" x="3.2041" y="8.28802" width="294.1" height="27.684" filterUnits="userSpaceOnUse" color-interpolation-filters="sRGB">
<feFlood flood-opacity="0" result="BackgroundImageFix"/>
<feBlend mode="normal" in="SourceGraphic" in2="BackgroundImageFix" result="shape"/>
<feColorMatrix in="SourceAlpha" type="matrix" values="0 0 0 0 0 0 0 0 0 0 0 0 0 0 0 0 0 0 127 0" result="hardAlpha"/>
<feOffset dy="-1.36721"/>
<feComposite in2="hardAlpha" operator="arithmetic" k2="-1" k3="1"/>
<feColorMatrix type="matrix" values="0 0 0 0 1 0 0 0 0 1 0 0 0 0 1 0 0 0 1 0"/>
<feBlend mode="normal" in2="shape" result="effect1_innerShadow_124_2286"/>
</filter>
<filter id="filter2_f_124_2286" x="261.669" y="-82.1067" width="162.698" height="162.698" filterUnits="userSpaceOnUse" color-interpolation-filters="sRGB">
<feFlood flood-opacity="0" result="BackgroundImageFix"/>
<feBlend mode="normal" in="SourceGraphic" in2="BackgroundImageFix" result="shape"/>
<feGaussianBlur stdDeviation="20.1664" result="effect1_foregroundBlur_124_2286"/>
</filter>
<filter id="filter3_f_124_2286" x="144.089" y="-91.6772" width="162.698" height="162.698" filterUnits="userSpaceOnUse" color-interpolation-filters="sRGB">
<feFlood flood-opacity="0" result="BackgroundImageFix"/>
<feBlend mode="normal" in="SourceGraphic" in2="BackgroundImageFix" result="shape"/>
<feGaussianBlur stdDeviation="20.1664" result="effect1_foregroundBlur_124_2286"/>
</filter>
<filter id="filter4_f_124_2286" x="6.00021" y="-87.5757" width="162.698" height="162.698" filterUnits="userSpaceOnUse" color-interpolation-filters="sRGB">
<feFlood flood-opacity="0" result="BackgroundImageFix"/>
<feBlend mode="normal" in="SourceGraphic" in2="BackgroundImageFix" result="shape"/>
<feGaussianBlur stdDeviation="20.1664" result="effect1_foregroundBlur_124_2286"/>
</filter>
<linearGradient id="paint0_linear_124_2286" x1="5.43563" y1="3.99997" x2="305.406" y2="62.9811" gradientUnits="userSpaceOnUse">
<stop stop-color="#00538F"/>
<stop offset="1" stop-color="#005FA4"/>
</linearGradient>
<linearGradient id="paint1_linear_124_2286" x1="5.43563" y1="-3.3335e-05" x2="305.406" y2="58.9811" gradientUnits="userSpaceOnUse">
<stop stop-color="#3AACFF"/>
<stop offset="1" stop-color="#0094FF"/>
</linearGradient>
<linearGradient id="paint2_linear_124_2286" x1="5.43563" y1="-3.3335e-05" x2="305.406" y2="58.9811" gradientUnits="userSpaceOnUse">
<stop stop-color="#3AACFF"/>
<stop offset="1" stop-color="#0094FF"/>
</linearGradient>
</defs>
</svg>
