<svg width="691" height="188" viewBox="0 0 691 188" fill="none" xmlns="http://www.w3.org/2000/svg">
<g opacity="0.08">
<path d="M24.2811 128.119C26.9859 122.34 31.412 112.75 32.3956 111.029L69.4027 108.939C70.6322 111.029 76.9025 121.971 80.468 127.996L104.812 113.611C99.6478 106.603 66.5749 54.596 51.8213 32.3425H50.5918C38.6659 51.1535 4.60947 108.816 0.921051 115.086L24.2811 128.119ZM40.2642 92.8326C43.4608 85.9476 47.764 76.8495 50.7147 70.948C52.9278 75.9888 57.5998 84.7181 61.0423 91.7261L40.2642 92.8326ZM116.089 85.4558C116.089 87.5459 116.089 119.02 115.597 124.799H128.015C166.375 124.799 181.866 112.873 181.866 100.824C181.866 90.7425 171.907 85.2099 163.178 84.5951V83.9804C175.104 80.169 178.423 72.3004 178.423 68.489C178.423 62.5876 175.227 53.9813 151.99 51.1535C142.031 49.924 132.564 49.924 115.597 49.924C115.843 52.137 116.089 70.825 116.089 73.8987V85.4558ZM140.679 92.0949C149.162 91.6032 155.432 94.5539 155.432 101.439C155.432 107.34 147.441 111.521 140.679 111.521V92.0949ZM140.679 62.2187C144.736 61.8499 152.604 62.7105 152.604 69.5956C152.604 78.0789 144.982 80.9067 140.679 80.9067V62.2187ZM234.852 125.905C272.474 125.905 283.54 100.824 283.54 85.0869C283.54 62.0958 267.065 48.3257 240.262 48.3257C207.189 48.3257 191.575 69.9644 191.575 90.1278C191.575 106.849 204.853 125.905 234.852 125.905ZM236.082 108.939C227.476 108.939 220.222 102.3 220.222 88.5295C220.222 75.9888 226.738 65.2924 238.787 65.2924C248.991 65.2924 254.893 72.5463 254.893 85.8246C254.893 101.193 247.516 108.939 236.082 108.939ZM323.03 68.7349C323.03 59.145 323.276 53.2436 323.644 50.5387H296.104C296.104 52.8747 295.981 61.604 295.981 66.3989V72.0545C295.981 97.3817 298.071 105.127 303.481 112.75C311.841 124.553 326.103 125.905 335.201 125.905C347.619 125.905 359.053 121.848 365.815 114.103C374.176 104.513 375.528 92.3408 375.528 72.3004V67.3825C375.528 59.145 375.405 51.2764 375.405 48.9404H348.357C348.48 52.7518 348.972 60.0057 348.972 67.2596V71.1939C348.972 94.9227 348.849 98.857 345.775 103.16C343.685 106.111 340.611 107.709 336.677 107.709C333.234 107.709 330.407 106.726 328.071 104.267C323.767 99.5947 323.03 92.4638 323.03 75.7429V68.7349ZM433.985 124.184C433.739 122.094 433.616 107.709 433.616 96.8899V68.8579C434.723 68.8579 455.378 69.3497 457.468 69.4726V50.1699C452.058 50.6617 427.592 51.0305 425.502 51.0305H415.789C414.559 51.0305 388.003 50.6617 382.962 50.1699V69.4726C386.404 69.3497 402.387 68.8579 406.936 68.8579V95.2916C406.936 106.603 406.814 121.479 406.691 124.184H433.985ZM555.652 58.8992C555.652 47.7109 555.898 40.7029 556.39 37.5063H527.743C527.743 40.3341 527.62 50.5387 527.62 56.1943V62.8335C527.62 92.7097 529.71 101.808 535.734 110.783C545.078 124.43 560.078 126.151 570.16 126.151C583.807 126.151 595.733 121.479 603.233 112.381C612.577 101.193 613.929 86.6853 613.929 63.0794V57.4238C613.929 47.7109 613.806 38.3669 613.806 35.6621H585.651C585.774 40.2112 586.266 48.6945 586.266 57.1779V61.8499C586.266 89.7589 586.02 94.9227 582.7 99.9636C579.995 104.021 576.061 105.742 571.758 105.742C567.947 105.742 564.135 104.636 561.307 101.316C556.635 95.7834 555.652 86.9312 555.652 67.2596V58.8992ZM634.296 126.397C671.672 122.094 685.811 104.881 685.811 91.3573C685.811 80.292 675.237 74.7594 668.721 71.5627C660.73 67.6284 656.795 65.7842 656.795 62.8335C656.795 57.7926 664.541 55.2107 679.909 55.2107L676.59 34.6785C645.484 37.3834 627.165 52.3829 627.165 66.153C627.165 76.4806 636.14 82.628 643.886 87.0541C653.845 92.7097 655.935 94.185 655.935 96.644C655.935 102.423 642.902 105.742 630.976 105.373L634.296 126.397Z" fill="url(#paint0_linear_0_626)"/>
<g filter="url(#filter0_i_0_626)">
<path d="M24.2811 121.934C26.9859 116.156 31.412 106.566 32.3956 104.845L69.4027 102.755C70.6322 104.845 76.9025 115.787 80.468 121.811L104.812 107.427C99.6478 100.419 66.5749 48.4118 51.8213 26.1583H50.5918C38.6659 44.9693 4.60947 102.632 0.921051 108.902L24.2811 121.934ZM40.2642 86.6484C43.4608 79.7634 47.764 70.6653 50.7147 64.7638C52.9278 69.8046 57.5998 78.5339 61.0423 85.5419L40.2642 86.6484ZM116.089 79.2716C116.089 81.3617 116.089 112.836 115.597 118.615H128.015C166.375 118.615 181.866 106.689 181.866 94.64C181.866 84.5583 171.907 79.0257 163.178 78.4109V77.7962C175.104 73.9848 178.423 66.1162 178.423 62.3048C178.423 56.4034 175.227 47.797 151.99 44.9693C142.031 43.7398 132.564 43.7398 115.597 43.7398C115.843 45.9528 116.089 64.6408 116.089 67.7145V79.2716ZM140.679 85.9107C149.162 85.4189 155.432 88.3697 155.432 95.2547C155.432 101.156 147.441 105.336 140.679 105.336V85.9107ZM140.679 56.0345C144.736 55.6657 152.604 56.5263 152.604 63.4114C152.604 71.8947 144.982 74.7225 140.679 74.7225V56.0345ZM234.852 119.721C272.474 119.721 283.54 94.64 283.54 78.9027C283.54 55.9116 267.065 42.1415 240.262 42.1415C207.189 42.1415 191.575 63.7802 191.575 83.9436C191.575 100.664 204.853 119.721 234.852 119.721ZM236.082 102.755C227.476 102.755 220.222 96.1154 220.222 82.3453C220.222 69.8046 226.738 59.1082 238.787 59.1082C248.991 59.1082 254.893 66.3621 254.893 79.6404C254.893 95.0088 247.516 102.755 236.082 102.755ZM323.03 62.5507C323.03 52.9608 323.276 47.0594 323.644 44.3545H296.104C296.104 46.6905 295.981 55.4198 295.981 60.2147V65.8703C295.981 91.1975 298.071 98.9432 303.481 106.566C311.841 118.369 326.103 119.721 335.201 119.721C347.619 119.721 359.053 115.664 365.815 107.918C374.176 98.3284 375.528 86.1566 375.528 66.1162V61.1983C375.528 52.9608 375.405 45.0922 375.405 42.7562H348.357C348.48 46.5676 348.972 53.8215 348.972 61.0754V65.0097C348.972 88.7385 348.849 92.6728 345.775 96.976C343.685 99.9267 340.611 101.525 336.677 101.525C333.234 101.525 330.407 100.541 328.071 98.0825C323.767 93.4105 323.03 86.2796 323.03 69.5587V62.5507ZM433.985 118C433.739 115.91 433.616 101.525 433.616 90.7057V62.6737C434.723 62.6737 455.378 63.1655 457.468 63.2884V43.9857C452.058 44.4775 427.592 44.8463 425.502 44.8463H415.789C414.559 44.8463 388.003 44.4775 382.962 43.9857V63.2884C386.404 63.1655 402.387 62.6737 406.936 62.6737V89.1074C406.936 100.419 406.814 115.295 406.691 118H433.985ZM555.652 52.7149C555.652 41.5267 555.898 34.5187 556.39 31.3221H527.743C527.743 34.1499 527.62 44.3545 527.62 50.0101V56.6493C527.62 86.5255 529.71 95.6236 535.734 104.599C545.078 118.246 560.078 119.967 570.16 119.967C583.807 119.967 595.733 115.295 603.233 106.197C612.577 95.0088 613.929 80.5011 613.929 56.8952V51.2396C613.929 41.5267 613.806 32.1827 613.806 29.4779H585.651C585.774 34.0269 586.266 42.5103 586.266 50.9937V55.6657C586.266 83.5747 586.02 88.7385 582.7 93.7794C579.995 97.8366 576.061 99.5579 571.758 99.5579C567.947 99.5579 564.135 98.4514 561.307 95.1318C556.635 89.5992 555.652 80.7469 555.652 61.0754V52.7149ZM634.296 120.213C671.672 115.91 685.811 98.6973 685.811 85.1731C685.811 74.1078 675.237 68.5752 668.721 65.3785C660.73 61.4442 656.795 59.6 656.795 56.6493C656.795 51.6084 664.541 49.0265 679.909 49.0265L676.59 28.4943C645.484 31.1992 627.165 46.1987 627.165 59.9688C627.165 70.2964 636.14 76.4438 643.886 80.8699C653.845 86.5255 655.935 88.0008 655.935 90.4598C655.935 96.2383 642.902 99.5579 630.976 99.1891L634.296 120.213Z" fill="url(#paint1_linear_0_626)"/>
</g>
</g>
<path d="M85.8868 122.181C88.0737 117.509 91.6523 109.755 92.4475 108.364L122.368 106.674C123.362 108.364 128.432 117.211 131.315 122.082L150.997 110.451C146.822 104.785 120.082 62.7372 108.153 44.745H107.159C97.5171 59.9539 69.9821 106.574 67 111.644L85.8868 122.181ZM98.8094 93.6519C101.394 88.0853 104.873 80.7294 107.259 75.958C109.048 80.0335 112.825 87.0912 115.609 92.7573L98.8094 93.6519ZM160.115 87.6877C160.115 89.3775 160.115 114.825 159.717 119.497H169.757C200.771 119.497 213.296 109.855 213.296 100.113C213.296 91.962 205.244 87.4888 198.186 86.9918V86.4948C207.829 83.4133 210.513 77.0514 210.513 73.9699C210.513 69.1985 207.928 62.2402 189.141 59.9539C181.089 58.9598 173.435 58.9598 159.717 58.9598C159.916 60.7491 160.115 75.8586 160.115 78.3437V87.6877ZM179.995 93.0555C186.854 92.6579 191.924 95.0436 191.924 100.61C191.924 105.382 185.463 108.761 179.995 108.761V93.0555ZM179.995 68.9003C183.276 68.602 189.638 69.2979 189.638 74.8645C189.638 81.7234 183.475 84.0097 179.995 84.0097V68.9003ZM256.136 120.392C286.554 120.392 295.5 100.113 295.5 87.3894C295.5 68.8008 282.18 57.6676 260.51 57.6676C233.77 57.6676 221.146 75.1627 221.146 91.465C221.146 104.984 231.881 120.392 256.136 120.392ZM257.13 106.674C250.172 106.674 244.307 101.306 244.307 90.1728C244.307 80.0335 249.575 71.3854 259.317 71.3854C267.568 71.3854 272.339 77.2502 272.339 87.9859C272.339 100.411 266.375 106.674 257.13 106.674ZM327.428 74.1687C327.428 66.4151 327.627 61.6437 327.925 59.4568H305.659C305.659 61.3455 305.559 68.4032 305.559 72.28V76.8526C305.559 97.3299 307.249 103.592 311.623 109.755C318.383 119.298 329.913 120.392 337.269 120.392C347.309 120.392 356.554 117.111 362.021 110.849C368.78 103.095 369.874 93.2543 369.874 77.0514V73.0752C369.874 66.4151 369.775 60.0533 369.775 58.1646H347.906C348.005 61.2461 348.403 67.111 348.403 72.9758V76.1568C348.403 95.3418 348.303 98.5227 345.818 102.002C344.128 104.388 341.643 105.68 338.462 105.68C335.679 105.68 333.393 104.885 331.504 102.897C328.025 99.1191 327.428 93.3537 327.428 79.8347V74.1687ZM417.137 119C416.938 117.31 416.839 105.68 416.839 96.9323V74.2681C417.733 74.2681 434.433 74.6657 436.123 74.7651V59.1586C431.749 59.5562 411.968 59.8545 410.278 59.8545H402.425C401.431 59.8545 379.96 59.5562 375.884 59.1586V74.7651C378.667 74.6657 391.59 74.2681 395.268 74.2681V95.64C395.268 104.785 395.168 116.813 395.069 119H417.137ZM515.506 66.2163C515.506 57.1705 515.705 51.5045 516.102 48.92H492.941C492.941 51.2063 492.842 59.4568 492.842 64.0294V69.3973C492.842 93.5525 494.531 100.908 499.402 108.165C506.957 119.199 519.084 120.59 527.236 120.59C538.269 120.59 547.912 116.813 553.975 109.457C561.53 100.411 562.623 88.6817 562.623 69.5961V65.0235C562.623 57.1705 562.524 49.6158 562.524 47.4289H539.76C539.86 51.1069 540.257 57.9658 540.257 64.8247V68.602C540.257 91.1668 540.059 95.3418 537.375 99.4174C535.188 102.698 532.007 104.089 528.528 104.089C525.446 104.089 522.365 103.195 520.078 100.511C516.301 96.0376 515.506 88.8805 515.506 72.9758V66.2163ZM579.09 120.789C609.309 117.31 620.741 103.394 620.741 92.4591C620.741 83.5127 612.192 79.0395 606.924 76.455C600.462 73.274 597.281 71.783 597.281 69.3973C597.281 65.3217 603.544 63.2342 615.969 63.2342L613.285 46.6337C588.136 48.8206 573.325 60.9479 573.325 72.0812C573.325 80.4311 580.581 85.4014 586.844 88.9799C594.896 93.5525 596.586 94.7454 596.586 96.7334C596.586 101.405 586.049 104.089 576.406 103.791L579.09 120.789Z" fill="url(#paint2_linear_0_626)"/>
<g filter="url(#filter1_i_0_626)">
<path d="M85.8868 117.181C88.0737 112.509 91.6523 104.755 92.4475 103.364L122.368 101.674C123.362 103.364 128.432 112.211 131.315 117.082L150.997 105.451C146.822 99.7852 120.082 57.7372 108.153 39.745H107.159C97.5171 54.9539 69.9821 101.574 67 106.644L85.8868 117.181ZM98.8094 88.6519C101.394 83.0853 104.873 75.7294 107.259 70.958C109.048 75.0335 112.825 82.0912 115.609 87.7573L98.8094 88.6519ZM160.115 82.6877C160.115 84.3775 160.115 109.825 159.717 114.497H169.757C200.771 114.497 213.296 104.855 213.296 95.1132C213.296 86.962 205.244 82.4888 198.186 81.9918V81.4948C207.829 78.4133 210.513 72.0514 210.513 68.9699C210.513 64.1985 207.928 57.2402 189.141 54.9539C181.089 53.9598 173.435 53.9598 159.717 53.9598C159.916 55.7491 160.115 70.8586 160.115 73.3437V82.6877ZM179.995 88.0555C186.854 87.6579 191.924 90.0436 191.924 95.6102C191.924 100.382 185.463 103.761 179.995 103.761V88.0555ZM179.995 63.9003C183.276 63.602 189.638 64.2979 189.638 69.8645C189.638 76.7234 183.475 79.0097 179.995 79.0097V63.9003ZM256.136 115.392C286.554 115.392 295.5 95.1132 295.5 82.3894C295.5 63.8008 282.18 52.6676 260.51 52.6676C233.77 52.6676 221.146 70.1627 221.146 86.465C221.146 99.984 231.881 115.392 256.136 115.392ZM257.13 101.674C250.172 101.674 244.307 96.306 244.307 85.1728C244.307 75.0335 249.575 66.3854 259.317 66.3854C267.568 66.3854 272.339 72.2502 272.339 82.9859C272.339 95.4114 266.375 101.674 257.13 101.674ZM327.428 69.1687C327.428 61.4151 327.627 56.6437 327.925 54.4568H305.659C305.659 56.3455 305.559 63.4032 305.559 67.28V71.8526C305.559 92.3299 307.249 98.5923 311.623 104.755C318.383 114.298 329.913 115.392 337.269 115.392C347.309 115.392 356.554 112.111 362.021 105.849C368.78 98.0953 369.874 88.2543 369.874 72.0514V68.0752C369.874 61.4151 369.775 55.0533 369.775 53.1646H347.906C348.005 56.2461 348.403 62.111 348.403 67.9758V71.1568C348.403 90.3418 348.303 93.5227 345.818 97.0019C344.128 99.3876 341.643 100.68 338.462 100.68C335.679 100.68 333.393 99.8846 331.504 97.8965C328.025 94.1191 327.428 88.3537 327.428 74.8347V69.1687ZM417.137 114C416.938 112.31 416.839 100.68 416.839 91.9323V69.2681C417.733 69.2681 434.433 69.6657 436.123 69.7651V54.1586C431.749 54.5562 411.968 54.8545 410.278 54.8545H402.425C401.431 54.8545 379.96 54.5562 375.884 54.1586V69.7651C378.667 69.6657 391.59 69.2681 395.268 69.2681V90.64C395.268 99.7852 395.168 111.813 395.069 114H417.137ZM515.506 61.2163C515.506 52.1705 515.705 46.5045 516.102 43.92H492.941C492.941 46.2063 492.842 54.4568 492.842 59.0294V64.3973C492.842 88.5525 494.531 95.9084 499.402 103.165C506.957 114.199 519.084 115.59 527.236 115.59C538.269 115.59 547.912 111.813 553.975 104.457C561.53 95.4114 562.623 83.6817 562.623 64.5961V60.0235C562.623 52.1705 562.524 44.6158 562.524 42.4289H539.76C539.86 46.1069 540.257 52.9658 540.257 59.8247V63.602C540.257 86.1668 540.059 90.3418 537.375 94.4174C535.188 97.6977 532.007 99.0894 528.528 99.0894C525.446 99.0894 522.365 98.1947 520.078 95.5108C516.301 91.0376 515.506 83.8805 515.506 67.9758V61.2163ZM579.09 115.789C609.309 112.31 620.741 98.3935 620.741 87.4591C620.741 78.5127 612.192 74.0395 606.924 71.455C600.462 68.274 597.281 66.783 597.281 64.3973C597.281 60.3217 603.544 58.2342 615.969 58.2342L613.285 41.6337C588.136 43.8206 573.325 55.9479 573.325 67.0812C573.325 75.4311 580.581 80.4014 586.844 83.9799C594.896 88.5525 596.586 89.7454 596.586 91.7334C596.586 96.4054 586.049 99.0894 576.406 98.7911L579.09 115.789Z" fill="url(#paint3_linear_0_626)"/>
</g>
<defs>
<filter id="filter0_i_0_626" x="0.921051" y="26.1583" width="684.89" height="95.776" filterUnits="userSpaceOnUse" color-interpolation-filters="sRGB">
<feFlood flood-opacity="0" result="BackgroundImageFix"/>
<feBlend mode="normal" in="SourceGraphic" in2="BackgroundImageFix" result="shape"/>
<feColorMatrix in="SourceAlpha" type="matrix" values="0 0 0 0 0 0 0 0 0 0 0 0 0 0 0 0 0 0 127 0" result="hardAlpha"/>
<feOffset dy="-2.47368"/>
<feComposite in2="hardAlpha" operator="arithmetic" k2="-1" k3="1"/>
<feColorMatrix type="matrix" values="0 0 0 0 1 0 0 0 0 1 0 0 0 0 1 0 0 0 1 0"/>
<feBlend mode="normal" in2="shape" result="effect1_innerShadow_0_626"/>
</filter>
<filter id="filter1_i_0_626" x="67" y="39.745" width="553.741" height="77.4359" filterUnits="userSpaceOnUse" color-interpolation-filters="sRGB">
<feFlood flood-opacity="0" result="BackgroundImageFix"/>
<feBlend mode="normal" in="SourceGraphic" in2="BackgroundImageFix" result="shape"/>
<feColorMatrix in="SourceAlpha" type="matrix" values="0 0 0 0 0 0 0 0 0 0 0 0 0 0 0 0 0 0 127 0" result="hardAlpha"/>
<feOffset dy="-2"/>
<feComposite in2="hardAlpha" operator="arithmetic" k2="-1" k3="1"/>
<feColorMatrix type="matrix" values="0 0 0 0 1 0 0 0 0 1 0 0 0 0 1 0 0 0 1 0"/>
<feBlend mode="normal" in2="shape" result="effect1_innerShadow_0_626"/>
</filter>
<linearGradient id="paint0_linear_0_626" x1="13.5069" y1="6.18409" x2="722.324" y2="100.677" gradientUnits="userSpaceOnUse">
<stop stop-color="#0076CB"/>
<stop offset="1" stop-color="#005EA2"/>
</linearGradient>
<linearGradient id="paint1_linear_0_626" x1="13.5069" y1="-0.000113842" x2="722.324" y2="94.4928" gradientUnits="userSpaceOnUse">
<stop stop-color="#0094FF"/>
<stop offset="1" stop-color="#0079D1"/>
</linearGradient>
<linearGradient id="paint2_linear_0_626" x1="77.1781" y1="22.9999" x2="650.48" y2="99.1017" gradientUnits="userSpaceOnUse">
<stop stop-color="#0076CB"/>
<stop offset="1" stop-color="#005EA2"/>
</linearGradient>
<linearGradient id="paint3_linear_0_626" x1="77.1781" y1="17.9999" x2="650.48" y2="94.1017" gradientUnits="userSpaceOnUse">
<stop stop-color="#0094FF"/>
<stop offset="1" stop-color="#0079D1"/>
</linearGradient>
</defs>
</svg>
