<svg width="93" height="89" viewBox="0 0 93 89" fill="none" xmlns="http://www.w3.org/2000/svg">
<path d="M88.5366 47.8484C90.5192 26.0437 75.1711 6.84579 54.2749 4.94578C53.2977 4.85693 43.1527 4.09004 43.1527 4.09004L43.0109 5.64997C27.064 9.195 14.4362 23.1874 12.8199 40.9638C11.2036 58.7401 21.2984 75.0752 36.5813 81.3043L36.4442 82.8128C36.4442 82.8128 48.6275 83.9724 49.3864 83.9896L49.4379 83.9942C69.3695 84.5275 86.6303 68.8132 88.5366 47.8484Z" fill="#F1B81A"/>
<path d="M45.5528 84.3323C41.833 83.994 36.7262 83.5124 36.4005 83.4828C36.0405 83.4501 35.7585 83.1306 35.7928 82.7535L35.8863 81.7249C28.4638 78.5785 22.0434 72.9651 17.7814 65.8541C13.2949 58.3598 11.3487 49.7311 12.1529 40.8858C12.9572 32.0404 16.3624 24.0538 22.0381 17.5181C27.4052 11.3346 34.6159 6.92605 42.3876 5.09197L42.4826 4.0463C42.5154 3.68632 42.8348 3.40426 43.1948 3.43699C43.6062 3.4744 53.357 4.20544 54.3341 4.29429C75.5731 6.22547 91.2329 25.7974 89.2207 47.9278C87.2084 70.0583 69.8619 85.1945 49.5127 84.6923C49.4784 84.6892 49.4441 84.6861 49.3927 84.6814L49.3584 84.6783C49.0327 84.6487 47.4883 84.5255 45.5684 84.351L45.5528 84.3323ZM37.1906 82.2065C40.9448 82.5479 48.8441 83.3007 49.4129 83.3178C49.4129 83.3178 49.4301 83.3194 49.4472 83.321C49.4472 83.321 49.4644 83.3225 49.4815 83.3241C69.1544 83.8511 86.0257 68.2396 87.8851 47.7891C89.7446 27.3386 74.716 7.47839 54.2141 5.61423C53.3912 5.53941 46.0264 4.99074 43.7605 4.81928L43.6779 5.72781C43.6514 6.01923 43.4394 6.25921 43.1574 6.31998C35.4839 8.02472 28.3527 12.3195 23.0448 18.422C17.5623 24.7333 14.2584 32.5563 13.4884 41.0245C12.7185 49.4927 14.5946 57.9422 18.9314 65.1809C23.1343 72.1828 29.4955 77.6871 36.8447 80.6886C37.1112 80.7993 37.2764 81.0736 37.267 81.3665L37.1891 82.2236L37.1906 82.2065Z" fill="#C0892A"/>
<g style="mix-blend-mode:multiply">
<path d="M31.3401 10.4478C30.6248 10.9013 29.9079 11.3719 29.2238 11.8628L77.6673 16.2676C77.0829 15.6613 76.4643 15.052 75.8409 14.4941L31.3401 10.4478Z" fill="#BD8034"/>
<path d="M24.1044 16.2713L81.8904 21.5256C81.4946 20.9365 81.0801 20.363 80.664 19.8067L25.6207 14.8018C25.094 15.2724 24.5984 15.7805 24.1044 16.2713Z" fill="#BD8034"/>
<path d="M17.4313 25.4127L86.8054 31.7206C86.6324 31.1518 86.4408 30.5986 86.2304 30.0609L18.2963 23.8839C17.9908 24.392 17.7025 24.9016 17.4313 25.4127Z" fill="#BD8034"/>
<path d="M12.9601 39.6111L88.6424 46.4926C88.6736 45.9596 88.6877 45.4251 88.7017 44.8906L13.1908 38.0246C13.1081 38.5529 13.0255 39.0812 12.9601 39.6111Z" fill="#BD8034"/>
<path d="M67.8123 8.89012L40.2478 6.38378C39.0385 6.75777 37.8416 7.18475 36.6915 7.66782L71.0957 10.7961C70.0345 10.1119 68.953 9.4605 67.8294 8.89168L67.8123 8.89012Z" fill="#BD8034"/>
<path d="M20.305 20.7999L84.8107 26.6652C84.5349 26.087 84.2575 25.526 83.9614 24.9805L21.4442 19.2961C21.053 19.7963 20.6619 20.2966 20.305 20.7999Z" fill="#BD8034"/>
<path d="M15.3134 30.0769L88.0473 36.6903C87.9413 36.1449 87.8369 35.5823 87.7122 35.0524L15.9383 28.5263C15.7186 29.0421 15.516 29.5595 15.3134 30.0769Z" fill="#BD8034"/>
<path d="M12.9054 49.3368L86.9421 56.0687C87.0933 55.5466 87.2444 55.0245 87.3785 54.5009L12.7589 47.7161C12.7963 48.2553 12.8493 48.8132 12.9054 49.3368Z" fill="#BD8034"/>
<path d="M12.6406 44.4559L88.0658 51.314C88.1655 50.7873 88.2482 50.259 88.3136 49.7291L12.6827 42.8523C12.6515 43.3853 12.6375 43.9198 12.6406 44.4559Z" fill="#BD8034"/>
<path d="M13.7858 54.2909L85.1998 60.7843C85.4195 60.2685 85.6393 59.7526 85.8419 59.2353L13.4165 52.6499C13.5225 53.1953 13.644 53.7595 13.7858 54.2909Z" fill="#BD8034"/>
<path d="M17.7065 64.3955L79.5038 70.0145C79.9121 69.5158 80.3032 69.0156 80.6772 68.5138L16.8229 62.7078C17.0988 63.2859 17.4104 63.8501 17.7065 64.3955Z" fill="#BD8034"/>
<path d="M26.2057 74.899L69.2495 78.8128C69.9991 78.3625 70.7331 77.8934 71.4686 77.4072L24.2764 73.1162C24.8951 73.7255 25.5309 74.3364 26.1885 74.8975L26.2057 74.899Z" fill="#BD8034"/>
<path d="M13.8453 34.8175L88.6363 41.6179C88.5989 41.0787 88.5631 40.5224 88.507 39.9988L14.2646 33.2482C14.1134 33.7703 13.9794 34.2939 13.8453 34.8175Z" fill="#BD8034"/>
<path d="M15.3346 59.3057L82.7545 65.436C83.0599 64.9279 83.3654 64.4199 83.6366 63.9088L14.7253 57.6429C14.9155 58.2133 15.1071 58.7665 15.3175 59.3042L15.3346 59.3057Z" fill="#BD8034"/>
<path d="M21.1426 69.5646L75.1916 74.4791C75.7355 74.0101 76.2482 73.5036 76.7594 73.0143L19.8647 67.8411C20.2777 68.4317 20.7094 69.0067 21.1426 69.5646Z" fill="#BD8034"/>
<path d="M34.9028 80.5639L59.6903 82.8177C61.018 82.4718 62.3349 82.0557 63.6065 81.5664L31.2936 78.6283C32.4562 79.3389 33.6764 79.9857 34.9199 80.5654L34.9028 80.5639Z" fill="#BD8034"/>
</g>
<path d="M38.5962 83.0948C59.5096 84.9964 78.0696 68.8706 80.0512 47.0768C82.0328 25.283 66.6857 6.07415 45.7723 4.17259C24.859 2.27102 6.29903 18.3968 4.31741 40.1906C2.33578 61.9844 17.6829 81.1932 38.5962 83.0948Z" fill="#F1B81A"/>
<path d="M38.537 83.746C17.2808 81.8133 1.63815 62.2429 3.64883 40.1296C5.65951 18.0163 24.5769 1.57114 45.8331 3.50388C67.0893 5.43663 82.7319 25.007 80.7197 47.1374C78.7075 69.2679 59.7916 85.6959 38.5354 83.7632L38.537 83.746ZM45.7115 4.84096C25.1924 2.97524 6.93113 18.8579 4.98591 40.2512C3.0407 61.6446 18.1379 80.5604 38.657 82.4261C59.1761 84.2918 77.4374 68.4092 79.3826 47.0158C81.3278 25.6225 66.2135 6.70513 45.7115 4.84096Z" fill="#C0892A"/>
<g style="mix-blend-mode:screen" opacity="0.71">
<path d="M56.3645 8.76524L6.46468 45.6573C6.59711 48.0027 6.94147 50.2982 7.48219 52.5251L62.2364 12.0473C60.3991 10.774 58.4433 9.6629 56.3645 8.76524Z" fill="#FFF8A3"/>
<path d="M74.5036 26.7306L16.6903 69.4883C20.8854 73.9142 26.1822 77.2476 32.1741 79.0196L77.9613 45.1584C78.351 38.5914 77.0748 32.2878 74.502 26.7477L74.5036 26.7306Z" fill="#FFF8A3"/>
</g>
<g style="mix-blend-mode:multiply">
<path d="M45.5463 6.65821C26.2443 4.90315 9.07073 19.8477 7.24086 39.9725C5.41098 60.0973 19.6246 77.8957 38.9095 79.6492C58.1943 81.4027 75.385 66.4598 77.2149 46.335C79.0448 26.2101 64.8311 8.41171 45.5463 6.65821ZM38.7895 80.9692C18.7675 79.1487 4.00844 60.6957 5.90377 39.8509C7.79911 19.0061 25.6287 3.49904 45.6679 5.32112C65.707 7.1432 80.4489 25.5946 78.5535 46.4394C76.6582 67.2842 58.813 82.7726 38.791 80.952L38.7895 80.9692Z" fill="#C0892A"/>
</g>
</svg>
