<svg width="48" height="48" viewBox="0 0 48 48" fill="none" xmlns="http://www.w3.org/2000/svg">
<path d="M42.255 12.9525C42.1991 12.8411 42.1284 12.7376 42.045 12.645L31.5975 2.205C31.3829 1.99986 31.0993 1.88219 30.8025 1.875H15.69C14.7119 1.87698 13.7746 2.26639 13.083 2.95796C12.3914 3.64955 12.0019 4.58696 12 5.565V7.965H9.315C8.33693 7.96695 7.39954 8.35635 6.70796 9.048C6.01639 9.73958 5.62698 10.6769 5.625 11.655V42.405C5.62698 43.3831 6.01639 44.3204 6.70796 45.012C7.39954 45.7037 8.33693 46.0931 9.315 46.095H32.31C33.2829 46.0931 34.2158 45.7078 34.9065 45.0227C35.5972 44.3376 35.9901 43.4078 36 42.435V40.035H38.685C39.6631 40.0331 40.6004 39.6437 41.292 38.952C41.9837 38.2604 42.3731 37.3231 42.375 36.345V13.4475C42.3745 13.2754 42.3334 13.1058 42.255 12.9525ZM31.9275 5.715L38.535 12.315H31.9275V5.715ZM33.75 42.465C33.75 42.8469 33.5983 43.2132 33.3282 43.4832C33.0582 43.7533 32.6919 43.905 32.31 43.905H9.315C8.9331 43.905 8.5668 43.7533 8.2968 43.4832C8.02672 43.2132 7.875 42.8469 7.875 42.465V11.715C7.875 11.3331 8.02672 10.9668 8.2968 10.6968C8.5668 10.4267 8.9331 10.275 9.315 10.275H12V36.345C12.0019 37.3231 12.3914 38.2604 13.083 38.952C13.7746 39.6437 14.7119 40.0331 15.69 40.035H33.75V42.465ZM38.685 37.815H15.69C15.4984 37.8151 15.3086 37.7768 15.1319 37.7026C14.9552 37.6283 14.7951 37.5196 14.661 37.3827C14.5269 37.2458 14.4215 37.0835 14.3509 36.9053C14.2803 36.7271 14.246 36.5366 14.25 36.345V5.595C14.246 5.40339 14.2803 5.21291 14.3509 5.03472C14.4215 4.85653 14.5269 4.69423 14.661 4.55732C14.7951 4.42041 14.9552 4.31165 15.1319 4.23741C15.3086 4.16318 15.4984 4.12496 15.69 4.125H29.6775V13.44C29.6775 13.7384 29.796 14.0246 30.007 14.2355C30.218 14.4465 30.5042 14.565 30.8025 14.565H40.125V36.315C40.129 36.5066 40.0947 36.6971 40.0241 36.8753C39.9536 37.0535 39.8481 37.2158 39.714 37.3527C39.5799 37.4896 39.4198 37.5983 39.2431 37.6726C39.0664 37.7468 38.8766 37.7851 38.685 37.785V37.815Z" fill="#00B2FF"/>
</svg>
