<svg width="739" height="190" viewBox="0 0 739 190" fill="none" xmlns="http://www.w3.org/2000/svg">
<g opacity="0.1">
<path d="M72.7077 105.174C69.7643 105.419 65.8398 105.787 60.9341 105.787C44.6228 105.787 34.3209 98.0609 34.3209 88.6175C34.3209 77.0891 44.7454 65.8061 70.6228 61.1457L65.2266 37.5985C22.9152 46.674 4.39634 71.325 4.39634 91.6835C4.39634 108.117 19.236 128.599 59.4624 128.599C65.2266 128.599 69.6417 128.108 73.9341 127.617L72.7077 105.174ZM130.198 128.599C171.283 128.721 183.67 99.2873 183.67 80.7684C183.67 53.7872 165.396 37.5985 136.207 37.5985C100.028 37.5985 82.8582 62.9853 82.8582 86.6552C82.8582 106.278 97.4526 128.599 130.198 128.599ZM131.547 109.589C121.49 109.589 112.783 101.25 112.783 84.8156C112.783 69.8533 120.632 56.608 134.613 56.608C146.387 56.608 153.745 65.8061 153.622 81.6269C153.5 99.9005 144.792 109.589 131.547 109.589ZM222.113 127.495C221.99 123.448 221.868 88.0042 221.868 82.9759C223.707 84.4476 267.981 119.523 282.698 129.089L283.924 128.476C284.292 120.504 285.151 103.089 286.132 85.3061C287.236 67.4005 288.339 49.1268 289.075 39.5608L264.056 38.9476C263.934 44.2212 264.302 77.0891 264.302 83.8344C260.009 80.6457 220.641 50.8438 203.226 38.0891L202 38.825C200.773 55.1363 197.83 117.929 197.094 126.636L222.113 127.495ZM352.424 126.636C352.178 124.184 352.056 107.259 352.056 94.6269V60.5325C354.018 60.5325 376.707 61.1457 379.037 61.2684V39.8061C373.027 40.2966 346.291 40.7872 343.961 40.7872H333.291C331.942 40.7872 302.876 40.2966 297.357 39.8061V61.2684C301.159 61.1457 318.574 60.5325 324.461 60.5325V92.6646C324.461 106.033 324.339 123.448 324.093 126.636H352.424ZM418.669 56.4853C431.914 56.608 435.962 62.1269 435.962 67.891C435.962 76.108 427.254 82.8533 421.858 86.042C425.169 91.4382 448.962 125.901 451.782 130.561L474.226 113.636C471.037 109.712 452.273 90.7024 448.594 86.5325C458.16 79.7873 464.415 72.0608 464.415 62.0042C464.415 50.7212 454.603 43.608 436.452 41.2778C425.414 39.8061 408.367 39.5608 391.565 39.5608C391.933 41.891 392.179 68.5042 392.179 72.1835V82.2401C392.179 84.8156 392.424 123.693 391.933 126.636H419.282C419.037 124.797 418.669 93.7684 418.669 89.108V56.4853ZM497.085 130.561C499.783 124.797 504.198 115.231 505.179 113.514L542.095 111.429C543.321 113.514 549.576 124.429 553.132 130.438L577.415 116.089C572.264 109.099 539.274 57.2212 524.557 35.0231H523.33C511.434 53.7872 477.462 111.306 473.783 117.561L497.085 130.561ZM513.028 95.3627C516.217 88.4948 520.51 79.4193 523.453 73.5325C525.661 78.5608 530.321 87.2684 533.755 94.259L513.028 95.3627ZM649.986 105.174C647.042 105.419 643.118 105.787 638.212 105.787C621.901 105.787 611.599 98.0609 611.599 88.6175C611.599 77.0891 622.023 65.8061 647.901 61.1457L642.505 37.5985C600.193 46.674 581.674 71.325 581.674 91.6835C581.674 108.117 596.514 128.599 636.74 128.599C642.505 128.599 646.92 128.108 651.212 127.617L649.986 105.174ZM711.126 126.636C710.881 124.184 710.758 107.259 710.758 94.6269V60.5325C712.721 60.5325 735.409 61.1457 737.74 61.2684V39.8061C731.73 40.2966 704.994 40.7872 702.664 40.7872H691.994C690.645 40.7872 661.579 40.2966 656.06 39.8061V61.2684C659.862 61.1457 677.277 60.5325 683.164 60.5325V92.6646C683.164 106.033 683.041 123.448 682.796 126.636H711.126Z" fill="url(#paint0_linear_28_5)"/>
<g filter="url(#filter0_i_28_5)">
<path d="M72.7077 96.5377C69.7643 96.783 65.8398 97.1509 60.9341 97.1509C44.6228 97.1509 34.3209 89.4245 34.3209 79.9811C34.3209 68.4528 44.7454 57.1698 70.6228 52.5094L65.2266 28.9622C22.9152 38.0377 4.39634 62.6886 4.39634 83.0471C4.39634 99.4811 19.236 119.962 59.4624 119.962C65.2266 119.962 69.6417 119.472 73.9341 118.981L72.7077 96.5377ZM130.198 119.962C171.283 120.085 183.67 90.6509 183.67 72.132C183.67 45.1509 165.396 28.9622 136.207 28.9622C100.028 28.9622 82.8582 54.349 82.8582 78.0188C82.8582 97.6415 97.4526 119.962 130.198 119.962ZM131.547 100.953C121.49 100.953 112.783 92.6132 112.783 76.1792C112.783 61.2169 120.632 47.9716 134.613 47.9716C146.387 47.9716 153.745 57.1698 153.622 72.9905C153.5 91.2641 144.792 100.953 131.547 100.953ZM222.113 118.858C221.99 114.811 221.868 79.3679 221.868 74.3396C223.707 75.8113 267.981 110.887 282.698 120.453L283.924 119.84C284.292 111.868 285.151 94.4528 286.132 76.6698C287.236 58.7641 288.339 40.4905 289.075 30.9244L264.056 30.3112C263.934 35.5848 264.302 68.4528 264.302 75.1981C260.009 72.0094 220.641 42.2075 203.226 29.4527L202 30.1886C200.773 46.4999 197.83 109.292 197.094 118L222.113 118.858ZM352.424 118C352.178 115.547 352.056 98.6226 352.056 85.9905V51.8962C354.018 51.8962 376.707 52.5094 379.037 52.632V31.1697C373.027 31.6603 346.291 32.1509 343.961 32.1509H333.291C331.942 32.1509 302.876 31.6603 297.357 31.1697V52.632C301.159 52.5094 318.574 51.8962 324.461 51.8962V84.0283C324.461 97.3962 324.339 114.811 324.093 118H352.424ZM418.669 47.849C431.914 47.9716 435.962 53.4905 435.962 59.2547C435.962 67.4717 427.254 74.2169 421.858 77.4056C425.169 82.8019 448.962 117.264 451.782 121.925L474.226 105C471.037 101.075 452.273 82.066 448.594 77.8962C458.16 71.1509 464.415 63.4245 464.415 53.3679C464.415 42.0848 454.603 34.9716 436.452 32.6414C425.414 31.1697 408.367 30.9244 391.565 30.9244C391.933 33.2546 392.179 59.8679 392.179 63.5471V73.6037C392.179 76.1792 392.424 115.057 391.933 118H419.282C419.037 116.16 418.669 85.132 418.669 80.4717V47.849ZM497.085 121.925C499.783 116.16 504.198 106.594 505.179 104.877L542.095 102.792C543.321 104.877 549.576 115.792 553.132 121.802L577.415 107.453C572.264 100.462 539.274 48.5848 524.557 26.3867H523.33C511.434 45.1509 477.462 102.67 473.783 108.925L497.085 121.925ZM513.028 86.7264C516.217 79.8585 520.51 70.783 523.453 64.8962C525.661 69.9245 530.321 78.632 533.755 85.6226L513.028 86.7264ZM649.986 96.5377C647.042 96.783 643.118 97.1509 638.212 97.1509C621.901 97.1509 611.599 89.4245 611.599 79.9811C611.599 68.4528 622.023 57.1698 647.901 52.5094L642.505 28.9622C600.193 38.0377 581.674 62.6886 581.674 83.0471C581.674 99.4811 596.514 119.962 636.74 119.962C642.505 119.962 646.92 119.472 651.212 118.981L649.986 96.5377ZM711.126 118C710.881 115.547 710.758 98.6226 710.758 85.9905V51.8962C712.721 51.8962 735.409 52.5094 737.74 52.632V31.1697C731.73 31.6603 704.994 32.1509 702.664 32.1509H691.994C690.645 32.1509 661.579 31.6603 656.06 31.1697V52.632C659.862 52.5094 677.277 51.8962 683.164 51.8962V84.0283C683.164 97.3962 683.041 114.811 682.796 118H711.126Z" fill="url(#paint1_linear_28_5)"/>
</g>
</g>
<path d="M128.847 103.604C126.462 103.803 123.281 104.101 119.305 104.101C106.084 104.101 97.7338 97.8388 97.7338 90.1847C97.7338 80.8407 106.183 71.6955 127.157 67.9181L122.784 48.8325C88.4892 56.1884 73.4791 76.1687 73.4791 92.6698C73.4791 105.99 85.5071 122.59 118.112 122.59C122.784 122.59 126.362 122.193 129.841 121.795L128.847 103.604ZM175.445 122.59C208.745 122.69 218.785 98.8328 218.785 83.8228C218.785 61.9539 203.974 48.8325 180.315 48.8325C150.991 48.8325 137.075 69.4092 137.075 88.5942C137.075 104.499 148.904 122.59 175.445 122.59ZM176.538 107.183C168.387 107.183 161.329 100.423 161.329 87.1031C161.329 74.9758 167.691 64.2402 179.023 64.2402C188.566 64.2402 194.53 71.6955 194.431 84.5186C194.331 99.3299 187.274 107.183 176.538 107.183ZM249.944 121.696C249.845 118.415 249.745 89.6877 249.745 85.6121C251.236 86.8049 287.121 115.235 299.05 122.988L300.044 122.491C300.342 116.03 301.038 101.914 301.833 87.5008C302.728 72.9877 303.623 58.1765 304.219 50.423L283.94 49.926C283.841 54.2003 284.139 80.8407 284.139 86.3079C280.66 83.7234 248.751 59.5682 234.636 49.2301L233.642 49.8265C232.648 63.0473 230.262 113.942 229.666 121L249.944 121.696ZM355.564 121C355.366 119.012 355.266 105.294 355.266 95.0555V67.4211C356.857 67.4211 375.246 67.9181 377.135 68.0175V50.6218C372.264 51.0194 350.594 51.417 348.705 51.417H340.057C338.964 51.417 315.405 51.0194 310.932 50.6218V68.0175C314.013 67.9181 328.129 67.4211 332.9 67.4211V93.465C332.9 104.3 332.801 118.415 332.602 121H355.564ZM409.258 64.1408C419.994 64.2402 423.274 68.7134 423.274 73.3854C423.274 80.0454 416.217 85.5127 411.843 88.0972C414.527 92.471 433.811 120.404 436.097 124.181L454.288 110.463C451.704 107.282 436.495 91.8746 433.513 88.4948C441.266 83.0276 446.336 76.7651 446.336 68.614C446.336 59.4688 438.384 53.7033 423.672 51.8146C414.725 50.6218 400.908 50.423 387.29 50.423C387.588 52.3117 387.787 73.8824 387.787 76.8645V85.0157C387.787 87.1031 387.986 118.614 387.588 121H409.755C409.556 119.509 409.258 94.3597 409.258 90.5823V64.1408ZM472.816 124.181C475.003 119.509 478.582 111.755 479.377 110.364L509.298 108.674C510.292 110.364 515.361 119.211 518.244 124.082L537.926 112.451C533.751 106.785 507.011 64.7372 495.083 46.745H494.089C484.447 61.9539 456.912 108.574 453.93 113.644L472.816 124.181ZM485.739 95.6519C488.323 90.0853 491.803 82.7294 494.188 77.958C495.978 82.0335 499.755 89.0912 502.538 94.7573L485.739 95.6519ZM596.746 103.604C594.361 103.803 591.18 104.101 587.203 104.101C573.983 104.101 565.633 97.8388 565.633 90.1847C565.633 80.8407 574.082 71.6955 595.056 67.9181L590.683 48.8325C556.388 56.1884 541.378 76.1687 541.378 92.6698C541.378 105.99 553.406 122.59 586.011 122.59C590.683 122.59 594.261 122.193 597.74 121.795L596.746 103.604ZM646.302 121C646.104 119.012 646.004 105.294 646.004 95.0555V67.4211C647.595 67.4211 665.984 67.9181 667.873 68.0175V50.6218C663.002 51.0194 641.332 51.417 639.444 51.417H630.795C629.702 51.417 606.143 51.0194 601.67 50.6218V68.0175C604.751 67.9181 618.867 67.4211 623.638 67.4211V93.465C623.638 104.3 623.539 118.415 623.34 121H646.302Z" fill="url(#paint2_linear_28_5)"/>
<g filter="url(#filter1_i_28_5)">
<path d="M128.847 96.6043C126.462 96.8031 123.281 97.1013 119.305 97.1013C106.084 97.1013 97.7338 90.8388 97.7338 83.1847C97.7338 73.8407 106.183 64.6955 127.157 60.9181L122.784 41.8325C88.4892 49.1884 73.4791 69.1687 73.4791 85.6698C73.4791 98.99 85.5071 115.59 118.112 115.59C122.784 115.59 126.362 115.193 129.841 114.795L128.847 96.6043ZM175.445 115.59C208.745 115.69 218.785 91.8328 218.785 76.8228C218.785 54.9539 203.974 41.8325 180.315 41.8325C150.991 41.8325 137.075 62.4092 137.075 81.5942C137.075 97.4989 148.904 115.59 175.445 115.59ZM176.538 100.183C168.387 100.183 161.329 93.4233 161.329 80.1031C161.329 67.9758 167.691 57.2402 179.023 57.2402C188.566 57.2402 194.53 64.6955 194.431 77.5186C194.331 92.3299 187.274 100.183 176.538 100.183ZM249.944 114.696C249.845 111.415 249.745 82.6877 249.745 78.6121C251.236 79.8049 287.121 108.235 299.05 115.988L300.044 115.491C300.342 109.03 301.038 94.9144 301.833 80.5008C302.728 65.9877 303.623 51.1765 304.219 43.423L283.94 42.926C283.841 47.2003 284.139 73.8407 284.139 79.3079C280.66 76.7234 248.751 52.5682 234.636 42.2301L233.642 42.8265C232.648 56.0473 230.262 106.942 229.666 114L249.944 114.696ZM355.564 114C355.366 112.012 355.266 98.2941 355.266 88.0555V60.4211C356.857 60.4211 375.246 60.9181 377.135 61.0175V43.6218C372.264 44.0194 350.594 44.417 348.705 44.417H340.057C338.964 44.417 315.405 44.0194 310.932 43.6218V61.0175C314.013 60.9181 328.129 60.4211 332.9 60.4211V86.465C332.9 97.3001 332.801 111.415 332.602 114H355.564ZM409.258 57.1408C419.994 57.2402 423.274 61.7134 423.274 66.3854C423.274 73.0454 416.217 78.5127 411.843 81.0972C414.527 85.471 433.811 113.404 436.097 117.181L454.288 103.463C451.704 100.282 436.495 84.8746 433.513 81.4948C441.266 76.0276 446.336 69.7651 446.336 61.614C446.336 52.4688 438.384 46.7033 423.672 44.8146C414.725 43.6218 400.908 43.423 387.29 43.423C387.588 45.3117 387.787 66.8824 387.787 69.8645V78.0157C387.787 80.1031 387.986 111.614 387.588 114H409.755C409.556 112.509 409.258 87.3597 409.258 83.5823V57.1408ZM472.816 117.181C475.003 112.509 478.582 104.755 479.377 103.364L509.298 101.674C510.292 103.364 515.361 112.211 518.244 117.082L537.926 105.451C533.751 99.7852 507.011 57.7372 495.083 39.745H494.089C484.447 54.9539 456.912 101.574 453.93 106.644L472.816 117.181ZM485.739 88.6519C488.323 83.0853 491.803 75.7294 494.188 70.958C495.978 75.0335 499.755 82.0912 502.538 87.7573L485.739 88.6519ZM596.746 96.6043C594.361 96.8031 591.18 97.1013 587.203 97.1013C573.983 97.1013 565.633 90.8388 565.633 83.1847C565.633 73.8407 574.082 64.6955 595.056 60.9181L590.683 41.8325C556.388 49.1884 541.378 69.1687 541.378 85.6698C541.378 98.99 553.406 115.59 586.011 115.59C590.683 115.59 594.261 115.193 597.74 114.795L596.746 96.6043ZM646.302 114C646.104 112.012 646.004 98.2941 646.004 88.0555V60.4211C647.595 60.4211 665.984 60.9181 667.873 61.0175V43.6218C663.002 44.0194 641.332 44.417 639.444 44.417H630.795C629.702 44.417 606.143 44.0194 601.67 43.6218V61.0175C604.751 60.9181 618.867 60.4211 623.638 60.4211V86.465C623.638 97.3001 623.539 111.415 623.34 114H646.302Z" fill="url(#paint3_linear_28_5)"/>
</g>
<defs>
<filter id="filter0_i_28_5" x="4.39633" y="26.3867" width="733.343" height="95.5378" filterUnits="userSpaceOnUse" color-interpolation-filters="sRGB">
<feFlood flood-opacity="0" result="BackgroundImageFix"/>
<feBlend mode="normal" in="SourceGraphic" in2="BackgroundImageFix" result="shape"/>
<feColorMatrix in="SourceAlpha" type="matrix" values="0 0 0 0 0 0 0 0 0 0 0 0 0 0 0 0 0 0 127 0" result="hardAlpha"/>
<feOffset dy="-2.46753"/>
<feComposite in2="hardAlpha" operator="arithmetic" k2="-1" k3="1"/>
<feColorMatrix type="matrix" values="0 0 0 0 1 0 0 0 0 1 0 0 0 0 1 0 0 0 1 0"/>
<feBlend mode="normal" in2="shape" result="effect1_innerShadow_28_5"/>
</filter>
<filter id="filter1_i_28_5" x="73.4792" y="39.745" width="594.394" height="77.4359" filterUnits="userSpaceOnUse" color-interpolation-filters="sRGB">
<feFlood flood-opacity="0" result="BackgroundImageFix"/>
<feBlend mode="normal" in="SourceGraphic" in2="BackgroundImageFix" result="shape"/>
<feColorMatrix in="SourceAlpha" type="matrix" values="0 0 0 0 0 0 0 0 0 0 0 0 0 0 0 0 0 0 127 0" result="hardAlpha"/>
<feOffset dy="-2"/>
<feComposite in2="hardAlpha" operator="arithmetic" k2="-1" k3="1"/>
<feColorMatrix type="matrix" values="0 0 0 0 1 0 0 0 0 1 0 0 0 0 1 0 0 0 1 0"/>
<feBlend mode="normal" in2="shape" result="effect1_innerShadow_28_5"/>
</filter>
<linearGradient id="paint0_linear_28_5" x1="13.5653" y1="8.63624" x2="769.79" y2="116.462" gradientUnits="userSpaceOnUse">
<stop stop-color="#0076CB"/>
<stop offset="1" stop-color="#005EA2"/>
</linearGradient>
<linearGradient id="paint1_linear_28_5" x1="13.5653" y1="-0.000113842" x2="769.79" y2="107.826" gradientUnits="userSpaceOnUse">
<stop stop-color="#0094FF"/>
<stop offset="1" stop-color="#0079D1"/>
</linearGradient>
<linearGradient id="paint2_linear_28_5" x1="80.9077" y1="24.9999" x2="693.731" y2="112.179" gradientUnits="userSpaceOnUse">
<stop stop-color="#0076CB"/>
<stop offset="1" stop-color="#005EA2"/>
</linearGradient>
<linearGradient id="paint3_linear_28_5" x1="80.9077" y1="17.9999" x2="693.731" y2="105.179" gradientUnits="userSpaceOnUse">
<stop stop-color="#0094FF"/>
<stop offset="1" stop-color="#0079D1"/>
</linearGradient>
</defs>
</svg>
